%TF.GenerationSoftware,KiCad,Pcbnew,(6.0.11)*%
%TF.CreationDate,2023-03-04T16:54:30-07:00*%
%TF.ProjectId,gameblaster,67616d65-626c-4617-9374-65722e6b6963,1*%
%TF.SameCoordinates,Original*%
%TF.FileFunction,Legend,Top*%
%TF.FilePolarity,Positive*%
%FSLAX46Y46*%
G04 Gerber Fmt 4.6, Leading zero omitted, Abs format (unit mm)*
G04 Created by KiCad (PCBNEW (6.0.11)) date 2023-03-04 16:54:30*
%MOMM*%
%LPD*%
G01*
G04 APERTURE LIST*
%ADD10C,0.254000*%
%ADD11C,0.150000*%
%ADD12C,0.127000*%
%ADD13C,0.200000*%
%ADD14C,0.120000*%
G04 APERTURE END LIST*
D10*
X102516214Y-122246571D02*
X102425500Y-122155857D01*
X102334785Y-121974428D01*
X102334785Y-121520857D01*
X102425500Y-121339428D01*
X102516214Y-121248714D01*
X102697642Y-121158000D01*
X102879071Y-121158000D01*
X103151214Y-121248714D01*
X104239785Y-122337285D01*
X104239785Y-121158000D01*
X102334785Y-120523000D02*
X102334785Y-119343714D01*
X103060500Y-119978714D01*
X103060500Y-119706571D01*
X103151214Y-119525142D01*
X103241928Y-119434428D01*
X103423357Y-119343714D01*
X103876928Y-119343714D01*
X104058357Y-119434428D01*
X104149071Y-119525142D01*
X104239785Y-119706571D01*
X104239785Y-120250857D01*
X104149071Y-120432285D01*
X104058357Y-120523000D01*
X102334785Y-118164428D02*
X102334785Y-117983000D01*
X102425500Y-117801571D01*
X102516214Y-117710857D01*
X102697642Y-117620142D01*
X103060500Y-117529428D01*
X103514071Y-117529428D01*
X103876928Y-117620142D01*
X104058357Y-117710857D01*
X104149071Y-117801571D01*
X104239785Y-117983000D01*
X104239785Y-118164428D01*
X104149071Y-118345857D01*
X104058357Y-118436571D01*
X103876928Y-118527285D01*
X103514071Y-118618000D01*
X103060500Y-118618000D01*
X102697642Y-118527285D01*
X102516214Y-118436571D01*
X102425500Y-118345857D01*
X102334785Y-118164428D01*
X107596214Y-122246571D02*
X107505500Y-122155857D01*
X107414785Y-121974428D01*
X107414785Y-121520857D01*
X107505500Y-121339428D01*
X107596214Y-121248714D01*
X107777642Y-121158000D01*
X107959071Y-121158000D01*
X108231214Y-121248714D01*
X109319785Y-122337285D01*
X109319785Y-121158000D01*
X109319785Y-119343714D02*
X109319785Y-120432285D01*
X109319785Y-119888000D02*
X107414785Y-119888000D01*
X107686928Y-120069428D01*
X107868357Y-120250857D01*
X107959071Y-120432285D01*
X107414785Y-118164428D02*
X107414785Y-117983000D01*
X107505500Y-117801571D01*
X107596214Y-117710857D01*
X107777642Y-117620142D01*
X108140500Y-117529428D01*
X108594071Y-117529428D01*
X108956928Y-117620142D01*
X109138357Y-117710857D01*
X109229071Y-117801571D01*
X109319785Y-117983000D01*
X109319785Y-118164428D01*
X109229071Y-118345857D01*
X109138357Y-118436571D01*
X108956928Y-118527285D01*
X108594071Y-118618000D01*
X108140500Y-118618000D01*
X107777642Y-118527285D01*
X107596214Y-118436571D01*
X107505500Y-118345857D01*
X107414785Y-118164428D01*
X130501571Y-121692307D02*
X130410857Y-121783021D01*
X130138714Y-121873735D01*
X129957285Y-121873735D01*
X129685142Y-121783021D01*
X129503714Y-121601592D01*
X129413000Y-121420164D01*
X129322285Y-121057307D01*
X129322285Y-120785164D01*
X129413000Y-120422307D01*
X129503714Y-120240878D01*
X129685142Y-120059450D01*
X129957285Y-119968735D01*
X130138714Y-119968735D01*
X130410857Y-120059450D01*
X130501571Y-120150164D01*
X131045857Y-119968735D02*
X132134428Y-119968735D01*
X131590142Y-121873735D02*
X131590142Y-119968735D01*
X132769428Y-121148021D02*
X134220857Y-121148021D01*
X136125857Y-121873735D02*
X135037285Y-121873735D01*
X135581571Y-121873735D02*
X135581571Y-119968735D01*
X135400142Y-120240878D01*
X135218714Y-120422307D01*
X135037285Y-120513021D01*
X136760857Y-119968735D02*
X137940142Y-119968735D01*
X137305142Y-120694450D01*
X137577285Y-120694450D01*
X137758714Y-120785164D01*
X137849428Y-120875878D01*
X137940142Y-121057307D01*
X137940142Y-121510878D01*
X137849428Y-121692307D01*
X137758714Y-121783021D01*
X137577285Y-121873735D01*
X137033000Y-121873735D01*
X136851571Y-121783021D01*
X136760857Y-121692307D01*
X139119428Y-119968735D02*
X139300857Y-119968735D01*
X139482285Y-120059450D01*
X139573000Y-120150164D01*
X139663714Y-120331592D01*
X139754428Y-120694450D01*
X139754428Y-121148021D01*
X139663714Y-121510878D01*
X139573000Y-121692307D01*
X139482285Y-121783021D01*
X139300857Y-121873735D01*
X139119428Y-121873735D01*
X138938000Y-121783021D01*
X138847285Y-121692307D01*
X138756571Y-121510878D01*
X138665857Y-121148021D01*
X138665857Y-120694450D01*
X138756571Y-120331592D01*
X138847285Y-120150164D01*
X138938000Y-120059450D01*
X139119428Y-119968735D01*
X140933714Y-119968735D02*
X141115142Y-119968735D01*
X141296571Y-120059450D01*
X141387285Y-120150164D01*
X141478000Y-120331592D01*
X141568714Y-120694450D01*
X141568714Y-121148021D01*
X141478000Y-121510878D01*
X141387285Y-121692307D01*
X141296571Y-121783021D01*
X141115142Y-121873735D01*
X140933714Y-121873735D01*
X140752285Y-121783021D01*
X140661571Y-121692307D01*
X140570857Y-121510878D01*
X140480142Y-121148021D01*
X140480142Y-120694450D01*
X140570857Y-120331592D01*
X140661571Y-120150164D01*
X140752285Y-120059450D01*
X140933714Y-119968735D01*
X143473714Y-121692307D02*
X143383000Y-121783021D01*
X143110857Y-121873735D01*
X142929428Y-121873735D01*
X142657285Y-121783021D01*
X142475857Y-121601592D01*
X142385142Y-121420164D01*
X142294428Y-121057307D01*
X142294428Y-120785164D01*
X142385142Y-120422307D01*
X142475857Y-120240878D01*
X142657285Y-120059450D01*
X142929428Y-119968735D01*
X143110857Y-119968735D01*
X143383000Y-120059450D01*
X143473714Y-120150164D01*
X112267999Y-124759357D02*
X112177285Y-124850071D01*
X111905142Y-124940785D01*
X111723714Y-124940785D01*
X111451571Y-124850071D01*
X111270142Y-124668642D01*
X111179428Y-124487214D01*
X111088714Y-124124357D01*
X111088714Y-123852214D01*
X111179428Y-123489357D01*
X111270142Y-123307928D01*
X111451571Y-123126500D01*
X111723714Y-123035785D01*
X111905142Y-123035785D01*
X112177285Y-123126500D01*
X112267999Y-123217214D01*
X113447285Y-123035785D02*
X113810142Y-123035785D01*
X113991571Y-123126500D01*
X114172999Y-123307928D01*
X114263714Y-123670785D01*
X114263714Y-124305785D01*
X114172999Y-124668642D01*
X113991571Y-124850071D01*
X113810142Y-124940785D01*
X113447285Y-124940785D01*
X113265857Y-124850071D01*
X113084428Y-124668642D01*
X112993714Y-124305785D01*
X112993714Y-123670785D01*
X113084428Y-123307928D01*
X113265857Y-123126500D01*
X113447285Y-123035785D01*
X115080142Y-124940785D02*
X115080142Y-123035785D01*
X115805857Y-123035785D01*
X115987285Y-123126500D01*
X116077999Y-123217214D01*
X116168714Y-123398642D01*
X116168714Y-123670785D01*
X116077999Y-123852214D01*
X115987285Y-123942928D01*
X115805857Y-124033642D01*
X115080142Y-124033642D01*
X117347999Y-124033642D02*
X117347999Y-124940785D01*
X116712999Y-123035785D02*
X117347999Y-124033642D01*
X117982999Y-123035785D01*
X118436571Y-123035785D02*
X118890142Y-124940785D01*
X119252999Y-123580071D01*
X119615857Y-124940785D01*
X120069428Y-123035785D01*
X121883714Y-124940785D02*
X121248714Y-124033642D01*
X120795142Y-124940785D02*
X120795142Y-123035785D01*
X121520857Y-123035785D01*
X121702285Y-123126500D01*
X121792999Y-123217214D01*
X121883714Y-123398642D01*
X121883714Y-123670785D01*
X121792999Y-123852214D01*
X121702285Y-123942928D01*
X121520857Y-124033642D01*
X120795142Y-124033642D01*
X123062999Y-123035785D02*
X123425857Y-123035785D01*
X123607285Y-123126500D01*
X123788714Y-123307928D01*
X123879428Y-123670785D01*
X123879428Y-124305785D01*
X123788714Y-124668642D01*
X123607285Y-124850071D01*
X123425857Y-124940785D01*
X123062999Y-124940785D01*
X122881571Y-124850071D01*
X122700142Y-124668642D01*
X122609428Y-124305785D01*
X122609428Y-123670785D01*
X122700142Y-123307928D01*
X122881571Y-123126500D01*
X123062999Y-123035785D01*
X124695857Y-124940785D02*
X124695857Y-123035785D01*
X125784428Y-124940785D01*
X125784428Y-123035785D01*
X127689428Y-123126500D02*
X127508000Y-123035785D01*
X127235857Y-123035785D01*
X126963714Y-123126500D01*
X126782285Y-123307928D01*
X126691571Y-123489357D01*
X126600857Y-123852214D01*
X126600857Y-124124357D01*
X126691571Y-124487214D01*
X126782285Y-124668642D01*
X126963714Y-124850071D01*
X127235857Y-124940785D01*
X127417285Y-124940785D01*
X127689428Y-124850071D01*
X127780142Y-124759357D01*
X127780142Y-124124357D01*
X127417285Y-124124357D01*
X130048000Y-124940785D02*
X130048000Y-123035785D01*
X130501571Y-123035785D01*
X130773714Y-123126500D01*
X130955142Y-123307928D01*
X131045857Y-123489357D01*
X131136571Y-123852214D01*
X131136571Y-124124357D01*
X131045857Y-124487214D01*
X130955142Y-124668642D01*
X130773714Y-124850071D01*
X130501571Y-124940785D01*
X130048000Y-124940785D01*
X131953000Y-123942928D02*
X132588000Y-123942928D01*
X132860142Y-124940785D02*
X131953000Y-124940785D01*
X131953000Y-123035785D01*
X132860142Y-123035785D01*
X134765142Y-124940785D02*
X134130142Y-124033642D01*
X133676571Y-124940785D02*
X133676571Y-123035785D01*
X134402285Y-123035785D01*
X134583714Y-123126500D01*
X134674428Y-123217214D01*
X134765142Y-123398642D01*
X134765142Y-123670785D01*
X134674428Y-123852214D01*
X134583714Y-123942928D01*
X134402285Y-124033642D01*
X133676571Y-124033642D01*
X135581571Y-124940785D02*
X135581571Y-123035785D01*
X136216571Y-123035785D02*
X136851571Y-124940785D01*
X137486571Y-123035785D01*
X138030857Y-124396500D02*
X138938000Y-124396500D01*
X137849428Y-124940785D02*
X138484428Y-123035785D01*
X139119428Y-124940785D01*
X139482285Y-123035785D02*
X140570857Y-123035785D01*
X140026571Y-124940785D02*
X140026571Y-123035785D01*
X141205857Y-124940785D02*
X141205857Y-123035785D01*
X141840857Y-123035785D02*
X142475857Y-124940785D01*
X143110857Y-123035785D01*
X143745857Y-123942928D02*
X144380857Y-123942928D01*
X144653000Y-124940785D02*
X143745857Y-124940785D01*
X143745857Y-123035785D01*
X144653000Y-123035785D01*
X147828000Y-124940785D02*
X146920857Y-124940785D01*
X146920857Y-123035785D01*
X148372285Y-124396500D02*
X149279428Y-124396500D01*
X148190857Y-124940785D02*
X148825857Y-123035785D01*
X149460857Y-124940785D01*
X150730857Y-123942928D02*
X151003000Y-124033642D01*
X151093714Y-124124357D01*
X151184428Y-124305785D01*
X151184428Y-124577928D01*
X151093714Y-124759357D01*
X151003000Y-124850071D01*
X150821571Y-124940785D01*
X150095857Y-124940785D01*
X150095857Y-123035785D01*
X150730857Y-123035785D01*
X150912285Y-123126500D01*
X151003000Y-123217214D01*
X151093714Y-123398642D01*
X151093714Y-123580071D01*
X151003000Y-123761500D01*
X150912285Y-123852214D01*
X150730857Y-123942928D01*
X150095857Y-123942928D01*
X151910142Y-124850071D02*
X152182285Y-124940785D01*
X152635857Y-124940785D01*
X152817285Y-124850071D01*
X152908000Y-124759357D01*
X152998714Y-124577928D01*
X152998714Y-124396500D01*
X152908000Y-124215071D01*
X152817285Y-124124357D01*
X152635857Y-124033642D01*
X152273000Y-123942928D01*
X152091571Y-123852214D01*
X152000857Y-123761500D01*
X151910142Y-123580071D01*
X151910142Y-123398642D01*
X152000857Y-123217214D01*
X152091571Y-123126500D01*
X152273000Y-123035785D01*
X152726571Y-123035785D01*
X152998714Y-123126500D01*
X155175857Y-123217214D02*
X155266571Y-123126500D01*
X155448000Y-123035785D01*
X155901571Y-123035785D01*
X156083000Y-123126500D01*
X156173714Y-123217214D01*
X156264428Y-123398642D01*
X156264428Y-123580071D01*
X156173714Y-123852214D01*
X155085142Y-124940785D01*
X156264428Y-124940785D01*
X157443714Y-123035785D02*
X157625142Y-123035785D01*
X157806571Y-123126500D01*
X157897285Y-123217214D01*
X157988000Y-123398642D01*
X158078714Y-123761500D01*
X158078714Y-124215071D01*
X157988000Y-124577928D01*
X157897285Y-124759357D01*
X157806571Y-124850071D01*
X157625142Y-124940785D01*
X157443714Y-124940785D01*
X157262285Y-124850071D01*
X157171571Y-124759357D01*
X157080857Y-124577928D01*
X156990142Y-124215071D01*
X156990142Y-123761500D01*
X157080857Y-123398642D01*
X157171571Y-123217214D01*
X157262285Y-123126500D01*
X157443714Y-123035785D01*
X158804428Y-123217214D02*
X158895142Y-123126500D01*
X159076571Y-123035785D01*
X159530142Y-123035785D01*
X159711571Y-123126500D01*
X159802285Y-123217214D01*
X159893000Y-123398642D01*
X159893000Y-123580071D01*
X159802285Y-123852214D01*
X158713714Y-124940785D01*
X159893000Y-124940785D01*
X160528000Y-123035785D02*
X161707285Y-123035785D01*
X161072285Y-123761500D01*
X161344428Y-123761500D01*
X161525857Y-123852214D01*
X161616571Y-123942928D01*
X161707285Y-124124357D01*
X161707285Y-124577928D01*
X161616571Y-124759357D01*
X161525857Y-124850071D01*
X161344428Y-124940785D01*
X160800142Y-124940785D01*
X160618714Y-124850071D01*
X160528000Y-124759357D01*
X125648357Y-128007835D02*
X125648357Y-126102835D01*
X126283357Y-127463550D01*
X126918357Y-126102835D01*
X126918357Y-128007835D01*
X127734785Y-127463550D02*
X128641928Y-127463550D01*
X127553357Y-128007835D02*
X128188357Y-126102835D01*
X128823357Y-128007835D01*
X129458357Y-128007835D02*
X129458357Y-126102835D01*
X129911928Y-126102835D01*
X130184071Y-126193550D01*
X130365500Y-126374978D01*
X130456214Y-126556407D01*
X130546928Y-126919264D01*
X130546928Y-127191407D01*
X130456214Y-127554264D01*
X130365500Y-127735692D01*
X130184071Y-127917121D01*
X129911928Y-128007835D01*
X129458357Y-128007835D01*
X131363357Y-127009978D02*
X131998357Y-127009978D01*
X132270500Y-128007835D02*
X131363357Y-128007835D01*
X131363357Y-126102835D01*
X132270500Y-126102835D01*
X134538357Y-128007835D02*
X134538357Y-126102835D01*
X135445500Y-128007835D02*
X135445500Y-126102835D01*
X136534071Y-128007835D01*
X136534071Y-126102835D01*
X138801928Y-127463550D02*
X139709071Y-127463550D01*
X138620500Y-128007835D02*
X139255500Y-126102835D01*
X139890500Y-128007835D01*
X140525500Y-128007835D02*
X140525500Y-126102835D01*
X141614071Y-128007835D01*
X141614071Y-126102835D01*
X143519071Y-126193550D02*
X143337642Y-126102835D01*
X143065500Y-126102835D01*
X142793357Y-126193550D01*
X142611928Y-126374978D01*
X142521214Y-126556407D01*
X142430500Y-126919264D01*
X142430500Y-127191407D01*
X142521214Y-127554264D01*
X142611928Y-127735692D01*
X142793357Y-127917121D01*
X143065500Y-128007835D01*
X143246928Y-128007835D01*
X143519071Y-127917121D01*
X143609785Y-127826407D01*
X143609785Y-127191407D01*
X143246928Y-127191407D01*
X144426214Y-127009978D02*
X145061214Y-127009978D01*
X145333357Y-128007835D02*
X144426214Y-128007835D01*
X144426214Y-126102835D01*
X145333357Y-126102835D01*
X147238357Y-128007835D02*
X146603357Y-127100692D01*
X146149785Y-128007835D02*
X146149785Y-126102835D01*
X146875500Y-126102835D01*
X147056928Y-126193550D01*
X147147642Y-126284264D01*
X147238357Y-126465692D01*
X147238357Y-126737835D01*
X147147642Y-126919264D01*
X147056928Y-127009978D01*
X146875500Y-127100692D01*
X146149785Y-127100692D01*
X97436214Y-122246571D02*
X97345500Y-122155857D01*
X97254785Y-121974428D01*
X97254785Y-121520857D01*
X97345500Y-121339428D01*
X97436214Y-121248714D01*
X97617642Y-121158000D01*
X97799071Y-121158000D01*
X98071214Y-121248714D01*
X99159785Y-122337285D01*
X99159785Y-121158000D01*
X97254785Y-119434428D02*
X97254785Y-120341571D01*
X98161928Y-120432285D01*
X98071214Y-120341571D01*
X97980500Y-120160142D01*
X97980500Y-119706571D01*
X98071214Y-119525142D01*
X98161928Y-119434428D01*
X98343357Y-119343714D01*
X98796928Y-119343714D01*
X98978357Y-119434428D01*
X99069071Y-119525142D01*
X99159785Y-119706571D01*
X99159785Y-120160142D01*
X99069071Y-120341571D01*
X98978357Y-120432285D01*
X97254785Y-118164428D02*
X97254785Y-117983000D01*
X97345500Y-117801571D01*
X97436214Y-117710857D01*
X97617642Y-117620142D01*
X97980500Y-117529428D01*
X98434071Y-117529428D01*
X98796928Y-117620142D01*
X98978357Y-117710857D01*
X99069071Y-117801571D01*
X99159785Y-117983000D01*
X99159785Y-118164428D01*
X99069071Y-118345857D01*
X98978357Y-118436571D01*
X98796928Y-118527285D01*
X98434071Y-118618000D01*
X97980500Y-118618000D01*
X97617642Y-118527285D01*
X97436214Y-118436571D01*
X97345500Y-118345857D01*
X97254785Y-118164428D01*
X105056214Y-122246571D02*
X104965500Y-122155857D01*
X104874785Y-121974428D01*
X104874785Y-121520857D01*
X104965500Y-121339428D01*
X105056214Y-121248714D01*
X105237642Y-121158000D01*
X105419071Y-121158000D01*
X105691214Y-121248714D01*
X106779785Y-122337285D01*
X106779785Y-121158000D01*
X105056214Y-120432285D02*
X104965500Y-120341571D01*
X104874785Y-120160142D01*
X104874785Y-119706571D01*
X104965500Y-119525142D01*
X105056214Y-119434428D01*
X105237642Y-119343714D01*
X105419071Y-119343714D01*
X105691214Y-119434428D01*
X106779785Y-120523000D01*
X106779785Y-119343714D01*
X104874785Y-118164428D02*
X104874785Y-117983000D01*
X104965500Y-117801571D01*
X105056214Y-117710857D01*
X105237642Y-117620142D01*
X105600500Y-117529428D01*
X106054071Y-117529428D01*
X106416928Y-117620142D01*
X106598357Y-117710857D01*
X106689071Y-117801571D01*
X106779785Y-117983000D01*
X106779785Y-118164428D01*
X106689071Y-118345857D01*
X106598357Y-118436571D01*
X106416928Y-118527285D01*
X106054071Y-118618000D01*
X105600500Y-118618000D01*
X105237642Y-118527285D01*
X105056214Y-118436571D01*
X104965500Y-118345857D01*
X104874785Y-118164428D01*
X99976214Y-122246571D02*
X99885500Y-122155857D01*
X99794785Y-121974428D01*
X99794785Y-121520857D01*
X99885500Y-121339428D01*
X99976214Y-121248714D01*
X100157642Y-121158000D01*
X100339071Y-121158000D01*
X100611214Y-121248714D01*
X101699785Y-122337285D01*
X101699785Y-121158000D01*
X100429785Y-119525142D02*
X101699785Y-119525142D01*
X99704071Y-119978714D02*
X101064785Y-120432285D01*
X101064785Y-119253000D01*
X99794785Y-118164428D02*
X99794785Y-117983000D01*
X99885500Y-117801571D01*
X99976214Y-117710857D01*
X100157642Y-117620142D01*
X100520500Y-117529428D01*
X100974071Y-117529428D01*
X101336928Y-117620142D01*
X101518357Y-117710857D01*
X101609071Y-117801571D01*
X101699785Y-117983000D01*
X101699785Y-118164428D01*
X101609071Y-118345857D01*
X101518357Y-118436571D01*
X101336928Y-118527285D01*
X100974071Y-118618000D01*
X100520500Y-118618000D01*
X100157642Y-118527285D01*
X99976214Y-118436571D01*
X99885500Y-118345857D01*
X99794785Y-118164428D01*
X94896214Y-122246571D02*
X94805500Y-122155857D01*
X94714785Y-121974428D01*
X94714785Y-121520857D01*
X94805500Y-121339428D01*
X94896214Y-121248714D01*
X95077642Y-121158000D01*
X95259071Y-121158000D01*
X95531214Y-121248714D01*
X96619785Y-122337285D01*
X96619785Y-121158000D01*
X94714785Y-119525142D02*
X94714785Y-119888000D01*
X94805500Y-120069428D01*
X94896214Y-120160142D01*
X95168357Y-120341571D01*
X95531214Y-120432285D01*
X96256928Y-120432285D01*
X96438357Y-120341571D01*
X96529071Y-120250857D01*
X96619785Y-120069428D01*
X96619785Y-119706571D01*
X96529071Y-119525142D01*
X96438357Y-119434428D01*
X96256928Y-119343714D01*
X95803357Y-119343714D01*
X95621928Y-119434428D01*
X95531214Y-119525142D01*
X95440500Y-119706571D01*
X95440500Y-120069428D01*
X95531214Y-120250857D01*
X95621928Y-120341571D01*
X95803357Y-120432285D01*
X94714785Y-118164428D02*
X94714785Y-117983000D01*
X94805500Y-117801571D01*
X94896214Y-117710857D01*
X95077642Y-117620142D01*
X95440500Y-117529428D01*
X95894071Y-117529428D01*
X96256928Y-117620142D01*
X96438357Y-117710857D01*
X96529071Y-117801571D01*
X96619785Y-117983000D01*
X96619785Y-118164428D01*
X96529071Y-118345857D01*
X96438357Y-118436571D01*
X96256928Y-118527285D01*
X95894071Y-118618000D01*
X95440500Y-118618000D01*
X95077642Y-118527285D01*
X94896214Y-118436571D01*
X94805500Y-118345857D01*
X94714785Y-118164428D01*
%TO.C,R14*%
X89507785Y-67518642D02*
X88600642Y-68153642D01*
X89507785Y-68607214D02*
X87602785Y-68607214D01*
X87602785Y-67881500D01*
X87693500Y-67700071D01*
X87784214Y-67609357D01*
X87965642Y-67518642D01*
X88237785Y-67518642D01*
X88419214Y-67609357D01*
X88509928Y-67700071D01*
X88600642Y-67881500D01*
X88600642Y-68607214D01*
X89507785Y-65704357D02*
X89507785Y-66792928D01*
X89507785Y-66248642D02*
X87602785Y-66248642D01*
X87874928Y-66430071D01*
X88056357Y-66611500D01*
X88147071Y-66792928D01*
X88237785Y-64071500D02*
X89507785Y-64071500D01*
X87512071Y-64525071D02*
X88872785Y-64978642D01*
X88872785Y-63799357D01*
%TO.C,R4*%
X141160500Y-79538285D02*
X140525500Y-78631142D01*
X140071928Y-79538285D02*
X140071928Y-77633285D01*
X140797642Y-77633285D01*
X140979071Y-77724000D01*
X141069785Y-77814714D01*
X141160500Y-77996142D01*
X141160500Y-78268285D01*
X141069785Y-78449714D01*
X140979071Y-78540428D01*
X140797642Y-78631142D01*
X140071928Y-78631142D01*
X142793357Y-78268285D02*
X142793357Y-79538285D01*
X142339785Y-77542571D02*
X141886214Y-78903285D01*
X143065500Y-78903285D01*
%TO.C,C15*%
X86024357Y-64978642D02*
X86115071Y-65069357D01*
X86205785Y-65341500D01*
X86205785Y-65522928D01*
X86115071Y-65795071D01*
X85933642Y-65976500D01*
X85752214Y-66067214D01*
X85389357Y-66157928D01*
X85117214Y-66157928D01*
X84754357Y-66067214D01*
X84572928Y-65976500D01*
X84391500Y-65795071D01*
X84300785Y-65522928D01*
X84300785Y-65341500D01*
X84391500Y-65069357D01*
X84482214Y-64978642D01*
X86205785Y-63164357D02*
X86205785Y-64252928D01*
X86205785Y-63708642D02*
X84300785Y-63708642D01*
X84572928Y-63890071D01*
X84754357Y-64071500D01*
X84845071Y-64252928D01*
X84300785Y-61440785D02*
X84300785Y-62347928D01*
X85207928Y-62438642D01*
X85117214Y-62347928D01*
X85026500Y-62166500D01*
X85026500Y-61712928D01*
X85117214Y-61531500D01*
X85207928Y-61440785D01*
X85389357Y-61350071D01*
X85842928Y-61350071D01*
X86024357Y-61440785D01*
X86115071Y-61531500D01*
X86205785Y-61712928D01*
X86205785Y-62166500D01*
X86115071Y-62347928D01*
X86024357Y-62438642D01*
%TO.C,C32*%
X88818357Y-38181642D02*
X88909071Y-38272357D01*
X88999785Y-38544500D01*
X88999785Y-38725928D01*
X88909071Y-38998071D01*
X88727642Y-39179500D01*
X88546214Y-39270214D01*
X88183357Y-39360928D01*
X87911214Y-39360928D01*
X87548357Y-39270214D01*
X87366928Y-39179500D01*
X87185500Y-38998071D01*
X87094785Y-38725928D01*
X87094785Y-38544500D01*
X87185500Y-38272357D01*
X87276214Y-38181642D01*
X87094785Y-37546642D02*
X87094785Y-36367357D01*
X87820500Y-37002357D01*
X87820500Y-36730214D01*
X87911214Y-36548785D01*
X88001928Y-36458071D01*
X88183357Y-36367357D01*
X88636928Y-36367357D01*
X88818357Y-36458071D01*
X88909071Y-36548785D01*
X88999785Y-36730214D01*
X88999785Y-37274500D01*
X88909071Y-37455928D01*
X88818357Y-37546642D01*
X87276214Y-35641642D02*
X87185500Y-35550928D01*
X87094785Y-35369500D01*
X87094785Y-34915928D01*
X87185500Y-34734500D01*
X87276214Y-34643785D01*
X87457642Y-34553071D01*
X87639071Y-34553071D01*
X87911214Y-34643785D01*
X88999785Y-35732357D01*
X88999785Y-34553071D01*
%TO.C,R10*%
X170914785Y-36530642D02*
X170007642Y-37165642D01*
X170914785Y-37619214D02*
X169009785Y-37619214D01*
X169009785Y-36893500D01*
X169100500Y-36712071D01*
X169191214Y-36621357D01*
X169372642Y-36530642D01*
X169644785Y-36530642D01*
X169826214Y-36621357D01*
X169916928Y-36712071D01*
X170007642Y-36893500D01*
X170007642Y-37619214D01*
X170914785Y-34716357D02*
X170914785Y-35804928D01*
X170914785Y-35260642D02*
X169009785Y-35260642D01*
X169281928Y-35442071D01*
X169463357Y-35623500D01*
X169554071Y-35804928D01*
X169009785Y-33537071D02*
X169009785Y-33355642D01*
X169100500Y-33174214D01*
X169191214Y-33083500D01*
X169372642Y-32992785D01*
X169735500Y-32902071D01*
X170189071Y-32902071D01*
X170551928Y-32992785D01*
X170733357Y-33083500D01*
X170824071Y-33174214D01*
X170914785Y-33355642D01*
X170914785Y-33537071D01*
X170824071Y-33718500D01*
X170733357Y-33809214D01*
X170551928Y-33899928D01*
X170189071Y-33990642D01*
X169735500Y-33990642D01*
X169372642Y-33899928D01*
X169191214Y-33809214D01*
X169100500Y-33718500D01*
X169009785Y-33537071D01*
D11*
%TO.C,S2*%
X183382137Y-105309926D02*
X183526112Y-105357918D01*
X183766068Y-105357918D01*
X183862051Y-105309926D01*
X183910043Y-105261935D01*
X183958034Y-105165952D01*
X183958034Y-105069969D01*
X183910043Y-104973987D01*
X183862051Y-104925995D01*
X183766068Y-104878004D01*
X183574103Y-104830012D01*
X183478120Y-104782021D01*
X183430129Y-104734030D01*
X183382137Y-104638047D01*
X183382137Y-104542064D01*
X183430129Y-104446081D01*
X183478120Y-104398090D01*
X183574103Y-104350099D01*
X183814060Y-104350099D01*
X183958034Y-104398090D01*
X184341965Y-104446081D02*
X184389956Y-104398090D01*
X184485939Y-104350099D01*
X184725896Y-104350099D01*
X184821879Y-104398090D01*
X184869870Y-104446081D01*
X184917862Y-104542064D01*
X184917862Y-104638047D01*
X184869870Y-104782021D01*
X184293974Y-105357918D01*
X184917862Y-105357918D01*
D10*
%TO.C,C13*%
X153715357Y-115170857D02*
X153624642Y-115261571D01*
X153352500Y-115352285D01*
X153171071Y-115352285D01*
X152898928Y-115261571D01*
X152717500Y-115080142D01*
X152626785Y-114898714D01*
X152536071Y-114535857D01*
X152536071Y-114263714D01*
X152626785Y-113900857D01*
X152717500Y-113719428D01*
X152898928Y-113538000D01*
X153171071Y-113447285D01*
X153352500Y-113447285D01*
X153624642Y-113538000D01*
X153715357Y-113628714D01*
X155529642Y-115352285D02*
X154441071Y-115352285D01*
X154985357Y-115352285D02*
X154985357Y-113447285D01*
X154803928Y-113719428D01*
X154622500Y-113900857D01*
X154441071Y-113991571D01*
X156164642Y-113447285D02*
X157343928Y-113447285D01*
X156708928Y-114173000D01*
X156981071Y-114173000D01*
X157162500Y-114263714D01*
X157253214Y-114354428D01*
X157343928Y-114535857D01*
X157343928Y-114989428D01*
X157253214Y-115170857D01*
X157162500Y-115261571D01*
X156981071Y-115352285D01*
X156436785Y-115352285D01*
X156255357Y-115261571D01*
X156164642Y-115170857D01*
%TO.C,RP1*%
X190119000Y-52263785D02*
X189484000Y-51356642D01*
X189030428Y-52263785D02*
X189030428Y-50358785D01*
X189756142Y-50358785D01*
X189937571Y-50449500D01*
X190028285Y-50540214D01*
X190119000Y-50721642D01*
X190119000Y-50993785D01*
X190028285Y-51175214D01*
X189937571Y-51265928D01*
X189756142Y-51356642D01*
X189030428Y-51356642D01*
X190935428Y-52263785D02*
X190935428Y-50358785D01*
X191661142Y-50358785D01*
X191842571Y-50449500D01*
X191933285Y-50540214D01*
X192024000Y-50721642D01*
X192024000Y-50993785D01*
X191933285Y-51175214D01*
X191842571Y-51265928D01*
X191661142Y-51356642D01*
X190935428Y-51356642D01*
X193838285Y-52263785D02*
X192749714Y-52263785D01*
X193294000Y-52263785D02*
X193294000Y-50358785D01*
X193112571Y-50630928D01*
X192931142Y-50812357D01*
X192749714Y-50903071D01*
%TO.C,R1*%
X191488785Y-33210500D02*
X190581642Y-33845500D01*
X191488785Y-34299071D02*
X189583785Y-34299071D01*
X189583785Y-33573357D01*
X189674500Y-33391928D01*
X189765214Y-33301214D01*
X189946642Y-33210500D01*
X190218785Y-33210500D01*
X190400214Y-33301214D01*
X190490928Y-33391928D01*
X190581642Y-33573357D01*
X190581642Y-34299071D01*
X191488785Y-31396214D02*
X191488785Y-32484785D01*
X191488785Y-31940500D02*
X189583785Y-31940500D01*
X189855928Y-32121928D01*
X190037357Y-32303357D01*
X190128071Y-32484785D01*
%TO.C,IC6*%
X93136357Y-97127785D02*
X93136357Y-95222785D01*
X95132071Y-96946357D02*
X95041357Y-97037071D01*
X94769214Y-97127785D01*
X94587785Y-97127785D01*
X94315642Y-97037071D01*
X94134214Y-96855642D01*
X94043500Y-96674214D01*
X93952785Y-96311357D01*
X93952785Y-96039214D01*
X94043500Y-95676357D01*
X94134214Y-95494928D01*
X94315642Y-95313500D01*
X94587785Y-95222785D01*
X94769214Y-95222785D01*
X95041357Y-95313500D01*
X95132071Y-95404214D01*
X96764928Y-95222785D02*
X96402071Y-95222785D01*
X96220642Y-95313500D01*
X96129928Y-95404214D01*
X95948500Y-95676357D01*
X95857785Y-96039214D01*
X95857785Y-96764928D01*
X95948500Y-96946357D01*
X96039214Y-97037071D01*
X96220642Y-97127785D01*
X96583500Y-97127785D01*
X96764928Y-97037071D01*
X96855642Y-96946357D01*
X96946357Y-96764928D01*
X96946357Y-96311357D01*
X96855642Y-96129928D01*
X96764928Y-96039214D01*
X96583500Y-95948500D01*
X96220642Y-95948500D01*
X96039214Y-96039214D01*
X95948500Y-96129928D01*
X95857785Y-96311357D01*
%TO.C,C21*%
X89072357Y-100030642D02*
X89163071Y-100121357D01*
X89253785Y-100393500D01*
X89253785Y-100574928D01*
X89163071Y-100847071D01*
X88981642Y-101028500D01*
X88800214Y-101119214D01*
X88437357Y-101209928D01*
X88165214Y-101209928D01*
X87802357Y-101119214D01*
X87620928Y-101028500D01*
X87439500Y-100847071D01*
X87348785Y-100574928D01*
X87348785Y-100393500D01*
X87439500Y-100121357D01*
X87530214Y-100030642D01*
X87530214Y-99304928D02*
X87439500Y-99214214D01*
X87348785Y-99032785D01*
X87348785Y-98579214D01*
X87439500Y-98397785D01*
X87530214Y-98307071D01*
X87711642Y-98216357D01*
X87893071Y-98216357D01*
X88165214Y-98307071D01*
X89253785Y-99395642D01*
X89253785Y-98216357D01*
X89253785Y-96402071D02*
X89253785Y-97490642D01*
X89253785Y-96946357D02*
X87348785Y-96946357D01*
X87620928Y-97127785D01*
X87802357Y-97309214D01*
X87893071Y-97490642D01*
%TO.C,R7*%
X139636500Y-44549785D02*
X139001500Y-43642642D01*
X138547928Y-44549785D02*
X138547928Y-42644785D01*
X139273642Y-42644785D01*
X139455071Y-42735500D01*
X139545785Y-42826214D01*
X139636500Y-43007642D01*
X139636500Y-43279785D01*
X139545785Y-43461214D01*
X139455071Y-43551928D01*
X139273642Y-43642642D01*
X138547928Y-43642642D01*
X140271500Y-42644785D02*
X141541500Y-42644785D01*
X140725071Y-44549785D01*
%TO.C,ZD1*%
X135202385Y-45319042D02*
X135202385Y-44049042D01*
X137107385Y-45319042D01*
X137107385Y-44049042D01*
X137107385Y-43323328D02*
X135202385Y-43323328D01*
X135202385Y-42869757D01*
X135293100Y-42597614D01*
X135474528Y-42416185D01*
X135655957Y-42325471D01*
X136018814Y-42234757D01*
X136290957Y-42234757D01*
X136653814Y-42325471D01*
X136835242Y-42416185D01*
X137016671Y-42597614D01*
X137107385Y-42869757D01*
X137107385Y-43323328D01*
X137107385Y-40420471D02*
X137107385Y-41509042D01*
X137107385Y-40964757D02*
X135202385Y-40964757D01*
X135474528Y-41146185D01*
X135655957Y-41327614D01*
X135746671Y-41509042D01*
%TO.C,IC3*%
X142085785Y-38943642D02*
X140180785Y-38943642D01*
X141904357Y-36947928D02*
X141995071Y-37038642D01*
X142085785Y-37310785D01*
X142085785Y-37492214D01*
X141995071Y-37764357D01*
X141813642Y-37945785D01*
X141632214Y-38036500D01*
X141269357Y-38127214D01*
X140997214Y-38127214D01*
X140634357Y-38036500D01*
X140452928Y-37945785D01*
X140271500Y-37764357D01*
X140180785Y-37492214D01*
X140180785Y-37310785D01*
X140271500Y-37038642D01*
X140362214Y-36947928D01*
X140180785Y-36312928D02*
X140180785Y-35133642D01*
X140906500Y-35768642D01*
X140906500Y-35496500D01*
X140997214Y-35315071D01*
X141087928Y-35224357D01*
X141269357Y-35133642D01*
X141722928Y-35133642D01*
X141904357Y-35224357D01*
X141995071Y-35315071D01*
X142085785Y-35496500D01*
X142085785Y-36040785D01*
X141995071Y-36222214D01*
X141904357Y-36312928D01*
%TO.C,C9*%
X169336357Y-108712000D02*
X169427071Y-108802714D01*
X169517785Y-109074857D01*
X169517785Y-109256285D01*
X169427071Y-109528428D01*
X169245642Y-109709857D01*
X169064214Y-109800571D01*
X168701357Y-109891285D01*
X168429214Y-109891285D01*
X168066357Y-109800571D01*
X167884928Y-109709857D01*
X167703500Y-109528428D01*
X167612785Y-109256285D01*
X167612785Y-109074857D01*
X167703500Y-108802714D01*
X167794214Y-108712000D01*
X169517785Y-107804857D02*
X169517785Y-107442000D01*
X169427071Y-107260571D01*
X169336357Y-107169857D01*
X169064214Y-106988428D01*
X168701357Y-106897714D01*
X167975642Y-106897714D01*
X167794214Y-106988428D01*
X167703500Y-107079142D01*
X167612785Y-107260571D01*
X167612785Y-107623428D01*
X167703500Y-107804857D01*
X167794214Y-107895571D01*
X167975642Y-107986285D01*
X168429214Y-107986285D01*
X168610642Y-107895571D01*
X168701357Y-107804857D01*
X168792071Y-107623428D01*
X168792071Y-107260571D01*
X168701357Y-107079142D01*
X168610642Y-106988428D01*
X168429214Y-106897714D01*
%TO.C,C23*%
X177210357Y-36149642D02*
X177301071Y-36240357D01*
X177391785Y-36512500D01*
X177391785Y-36693928D01*
X177301071Y-36966071D01*
X177119642Y-37147500D01*
X176938214Y-37238214D01*
X176575357Y-37328928D01*
X176303214Y-37328928D01*
X175940357Y-37238214D01*
X175758928Y-37147500D01*
X175577500Y-36966071D01*
X175486785Y-36693928D01*
X175486785Y-36512500D01*
X175577500Y-36240357D01*
X175668214Y-36149642D01*
X175668214Y-35423928D02*
X175577500Y-35333214D01*
X175486785Y-35151785D01*
X175486785Y-34698214D01*
X175577500Y-34516785D01*
X175668214Y-34426071D01*
X175849642Y-34335357D01*
X176031071Y-34335357D01*
X176303214Y-34426071D01*
X177391785Y-35514642D01*
X177391785Y-34335357D01*
X175486785Y-33700357D02*
X175486785Y-32521071D01*
X176212500Y-33156071D01*
X176212500Y-32883928D01*
X176303214Y-32702500D01*
X176393928Y-32611785D01*
X176575357Y-32521071D01*
X177028928Y-32521071D01*
X177210357Y-32611785D01*
X177301071Y-32702500D01*
X177391785Y-32883928D01*
X177391785Y-33428214D01*
X177301071Y-33609642D01*
X177210357Y-33700357D01*
%TO.C,R9*%
X92809785Y-65595500D02*
X91902642Y-66230500D01*
X92809785Y-66684071D02*
X90904785Y-66684071D01*
X90904785Y-65958357D01*
X90995500Y-65776928D01*
X91086214Y-65686214D01*
X91267642Y-65595500D01*
X91539785Y-65595500D01*
X91721214Y-65686214D01*
X91811928Y-65776928D01*
X91902642Y-65958357D01*
X91902642Y-66684071D01*
X92809785Y-64688357D02*
X92809785Y-64325500D01*
X92719071Y-64144071D01*
X92628357Y-64053357D01*
X92356214Y-63871928D01*
X91993357Y-63781214D01*
X91267642Y-63781214D01*
X91086214Y-63871928D01*
X90995500Y-63962642D01*
X90904785Y-64144071D01*
X90904785Y-64506928D01*
X90995500Y-64688357D01*
X91086214Y-64779071D01*
X91267642Y-64869785D01*
X91721214Y-64869785D01*
X91902642Y-64779071D01*
X91993357Y-64688357D01*
X92084071Y-64506928D01*
X92084071Y-64144071D01*
X91993357Y-63962642D01*
X91902642Y-63871928D01*
X91721214Y-63781214D01*
%TO.C,R6*%
X103822500Y-53185785D02*
X103187500Y-52278642D01*
X102733928Y-53185785D02*
X102733928Y-51280785D01*
X103459642Y-51280785D01*
X103641071Y-51371500D01*
X103731785Y-51462214D01*
X103822500Y-51643642D01*
X103822500Y-51915785D01*
X103731785Y-52097214D01*
X103641071Y-52187928D01*
X103459642Y-52278642D01*
X102733928Y-52278642D01*
X105455357Y-51280785D02*
X105092500Y-51280785D01*
X104911071Y-51371500D01*
X104820357Y-51462214D01*
X104638928Y-51734357D01*
X104548214Y-52097214D01*
X104548214Y-52822928D01*
X104638928Y-53004357D01*
X104729642Y-53095071D01*
X104911071Y-53185785D01*
X105273928Y-53185785D01*
X105455357Y-53095071D01*
X105546071Y-53004357D01*
X105636785Y-52822928D01*
X105636785Y-52369357D01*
X105546071Y-52187928D01*
X105455357Y-52097214D01*
X105273928Y-52006500D01*
X104911071Y-52006500D01*
X104729642Y-52097214D01*
X104638928Y-52187928D01*
X104548214Y-52369357D01*
%TO.C,C33*%
X133471557Y-47909842D02*
X133562271Y-48000557D01*
X133652985Y-48272700D01*
X133652985Y-48454128D01*
X133562271Y-48726271D01*
X133380842Y-48907700D01*
X133199414Y-48998414D01*
X132836557Y-49089128D01*
X132564414Y-49089128D01*
X132201557Y-48998414D01*
X132020128Y-48907700D01*
X131838700Y-48726271D01*
X131747985Y-48454128D01*
X131747985Y-48272700D01*
X131838700Y-48000557D01*
X131929414Y-47909842D01*
X131747985Y-47274842D02*
X131747985Y-46095557D01*
X132473700Y-46730557D01*
X132473700Y-46458414D01*
X132564414Y-46276985D01*
X132655128Y-46186271D01*
X132836557Y-46095557D01*
X133290128Y-46095557D01*
X133471557Y-46186271D01*
X133562271Y-46276985D01*
X133652985Y-46458414D01*
X133652985Y-47002700D01*
X133562271Y-47184128D01*
X133471557Y-47274842D01*
X131747985Y-45460557D02*
X131747985Y-44281271D01*
X132473700Y-44916271D01*
X132473700Y-44644128D01*
X132564414Y-44462700D01*
X132655128Y-44371985D01*
X132836557Y-44281271D01*
X133290128Y-44281271D01*
X133471557Y-44371985D01*
X133562271Y-44462700D01*
X133652985Y-44644128D01*
X133652985Y-45188414D01*
X133562271Y-45369842D01*
X133471557Y-45460557D01*
%TO.C,C8*%
X173164500Y-101962857D02*
X173073785Y-102053571D01*
X172801642Y-102144285D01*
X172620214Y-102144285D01*
X172348071Y-102053571D01*
X172166642Y-101872142D01*
X172075928Y-101690714D01*
X171985214Y-101327857D01*
X171985214Y-101055714D01*
X172075928Y-100692857D01*
X172166642Y-100511428D01*
X172348071Y-100330000D01*
X172620214Y-100239285D01*
X172801642Y-100239285D01*
X173073785Y-100330000D01*
X173164500Y-100420714D01*
X174253071Y-101055714D02*
X174071642Y-100965000D01*
X173980928Y-100874285D01*
X173890214Y-100692857D01*
X173890214Y-100602142D01*
X173980928Y-100420714D01*
X174071642Y-100330000D01*
X174253071Y-100239285D01*
X174615928Y-100239285D01*
X174797357Y-100330000D01*
X174888071Y-100420714D01*
X174978785Y-100602142D01*
X174978785Y-100692857D01*
X174888071Y-100874285D01*
X174797357Y-100965000D01*
X174615928Y-101055714D01*
X174253071Y-101055714D01*
X174071642Y-101146428D01*
X173980928Y-101237142D01*
X173890214Y-101418571D01*
X173890214Y-101781428D01*
X173980928Y-101962857D01*
X174071642Y-102053571D01*
X174253071Y-102144285D01*
X174615928Y-102144285D01*
X174797357Y-102053571D01*
X174888071Y-101962857D01*
X174978785Y-101781428D01*
X174978785Y-101418571D01*
X174888071Y-101237142D01*
X174797357Y-101146428D01*
X174615928Y-101055714D01*
%TO.C,C17*%
X181782357Y-36149642D02*
X181873071Y-36240357D01*
X181963785Y-36512500D01*
X181963785Y-36693928D01*
X181873071Y-36966071D01*
X181691642Y-37147500D01*
X181510214Y-37238214D01*
X181147357Y-37328928D01*
X180875214Y-37328928D01*
X180512357Y-37238214D01*
X180330928Y-37147500D01*
X180149500Y-36966071D01*
X180058785Y-36693928D01*
X180058785Y-36512500D01*
X180149500Y-36240357D01*
X180240214Y-36149642D01*
X181963785Y-34335357D02*
X181963785Y-35423928D01*
X181963785Y-34879642D02*
X180058785Y-34879642D01*
X180330928Y-35061071D01*
X180512357Y-35242500D01*
X180603071Y-35423928D01*
X180058785Y-33700357D02*
X180058785Y-32430357D01*
X181963785Y-33246785D01*
D11*
%TO.C,S3*%
X183387123Y-93369278D02*
X183530162Y-93416958D01*
X183768561Y-93416958D01*
X183863921Y-93369278D01*
X183911600Y-93321598D01*
X183959280Y-93226238D01*
X183959280Y-93130879D01*
X183911600Y-93035519D01*
X183863921Y-92987839D01*
X183768561Y-92940160D01*
X183577842Y-92892480D01*
X183482482Y-92844800D01*
X183434802Y-92797120D01*
X183387123Y-92701761D01*
X183387123Y-92606401D01*
X183434802Y-92511041D01*
X183482482Y-92463362D01*
X183577842Y-92415682D01*
X183816241Y-92415682D01*
X183959280Y-92463362D01*
X184293039Y-92415682D02*
X184912876Y-92415682D01*
X184579118Y-92797120D01*
X184722157Y-92797120D01*
X184817517Y-92844800D01*
X184865197Y-92892480D01*
X184912876Y-92987839D01*
X184912876Y-93226238D01*
X184865197Y-93321598D01*
X184817517Y-93369278D01*
X184722157Y-93416958D01*
X184436078Y-93416958D01*
X184340719Y-93369278D01*
X184293039Y-93321598D01*
D10*
%TO.C,IC1*%
X147492357Y-77061785D02*
X147492357Y-75156785D01*
X149488071Y-76880357D02*
X149397357Y-76971071D01*
X149125214Y-77061785D01*
X148943785Y-77061785D01*
X148671642Y-76971071D01*
X148490214Y-76789642D01*
X148399500Y-76608214D01*
X148308785Y-76245357D01*
X148308785Y-75973214D01*
X148399500Y-75610357D01*
X148490214Y-75428928D01*
X148671642Y-75247500D01*
X148943785Y-75156785D01*
X149125214Y-75156785D01*
X149397357Y-75247500D01*
X149488071Y-75338214D01*
X151302357Y-77061785D02*
X150213785Y-77061785D01*
X150758071Y-77061785D02*
X150758071Y-75156785D01*
X150576642Y-75428928D01*
X150395214Y-75610357D01*
X150213785Y-75701071D01*
%TO.C,C28*%
X119425357Y-56052357D02*
X119334642Y-56143071D01*
X119062500Y-56233785D01*
X118881071Y-56233785D01*
X118608928Y-56143071D01*
X118427500Y-55961642D01*
X118336785Y-55780214D01*
X118246071Y-55417357D01*
X118246071Y-55145214D01*
X118336785Y-54782357D01*
X118427500Y-54600928D01*
X118608928Y-54419500D01*
X118881071Y-54328785D01*
X119062500Y-54328785D01*
X119334642Y-54419500D01*
X119425357Y-54510214D01*
X120151071Y-54510214D02*
X120241785Y-54419500D01*
X120423214Y-54328785D01*
X120876785Y-54328785D01*
X121058214Y-54419500D01*
X121148928Y-54510214D01*
X121239642Y-54691642D01*
X121239642Y-54873071D01*
X121148928Y-55145214D01*
X120060357Y-56233785D01*
X121239642Y-56233785D01*
X122328214Y-55145214D02*
X122146785Y-55054500D01*
X122056071Y-54963785D01*
X121965357Y-54782357D01*
X121965357Y-54691642D01*
X122056071Y-54510214D01*
X122146785Y-54419500D01*
X122328214Y-54328785D01*
X122691071Y-54328785D01*
X122872500Y-54419500D01*
X122963214Y-54510214D01*
X123053928Y-54691642D01*
X123053928Y-54782357D01*
X122963214Y-54963785D01*
X122872500Y-55054500D01*
X122691071Y-55145214D01*
X122328214Y-55145214D01*
X122146785Y-55235928D01*
X122056071Y-55326642D01*
X121965357Y-55508071D01*
X121965357Y-55870928D01*
X122056071Y-56052357D01*
X122146785Y-56143071D01*
X122328214Y-56233785D01*
X122691071Y-56233785D01*
X122872500Y-56143071D01*
X122963214Y-56052357D01*
X123053928Y-55870928D01*
X123053928Y-55508071D01*
X122963214Y-55326642D01*
X122872500Y-55235928D01*
X122691071Y-55145214D01*
%TO.C,C22*%
X189275357Y-78658357D02*
X189184642Y-78749071D01*
X188912500Y-78839785D01*
X188731071Y-78839785D01*
X188458928Y-78749071D01*
X188277500Y-78567642D01*
X188186785Y-78386214D01*
X188096071Y-78023357D01*
X188096071Y-77751214D01*
X188186785Y-77388357D01*
X188277500Y-77206928D01*
X188458928Y-77025500D01*
X188731071Y-76934785D01*
X188912500Y-76934785D01*
X189184642Y-77025500D01*
X189275357Y-77116214D01*
X190001071Y-77116214D02*
X190091785Y-77025500D01*
X190273214Y-76934785D01*
X190726785Y-76934785D01*
X190908214Y-77025500D01*
X190998928Y-77116214D01*
X191089642Y-77297642D01*
X191089642Y-77479071D01*
X190998928Y-77751214D01*
X189910357Y-78839785D01*
X191089642Y-78839785D01*
X191815357Y-77116214D02*
X191906071Y-77025500D01*
X192087500Y-76934785D01*
X192541071Y-76934785D01*
X192722500Y-77025500D01*
X192813214Y-77116214D01*
X192903928Y-77297642D01*
X192903928Y-77479071D01*
X192813214Y-77751214D01*
X191724642Y-78839785D01*
X192903928Y-78839785D01*
%TO.C,R13*%
X168066357Y-31214785D02*
X167431357Y-30307642D01*
X166977785Y-31214785D02*
X166977785Y-29309785D01*
X167703500Y-29309785D01*
X167884928Y-29400500D01*
X167975642Y-29491214D01*
X168066357Y-29672642D01*
X168066357Y-29944785D01*
X167975642Y-30126214D01*
X167884928Y-30216928D01*
X167703500Y-30307642D01*
X166977785Y-30307642D01*
X169880642Y-31214785D02*
X168792071Y-31214785D01*
X169336357Y-31214785D02*
X169336357Y-29309785D01*
X169154928Y-29581928D01*
X168973500Y-29763357D01*
X168792071Y-29854071D01*
X170515642Y-29309785D02*
X171694928Y-29309785D01*
X171059928Y-30035500D01*
X171332071Y-30035500D01*
X171513500Y-30126214D01*
X171604214Y-30216928D01*
X171694928Y-30398357D01*
X171694928Y-30851928D01*
X171604214Y-31033357D01*
X171513500Y-31124071D01*
X171332071Y-31214785D01*
X170787785Y-31214785D01*
X170606357Y-31124071D01*
X170515642Y-31033357D01*
%TO.C,C29*%
X177083357Y-129966357D02*
X176992642Y-130057071D01*
X176720500Y-130147785D01*
X176539071Y-130147785D01*
X176266928Y-130057071D01*
X176085500Y-129875642D01*
X175994785Y-129694214D01*
X175904071Y-129331357D01*
X175904071Y-129059214D01*
X175994785Y-128696357D01*
X176085500Y-128514928D01*
X176266928Y-128333500D01*
X176539071Y-128242785D01*
X176720500Y-128242785D01*
X176992642Y-128333500D01*
X177083357Y-128424214D01*
X177809071Y-128424214D02*
X177899785Y-128333500D01*
X178081214Y-128242785D01*
X178534785Y-128242785D01*
X178716214Y-128333500D01*
X178806928Y-128424214D01*
X178897642Y-128605642D01*
X178897642Y-128787071D01*
X178806928Y-129059214D01*
X177718357Y-130147785D01*
X178897642Y-130147785D01*
X179804785Y-130147785D02*
X180167642Y-130147785D01*
X180349071Y-130057071D01*
X180439785Y-129966357D01*
X180621214Y-129694214D01*
X180711928Y-129331357D01*
X180711928Y-128605642D01*
X180621214Y-128424214D01*
X180530500Y-128333500D01*
X180349071Y-128242785D01*
X179986214Y-128242785D01*
X179804785Y-128333500D01*
X179714071Y-128424214D01*
X179623357Y-128605642D01*
X179623357Y-129059214D01*
X179714071Y-129240642D01*
X179804785Y-129331357D01*
X179986214Y-129422071D01*
X180349071Y-129422071D01*
X180530500Y-129331357D01*
X180621214Y-129240642D01*
X180711928Y-129059214D01*
%TO.C,C7*%
X149796500Y-105328357D02*
X149705785Y-105419071D01*
X149433642Y-105509785D01*
X149252214Y-105509785D01*
X148980071Y-105419071D01*
X148798642Y-105237642D01*
X148707928Y-105056214D01*
X148617214Y-104693357D01*
X148617214Y-104421214D01*
X148707928Y-104058357D01*
X148798642Y-103876928D01*
X148980071Y-103695500D01*
X149252214Y-103604785D01*
X149433642Y-103604785D01*
X149705785Y-103695500D01*
X149796500Y-103786214D01*
X150431500Y-103604785D02*
X151701500Y-103604785D01*
X150885071Y-105509785D01*
%TO.C,C37*%
X169463357Y-130474357D02*
X169372642Y-130565071D01*
X169100500Y-130655785D01*
X168919071Y-130655785D01*
X168646928Y-130565071D01*
X168465500Y-130383642D01*
X168374785Y-130202214D01*
X168284071Y-129839357D01*
X168284071Y-129567214D01*
X168374785Y-129204357D01*
X168465500Y-129022928D01*
X168646928Y-128841500D01*
X168919071Y-128750785D01*
X169100500Y-128750785D01*
X169372642Y-128841500D01*
X169463357Y-128932214D01*
X170098357Y-128750785D02*
X171277642Y-128750785D01*
X170642642Y-129476500D01*
X170914785Y-129476500D01*
X171096214Y-129567214D01*
X171186928Y-129657928D01*
X171277642Y-129839357D01*
X171277642Y-130292928D01*
X171186928Y-130474357D01*
X171096214Y-130565071D01*
X170914785Y-130655785D01*
X170370500Y-130655785D01*
X170189071Y-130565071D01*
X170098357Y-130474357D01*
X171912642Y-128750785D02*
X173182642Y-128750785D01*
X172366214Y-130655785D01*
%TO.C,IC9*%
X63991671Y-72616785D02*
X63991671Y-70711785D01*
X65987385Y-72435357D02*
X65896671Y-72526071D01*
X65624528Y-72616785D01*
X65443100Y-72616785D01*
X65170957Y-72526071D01*
X64989528Y-72344642D01*
X64898814Y-72163214D01*
X64808100Y-71800357D01*
X64808100Y-71528214D01*
X64898814Y-71165357D01*
X64989528Y-70983928D01*
X65170957Y-70802500D01*
X65443100Y-70711785D01*
X65624528Y-70711785D01*
X65896671Y-70802500D01*
X65987385Y-70893214D01*
X66894528Y-72616785D02*
X67257385Y-72616785D01*
X67438814Y-72526071D01*
X67529528Y-72435357D01*
X67710957Y-72163214D01*
X67801671Y-71800357D01*
X67801671Y-71074642D01*
X67710957Y-70893214D01*
X67620242Y-70802500D01*
X67438814Y-70711785D01*
X67075957Y-70711785D01*
X66894528Y-70802500D01*
X66803814Y-70893214D01*
X66713100Y-71074642D01*
X66713100Y-71528214D01*
X66803814Y-71709642D01*
X66894528Y-71800357D01*
X67075957Y-71891071D01*
X67438814Y-71891071D01*
X67620242Y-71800357D01*
X67710957Y-71709642D01*
X67801671Y-71528214D01*
%TO.C,R11*%
X188440785Y-33101642D02*
X187533642Y-33736642D01*
X188440785Y-34190214D02*
X186535785Y-34190214D01*
X186535785Y-33464500D01*
X186626500Y-33283071D01*
X186717214Y-33192357D01*
X186898642Y-33101642D01*
X187170785Y-33101642D01*
X187352214Y-33192357D01*
X187442928Y-33283071D01*
X187533642Y-33464500D01*
X187533642Y-34190214D01*
X188440785Y-31287357D02*
X188440785Y-32375928D01*
X188440785Y-31831642D02*
X186535785Y-31831642D01*
X186807928Y-32013071D01*
X186989357Y-32194500D01*
X187080071Y-32375928D01*
X188440785Y-29473071D02*
X188440785Y-30561642D01*
X188440785Y-30017357D02*
X186535785Y-30017357D01*
X186807928Y-30198785D01*
X186989357Y-30380214D01*
X187080071Y-30561642D01*
%TO.C,C27*%
X91993357Y-121239642D02*
X92084071Y-121330357D01*
X92174785Y-121602500D01*
X92174785Y-121783928D01*
X92084071Y-122056071D01*
X91902642Y-122237500D01*
X91721214Y-122328214D01*
X91358357Y-122418928D01*
X91086214Y-122418928D01*
X90723357Y-122328214D01*
X90541928Y-122237500D01*
X90360500Y-122056071D01*
X90269785Y-121783928D01*
X90269785Y-121602500D01*
X90360500Y-121330357D01*
X90451214Y-121239642D01*
X90451214Y-120513928D02*
X90360500Y-120423214D01*
X90269785Y-120241785D01*
X90269785Y-119788214D01*
X90360500Y-119606785D01*
X90451214Y-119516071D01*
X90632642Y-119425357D01*
X90814071Y-119425357D01*
X91086214Y-119516071D01*
X92174785Y-120604642D01*
X92174785Y-119425357D01*
X90269785Y-118790357D02*
X90269785Y-117520357D01*
X92174785Y-118336785D01*
%TO.C,RN1*%
X111714642Y-85433785D02*
X111079642Y-84526642D01*
X110626071Y-85433785D02*
X110626071Y-83528785D01*
X111351785Y-83528785D01*
X111533214Y-83619500D01*
X111623928Y-83710214D01*
X111714642Y-83891642D01*
X111714642Y-84163785D01*
X111623928Y-84345214D01*
X111533214Y-84435928D01*
X111351785Y-84526642D01*
X110626071Y-84526642D01*
X112531071Y-85433785D02*
X112531071Y-83528785D01*
X113619642Y-85433785D01*
X113619642Y-83528785D01*
X115524642Y-85433785D02*
X114436071Y-85433785D01*
X114980357Y-85433785D02*
X114980357Y-83528785D01*
X114798928Y-83800928D01*
X114617500Y-83982357D01*
X114436071Y-84073071D01*
%TO.C,IC7*%
X63734042Y-113891785D02*
X63734042Y-111986785D01*
X65729757Y-113710357D02*
X65639042Y-113801071D01*
X65366900Y-113891785D01*
X65185471Y-113891785D01*
X64913328Y-113801071D01*
X64731900Y-113619642D01*
X64641185Y-113438214D01*
X64550471Y-113075357D01*
X64550471Y-112803214D01*
X64641185Y-112440357D01*
X64731900Y-112258928D01*
X64913328Y-112077500D01*
X65185471Y-111986785D01*
X65366900Y-111986785D01*
X65639042Y-112077500D01*
X65729757Y-112168214D01*
X66364757Y-111986785D02*
X67634757Y-111986785D01*
X66818328Y-113891785D01*
%TO.C,R2*%
X195425785Y-33210500D02*
X194518642Y-33845500D01*
X195425785Y-34299071D02*
X193520785Y-34299071D01*
X193520785Y-33573357D01*
X193611500Y-33391928D01*
X193702214Y-33301214D01*
X193883642Y-33210500D01*
X194155785Y-33210500D01*
X194337214Y-33301214D01*
X194427928Y-33391928D01*
X194518642Y-33573357D01*
X194518642Y-34299071D01*
X193702214Y-32484785D02*
X193611500Y-32394071D01*
X193520785Y-32212642D01*
X193520785Y-31759071D01*
X193611500Y-31577642D01*
X193702214Y-31486928D01*
X193883642Y-31396214D01*
X194065071Y-31396214D01*
X194337214Y-31486928D01*
X195425785Y-32575500D01*
X195425785Y-31396214D01*
%TO.C,C1*%
X145478500Y-66466357D02*
X145387785Y-66557071D01*
X145115642Y-66647785D01*
X144934214Y-66647785D01*
X144662071Y-66557071D01*
X144480642Y-66375642D01*
X144389928Y-66194214D01*
X144299214Y-65831357D01*
X144299214Y-65559214D01*
X144389928Y-65196357D01*
X144480642Y-65014928D01*
X144662071Y-64833500D01*
X144934214Y-64742785D01*
X145115642Y-64742785D01*
X145387785Y-64833500D01*
X145478500Y-64924214D01*
X147292785Y-66647785D02*
X146204214Y-66647785D01*
X146748500Y-66647785D02*
X146748500Y-64742785D01*
X146567071Y-65014928D01*
X146385642Y-65196357D01*
X146204214Y-65287071D01*
%TO.C,IC8*%
X63864671Y-93317785D02*
X63864671Y-91412785D01*
X65860385Y-93136357D02*
X65769671Y-93227071D01*
X65497528Y-93317785D01*
X65316100Y-93317785D01*
X65043957Y-93227071D01*
X64862528Y-93045642D01*
X64771814Y-92864214D01*
X64681100Y-92501357D01*
X64681100Y-92229214D01*
X64771814Y-91866357D01*
X64862528Y-91684928D01*
X65043957Y-91503500D01*
X65316100Y-91412785D01*
X65497528Y-91412785D01*
X65769671Y-91503500D01*
X65860385Y-91594214D01*
X66948957Y-92229214D02*
X66767528Y-92138500D01*
X66676814Y-92047785D01*
X66586100Y-91866357D01*
X66586100Y-91775642D01*
X66676814Y-91594214D01*
X66767528Y-91503500D01*
X66948957Y-91412785D01*
X67311814Y-91412785D01*
X67493242Y-91503500D01*
X67583957Y-91594214D01*
X67674671Y-91775642D01*
X67674671Y-91866357D01*
X67583957Y-92047785D01*
X67493242Y-92138500D01*
X67311814Y-92229214D01*
X66948957Y-92229214D01*
X66767528Y-92319928D01*
X66676814Y-92410642D01*
X66586100Y-92592071D01*
X66586100Y-92954928D01*
X66676814Y-93136357D01*
X66767528Y-93227071D01*
X66948957Y-93317785D01*
X67311814Y-93317785D01*
X67493242Y-93227071D01*
X67583957Y-93136357D01*
X67674671Y-92954928D01*
X67674671Y-92592071D01*
X67583957Y-92410642D01*
X67493242Y-92319928D01*
X67311814Y-92229214D01*
%TO.C,IC2*%
X142085785Y-55453642D02*
X140180785Y-55453642D01*
X141904357Y-53457928D02*
X141995071Y-53548642D01*
X142085785Y-53820785D01*
X142085785Y-54002214D01*
X141995071Y-54274357D01*
X141813642Y-54455785D01*
X141632214Y-54546500D01*
X141269357Y-54637214D01*
X140997214Y-54637214D01*
X140634357Y-54546500D01*
X140452928Y-54455785D01*
X140271500Y-54274357D01*
X140180785Y-54002214D01*
X140180785Y-53820785D01*
X140271500Y-53548642D01*
X140362214Y-53457928D01*
X140362214Y-52732214D02*
X140271500Y-52641500D01*
X140180785Y-52460071D01*
X140180785Y-52006500D01*
X140271500Y-51825071D01*
X140362214Y-51734357D01*
X140543642Y-51643642D01*
X140725071Y-51643642D01*
X140997214Y-51734357D01*
X142085785Y-52822928D01*
X142085785Y-51643642D01*
%TO.C,C26*%
X179623357Y-53294642D02*
X179714071Y-53385357D01*
X179804785Y-53657500D01*
X179804785Y-53838928D01*
X179714071Y-54111071D01*
X179532642Y-54292500D01*
X179351214Y-54383214D01*
X178988357Y-54473928D01*
X178716214Y-54473928D01*
X178353357Y-54383214D01*
X178171928Y-54292500D01*
X177990500Y-54111071D01*
X177899785Y-53838928D01*
X177899785Y-53657500D01*
X177990500Y-53385357D01*
X178081214Y-53294642D01*
X178081214Y-52568928D02*
X177990500Y-52478214D01*
X177899785Y-52296785D01*
X177899785Y-51843214D01*
X177990500Y-51661785D01*
X178081214Y-51571071D01*
X178262642Y-51480357D01*
X178444071Y-51480357D01*
X178716214Y-51571071D01*
X179804785Y-52659642D01*
X179804785Y-51480357D01*
X177899785Y-49847500D02*
X177899785Y-50210357D01*
X177990500Y-50391785D01*
X178081214Y-50482500D01*
X178353357Y-50663928D01*
X178716214Y-50754642D01*
X179441928Y-50754642D01*
X179623357Y-50663928D01*
X179714071Y-50573214D01*
X179804785Y-50391785D01*
X179804785Y-50028928D01*
X179714071Y-49847500D01*
X179623357Y-49756785D01*
X179441928Y-49666071D01*
X178988357Y-49666071D01*
X178806928Y-49756785D01*
X178716214Y-49847500D01*
X178625500Y-50028928D01*
X178625500Y-50391785D01*
X178716214Y-50573214D01*
X178806928Y-50663928D01*
X178988357Y-50754642D01*
%TO.C,C3*%
X141668500Y-102470857D02*
X141577785Y-102561571D01*
X141305642Y-102652285D01*
X141124214Y-102652285D01*
X140852071Y-102561571D01*
X140670642Y-102380142D01*
X140579928Y-102198714D01*
X140489214Y-101835857D01*
X140489214Y-101563714D01*
X140579928Y-101200857D01*
X140670642Y-101019428D01*
X140852071Y-100838000D01*
X141124214Y-100747285D01*
X141305642Y-100747285D01*
X141577785Y-100838000D01*
X141668500Y-100928714D01*
X142303500Y-100747285D02*
X143482785Y-100747285D01*
X142847785Y-101473000D01*
X143119928Y-101473000D01*
X143301357Y-101563714D01*
X143392071Y-101654428D01*
X143482785Y-101835857D01*
X143482785Y-102289428D01*
X143392071Y-102470857D01*
X143301357Y-102561571D01*
X143119928Y-102652285D01*
X142575642Y-102652285D01*
X142394214Y-102561571D01*
X142303500Y-102470857D01*
%TO.C,C25*%
X175940357Y-53294642D02*
X176031071Y-53385357D01*
X176121785Y-53657500D01*
X176121785Y-53838928D01*
X176031071Y-54111071D01*
X175849642Y-54292500D01*
X175668214Y-54383214D01*
X175305357Y-54473928D01*
X175033214Y-54473928D01*
X174670357Y-54383214D01*
X174488928Y-54292500D01*
X174307500Y-54111071D01*
X174216785Y-53838928D01*
X174216785Y-53657500D01*
X174307500Y-53385357D01*
X174398214Y-53294642D01*
X174398214Y-52568928D02*
X174307500Y-52478214D01*
X174216785Y-52296785D01*
X174216785Y-51843214D01*
X174307500Y-51661785D01*
X174398214Y-51571071D01*
X174579642Y-51480357D01*
X174761071Y-51480357D01*
X175033214Y-51571071D01*
X176121785Y-52659642D01*
X176121785Y-51480357D01*
X174216785Y-49756785D02*
X174216785Y-50663928D01*
X175123928Y-50754642D01*
X175033214Y-50663928D01*
X174942500Y-50482500D01*
X174942500Y-50028928D01*
X175033214Y-49847500D01*
X175123928Y-49756785D01*
X175305357Y-49666071D01*
X175758928Y-49666071D01*
X175940357Y-49756785D01*
X176031071Y-49847500D01*
X176121785Y-50028928D01*
X176121785Y-50482500D01*
X176031071Y-50663928D01*
X175940357Y-50754642D01*
%TO.C,R3*%
X167322500Y-79538285D02*
X166687500Y-78631142D01*
X166233928Y-79538285D02*
X166233928Y-77633285D01*
X166959642Y-77633285D01*
X167141071Y-77724000D01*
X167231785Y-77814714D01*
X167322500Y-77996142D01*
X167322500Y-78268285D01*
X167231785Y-78449714D01*
X167141071Y-78540428D01*
X166959642Y-78631142D01*
X166233928Y-78631142D01*
X167957500Y-77633285D02*
X169136785Y-77633285D01*
X168501785Y-78359000D01*
X168773928Y-78359000D01*
X168955357Y-78449714D01*
X169046071Y-78540428D01*
X169136785Y-78721857D01*
X169136785Y-79175428D01*
X169046071Y-79356857D01*
X168955357Y-79447571D01*
X168773928Y-79538285D01*
X168229642Y-79538285D01*
X168048214Y-79447571D01*
X167957500Y-79356857D01*
%TO.C,C11*%
X165399357Y-69260357D02*
X165308642Y-69351071D01*
X165036500Y-69441785D01*
X164855071Y-69441785D01*
X164582928Y-69351071D01*
X164401500Y-69169642D01*
X164310785Y-68988214D01*
X164220071Y-68625357D01*
X164220071Y-68353214D01*
X164310785Y-67990357D01*
X164401500Y-67808928D01*
X164582928Y-67627500D01*
X164855071Y-67536785D01*
X165036500Y-67536785D01*
X165308642Y-67627500D01*
X165399357Y-67718214D01*
X167213642Y-69441785D02*
X166125071Y-69441785D01*
X166669357Y-69441785D02*
X166669357Y-67536785D01*
X166487928Y-67808928D01*
X166306500Y-67990357D01*
X166125071Y-68081071D01*
X169027928Y-69441785D02*
X167939357Y-69441785D01*
X168483642Y-69441785D02*
X168483642Y-67536785D01*
X168302214Y-67808928D01*
X168120785Y-67990357D01*
X167939357Y-68081071D01*
%TO.C,C16*%
X86532357Y-86060642D02*
X86623071Y-86151357D01*
X86713785Y-86423500D01*
X86713785Y-86604928D01*
X86623071Y-86877071D01*
X86441642Y-87058500D01*
X86260214Y-87149214D01*
X85897357Y-87239928D01*
X85625214Y-87239928D01*
X85262357Y-87149214D01*
X85080928Y-87058500D01*
X84899500Y-86877071D01*
X84808785Y-86604928D01*
X84808785Y-86423500D01*
X84899500Y-86151357D01*
X84990214Y-86060642D01*
X86713785Y-84246357D02*
X86713785Y-85334928D01*
X86713785Y-84790642D02*
X84808785Y-84790642D01*
X85080928Y-84972071D01*
X85262357Y-85153500D01*
X85353071Y-85334928D01*
X84808785Y-82613500D02*
X84808785Y-82976357D01*
X84899500Y-83157785D01*
X84990214Y-83248500D01*
X85262357Y-83429928D01*
X85625214Y-83520642D01*
X86350928Y-83520642D01*
X86532357Y-83429928D01*
X86623071Y-83339214D01*
X86713785Y-83157785D01*
X86713785Y-82794928D01*
X86623071Y-82613500D01*
X86532357Y-82522785D01*
X86350928Y-82432071D01*
X85897357Y-82432071D01*
X85715928Y-82522785D01*
X85625214Y-82613500D01*
X85534500Y-82794928D01*
X85534500Y-83157785D01*
X85625214Y-83339214D01*
X85715928Y-83429928D01*
X85897357Y-83520642D01*
%TO.C,R5*%
X139382500Y-31087785D02*
X138747500Y-30180642D01*
X138293928Y-31087785D02*
X138293928Y-29182785D01*
X139019642Y-29182785D01*
X139201071Y-29273500D01*
X139291785Y-29364214D01*
X139382500Y-29545642D01*
X139382500Y-29817785D01*
X139291785Y-29999214D01*
X139201071Y-30089928D01*
X139019642Y-30180642D01*
X138293928Y-30180642D01*
X141106071Y-29182785D02*
X140198928Y-29182785D01*
X140108214Y-30089928D01*
X140198928Y-29999214D01*
X140380357Y-29908500D01*
X140833928Y-29908500D01*
X141015357Y-29999214D01*
X141106071Y-30089928D01*
X141196785Y-30271357D01*
X141196785Y-30724928D01*
X141106071Y-30906357D01*
X141015357Y-30997071D01*
X140833928Y-31087785D01*
X140380357Y-31087785D01*
X140198928Y-30997071D01*
X140108214Y-30906357D01*
%TO.C,C19*%
X158414357Y-61386357D02*
X158323642Y-61477071D01*
X158051500Y-61567785D01*
X157870071Y-61567785D01*
X157597928Y-61477071D01*
X157416500Y-61295642D01*
X157325785Y-61114214D01*
X157235071Y-60751357D01*
X157235071Y-60479214D01*
X157325785Y-60116357D01*
X157416500Y-59934928D01*
X157597928Y-59753500D01*
X157870071Y-59662785D01*
X158051500Y-59662785D01*
X158323642Y-59753500D01*
X158414357Y-59844214D01*
X160228642Y-61567785D02*
X159140071Y-61567785D01*
X159684357Y-61567785D02*
X159684357Y-59662785D01*
X159502928Y-59934928D01*
X159321500Y-60116357D01*
X159140071Y-60207071D01*
X161135785Y-61567785D02*
X161498642Y-61567785D01*
X161680071Y-61477071D01*
X161770785Y-61386357D01*
X161952214Y-61114214D01*
X162042928Y-60751357D01*
X162042928Y-60025642D01*
X161952214Y-59844214D01*
X161861500Y-59753500D01*
X161680071Y-59662785D01*
X161317214Y-59662785D01*
X161135785Y-59753500D01*
X161045071Y-59844214D01*
X160954357Y-60025642D01*
X160954357Y-60479214D01*
X161045071Y-60660642D01*
X161135785Y-60751357D01*
X161317214Y-60842071D01*
X161680071Y-60842071D01*
X161861500Y-60751357D01*
X161952214Y-60660642D01*
X162042928Y-60479214D01*
%TO.C,C38*%
X181655357Y-124886357D02*
X181564642Y-124977071D01*
X181292500Y-125067785D01*
X181111071Y-125067785D01*
X180838928Y-124977071D01*
X180657500Y-124795642D01*
X180566785Y-124614214D01*
X180476071Y-124251357D01*
X180476071Y-123979214D01*
X180566785Y-123616357D01*
X180657500Y-123434928D01*
X180838928Y-123253500D01*
X181111071Y-123162785D01*
X181292500Y-123162785D01*
X181564642Y-123253500D01*
X181655357Y-123344214D01*
X182290357Y-123162785D02*
X183469642Y-123162785D01*
X182834642Y-123888500D01*
X183106785Y-123888500D01*
X183288214Y-123979214D01*
X183378928Y-124069928D01*
X183469642Y-124251357D01*
X183469642Y-124704928D01*
X183378928Y-124886357D01*
X183288214Y-124977071D01*
X183106785Y-125067785D01*
X182562500Y-125067785D01*
X182381071Y-124977071D01*
X182290357Y-124886357D01*
X184558214Y-123979214D02*
X184376785Y-123888500D01*
X184286071Y-123797785D01*
X184195357Y-123616357D01*
X184195357Y-123525642D01*
X184286071Y-123344214D01*
X184376785Y-123253500D01*
X184558214Y-123162785D01*
X184921071Y-123162785D01*
X185102500Y-123253500D01*
X185193214Y-123344214D01*
X185283928Y-123525642D01*
X185283928Y-123616357D01*
X185193214Y-123797785D01*
X185102500Y-123888500D01*
X184921071Y-123979214D01*
X184558214Y-123979214D01*
X184376785Y-124069928D01*
X184286071Y-124160642D01*
X184195357Y-124342071D01*
X184195357Y-124704928D01*
X184286071Y-124886357D01*
X184376785Y-124977071D01*
X184558214Y-125067785D01*
X184921071Y-125067785D01*
X185102500Y-124977071D01*
X185193214Y-124886357D01*
X185283928Y-124704928D01*
X185283928Y-124342071D01*
X185193214Y-124160642D01*
X185102500Y-124069928D01*
X184921071Y-123979214D01*
%TO.C,C18*%
X155239357Y-45384357D02*
X155148642Y-45475071D01*
X154876500Y-45565785D01*
X154695071Y-45565785D01*
X154422928Y-45475071D01*
X154241500Y-45293642D01*
X154150785Y-45112214D01*
X154060071Y-44749357D01*
X154060071Y-44477214D01*
X154150785Y-44114357D01*
X154241500Y-43932928D01*
X154422928Y-43751500D01*
X154695071Y-43660785D01*
X154876500Y-43660785D01*
X155148642Y-43751500D01*
X155239357Y-43842214D01*
X157053642Y-45565785D02*
X155965071Y-45565785D01*
X156509357Y-45565785D02*
X156509357Y-43660785D01*
X156327928Y-43932928D01*
X156146500Y-44114357D01*
X155965071Y-44205071D01*
X158142214Y-44477214D02*
X157960785Y-44386500D01*
X157870071Y-44295785D01*
X157779357Y-44114357D01*
X157779357Y-44023642D01*
X157870071Y-43842214D01*
X157960785Y-43751500D01*
X158142214Y-43660785D01*
X158505071Y-43660785D01*
X158686500Y-43751500D01*
X158777214Y-43842214D01*
X158867928Y-44023642D01*
X158867928Y-44114357D01*
X158777214Y-44295785D01*
X158686500Y-44386500D01*
X158505071Y-44477214D01*
X158142214Y-44477214D01*
X157960785Y-44567928D01*
X157870071Y-44658642D01*
X157779357Y-44840071D01*
X157779357Y-45202928D01*
X157870071Y-45384357D01*
X157960785Y-45475071D01*
X158142214Y-45565785D01*
X158505071Y-45565785D01*
X158686500Y-45475071D01*
X158777214Y-45384357D01*
X158867928Y-45202928D01*
X158867928Y-44840071D01*
X158777214Y-44658642D01*
X158686500Y-44567928D01*
X158505071Y-44477214D01*
%TO.C,C10*%
X173273357Y-86214857D02*
X173182642Y-86305571D01*
X172910500Y-86396285D01*
X172729071Y-86396285D01*
X172456928Y-86305571D01*
X172275500Y-86124142D01*
X172184785Y-85942714D01*
X172094071Y-85579857D01*
X172094071Y-85307714D01*
X172184785Y-84944857D01*
X172275500Y-84763428D01*
X172456928Y-84582000D01*
X172729071Y-84491285D01*
X172910500Y-84491285D01*
X173182642Y-84582000D01*
X173273357Y-84672714D01*
X175087642Y-86396285D02*
X173999071Y-86396285D01*
X174543357Y-86396285D02*
X174543357Y-84491285D01*
X174361928Y-84763428D01*
X174180500Y-84944857D01*
X173999071Y-85035571D01*
X176266928Y-84491285D02*
X176448357Y-84491285D01*
X176629785Y-84582000D01*
X176720500Y-84672714D01*
X176811214Y-84854142D01*
X176901928Y-85217000D01*
X176901928Y-85670571D01*
X176811214Y-86033428D01*
X176720500Y-86214857D01*
X176629785Y-86305571D01*
X176448357Y-86396285D01*
X176266928Y-86396285D01*
X176085500Y-86305571D01*
X175994785Y-86214857D01*
X175904071Y-86033428D01*
X175813357Y-85670571D01*
X175813357Y-85217000D01*
X175904071Y-84854142D01*
X175994785Y-84672714D01*
X176085500Y-84582000D01*
X176266928Y-84491285D01*
%TO.C,IC10*%
X64118671Y-52042785D02*
X64118671Y-50137785D01*
X66114385Y-51861357D02*
X66023671Y-51952071D01*
X65751528Y-52042785D01*
X65570100Y-52042785D01*
X65297957Y-51952071D01*
X65116528Y-51770642D01*
X65025814Y-51589214D01*
X64935100Y-51226357D01*
X64935100Y-50954214D01*
X65025814Y-50591357D01*
X65116528Y-50409928D01*
X65297957Y-50228500D01*
X65570100Y-50137785D01*
X65751528Y-50137785D01*
X66023671Y-50228500D01*
X66114385Y-50319214D01*
X67928671Y-52042785D02*
X66840100Y-52042785D01*
X67384385Y-52042785D02*
X67384385Y-50137785D01*
X67202957Y-50409928D01*
X67021528Y-50591357D01*
X66840100Y-50682071D01*
X69107957Y-50137785D02*
X69289385Y-50137785D01*
X69470814Y-50228500D01*
X69561528Y-50319214D01*
X69652242Y-50500642D01*
X69742957Y-50863500D01*
X69742957Y-51317071D01*
X69652242Y-51679928D01*
X69561528Y-51861357D01*
X69470814Y-51952071D01*
X69289385Y-52042785D01*
X69107957Y-52042785D01*
X68926528Y-51952071D01*
X68835814Y-51861357D01*
X68745100Y-51679928D01*
X68654385Y-51317071D01*
X68654385Y-50863500D01*
X68745100Y-50500642D01*
X68835814Y-50319214D01*
X68926528Y-50228500D01*
X69107957Y-50137785D01*
D11*
%TO.C,S1*%
X183509137Y-120803926D02*
X183653112Y-120851918D01*
X183893068Y-120851918D01*
X183989051Y-120803926D01*
X184037043Y-120755935D01*
X184085034Y-120659952D01*
X184085034Y-120563969D01*
X184037043Y-120467987D01*
X183989051Y-120419995D01*
X183893068Y-120372004D01*
X183701103Y-120324012D01*
X183605120Y-120276021D01*
X183557129Y-120228030D01*
X183509137Y-120132047D01*
X183509137Y-120036064D01*
X183557129Y-119940081D01*
X183605120Y-119892090D01*
X183701103Y-119844099D01*
X183941060Y-119844099D01*
X184085034Y-119892090D01*
X185044862Y-120851918D02*
X184468965Y-120851918D01*
X184756913Y-120851918D02*
X184756913Y-119844099D01*
X184660931Y-119988073D01*
X184564948Y-120084056D01*
X184468965Y-120132047D01*
D10*
%TO.C,R19*%
X129131785Y-63962642D02*
X128224642Y-64597642D01*
X129131785Y-65051214D02*
X127226785Y-65051214D01*
X127226785Y-64325500D01*
X127317500Y-64144071D01*
X127408214Y-64053357D01*
X127589642Y-63962642D01*
X127861785Y-63962642D01*
X128043214Y-64053357D01*
X128133928Y-64144071D01*
X128224642Y-64325500D01*
X128224642Y-65051214D01*
X129131785Y-62148357D02*
X129131785Y-63236928D01*
X129131785Y-62692642D02*
X127226785Y-62692642D01*
X127498928Y-62874071D01*
X127680357Y-63055500D01*
X127771071Y-63236928D01*
X129131785Y-61241214D02*
X129131785Y-60878357D01*
X129041071Y-60696928D01*
X128950357Y-60606214D01*
X128678214Y-60424785D01*
X128315357Y-60334071D01*
X127589642Y-60334071D01*
X127408214Y-60424785D01*
X127317500Y-60515500D01*
X127226785Y-60696928D01*
X127226785Y-61059785D01*
X127317500Y-61241214D01*
X127408214Y-61331928D01*
X127589642Y-61422642D01*
X128043214Y-61422642D01*
X128224642Y-61331928D01*
X128315357Y-61241214D01*
X128406071Y-61059785D01*
X128406071Y-60696928D01*
X128315357Y-60515500D01*
X128224642Y-60424785D01*
X128043214Y-60334071D01*
%TO.C,C24*%
X171368357Y-53040642D02*
X171459071Y-53131357D01*
X171549785Y-53403500D01*
X171549785Y-53584928D01*
X171459071Y-53857071D01*
X171277642Y-54038500D01*
X171096214Y-54129214D01*
X170733357Y-54219928D01*
X170461214Y-54219928D01*
X170098357Y-54129214D01*
X169916928Y-54038500D01*
X169735500Y-53857071D01*
X169644785Y-53584928D01*
X169644785Y-53403500D01*
X169735500Y-53131357D01*
X169826214Y-53040642D01*
X169826214Y-52314928D02*
X169735500Y-52224214D01*
X169644785Y-52042785D01*
X169644785Y-51589214D01*
X169735500Y-51407785D01*
X169826214Y-51317071D01*
X170007642Y-51226357D01*
X170189071Y-51226357D01*
X170461214Y-51317071D01*
X171549785Y-52405642D01*
X171549785Y-51226357D01*
X170279785Y-49593500D02*
X171549785Y-49593500D01*
X169554071Y-50047071D02*
X170914785Y-50500642D01*
X170914785Y-49321357D01*
%TO.C,C31*%
X135935357Y-69804642D02*
X136026071Y-69895357D01*
X136116785Y-70167500D01*
X136116785Y-70348928D01*
X136026071Y-70621071D01*
X135844642Y-70802500D01*
X135663214Y-70893214D01*
X135300357Y-70983928D01*
X135028214Y-70983928D01*
X134665357Y-70893214D01*
X134483928Y-70802500D01*
X134302500Y-70621071D01*
X134211785Y-70348928D01*
X134211785Y-70167500D01*
X134302500Y-69895357D01*
X134393214Y-69804642D01*
X134211785Y-69169642D02*
X134211785Y-67990357D01*
X134937500Y-68625357D01*
X134937500Y-68353214D01*
X135028214Y-68171785D01*
X135118928Y-68081071D01*
X135300357Y-67990357D01*
X135753928Y-67990357D01*
X135935357Y-68081071D01*
X136026071Y-68171785D01*
X136116785Y-68353214D01*
X136116785Y-68897500D01*
X136026071Y-69078928D01*
X135935357Y-69169642D01*
X136116785Y-66176071D02*
X136116785Y-67264642D01*
X136116785Y-66720357D02*
X134211785Y-66720357D01*
X134483928Y-66901785D01*
X134665357Y-67083214D01*
X134756071Y-67264642D01*
%TO.C,C36*%
X173654357Y-53040642D02*
X173745071Y-53131357D01*
X173835785Y-53403500D01*
X173835785Y-53584928D01*
X173745071Y-53857071D01*
X173563642Y-54038500D01*
X173382214Y-54129214D01*
X173019357Y-54219928D01*
X172747214Y-54219928D01*
X172384357Y-54129214D01*
X172202928Y-54038500D01*
X172021500Y-53857071D01*
X171930785Y-53584928D01*
X171930785Y-53403500D01*
X172021500Y-53131357D01*
X172112214Y-53040642D01*
X171930785Y-52405642D02*
X171930785Y-51226357D01*
X172656500Y-51861357D01*
X172656500Y-51589214D01*
X172747214Y-51407785D01*
X172837928Y-51317071D01*
X173019357Y-51226357D01*
X173472928Y-51226357D01*
X173654357Y-51317071D01*
X173745071Y-51407785D01*
X173835785Y-51589214D01*
X173835785Y-52133500D01*
X173745071Y-52314928D01*
X173654357Y-52405642D01*
X171930785Y-49593500D02*
X171930785Y-49956357D01*
X172021500Y-50137785D01*
X172112214Y-50228500D01*
X172384357Y-50409928D01*
X172747214Y-50500642D01*
X173472928Y-50500642D01*
X173654357Y-50409928D01*
X173745071Y-50319214D01*
X173835785Y-50137785D01*
X173835785Y-49774928D01*
X173745071Y-49593500D01*
X173654357Y-49502785D01*
X173472928Y-49412071D01*
X173019357Y-49412071D01*
X172837928Y-49502785D01*
X172747214Y-49593500D01*
X172656500Y-49774928D01*
X172656500Y-50137785D01*
X172747214Y-50319214D01*
X172837928Y-50409928D01*
X173019357Y-50500642D01*
%TO.C,C6*%
X166560500Y-101962857D02*
X166469785Y-102053571D01*
X166197642Y-102144285D01*
X166016214Y-102144285D01*
X165744071Y-102053571D01*
X165562642Y-101872142D01*
X165471928Y-101690714D01*
X165381214Y-101327857D01*
X165381214Y-101055714D01*
X165471928Y-100692857D01*
X165562642Y-100511428D01*
X165744071Y-100330000D01*
X166016214Y-100239285D01*
X166197642Y-100239285D01*
X166469785Y-100330000D01*
X166560500Y-100420714D01*
X168193357Y-100239285D02*
X167830500Y-100239285D01*
X167649071Y-100330000D01*
X167558357Y-100420714D01*
X167376928Y-100692857D01*
X167286214Y-101055714D01*
X167286214Y-101781428D01*
X167376928Y-101962857D01*
X167467642Y-102053571D01*
X167649071Y-102144285D01*
X168011928Y-102144285D01*
X168193357Y-102053571D01*
X168284071Y-101962857D01*
X168374785Y-101781428D01*
X168374785Y-101327857D01*
X168284071Y-101146428D01*
X168193357Y-101055714D01*
X168011928Y-100965000D01*
X167649071Y-100965000D01*
X167467642Y-101055714D01*
X167376928Y-101146428D01*
X167286214Y-101327857D01*
%TO.C,C20*%
X103550357Y-56052357D02*
X103459642Y-56143071D01*
X103187500Y-56233785D01*
X103006071Y-56233785D01*
X102733928Y-56143071D01*
X102552500Y-55961642D01*
X102461785Y-55780214D01*
X102371071Y-55417357D01*
X102371071Y-55145214D01*
X102461785Y-54782357D01*
X102552500Y-54600928D01*
X102733928Y-54419500D01*
X103006071Y-54328785D01*
X103187500Y-54328785D01*
X103459642Y-54419500D01*
X103550357Y-54510214D01*
X104276071Y-54510214D02*
X104366785Y-54419500D01*
X104548214Y-54328785D01*
X105001785Y-54328785D01*
X105183214Y-54419500D01*
X105273928Y-54510214D01*
X105364642Y-54691642D01*
X105364642Y-54873071D01*
X105273928Y-55145214D01*
X104185357Y-56233785D01*
X105364642Y-56233785D01*
X106543928Y-54328785D02*
X106725357Y-54328785D01*
X106906785Y-54419500D01*
X106997500Y-54510214D01*
X107088214Y-54691642D01*
X107178928Y-55054500D01*
X107178928Y-55508071D01*
X107088214Y-55870928D01*
X106997500Y-56052357D01*
X106906785Y-56143071D01*
X106725357Y-56233785D01*
X106543928Y-56233785D01*
X106362500Y-56143071D01*
X106271785Y-56052357D01*
X106181071Y-55870928D01*
X106090357Y-55508071D01*
X106090357Y-55054500D01*
X106181071Y-54691642D01*
X106271785Y-54510214D01*
X106362500Y-54419500D01*
X106543928Y-54328785D01*
%TO.C,IC12*%
X64118671Y-31341785D02*
X64118671Y-29436785D01*
X66114385Y-31160357D02*
X66023671Y-31251071D01*
X65751528Y-31341785D01*
X65570100Y-31341785D01*
X65297957Y-31251071D01*
X65116528Y-31069642D01*
X65025814Y-30888214D01*
X64935100Y-30525357D01*
X64935100Y-30253214D01*
X65025814Y-29890357D01*
X65116528Y-29708928D01*
X65297957Y-29527500D01*
X65570100Y-29436785D01*
X65751528Y-29436785D01*
X66023671Y-29527500D01*
X66114385Y-29618214D01*
X67928671Y-31341785D02*
X66840100Y-31341785D01*
X67384385Y-31341785D02*
X67384385Y-29436785D01*
X67202957Y-29708928D01*
X67021528Y-29890357D01*
X66840100Y-29981071D01*
X68654385Y-29618214D02*
X68745100Y-29527500D01*
X68926528Y-29436785D01*
X69380100Y-29436785D01*
X69561528Y-29527500D01*
X69652242Y-29618214D01*
X69742957Y-29799642D01*
X69742957Y-29981071D01*
X69652242Y-30253214D01*
X68563671Y-31341785D01*
X69742957Y-31341785D01*
%TO.C,R12*%
X184884785Y-33101642D02*
X183977642Y-33736642D01*
X184884785Y-34190214D02*
X182979785Y-34190214D01*
X182979785Y-33464500D01*
X183070500Y-33283071D01*
X183161214Y-33192357D01*
X183342642Y-33101642D01*
X183614785Y-33101642D01*
X183796214Y-33192357D01*
X183886928Y-33283071D01*
X183977642Y-33464500D01*
X183977642Y-34190214D01*
X184884785Y-31287357D02*
X184884785Y-32375928D01*
X184884785Y-31831642D02*
X182979785Y-31831642D01*
X183251928Y-32013071D01*
X183433357Y-32194500D01*
X183524071Y-32375928D01*
X183161214Y-30561642D02*
X183070500Y-30470928D01*
X182979785Y-30289500D01*
X182979785Y-29835928D01*
X183070500Y-29654500D01*
X183161214Y-29563785D01*
X183342642Y-29473071D01*
X183524071Y-29473071D01*
X183796214Y-29563785D01*
X184884785Y-30652357D01*
X184884785Y-29473071D01*
%TO.C,IC4*%
X115869357Y-90015785D02*
X115869357Y-88110785D01*
X117865071Y-89834357D02*
X117774357Y-89925071D01*
X117502214Y-90015785D01*
X117320785Y-90015785D01*
X117048642Y-89925071D01*
X116867214Y-89743642D01*
X116776500Y-89562214D01*
X116685785Y-89199357D01*
X116685785Y-88927214D01*
X116776500Y-88564357D01*
X116867214Y-88382928D01*
X117048642Y-88201500D01*
X117320785Y-88110785D01*
X117502214Y-88110785D01*
X117774357Y-88201500D01*
X117865071Y-88292214D01*
X119497928Y-88745785D02*
X119497928Y-90015785D01*
X119044357Y-88020071D02*
X118590785Y-89380785D01*
X119770071Y-89380785D01*
%TO.C,C35*%
X89453357Y-86060642D02*
X89544071Y-86151357D01*
X89634785Y-86423500D01*
X89634785Y-86604928D01*
X89544071Y-86877071D01*
X89362642Y-87058500D01*
X89181214Y-87149214D01*
X88818357Y-87239928D01*
X88546214Y-87239928D01*
X88183357Y-87149214D01*
X88001928Y-87058500D01*
X87820500Y-86877071D01*
X87729785Y-86604928D01*
X87729785Y-86423500D01*
X87820500Y-86151357D01*
X87911214Y-86060642D01*
X87729785Y-85425642D02*
X87729785Y-84246357D01*
X88455500Y-84881357D01*
X88455500Y-84609214D01*
X88546214Y-84427785D01*
X88636928Y-84337071D01*
X88818357Y-84246357D01*
X89271928Y-84246357D01*
X89453357Y-84337071D01*
X89544071Y-84427785D01*
X89634785Y-84609214D01*
X89634785Y-85153500D01*
X89544071Y-85334928D01*
X89453357Y-85425642D01*
X87729785Y-82522785D02*
X87729785Y-83429928D01*
X88636928Y-83520642D01*
X88546214Y-83429928D01*
X88455500Y-83248500D01*
X88455500Y-82794928D01*
X88546214Y-82613500D01*
X88636928Y-82522785D01*
X88818357Y-82432071D01*
X89271928Y-82432071D01*
X89453357Y-82522785D01*
X89544071Y-82613500D01*
X89634785Y-82794928D01*
X89634785Y-83248500D01*
X89544071Y-83429928D01*
X89453357Y-83520642D01*
%TO.C,C5*%
X136824357Y-108839000D02*
X136915071Y-108929714D01*
X137005785Y-109201857D01*
X137005785Y-109383285D01*
X136915071Y-109655428D01*
X136733642Y-109836857D01*
X136552214Y-109927571D01*
X136189357Y-110018285D01*
X135917214Y-110018285D01*
X135554357Y-109927571D01*
X135372928Y-109836857D01*
X135191500Y-109655428D01*
X135100785Y-109383285D01*
X135100785Y-109201857D01*
X135191500Y-108929714D01*
X135282214Y-108839000D01*
X135100785Y-107115428D02*
X135100785Y-108022571D01*
X136007928Y-108113285D01*
X135917214Y-108022571D01*
X135826500Y-107841142D01*
X135826500Y-107387571D01*
X135917214Y-107206142D01*
X136007928Y-107115428D01*
X136189357Y-107024714D01*
X136642928Y-107024714D01*
X136824357Y-107115428D01*
X136915071Y-107206142D01*
X137005785Y-107387571D01*
X137005785Y-107841142D01*
X136915071Y-108022571D01*
X136824357Y-108113285D01*
%TO.C,R8*%
X140053785Y-62039500D02*
X139146642Y-62674500D01*
X140053785Y-63128071D02*
X138148785Y-63128071D01*
X138148785Y-62402357D01*
X138239500Y-62220928D01*
X138330214Y-62130214D01*
X138511642Y-62039500D01*
X138783785Y-62039500D01*
X138965214Y-62130214D01*
X139055928Y-62220928D01*
X139146642Y-62402357D01*
X139146642Y-63128071D01*
X138965214Y-60950928D02*
X138874500Y-61132357D01*
X138783785Y-61223071D01*
X138602357Y-61313785D01*
X138511642Y-61313785D01*
X138330214Y-61223071D01*
X138239500Y-61132357D01*
X138148785Y-60950928D01*
X138148785Y-60588071D01*
X138239500Y-60406642D01*
X138330214Y-60315928D01*
X138511642Y-60225214D01*
X138602357Y-60225214D01*
X138783785Y-60315928D01*
X138874500Y-60406642D01*
X138965214Y-60588071D01*
X138965214Y-60950928D01*
X139055928Y-61132357D01*
X139146642Y-61223071D01*
X139328071Y-61313785D01*
X139690928Y-61313785D01*
X139872357Y-61223071D01*
X139963071Y-61132357D01*
X140053785Y-60950928D01*
X140053785Y-60588071D01*
X139963071Y-60406642D01*
X139872357Y-60315928D01*
X139690928Y-60225214D01*
X139328071Y-60225214D01*
X139146642Y-60315928D01*
X139055928Y-60406642D01*
X138965214Y-60588071D01*
%TO.C,C4*%
X134683500Y-102470857D02*
X134592785Y-102561571D01*
X134320642Y-102652285D01*
X134139214Y-102652285D01*
X133867071Y-102561571D01*
X133685642Y-102380142D01*
X133594928Y-102198714D01*
X133504214Y-101835857D01*
X133504214Y-101563714D01*
X133594928Y-101200857D01*
X133685642Y-101019428D01*
X133867071Y-100838000D01*
X134139214Y-100747285D01*
X134320642Y-100747285D01*
X134592785Y-100838000D01*
X134683500Y-100928714D01*
X136316357Y-101382285D02*
X136316357Y-102652285D01*
X135862785Y-100656571D02*
X135409214Y-102017285D01*
X136588500Y-102017285D01*
%TO.C,C2*%
X136842500Y-85579857D02*
X136751785Y-85670571D01*
X136479642Y-85761285D01*
X136298214Y-85761285D01*
X136026071Y-85670571D01*
X135844642Y-85489142D01*
X135753928Y-85307714D01*
X135663214Y-84944857D01*
X135663214Y-84672714D01*
X135753928Y-84309857D01*
X135844642Y-84128428D01*
X136026071Y-83947000D01*
X136298214Y-83856285D01*
X136479642Y-83856285D01*
X136751785Y-83947000D01*
X136842500Y-84037714D01*
X137568214Y-84037714D02*
X137658928Y-83947000D01*
X137840357Y-83856285D01*
X138293928Y-83856285D01*
X138475357Y-83947000D01*
X138566071Y-84037714D01*
X138656785Y-84219142D01*
X138656785Y-84400571D01*
X138566071Y-84672714D01*
X137477500Y-85761285D01*
X138656785Y-85761285D01*
%TO.C,C34*%
X131515757Y-37662757D02*
X131425042Y-37753471D01*
X131152900Y-37844185D01*
X130971471Y-37844185D01*
X130699328Y-37753471D01*
X130517900Y-37572042D01*
X130427185Y-37390614D01*
X130336471Y-37027757D01*
X130336471Y-36755614D01*
X130427185Y-36392757D01*
X130517900Y-36211328D01*
X130699328Y-36029900D01*
X130971471Y-35939185D01*
X131152900Y-35939185D01*
X131425042Y-36029900D01*
X131515757Y-36120614D01*
X132150757Y-35939185D02*
X133330042Y-35939185D01*
X132695042Y-36664900D01*
X132967185Y-36664900D01*
X133148614Y-36755614D01*
X133239328Y-36846328D01*
X133330042Y-37027757D01*
X133330042Y-37481328D01*
X133239328Y-37662757D01*
X133148614Y-37753471D01*
X132967185Y-37844185D01*
X132422900Y-37844185D01*
X132241471Y-37753471D01*
X132150757Y-37662757D01*
X134962900Y-36574185D02*
X134962900Y-37844185D01*
X134509328Y-35848471D02*
X134055757Y-37209185D01*
X135235042Y-37209185D01*
%TO.C,C30*%
X76816857Y-127362857D02*
X76726142Y-127453571D01*
X76454000Y-127544285D01*
X76272571Y-127544285D01*
X76000428Y-127453571D01*
X75819000Y-127272142D01*
X75728285Y-127090714D01*
X75637571Y-126727857D01*
X75637571Y-126455714D01*
X75728285Y-126092857D01*
X75819000Y-125911428D01*
X76000428Y-125730000D01*
X76272571Y-125639285D01*
X76454000Y-125639285D01*
X76726142Y-125730000D01*
X76816857Y-125820714D01*
X77451857Y-125639285D02*
X78631142Y-125639285D01*
X77996142Y-126365000D01*
X78268285Y-126365000D01*
X78449714Y-126455714D01*
X78540428Y-126546428D01*
X78631142Y-126727857D01*
X78631142Y-127181428D01*
X78540428Y-127362857D01*
X78449714Y-127453571D01*
X78268285Y-127544285D01*
X77724000Y-127544285D01*
X77542571Y-127453571D01*
X77451857Y-127362857D01*
X79810428Y-125639285D02*
X79991857Y-125639285D01*
X80173285Y-125730000D01*
X80264000Y-125820714D01*
X80354714Y-126002142D01*
X80445428Y-126365000D01*
X80445428Y-126818571D01*
X80354714Y-127181428D01*
X80264000Y-127362857D01*
X80173285Y-127453571D01*
X79991857Y-127544285D01*
X79810428Y-127544285D01*
X79629000Y-127453571D01*
X79538285Y-127362857D01*
X79447571Y-127181428D01*
X79356857Y-126818571D01*
X79356857Y-126365000D01*
X79447571Y-126002142D01*
X79538285Y-125820714D01*
X79629000Y-125730000D01*
X79810428Y-125639285D01*
%TO.C,C12*%
X153334357Y-69006357D02*
X153243642Y-69097071D01*
X152971500Y-69187785D01*
X152790071Y-69187785D01*
X152517928Y-69097071D01*
X152336500Y-68915642D01*
X152245785Y-68734214D01*
X152155071Y-68371357D01*
X152155071Y-68099214D01*
X152245785Y-67736357D01*
X152336500Y-67554928D01*
X152517928Y-67373500D01*
X152790071Y-67282785D01*
X152971500Y-67282785D01*
X153243642Y-67373500D01*
X153334357Y-67464214D01*
X155148642Y-69187785D02*
X154060071Y-69187785D01*
X154604357Y-69187785D02*
X154604357Y-67282785D01*
X154422928Y-67554928D01*
X154241500Y-67736357D01*
X154060071Y-67827071D01*
X155874357Y-67464214D02*
X155965071Y-67373500D01*
X156146500Y-67282785D01*
X156600071Y-67282785D01*
X156781500Y-67373500D01*
X156872214Y-67464214D01*
X156962928Y-67645642D01*
X156962928Y-67827071D01*
X156872214Y-68099214D01*
X155783642Y-69187785D01*
X156962928Y-69187785D01*
%TO.C,IC5*%
X99867357Y-90015785D02*
X99867357Y-88110785D01*
X101863071Y-89834357D02*
X101772357Y-89925071D01*
X101500214Y-90015785D01*
X101318785Y-90015785D01*
X101046642Y-89925071D01*
X100865214Y-89743642D01*
X100774500Y-89562214D01*
X100683785Y-89199357D01*
X100683785Y-88927214D01*
X100774500Y-88564357D01*
X100865214Y-88382928D01*
X101046642Y-88201500D01*
X101318785Y-88110785D01*
X101500214Y-88110785D01*
X101772357Y-88201500D01*
X101863071Y-88292214D01*
X103586642Y-88110785D02*
X102679500Y-88110785D01*
X102588785Y-89017928D01*
X102679500Y-88927214D01*
X102860928Y-88836500D01*
X103314500Y-88836500D01*
X103495928Y-88927214D01*
X103586642Y-89017928D01*
X103677357Y-89199357D01*
X103677357Y-89652928D01*
X103586642Y-89834357D01*
X103495928Y-89925071D01*
X103314500Y-90015785D01*
X102860928Y-90015785D01*
X102679500Y-89925071D01*
X102588785Y-89834357D01*
%TO.C,L1*%
X175577500Y-120241785D02*
X174670357Y-120241785D01*
X174670357Y-118336785D01*
X177210357Y-120241785D02*
X176121785Y-120241785D01*
X176666071Y-120241785D02*
X176666071Y-118336785D01*
X176484642Y-118608928D01*
X176303214Y-118790357D01*
X176121785Y-118881071D01*
%TO.C,C14*%
X121457357Y-104475642D02*
X121548071Y-104566357D01*
X121638785Y-104838500D01*
X121638785Y-105019928D01*
X121548071Y-105292071D01*
X121366642Y-105473500D01*
X121185214Y-105564214D01*
X120822357Y-105654928D01*
X120550214Y-105654928D01*
X120187357Y-105564214D01*
X120005928Y-105473500D01*
X119824500Y-105292071D01*
X119733785Y-105019928D01*
X119733785Y-104838500D01*
X119824500Y-104566357D01*
X119915214Y-104475642D01*
X121638785Y-102661357D02*
X121638785Y-103749928D01*
X121638785Y-103205642D02*
X119733785Y-103205642D01*
X120005928Y-103387071D01*
X120187357Y-103568500D01*
X120278071Y-103749928D01*
X120368785Y-101028500D02*
X121638785Y-101028500D01*
X119643071Y-101482071D02*
X121003785Y-101935642D01*
X121003785Y-100756357D01*
%TO.C,J1*%
X95123000Y-109446785D02*
X95123000Y-110807500D01*
X95032285Y-111079642D01*
X94850857Y-111261071D01*
X94578714Y-111351785D01*
X94397285Y-111351785D01*
X97028000Y-111351785D02*
X95939428Y-111351785D01*
X96483714Y-111351785D02*
X96483714Y-109446785D01*
X96302285Y-109718928D01*
X96120857Y-109900357D01*
X95939428Y-109991071D01*
%TO.C,L2*%
X180530500Y-112621785D02*
X179623357Y-112621785D01*
X179623357Y-110716785D01*
X181074785Y-110898214D02*
X181165500Y-110807500D01*
X181346928Y-110716785D01*
X181800500Y-110716785D01*
X181981928Y-110807500D01*
X182072642Y-110898214D01*
X182163357Y-111079642D01*
X182163357Y-111261071D01*
X182072642Y-111533214D01*
X180984071Y-112621785D01*
X182163357Y-112621785D01*
%TO.C,R14*%
X89916000Y-54864000D02*
X87376000Y-54864000D01*
X87376000Y-59944000D02*
X89916000Y-59944000D01*
X89916000Y-59944000D02*
X89916000Y-54864000D01*
X87376000Y-54864000D02*
X87376000Y-59944000D01*
%TO.C,R4*%
X146050000Y-82740500D02*
X146050000Y-77660500D01*
X143510000Y-77660500D02*
X143510000Y-82740500D01*
X143510000Y-82740500D02*
X146050000Y-82740500D01*
X146050000Y-77660500D02*
X143510000Y-77660500D01*
%TO.C,C15*%
X85344000Y-56134000D02*
X85344000Y-56769000D01*
X86614000Y-58039000D02*
X84074000Y-58039000D01*
X86614000Y-56769000D02*
X84074000Y-56769000D01*
X85344000Y-58674000D02*
X85344000Y-58039000D01*
%TO.C,C32*%
X85344000Y-35306000D02*
X85344000Y-35941000D01*
X86614000Y-35941000D02*
X84074000Y-35941000D01*
X85344000Y-37846000D02*
X85344000Y-37211000D01*
X86614000Y-37211000D02*
X84074000Y-37211000D01*
%TO.C,R10*%
X171450000Y-37846000D02*
X173990000Y-37846000D01*
X173990000Y-32766000D02*
X171450000Y-32766000D01*
X171450000Y-32766000D02*
X171450000Y-37846000D01*
X173990000Y-37846000D02*
X173990000Y-32766000D01*
D12*
%TO.C,S2*%
X185676000Y-105584000D02*
X193676000Y-105584000D01*
X195926000Y-96434000D02*
X204566000Y-96434000D01*
X205176000Y-97044000D02*
X205176000Y-104344000D01*
X185676000Y-95584000D02*
X193676000Y-95584000D01*
X185676000Y-98584000D02*
X185676000Y-95584000D01*
X185676000Y-105584000D02*
X185676000Y-102584000D01*
X186076000Y-102584000D02*
X186076000Y-101584000D01*
X204786000Y-104734000D02*
X195926000Y-104734000D01*
X195676000Y-103584000D02*
X195676000Y-97584000D01*
X186076000Y-98584000D02*
X185676000Y-98584000D01*
X186076000Y-99584000D02*
X186076000Y-98584000D01*
X185676000Y-102584000D02*
X186076000Y-102584000D01*
X205176000Y-97044000D02*
G75*
G03*
X204566000Y-96434000I-610000J0D01*
G01*
X204786000Y-104734000D02*
G75*
G03*
X205176000Y-104344000I0J390000D01*
G01*
D13*
X191786000Y-106097000D02*
G75*
G03*
X191786000Y-106097000I-100000J0D01*
G01*
D10*
%TO.C,C13*%
X155829000Y-110426500D02*
X155829000Y-112966500D01*
X154559000Y-110426500D02*
X154559000Y-112966500D01*
X153924000Y-111696500D02*
X154559000Y-111696500D01*
X156464000Y-111696500D02*
X155829000Y-111696500D01*
%TO.C,RP1*%
X195961000Y-58006000D02*
G75*
G03*
X195961000Y-58006000I-4699000J0D01*
G01*
%TO.C,R1*%
X189357000Y-38227000D02*
X189357000Y-43307000D01*
X191897000Y-43307000D02*
X191897000Y-38227000D01*
X189357000Y-43307000D02*
X191897000Y-43307000D01*
X191897000Y-38227000D02*
X189357000Y-38227000D01*
%TO.C,IC6*%
X93091000Y-97917000D02*
X115951000Y-97917000D01*
X115951000Y-101727000D02*
X114681000Y-101727000D01*
X114681000Y-101727000D02*
X114681000Y-104267000D01*
X114681000Y-104267000D02*
X115951000Y-104267000D01*
X93091000Y-108077000D02*
X93091000Y-97917000D01*
X115951000Y-97917000D02*
X115951000Y-108077000D01*
X115951000Y-108077000D02*
X93091000Y-108077000D01*
%TO.C,C21*%
X85598000Y-97536000D02*
X85598000Y-98171000D01*
X85598000Y-100076000D02*
X85598000Y-99441000D01*
X86868000Y-98171000D02*
X84328000Y-98171000D01*
X86868000Y-99441000D02*
X84328000Y-99441000D01*
%TO.C,R7*%
X150114000Y-45974000D02*
X150114000Y-43434000D01*
X150114000Y-43434000D02*
X145034000Y-43434000D01*
X145034000Y-43434000D02*
X145034000Y-45974000D01*
X145034000Y-45974000D02*
X150114000Y-45974000D01*
%TO.C,ZD1*%
X134975600Y-51333400D02*
X136245600Y-52603400D01*
X137515600Y-51333400D02*
X134975600Y-51333400D01*
X136245600Y-52603400D02*
X137515600Y-51333400D01*
X136245600Y-48158400D02*
X136245600Y-55778400D01*
X134975600Y-52603400D02*
X137515600Y-52603400D01*
%TO.C,IC3*%
X168148000Y-35687000D02*
X166878000Y-35687000D01*
X142748000Y-42037000D02*
X168148000Y-42037000D01*
X168148000Y-42037000D02*
X168148000Y-31877000D01*
X142748000Y-31877000D02*
X142748000Y-42037000D01*
X166878000Y-35687000D02*
X166878000Y-38227000D01*
X168148000Y-31877000D02*
X142748000Y-31877000D01*
X166878000Y-38227000D02*
X168148000Y-38227000D01*
%TO.C,C9*%
X165163500Y-109283500D02*
X162623500Y-109283500D01*
X163893500Y-106743500D02*
X162623500Y-106743500D01*
X165163500Y-108013500D02*
X162623500Y-108013500D01*
X163893500Y-107378500D02*
X163893500Y-108013500D01*
X163258500Y-106108500D02*
X163258500Y-107378500D01*
X163893500Y-109918500D02*
X163893500Y-109283500D01*
%TO.C,C23*%
X177736500Y-40830500D02*
X180276500Y-40830500D01*
X179006500Y-42100500D02*
X180276500Y-42100500D01*
X179006500Y-38925500D02*
X179006500Y-39560500D01*
X179006500Y-41465500D02*
X179006500Y-40830500D01*
X179641500Y-42735500D02*
X179641500Y-41465500D01*
X177736500Y-39560500D02*
X180276500Y-39560500D01*
%TO.C,R9*%
X90678000Y-59944000D02*
X93218000Y-59944000D01*
X90678000Y-54864000D02*
X90678000Y-59944000D01*
X93218000Y-59944000D02*
X93218000Y-54864000D01*
X93218000Y-54864000D02*
X90678000Y-54864000D01*
%TO.C,R6*%
X110490000Y-53594000D02*
X115570000Y-53594000D01*
X115570000Y-51054000D02*
X110490000Y-51054000D01*
X115570000Y-53594000D02*
X115570000Y-51054000D01*
X110490000Y-51054000D02*
X110490000Y-53594000D01*
%TO.C,C33*%
X132791200Y-51765200D02*
X132791200Y-52400200D01*
X131521200Y-53670200D02*
X134061200Y-53670200D01*
X131521200Y-52400200D02*
X134061200Y-52400200D01*
X132791200Y-54305200D02*
X132791200Y-53670200D01*
%TO.C,C8*%
X170434000Y-100012500D02*
X170434000Y-99377500D01*
X169164000Y-99377500D02*
X171704000Y-99377500D01*
X170434000Y-97472500D02*
X170434000Y-98107500D01*
X169164000Y-98107500D02*
X171704000Y-98107500D01*
%TO.C,C17*%
X183578500Y-42100500D02*
X184848500Y-42100500D01*
X183578500Y-38925500D02*
X183578500Y-39560500D01*
X182308500Y-40830500D02*
X184848500Y-40830500D01*
X184213500Y-42735500D02*
X184213500Y-41465500D01*
X183578500Y-41465500D02*
X183578500Y-40830500D01*
X182308500Y-39560500D02*
X184848500Y-39560500D01*
D12*
%TO.C,S3*%
X197040000Y-84003000D02*
X200540000Y-84003000D01*
X197040000Y-93503000D02*
X185540000Y-93503000D01*
X185540000Y-81503000D02*
X197040000Y-81503000D01*
X200540000Y-84003000D02*
X200540000Y-91003000D01*
X200540000Y-91003000D02*
X197040000Y-91003000D01*
X185540000Y-93503000D02*
X185540000Y-81503000D01*
X197040000Y-91003000D02*
X197040000Y-84003000D01*
X197040000Y-91003000D02*
X197040000Y-93503000D01*
X197040000Y-81503000D02*
X197040000Y-84003000D01*
D10*
%TO.C,IC1*%
X159766000Y-100520500D02*
X149606000Y-100520500D01*
X155956000Y-99250500D02*
X153416000Y-99250500D01*
X149606000Y-100520500D02*
X149606000Y-77660500D01*
X149606000Y-77660500D02*
X159766000Y-77660500D01*
X155956000Y-100520500D02*
X155956000Y-99250500D01*
X159766000Y-77660500D02*
X159766000Y-100520500D01*
X153416000Y-99250500D02*
X153416000Y-100520500D01*
%TO.C,C28*%
X119634000Y-57912000D02*
X120269000Y-57912000D01*
X121539000Y-56642000D02*
X121539000Y-59182000D01*
X120269000Y-56642000D02*
X120269000Y-59182000D01*
X122174000Y-57912000D02*
X121539000Y-57912000D01*
%TO.C,C22*%
X191770000Y-75184000D02*
X191135000Y-75184000D01*
X189230000Y-75184000D02*
X189865000Y-75184000D01*
X189865000Y-73914000D02*
X189865000Y-76454000D01*
X191135000Y-73914000D02*
X191135000Y-76454000D01*
%TO.C,R13*%
X157734000Y-28956000D02*
X157734000Y-31496000D01*
X157734000Y-31496000D02*
X162814000Y-31496000D01*
X162814000Y-31496000D02*
X162814000Y-28956000D01*
X162814000Y-28956000D02*
X157734000Y-28956000D01*
%TO.C,C29*%
X174498000Y-123698000D02*
X174498000Y-124333000D01*
X174498000Y-123063000D02*
X173228000Y-123063000D01*
X175768000Y-124333000D02*
X173228000Y-124333000D01*
X175768000Y-125603000D02*
X173228000Y-125603000D01*
X173863000Y-122428000D02*
X173863000Y-123698000D01*
X174498000Y-126238000D02*
X174498000Y-125603000D01*
%TO.C,C7*%
X156972000Y-104013000D02*
X155702000Y-104013000D01*
X155067000Y-105918000D02*
X155067000Y-103378000D01*
X153162000Y-104648000D02*
X153797000Y-104648000D01*
X153797000Y-105918000D02*
X153797000Y-103378000D01*
X156337000Y-104648000D02*
X156337000Y-103378000D01*
X155702000Y-104648000D02*
X155067000Y-104648000D01*
%TO.C,C37*%
X169418000Y-127000000D02*
X170053000Y-127000000D01*
X170053000Y-128270000D02*
X170053000Y-125730000D01*
X171958000Y-127000000D02*
X171323000Y-127000000D01*
X171323000Y-128270000D02*
X171323000Y-125730000D01*
%TO.C,IC9*%
X63373000Y-73152000D02*
X63373000Y-83312000D01*
X63373000Y-83312000D02*
X83693000Y-83312000D01*
X83693000Y-83312000D02*
X83693000Y-73152000D01*
X82423000Y-79502000D02*
X83693000Y-79502000D01*
X83693000Y-76962000D02*
X82423000Y-76962000D01*
X83693000Y-73152000D02*
X63373000Y-73152000D01*
X82423000Y-76962000D02*
X82423000Y-79502000D01*
%TO.C,R11*%
X186055000Y-38227000D02*
X186055000Y-43307000D01*
X188595000Y-43307000D02*
X188595000Y-38227000D01*
X188595000Y-38227000D02*
X186055000Y-38227000D01*
X186055000Y-43307000D02*
X188595000Y-43307000D01*
%TO.C,C27*%
X89408000Y-120269000D02*
X86868000Y-120269000D01*
X89408000Y-118999000D02*
X86868000Y-118999000D01*
X88138000Y-118364000D02*
X88138000Y-118999000D01*
X88138000Y-120904000D02*
X88138000Y-120269000D01*
D14*
%TO.C,RN1*%
X111122000Y-79756000D02*
X113922000Y-79756000D01*
X113922000Y-82466000D02*
X113922000Y-61806000D01*
X111122000Y-61806000D02*
X111122000Y-82466000D01*
X111122000Y-82466000D02*
X113922000Y-82466000D01*
X113922000Y-61806000D02*
X111122000Y-61806000D01*
D10*
%TO.C,IC7*%
X86233000Y-114427000D02*
X86233000Y-124587000D01*
X84963000Y-118237000D02*
X84963000Y-120777000D01*
X63373000Y-124587000D02*
X63373000Y-114427000D01*
X63373000Y-114427000D02*
X86233000Y-114427000D01*
X84963000Y-120777000D02*
X86233000Y-120777000D01*
X86233000Y-124587000D02*
X63373000Y-124587000D01*
X86233000Y-118237000D02*
X84963000Y-118237000D01*
%TO.C,R2*%
X192786000Y-43307000D02*
X195326000Y-43307000D01*
X195326000Y-43307000D02*
X195326000Y-38227000D01*
X192786000Y-38227000D02*
X192786000Y-43307000D01*
X195326000Y-38227000D02*
X192786000Y-38227000D01*
%TO.C,C1*%
X149352000Y-68580000D02*
X149352000Y-69215000D01*
X148082000Y-70485000D02*
X150622000Y-70485000D01*
X149352000Y-71120000D02*
X149352000Y-70485000D01*
X148082000Y-69215000D02*
X150622000Y-69215000D01*
X149987000Y-72390000D02*
X149987000Y-71120000D01*
X149352000Y-71755000D02*
X150622000Y-71755000D01*
%TO.C,IC8*%
X82423000Y-100139500D02*
X83693000Y-100139500D01*
X83693000Y-93789500D02*
X63373000Y-93789500D01*
X82423000Y-97599500D02*
X82423000Y-100139500D01*
X63373000Y-103949500D02*
X83693000Y-103949500D01*
X83693000Y-103949500D02*
X83693000Y-93789500D01*
X83693000Y-97599500D02*
X82423000Y-97599500D01*
X63373000Y-93789500D02*
X63373000Y-103949500D01*
%TO.C,IC2*%
X166878000Y-51816000D02*
X166878000Y-54356000D01*
X168148000Y-48006000D02*
X142748000Y-48006000D01*
X142748000Y-58166000D02*
X168148000Y-58166000D01*
X166878000Y-54356000D02*
X168148000Y-54356000D01*
X168148000Y-51816000D02*
X166878000Y-51816000D01*
X168148000Y-58166000D02*
X168148000Y-48006000D01*
X142748000Y-48006000D02*
X142748000Y-58166000D01*
%TO.C,C26*%
X180213000Y-57785000D02*
X177673000Y-57785000D01*
X178943000Y-59690000D02*
X178943000Y-59055000D01*
X180213000Y-59055000D02*
X177673000Y-59055000D01*
X178943000Y-57150000D02*
X178943000Y-57785000D01*
%TO.C,C3*%
X142049500Y-97472500D02*
X142049500Y-98107500D01*
X143319500Y-98107500D02*
X140779500Y-98107500D01*
X142049500Y-100012500D02*
X142049500Y-99377500D01*
X142049500Y-96837500D02*
X140779500Y-96837500D01*
X141414500Y-96202500D02*
X141414500Y-97472500D01*
X143319500Y-99377500D02*
X140779500Y-99377500D01*
%TO.C,C25*%
X175260000Y-57150000D02*
X175260000Y-57785000D01*
X176530000Y-57785000D02*
X173990000Y-57785000D01*
X176530000Y-59055000D02*
X173990000Y-59055000D01*
X175260000Y-59690000D02*
X175260000Y-59055000D01*
%TO.C,R3*%
X163068000Y-82740500D02*
X165608000Y-82740500D01*
X165608000Y-82740500D02*
X165608000Y-77660500D01*
X165608000Y-77660500D02*
X163068000Y-77660500D01*
X163068000Y-77660500D02*
X163068000Y-82740500D01*
%TO.C,C11*%
X165417500Y-69850000D02*
X165417500Y-70485000D01*
X165417500Y-73025000D02*
X166687500Y-73025000D01*
X166052500Y-73660000D02*
X166052500Y-72390000D01*
X164147500Y-71755000D02*
X166687500Y-71755000D01*
X165417500Y-72390000D02*
X165417500Y-71755000D01*
X164147500Y-70485000D02*
X166687500Y-70485000D01*
%TO.C,C16*%
X86614000Y-78867000D02*
X84074000Y-78867000D01*
X85344000Y-79502000D02*
X85344000Y-78867000D01*
X86614000Y-77597000D02*
X84074000Y-77597000D01*
X85344000Y-76962000D02*
X85344000Y-77597000D01*
%TO.C,R5*%
X145034000Y-31496000D02*
X150114000Y-31496000D01*
X150114000Y-31496000D02*
X150114000Y-28956000D01*
X145034000Y-28956000D02*
X145034000Y-31496000D01*
X150114000Y-28956000D02*
X145034000Y-28956000D01*
%TO.C,C19*%
X167132000Y-61976000D02*
X167132000Y-59436000D01*
X165227000Y-60706000D02*
X165862000Y-60706000D01*
X167767000Y-60706000D02*
X167132000Y-60706000D01*
X165862000Y-61976000D02*
X165862000Y-59436000D01*
%TO.C,C38*%
X186944000Y-125222000D02*
X186944000Y-125857000D01*
X188214000Y-127127000D02*
X185674000Y-127127000D01*
X188214000Y-125857000D02*
X185674000Y-125857000D01*
X186944000Y-127762000D02*
X186944000Y-127127000D01*
%TO.C,C18*%
X161798000Y-44450000D02*
X162433000Y-44450000D01*
X163703000Y-43180000D02*
X163703000Y-45720000D01*
X164338000Y-44450000D02*
X163703000Y-44450000D01*
X162433000Y-43180000D02*
X162433000Y-45720000D01*
%TO.C,C10*%
X170370500Y-86106000D02*
X171640500Y-86106000D01*
X170370500Y-85471000D02*
X170370500Y-84836000D01*
X169100500Y-84836000D02*
X171640500Y-84836000D01*
X171005500Y-86741000D02*
X171005500Y-85471000D01*
X169100500Y-83566000D02*
X171640500Y-83566000D01*
X170370500Y-82931000D02*
X170370500Y-83566000D01*
%TO.C,IC10*%
X63373000Y-62674500D02*
X83693000Y-62674500D01*
X83693000Y-62674500D02*
X83693000Y-52514500D01*
X83693000Y-56324500D02*
X82423000Y-56324500D01*
X83693000Y-52514500D02*
X63373000Y-52514500D01*
X82423000Y-58864500D02*
X83693000Y-58864500D01*
X82423000Y-56324500D02*
X82423000Y-58864500D01*
X63373000Y-52514500D02*
X63373000Y-62674500D01*
D12*
%TO.C,S1*%
X186076000Y-117824000D02*
X186076000Y-116824000D01*
X185676000Y-120824000D02*
X185676000Y-117824000D01*
X186076000Y-114824000D02*
X186076000Y-113824000D01*
X185676000Y-120824000D02*
X193676000Y-120824000D01*
X185676000Y-113824000D02*
X185676000Y-110824000D01*
X195676000Y-118824000D02*
X195676000Y-112824000D01*
X186076000Y-113824000D02*
X185676000Y-113824000D01*
X205176000Y-112284000D02*
X205176000Y-119584000D01*
X204786000Y-119974000D02*
X195926000Y-119974000D01*
X195926000Y-111674000D02*
X204566000Y-111674000D01*
X185676000Y-117824000D02*
X186076000Y-117824000D01*
X185676000Y-110824000D02*
X193676000Y-110824000D01*
X205176000Y-112284000D02*
G75*
G03*
X204566000Y-111674000I-610000J0D01*
G01*
X204786000Y-119974000D02*
G75*
G03*
X205176000Y-119584000I0J390000D01*
G01*
D13*
X191786000Y-121337000D02*
G75*
G03*
X191786000Y-121337000I-100000J0D01*
G01*
D10*
%TO.C,R19*%
X127000000Y-56388000D02*
X129540000Y-56388000D01*
X129540000Y-51308000D02*
X127000000Y-51308000D01*
X129540000Y-56388000D02*
X129540000Y-51308000D01*
X127000000Y-51308000D02*
X127000000Y-56388000D01*
%TO.C,C24*%
X171831000Y-45847000D02*
X169291000Y-45847000D01*
X170561000Y-43942000D02*
X170561000Y-44577000D01*
X171831000Y-44577000D02*
X169291000Y-44577000D01*
X170561000Y-46482000D02*
X170561000Y-45847000D01*
%TO.C,C31*%
X138176000Y-69850000D02*
X138176000Y-69215000D01*
X139446000Y-67945000D02*
X136906000Y-67945000D01*
X139446000Y-69215000D02*
X136906000Y-69215000D01*
X138176000Y-67310000D02*
X138176000Y-67945000D01*
%TO.C,C36*%
X174625000Y-45847000D02*
X172085000Y-45847000D01*
X173355000Y-46482000D02*
X173355000Y-45847000D01*
X173355000Y-43942000D02*
X173355000Y-44577000D01*
X174625000Y-44577000D02*
X172085000Y-44577000D01*
%TO.C,C6*%
X161861500Y-100012500D02*
X161861500Y-99377500D01*
X163131500Y-98107500D02*
X160591500Y-98107500D01*
X161861500Y-97472500D02*
X161861500Y-98107500D01*
X163131500Y-99377500D02*
X160591500Y-99377500D01*
X161226500Y-96202500D02*
X161226500Y-97472500D01*
X161861500Y-96837500D02*
X160591500Y-96837500D01*
%TO.C,C20*%
X106299000Y-57912000D02*
X105664000Y-57912000D01*
X103759000Y-57912000D02*
X104394000Y-57912000D01*
X104394000Y-59182000D02*
X104394000Y-56642000D01*
X105664000Y-59182000D02*
X105664000Y-56642000D01*
%TO.C,IC12*%
X82423000Y-35687000D02*
X82423000Y-38227000D01*
X63373000Y-31877000D02*
X63373000Y-42037000D01*
X63373000Y-42037000D02*
X83693000Y-42037000D01*
X83693000Y-31877000D02*
X63373000Y-31877000D01*
X83693000Y-42037000D02*
X83693000Y-31877000D01*
X82423000Y-38227000D02*
X83693000Y-38227000D01*
X83693000Y-35687000D02*
X82423000Y-35687000D01*
%TO.C,R12*%
X185293000Y-38227000D02*
X182753000Y-38227000D01*
X185293000Y-43307000D02*
X185293000Y-38227000D01*
X182753000Y-38227000D02*
X182753000Y-43307000D01*
X182753000Y-43307000D02*
X185293000Y-43307000D01*
%TO.C,IC4*%
X122174000Y-87503000D02*
X122174000Y-86233000D01*
X115824000Y-87503000D02*
X125984000Y-87503000D01*
X125984000Y-87503000D02*
X125984000Y-59563000D01*
X122174000Y-86233000D02*
X119634000Y-86233000D01*
X115824000Y-59563000D02*
X115824000Y-87503000D01*
X125984000Y-59563000D02*
X115824000Y-59563000D01*
X119634000Y-86233000D02*
X119634000Y-87503000D01*
%TO.C,C35*%
X87122000Y-78867000D02*
X89662000Y-78867000D01*
X88392000Y-76962000D02*
X88392000Y-77597000D01*
X88392000Y-79502000D02*
X88392000Y-78867000D01*
X87122000Y-77597000D02*
X89662000Y-77597000D01*
%TO.C,C5*%
X138557000Y-106108500D02*
X138557000Y-107378500D01*
X139192000Y-109918500D02*
X139192000Y-109283500D01*
X139192000Y-106743500D02*
X137922000Y-106743500D01*
X139192000Y-107378500D02*
X139192000Y-108013500D01*
X140462000Y-109283500D02*
X137922000Y-109283500D01*
X140462000Y-108013500D02*
X137922000Y-108013500D01*
%TO.C,R8*%
X142748000Y-64008000D02*
X140208000Y-64008000D01*
X140208000Y-69088000D02*
X142748000Y-69088000D01*
X140208000Y-64008000D02*
X140208000Y-69088000D01*
X142748000Y-69088000D02*
X142748000Y-64008000D01*
%TO.C,C4*%
X138176000Y-100012500D02*
X138176000Y-99377500D01*
X138176000Y-97472500D02*
X138176000Y-98107500D01*
X136906000Y-99377500D02*
X139446000Y-99377500D01*
X136906000Y-98107500D02*
X139446000Y-98107500D01*
%TO.C,C2*%
X142494000Y-85725000D02*
X143764000Y-85725000D01*
X143129000Y-86360000D02*
X143129000Y-85090000D01*
X141224000Y-83185000D02*
X143764000Y-83185000D01*
X142494000Y-85090000D02*
X142494000Y-84455000D01*
X141224000Y-84455000D02*
X143764000Y-84455000D01*
X142494000Y-82550000D02*
X142494000Y-83185000D01*
%TO.C,C34*%
X131533900Y-41059100D02*
X131533900Y-38519100D01*
X130898900Y-39789100D02*
X131533900Y-39789100D01*
X134708900Y-39154100D02*
X133438900Y-39154100D01*
X134073900Y-39789100D02*
X134073900Y-38519100D01*
X133438900Y-39789100D02*
X132803900Y-39789100D01*
X132803900Y-41059100D02*
X132803900Y-38519100D01*
%TO.C,C30*%
X82423000Y-126492000D02*
X82423000Y-123952000D01*
X85598000Y-124587000D02*
X84328000Y-124587000D01*
X84963000Y-125222000D02*
X84963000Y-123952000D01*
X83693000Y-126492000D02*
X83693000Y-123952000D01*
X81788000Y-125222000D02*
X82423000Y-125222000D01*
X84328000Y-125222000D02*
X83693000Y-125222000D01*
%TO.C,C12*%
X156337000Y-71374000D02*
X156337000Y-70104000D01*
X153162000Y-71374000D02*
X153797000Y-71374000D01*
X156972000Y-70739000D02*
X155702000Y-70739000D01*
X155067000Y-72644000D02*
X155067000Y-70104000D01*
X153797000Y-72644000D02*
X153797000Y-70104000D01*
X155702000Y-71374000D02*
X155067000Y-71374000D01*
%TO.C,IC5*%
X106172000Y-86233000D02*
X103632000Y-86233000D01*
X109982000Y-59563000D02*
X99822000Y-59563000D01*
X99822000Y-59563000D02*
X99822000Y-87503000D01*
X109982000Y-87503000D02*
X109982000Y-59563000D01*
X106172000Y-87503000D02*
X106172000Y-86233000D01*
X99822000Y-87503000D02*
X109982000Y-87503000D01*
X103632000Y-86233000D02*
X103632000Y-87503000D01*
%TO.C,L1*%
X179705000Y-114554000D02*
X172085000Y-114554000D01*
X172085000Y-114554000D02*
X172085000Y-117094000D01*
X179705000Y-117094000D02*
X179705000Y-114554000D01*
X172085000Y-115824000D02*
X170815000Y-115824000D01*
X179705000Y-115824000D02*
X180975000Y-115824000D01*
X172085000Y-117094000D02*
X179705000Y-117094000D01*
%TO.C,C14*%
X117602000Y-101600000D02*
X117602000Y-102235000D01*
X117602000Y-104140000D02*
X117602000Y-103505000D01*
X118872000Y-103505000D02*
X116332000Y-103505000D01*
X118872000Y-102235000D02*
X116332000Y-102235000D01*
%TO.C,J1*%
X109601000Y-111887000D02*
X94361000Y-111887000D01*
X94361000Y-116967000D02*
X109601000Y-116967000D01*
X109601000Y-116967000D02*
X109601000Y-111887000D01*
X94361000Y-111887000D02*
X94361000Y-116967000D01*
%TO.C,L2*%
X177038000Y-109474000D02*
X184658000Y-109474000D01*
X177038000Y-108204000D02*
X175768000Y-108204000D01*
X177038000Y-106934000D02*
X177038000Y-109474000D01*
X184658000Y-109474000D02*
X184658000Y-106934000D01*
X184658000Y-106934000D02*
X177038000Y-106934000D01*
X184658000Y-108204000D02*
X185928000Y-108204000D01*
%TD*%
M02*
