%TF.GenerationSoftware,KiCad,Pcbnew,(6.0.11)*%
%TF.CreationDate,2023-02-08T11:42:58-07:00*%
%TF.ProjectId,gameblaster,67616d65-626c-4617-9374-65722e6b6963,1*%
%TF.SameCoordinates,Original*%
%TF.FileFunction,Soldermask,Top*%
%TF.FilePolarity,Negative*%
%FSLAX46Y46*%
G04 Gerber Fmt 4.6, Leading zero omitted, Abs format (unit mm)*
G04 Created by KiCad (PCBNEW (6.0.11)) date 2023-02-08 11:42:58*
%MOMM*%
%LPD*%
G01*
G04 APERTURE LIST*
G04 Aperture macros list*
%AMFreePoly0*
4,1,18,0.134939,4.178957,0.303847,4.127800,0.456456,4.039157,0.584580,3.917785,0.681346,3.770192,0.741562,3.604298,0.762000,3.429000,0.762000,-3.429000,-0.762000,-3.429000,-0.762000,3.429000,-0.756157,3.523184,-0.714209,3.694612,-0.633949,3.851791,-0.519683,3.986292,-0.377540,4.090897,-0.215144,4.159997,-0.041208,4.189885,0.134939,4.178957,0.134939,4.178957,$1*%
G04 Aperture macros list end*
%ADD10C,0.100000*%
%ADD11C,0.000000*%
%ADD12C,1.600000*%
%ADD13O,2.700000X1.350000*%
%ADD14O,2.400000X4.800000*%
%ADD15O,3.400000X1.700000*%
%ADD16C,1.524000*%
%ADD17FreePoly0,0.000000*%
%ADD18C,3.500000*%
%ADD19C,1.600200*%
%ADD20C,2.032000*%
%ADD21O,1.600000X1.600000*%
%ADD22R,1.600000X1.600000*%
G04 APERTURE END LIST*
D10*
G36*
X175768000Y-137160000D02*
G01*
X174498000Y-138430000D01*
X95758000Y-138430000D01*
X94488000Y-137160000D01*
X94488000Y-131064000D01*
X175768000Y-131064000D01*
X175768000Y-137160000D01*
G37*
X175768000Y-137160000D02*
X174498000Y-138430000D01*
X95758000Y-138430000D01*
X94488000Y-137160000D01*
X94488000Y-131064000D01*
X175768000Y-131064000D01*
X175768000Y-137160000D01*
D11*
G36*
X117841412Y-31750000D02*
G01*
X117829916Y-33175179D01*
X116519665Y-33165995D01*
X116508171Y-34324526D01*
X117680499Y-34342915D01*
X117680499Y-35639368D01*
X116496674Y-35648573D01*
X116473691Y-36807104D01*
X117772445Y-36816288D01*
X117737958Y-38223099D01*
X114588775Y-38195504D01*
X114611762Y-37363960D01*
X114634748Y-36009461D01*
X114680721Y-31731620D01*
X117841412Y-31750000D01*
G37*
G36*
X102481196Y-33640672D02*
G01*
X102443128Y-35368130D01*
X102429479Y-36895605D01*
X102440251Y-38223099D01*
X100543847Y-38232283D01*
X100555333Y-35630183D01*
X99957673Y-35630183D01*
X99946177Y-38204699D01*
X98118729Y-38223099D01*
X98158960Y-33726868D01*
X98164703Y-31750000D01*
X99969179Y-31750000D01*
X99957673Y-34278552D01*
X100566829Y-34269357D01*
X100589821Y-31731620D01*
X102543685Y-31713231D01*
X102481196Y-33640672D01*
G37*
G36*
X110979852Y-34821043D02*
G01*
X110991338Y-34821043D01*
X111772893Y-31786779D01*
X114037089Y-31786779D01*
X113979618Y-38241478D01*
X112117692Y-38241478D01*
X112175162Y-35538225D01*
X112163666Y-35538225D01*
X112090036Y-35769387D01*
X112012815Y-36030719D01*
X111932002Y-36322222D01*
X111847598Y-36643895D01*
X111759602Y-36995738D01*
X111668015Y-37377751D01*
X111572837Y-37789933D01*
X111474068Y-38232283D01*
X110313236Y-38223099D01*
X110159504Y-37417980D01*
X110020146Y-36731246D01*
X109895159Y-36162897D01*
X109784542Y-35712936D01*
X109773045Y-35712936D01*
X109743952Y-36023828D01*
X109719887Y-36335871D01*
X109700850Y-36649064D01*
X109686841Y-36963408D01*
X109677860Y-37278903D01*
X109673908Y-37595547D01*
X109674984Y-37913341D01*
X109681088Y-38232283D01*
X107865135Y-38223099D01*
X107884006Y-37448437D01*
X107917236Y-35878432D01*
X107944344Y-34373948D01*
X107948165Y-33969092D01*
X107945587Y-33795831D01*
X107942714Y-33738723D01*
X107939842Y-33624866D01*
X107934095Y-33226906D01*
X107928347Y-32601952D01*
X107922595Y-31750000D01*
X110232775Y-31740815D01*
X110979852Y-34821043D01*
G37*
G36*
X97601520Y-32540760D02*
G01*
X97567043Y-34085462D01*
X95820046Y-34085462D01*
X95820046Y-33193569D01*
X95187918Y-33193569D01*
X95187918Y-34425668D01*
X96762505Y-34434873D01*
X97555557Y-35106081D01*
X97544061Y-37377179D01*
X96578620Y-38241478D01*
X94337407Y-38269062D01*
X93360470Y-37413958D01*
X93337468Y-36016354D01*
X95095971Y-36016354D01*
X95107467Y-36761130D01*
X95728109Y-36770315D01*
X95739605Y-35648573D01*
X94073050Y-35639368D01*
X93325982Y-35096887D01*
X93383452Y-32660282D01*
X94337407Y-31805179D01*
X96601602Y-31786779D01*
X97601520Y-32540760D01*
G37*
G36*
X103522782Y-34321656D02*
G01*
X103667167Y-33494707D01*
X103804368Y-32652816D01*
X103934386Y-31795984D01*
X104164254Y-31806469D01*
X104422857Y-31814944D01*
X105026264Y-31825862D01*
X105744605Y-31828736D01*
X106577877Y-31823568D01*
X107462867Y-38278257D01*
X105635409Y-38232283D01*
X105629368Y-38121658D01*
X105622675Y-37982875D01*
X105607057Y-37620836D01*
X105591068Y-37254193D01*
X105577949Y-36990999D01*
X105376813Y-36987547D01*
X105175680Y-36986397D01*
X104974547Y-36987547D01*
X104773411Y-36990999D01*
X104669967Y-38259868D01*
X102693102Y-38232283D01*
X102873407Y-37480040D01*
X103046527Y-36712856D01*
X103212463Y-35930731D01*
X103263166Y-35676157D01*
X104899837Y-35676157D01*
X105091634Y-35684200D01*
X105253258Y-35689947D01*
X105384714Y-35693396D01*
X105486001Y-35694547D01*
X105442184Y-35146884D01*
X105391182Y-34616461D01*
X105332997Y-34103280D01*
X105267628Y-33607344D01*
X105256133Y-33607344D01*
X105202796Y-33850858D01*
X105151974Y-34098682D01*
X105103665Y-34350817D01*
X105057872Y-34607262D01*
X105014592Y-34868019D01*
X104973826Y-35133087D01*
X104935575Y-35402466D01*
X104899837Y-35676157D01*
X103263166Y-35676157D01*
X103371214Y-35133664D01*
X103522782Y-34321656D01*
G37*
G36*
X110104048Y-40082713D02*
G01*
X109202970Y-40082713D01*
X109175386Y-45415660D01*
X108053634Y-45434050D01*
X108072023Y-43962897D01*
X108080062Y-43339953D01*
X108085800Y-42739992D01*
X108095005Y-41526292D01*
X108098452Y-40852779D01*
X108099597Y-40082713D01*
X107134157Y-40082713D01*
X107134157Y-38988546D01*
X110104048Y-38988546D01*
X110104048Y-40082713D01*
G37*
G36*
X113423340Y-38960971D02*
G01*
X113414156Y-40055139D01*
X112209640Y-40045944D01*
X112200446Y-41682603D01*
X113294613Y-41691798D01*
X113294613Y-42694019D01*
X112191250Y-42703223D01*
X112172861Y-44349076D01*
X113368182Y-44358261D01*
X113349792Y-45434050D01*
X111014330Y-45406465D01*
X111030418Y-44507680D01*
X111041904Y-43687053D01*
X111060303Y-42160731D01*
X111067199Y-41407910D01*
X111069499Y-40639002D01*
X111071798Y-39826419D01*
X111078693Y-38942582D01*
X113423340Y-38960971D01*
G37*
G36*
X95613169Y-42868719D02*
G01*
X95649948Y-42868719D01*
X96477478Y-38997740D01*
X97902657Y-38997740D01*
X97856683Y-45452439D01*
X96716532Y-45452439D01*
X96762505Y-41829710D01*
X96734921Y-41829710D01*
X96634936Y-42242327D01*
X96537245Y-42661840D01*
X96441850Y-43088247D01*
X96348751Y-43521547D01*
X96157959Y-44438718D01*
X95953375Y-45443245D01*
X95190209Y-45434050D01*
X94859208Y-43590503D01*
X94702892Y-42745741D01*
X94624734Y-42341461D01*
X94546576Y-41949251D01*
X94519001Y-41958446D01*
X94510092Y-42113608D01*
X94501757Y-42284858D01*
X94493998Y-42472198D01*
X94486815Y-42675628D01*
X94474176Y-43112380D01*
X94463823Y-43576716D01*
X94456933Y-44057143D01*
X94454638Y-44542157D01*
X94454638Y-45443245D01*
X93332876Y-45434050D01*
X93344372Y-44507683D01*
X93360470Y-43641079D01*
X93376560Y-42819294D01*
X93388055Y-42027403D01*
X93394944Y-41257345D01*
X93397239Y-40501080D01*
X93396090Y-40123810D01*
X93392643Y-39741366D01*
X93386897Y-39353752D01*
X93378850Y-38960971D01*
X94831624Y-38951767D01*
X95613169Y-42868719D01*
G37*
G36*
X116779420Y-38924182D02*
G01*
X117551772Y-39770101D01*
X117533383Y-41774551D01*
X117055263Y-42271058D01*
X117588551Y-42767586D01*
X117606949Y-45388076D01*
X116485187Y-45406465D01*
X116466798Y-42776771D01*
X115620880Y-42767586D01*
X115620880Y-45461634D01*
X114508323Y-45443245D01*
X114497841Y-41737772D01*
X115620880Y-41737772D01*
X116457605Y-41737772D01*
X116457605Y-40101103D01*
X115630075Y-40101103D01*
X115620880Y-41737772D01*
X114497841Y-41737772D01*
X114489934Y-38942582D01*
X116779420Y-38924182D01*
G37*
G36*
X106251459Y-39705737D02*
G01*
X106223884Y-41296423D01*
X105148096Y-41296423D01*
X105148096Y-40082713D01*
X104256204Y-40082713D01*
X104247008Y-41756161D01*
X105626224Y-41765346D01*
X106214679Y-42408990D01*
X106205484Y-44661699D01*
X105497497Y-45452439D01*
X103851634Y-45480023D01*
X103125256Y-44698468D01*
X103106867Y-43227314D01*
X104191840Y-43227314D01*
X104201044Y-44321492D01*
X105083732Y-44330678D01*
X105092928Y-42703223D01*
X103667747Y-42694019D01*
X103097672Y-42151536D01*
X103143646Y-39825270D01*
X103851634Y-39016130D01*
X105515887Y-38997740D01*
X106251459Y-39705737D01*
G37*
G36*
X99286465Y-42418175D02*
G01*
X99409444Y-41630882D01*
X99530121Y-40813702D01*
X99589886Y-40388735D01*
X99649653Y-39945950D01*
X99769185Y-39006935D01*
X100019738Y-39023025D01*
X100132950Y-39029348D01*
X100238119Y-39034519D01*
X100338110Y-39038542D01*
X100435804Y-39041419D01*
X100531200Y-39043147D01*
X100624299Y-39043724D01*
X100716821Y-39043436D01*
X100810489Y-39042572D01*
X100905306Y-39041131D01*
X101001275Y-39039112D01*
X101101847Y-39037104D01*
X101210460Y-39035669D01*
X101327117Y-39034807D01*
X101451818Y-39034519D01*
X102205780Y-45489208D01*
X101084027Y-45452439D01*
X101057598Y-45082351D01*
X101033461Y-44726063D01*
X101009321Y-44381257D01*
X100982895Y-44045649D01*
X100758774Y-44042197D01*
X100536951Y-44041047D01*
X100317426Y-44042197D01*
X100100197Y-44045649D01*
X100026639Y-44739840D01*
X99987560Y-45099592D01*
X99943886Y-45470829D01*
X98730186Y-45443245D01*
X98881894Y-44673186D01*
X99024419Y-43926117D01*
X99092512Y-43556026D01*
X99158886Y-43181339D01*
X99182394Y-43043429D01*
X100182950Y-43043429D01*
X100286679Y-43043716D01*
X100386382Y-43044575D01*
X100482059Y-43046010D01*
X100573713Y-43048021D01*
X100663080Y-43050029D01*
X100751869Y-43051465D01*
X100840081Y-43052327D01*
X100927717Y-43052614D01*
X100785192Y-41659612D01*
X100715091Y-41014832D01*
X100642688Y-40395336D01*
X100587510Y-40395336D01*
X100385235Y-41682603D01*
X100284085Y-42349217D01*
X100182950Y-43043429D01*
X99182394Y-43043429D01*
X99223538Y-42802056D01*
X99286465Y-42418175D01*
G37*
D12*
%TO.C,S3*%
X194040000Y-82503000D03*
X194040000Y-92503000D03*
X189040000Y-87503000D03*
D13*
X194040000Y-87503000D03*
X189040000Y-82503000D03*
X189040000Y-92503000D03*
%TD*%
D14*
%TO.C,S2*%
X191676000Y-100584000D03*
D15*
X187176000Y-100584000D03*
%TD*%
D14*
%TO.C,S1*%
X191676000Y-115824000D03*
D15*
X187176000Y-115824000D03*
%TD*%
D16*
%TO.C,C9*%
X166433500Y-106108500D03*
X166433500Y-111188500D03*
%TD*%
%TO.C,C7*%
X156972000Y-107188000D03*
X151892000Y-107188000D03*
%TD*%
%TO.C,C3*%
X144589500Y-96202500D03*
X144589500Y-101282500D03*
%TD*%
%TO.C,C6*%
X164401500Y-96202500D03*
X164401500Y-101282500D03*
%TD*%
%TO.C,C5*%
X141732000Y-106108500D03*
X141732000Y-111188500D03*
%TD*%
%TO.C,C12*%
X156972000Y-73914000D03*
X151892000Y-73914000D03*
%TD*%
%TO.C,C29*%
X177038000Y-123698000D03*
X177038000Y-126238000D03*
%TD*%
%TO.C,C1*%
X146812000Y-68580000D03*
X146812000Y-71120000D03*
%TD*%
%TO.C,C11*%
X162877500Y-69850000D03*
X162877500Y-72390000D03*
%TD*%
%TO.C,C10*%
X167830500Y-85471000D03*
X167830500Y-82931000D03*
%TD*%
%TO.C,C2*%
X139954000Y-85090000D03*
X139954000Y-82550000D03*
%TD*%
%TO.C,C34*%
X134620000Y-38608000D03*
X132080000Y-38608000D03*
%TD*%
%TO.C,C30*%
X84328000Y-127762000D03*
X81788000Y-127762000D03*
%TD*%
D17*
%TO.C,BUS1*%
X173228000Y-135001000D03*
X170688000Y-135001000D03*
X168148000Y-135001000D03*
X165608000Y-135001000D03*
X163068000Y-135001000D03*
X160528000Y-135001000D03*
X157988000Y-135001000D03*
X155448000Y-135001000D03*
X152908000Y-135001000D03*
X150368000Y-135001000D03*
X147828000Y-135001000D03*
X145288000Y-135001000D03*
X142748000Y-135001000D03*
X140208000Y-135001000D03*
X137668000Y-135001000D03*
X135128000Y-135001000D03*
X132588000Y-135001000D03*
X130048000Y-135001000D03*
X127508000Y-135001000D03*
X124968000Y-135001000D03*
X122428000Y-135001000D03*
X119888000Y-135001000D03*
X117348000Y-135001000D03*
X114808000Y-135001000D03*
X112268000Y-135001000D03*
X109728000Y-135001000D03*
X107188000Y-135001000D03*
X104648000Y-135001000D03*
X102108000Y-135001000D03*
X99568000Y-135001000D03*
X97028000Y-135001000D03*
%TD*%
D18*
%TO.C,F1*%
X193929000Y-69850000D03*
X193929000Y-126365000D03*
%TD*%
D19*
%TO.C,R4*%
X144780000Y-75120500D03*
X144780000Y-85280500D03*
%TD*%
%TO.C,C15*%
X85344000Y-50800000D03*
X85344000Y-55880000D03*
%TD*%
%TO.C,C32*%
X85344000Y-34036000D03*
X85344000Y-39116000D03*
%TD*%
%TO.C,C13*%
X152654000Y-111696500D03*
X157734000Y-111696500D03*
%TD*%
D16*
%TO.C,RP1*%
X187938598Y-61329402D03*
D20*
X195762000Y-56506000D03*
X186762000Y-56506000D03*
D16*
X191262000Y-62706000D03*
X194585402Y-61329402D03*
%TD*%
D19*
%TO.C,R1*%
X186944000Y-36576000D03*
X186944000Y-46736000D03*
%TD*%
%TO.C,C24*%
X174498000Y-41148000D03*
X174498000Y-46228000D03*
%TD*%
D12*
%TO.C,IC5*%
X113411000Y-99187000D03*
D21*
X110871000Y-99187000D03*
X108331000Y-99187000D03*
X105791000Y-99187000D03*
X103251000Y-99187000D03*
X100711000Y-99187000D03*
X98171000Y-99187000D03*
X95631000Y-99187000D03*
X95631000Y-106807000D03*
X98171000Y-106807000D03*
X100711000Y-106807000D03*
X103251000Y-106807000D03*
X105791000Y-106807000D03*
X108331000Y-106807000D03*
X110871000Y-106807000D03*
X113411000Y-106807000D03*
%TD*%
D19*
%TO.C,C21*%
X85598000Y-83820000D03*
X85598000Y-88900000D03*
%TD*%
%TO.C,R7*%
X142494000Y-44704000D03*
X152654000Y-44704000D03*
%TD*%
%TO.C,ZD1*%
X140208000Y-46228000D03*
X130048000Y-46228000D03*
%TD*%
D12*
%TO.C,IC3*%
X165608000Y-33147000D03*
D21*
X163068000Y-33147000D03*
X160528000Y-33147000D03*
X157988000Y-33147000D03*
X155448000Y-33147000D03*
X152908000Y-33147000D03*
X150368000Y-33147000D03*
X147828000Y-33147000D03*
X145288000Y-33147000D03*
X145288000Y-40767000D03*
X147828000Y-40767000D03*
X150368000Y-40767000D03*
X152908000Y-40767000D03*
X155448000Y-40767000D03*
X157988000Y-40767000D03*
X160528000Y-40767000D03*
X163068000Y-40767000D03*
X165608000Y-40767000D03*
%TD*%
D19*
%TO.C,R10*%
X170942000Y-48514000D03*
X170942000Y-58674000D03*
%TD*%
%TO.C,C23*%
X171704000Y-41148000D03*
X171704000Y-46228000D03*
%TD*%
%TO.C,R6*%
X118110000Y-52070000D03*
X107950000Y-52070000D03*
%TD*%
%TO.C,C33*%
X135890000Y-43180000D03*
X130810000Y-43180000D03*
%TD*%
%TO.C,C8*%
X170434000Y-101282500D03*
X170434000Y-96202500D03*
%TD*%
D12*
%TO.C,IC1*%
X158496000Y-97980500D03*
D21*
X158496000Y-95440500D03*
X158496000Y-92900500D03*
X158496000Y-90360500D03*
X158496000Y-87820500D03*
X158496000Y-85280500D03*
X158496000Y-82740500D03*
X158496000Y-80200500D03*
X150876000Y-80200500D03*
X150876000Y-82740500D03*
X150876000Y-85280500D03*
X150876000Y-87820500D03*
X150876000Y-90360500D03*
X150876000Y-92900500D03*
X150876000Y-95440500D03*
X150876000Y-97980500D03*
%TD*%
D19*
%TO.C,C28*%
X118364000Y-57912000D03*
X123444000Y-57912000D03*
%TD*%
%TO.C,C22*%
X187960000Y-75184000D03*
X193040000Y-75184000D03*
%TD*%
%TO.C,C37*%
X173228000Y-127000000D03*
X168148000Y-127000000D03*
%TD*%
D12*
%TO.C,IC12*%
X81280000Y-99187000D03*
D21*
X78740000Y-99187000D03*
X76200000Y-99187000D03*
X73660000Y-99187000D03*
X71120000Y-99187000D03*
X68580000Y-99187000D03*
X66040000Y-99187000D03*
X66040000Y-106807000D03*
X68580000Y-106807000D03*
X71120000Y-106807000D03*
X73660000Y-106807000D03*
X76200000Y-106807000D03*
X78740000Y-106807000D03*
X81280000Y-106807000D03*
%TD*%
D12*
%TO.C,IC11*%
X80899000Y-66167000D03*
D21*
X78359000Y-66167000D03*
X75819000Y-66167000D03*
X73279000Y-66167000D03*
X70739000Y-66167000D03*
X68199000Y-66167000D03*
X65659000Y-66167000D03*
X65659000Y-73787000D03*
X68199000Y-73787000D03*
X70739000Y-73787000D03*
X73279000Y-73787000D03*
X75819000Y-73787000D03*
X78359000Y-73787000D03*
X80899000Y-73787000D03*
%TD*%
D19*
%TO.C,R11*%
X177800000Y-36576000D03*
X177800000Y-46736000D03*
%TD*%
%TO.C,C27*%
X88138000Y-117094000D03*
X88138000Y-122174000D03*
%TD*%
D22*
%TO.C,RN1*%
X112522000Y-81026000D03*
D21*
X112522000Y-78486000D03*
X112522000Y-75946000D03*
X112522000Y-73406000D03*
X112522000Y-70866000D03*
X112522000Y-68326000D03*
X112522000Y-65786000D03*
X112522000Y-63246000D03*
%TD*%
D12*
%TO.C,IC10*%
X83947000Y-115697000D03*
D21*
X81407000Y-115697000D03*
X78867000Y-115697000D03*
X76327000Y-115697000D03*
X73787000Y-115697000D03*
X71247000Y-115697000D03*
X68707000Y-115697000D03*
X66167000Y-115697000D03*
X66167000Y-123317000D03*
X68707000Y-123317000D03*
X71247000Y-123317000D03*
X73787000Y-123317000D03*
X76327000Y-123317000D03*
X78867000Y-123317000D03*
X81407000Y-123317000D03*
X83947000Y-123317000D03*
%TD*%
D19*
%TO.C,R2*%
X183896000Y-36576000D03*
X183896000Y-46736000D03*
%TD*%
D12*
%TO.C,IC8*%
X81153000Y-82677000D03*
D21*
X78613000Y-82677000D03*
X76073000Y-82677000D03*
X73533000Y-82677000D03*
X70993000Y-82677000D03*
X68453000Y-82677000D03*
X65913000Y-82677000D03*
X65913000Y-90297000D03*
X68453000Y-90297000D03*
X70993000Y-90297000D03*
X73533000Y-90297000D03*
X76073000Y-90297000D03*
X78613000Y-90297000D03*
X81153000Y-90297000D03*
%TD*%
D12*
%TO.C,IC2*%
X165608000Y-49276000D03*
D21*
X163068000Y-49276000D03*
X160528000Y-49276000D03*
X157988000Y-49276000D03*
X155448000Y-49276000D03*
X152908000Y-49276000D03*
X150368000Y-49276000D03*
X147828000Y-49276000D03*
X145288000Y-49276000D03*
X145288000Y-56896000D03*
X147828000Y-56896000D03*
X150368000Y-56896000D03*
X152908000Y-56896000D03*
X155448000Y-56896000D03*
X157988000Y-56896000D03*
X160528000Y-56896000D03*
X163068000Y-56896000D03*
X165608000Y-56896000D03*
%TD*%
D19*
%TO.C,C26*%
X175768000Y-55880000D03*
X175768000Y-60960000D03*
%TD*%
%TO.C,C25*%
X178816000Y-55880000D03*
X178816000Y-60960000D03*
%TD*%
%TO.C,R3*%
X164338000Y-75120500D03*
X164338000Y-85280500D03*
%TD*%
%TO.C,C16*%
X85344000Y-67310000D03*
X85344000Y-72390000D03*
%TD*%
%TO.C,R5*%
X142494000Y-30226000D03*
X152654000Y-30226000D03*
%TD*%
%TO.C,C19*%
X165608000Y-60706000D03*
X160528000Y-60706000D03*
%TD*%
%TO.C,C38*%
X186944000Y-123952000D03*
X186944000Y-129032000D03*
%TD*%
%TO.C,C18*%
X160528000Y-44450000D03*
X165608000Y-44450000D03*
%TD*%
D12*
%TO.C,IC9*%
X80772000Y-49657000D03*
D21*
X78232000Y-49657000D03*
X75692000Y-49657000D03*
X73152000Y-49657000D03*
X70612000Y-49657000D03*
X68072000Y-49657000D03*
X65532000Y-49657000D03*
X65532000Y-57277000D03*
X68072000Y-57277000D03*
X70612000Y-57277000D03*
X73152000Y-57277000D03*
X75692000Y-57277000D03*
X78232000Y-57277000D03*
X80772000Y-57277000D03*
%TD*%
D19*
%TO.C,R19*%
X88646000Y-74676000D03*
X88646000Y-64516000D03*
%TD*%
%TO.C,C31*%
X138176000Y-71120000D03*
X138176000Y-66040000D03*
%TD*%
%TO.C,C20*%
X107569000Y-57912000D03*
X102489000Y-57912000D03*
%TD*%
D12*
%TO.C,IC6*%
X80772000Y-33147000D03*
D21*
X78232000Y-33147000D03*
X75692000Y-33147000D03*
X73152000Y-33147000D03*
X70612000Y-33147000D03*
X68072000Y-33147000D03*
X65532000Y-33147000D03*
X65532000Y-40767000D03*
X68072000Y-40767000D03*
X70612000Y-40767000D03*
X73152000Y-40767000D03*
X75692000Y-40767000D03*
X78232000Y-40767000D03*
X80772000Y-40767000D03*
%TD*%
D19*
%TO.C,R12*%
X180848000Y-36576000D03*
X180848000Y-46736000D03*
%TD*%
%TO.C,C17*%
X85598000Y-100330000D03*
X85598000Y-105410000D03*
%TD*%
D12*
%TO.C,IC7*%
X124714000Y-84963000D03*
D21*
X124714000Y-82423000D03*
X124714000Y-79883000D03*
X124714000Y-77343000D03*
X124714000Y-74803000D03*
X124714000Y-72263000D03*
X124714000Y-69723000D03*
X124714000Y-67183000D03*
X124714000Y-64643000D03*
X124714000Y-62103000D03*
X117094000Y-62103000D03*
X117094000Y-64643000D03*
X117094000Y-67183000D03*
X117094000Y-69723000D03*
X117094000Y-72263000D03*
X117094000Y-74803000D03*
X117094000Y-77343000D03*
X117094000Y-79883000D03*
X117094000Y-82423000D03*
X117094000Y-84963000D03*
%TD*%
D19*
%TO.C,R8*%
X141478000Y-71628000D03*
X141478000Y-61468000D03*
%TD*%
%TO.C,C4*%
X138176000Y-101282500D03*
X138176000Y-96202500D03*
%TD*%
D12*
%TO.C,IC4*%
X108712000Y-84963000D03*
D21*
X108712000Y-82423000D03*
X108712000Y-79883000D03*
X108712000Y-77343000D03*
X108712000Y-74803000D03*
X108712000Y-72263000D03*
X108712000Y-69723000D03*
X108712000Y-67183000D03*
X108712000Y-64643000D03*
X108712000Y-62103000D03*
X101092000Y-62103000D03*
X101092000Y-64643000D03*
X101092000Y-67183000D03*
X101092000Y-69723000D03*
X101092000Y-72263000D03*
X101092000Y-74803000D03*
X101092000Y-77343000D03*
X101092000Y-79883000D03*
X101092000Y-82423000D03*
X101092000Y-84963000D03*
%TD*%
D19*
%TO.C,R9*%
X167386000Y-30226000D03*
X157226000Y-30226000D03*
%TD*%
D20*
%TO.C,L1*%
X182245000Y-115824000D03*
X169545000Y-115824000D03*
%TD*%
D19*
%TO.C,C14*%
X117602000Y-100330000D03*
X117602000Y-105410000D03*
%TD*%
D16*
%TO.C,J1*%
X95631000Y-115697000D03*
X95631000Y-113157000D03*
X98171000Y-115697000D03*
X98171000Y-113157000D03*
X100711000Y-115697000D03*
X100711000Y-113157000D03*
X103251000Y-115697000D03*
X103251000Y-113157000D03*
X105791000Y-115697000D03*
X105791000Y-113157000D03*
X108331000Y-115697000D03*
X108331000Y-113157000D03*
%TD*%
D20*
%TO.C,L2*%
X187198000Y-108204000D03*
X174498000Y-108204000D03*
%TD*%
M02*
