%TF.GenerationSoftware,KiCad,Pcbnew,(6.0.11)*%
%TF.CreationDate,2023-02-07T23:53:01-07:00*%
%TF.ProjectId,gameblaster,67616d65-626c-4617-9374-65722e6b6963,1*%
%TF.SameCoordinates,Original*%
%TF.FileFunction,Legend,Bot*%
%TF.FilePolarity,Positive*%
%FSLAX46Y46*%
G04 Gerber Fmt 4.6, Leading zero omitted, Abs format (unit mm)*
G04 Created by KiCad (PCBNEW (6.0.11)) date 2023-02-07 23:53:01*
%MOMM*%
%LPD*%
G01*
G04 APERTURE LIST*
%ADD10C,0.127000*%
G04 APERTURE END LIST*
D10*
X128006021Y-31584673D02*
X127869950Y-31630030D01*
X127643164Y-31630030D01*
X127552450Y-31584673D01*
X127507092Y-31539316D01*
X127461735Y-31448602D01*
X127461735Y-31357888D01*
X127507092Y-31267173D01*
X127552450Y-31221816D01*
X127643164Y-31176459D01*
X127824592Y-31131102D01*
X127915307Y-31085745D01*
X127960664Y-31040388D01*
X128006021Y-30949673D01*
X128006021Y-30858959D01*
X127960664Y-30768245D01*
X127915307Y-30722888D01*
X127824592Y-30677530D01*
X127597807Y-30677530D01*
X127461735Y-30722888D01*
X127053521Y-30995030D02*
X127053521Y-31947530D01*
X127053521Y-31040388D02*
X126962807Y-30995030D01*
X126781378Y-30995030D01*
X126690664Y-31040388D01*
X126645307Y-31085745D01*
X126599950Y-31176459D01*
X126599950Y-31448602D01*
X126645307Y-31539316D01*
X126690664Y-31584673D01*
X126781378Y-31630030D01*
X126962807Y-31630030D01*
X127053521Y-31584673D01*
X125828878Y-31584673D02*
X125919592Y-31630030D01*
X126101021Y-31630030D01*
X126191735Y-31584673D01*
X126237092Y-31493959D01*
X126237092Y-31131102D01*
X126191735Y-31040388D01*
X126101021Y-30995030D01*
X125919592Y-30995030D01*
X125828878Y-31040388D01*
X125783521Y-31131102D01*
X125783521Y-31221816D01*
X126237092Y-31312530D01*
X124967092Y-31584673D02*
X125057807Y-31630030D01*
X125239235Y-31630030D01*
X125329950Y-31584673D01*
X125375307Y-31539316D01*
X125420664Y-31448602D01*
X125420664Y-31176459D01*
X125375307Y-31085745D01*
X125329950Y-31040388D01*
X125239235Y-30995030D01*
X125057807Y-30995030D01*
X124967092Y-31040388D01*
X124558878Y-31630030D02*
X124558878Y-30995030D01*
X124558878Y-30677530D02*
X124604235Y-30722888D01*
X124558878Y-30768245D01*
X124513521Y-30722888D01*
X124558878Y-30677530D01*
X124558878Y-30768245D01*
X123697092Y-31630030D02*
X123697092Y-31131102D01*
X123742450Y-31040388D01*
X123833164Y-30995030D01*
X124014592Y-30995030D01*
X124105307Y-31040388D01*
X123697092Y-31584673D02*
X123787807Y-31630030D01*
X124014592Y-31630030D01*
X124105307Y-31584673D01*
X124150664Y-31493959D01*
X124150664Y-31403245D01*
X124105307Y-31312530D01*
X124014592Y-31267173D01*
X123787807Y-31267173D01*
X123697092Y-31221816D01*
X123107450Y-31630030D02*
X123198164Y-31584673D01*
X123243521Y-31493959D01*
X123243521Y-30677530D01*
X122154950Y-30677530D02*
X121610664Y-30677530D01*
X121882807Y-31630030D02*
X121882807Y-30677530D01*
X121293164Y-31630030D02*
X121293164Y-30677530D01*
X120884950Y-31630030D02*
X120884950Y-31131102D01*
X120930307Y-31040388D01*
X121021021Y-30995030D01*
X121157092Y-30995030D01*
X121247807Y-31040388D01*
X121293164Y-31085745D01*
X120023164Y-31630030D02*
X120023164Y-31131102D01*
X120068521Y-31040388D01*
X120159235Y-30995030D01*
X120340664Y-30995030D01*
X120431378Y-31040388D01*
X120023164Y-31584673D02*
X120113878Y-31630030D01*
X120340664Y-31630030D01*
X120431378Y-31584673D01*
X120476735Y-31493959D01*
X120476735Y-31403245D01*
X120431378Y-31312530D01*
X120340664Y-31267173D01*
X120113878Y-31267173D01*
X120023164Y-31221816D01*
X119569592Y-30995030D02*
X119569592Y-31630030D01*
X119569592Y-31085745D02*
X119524235Y-31040388D01*
X119433521Y-30995030D01*
X119297450Y-30995030D01*
X119206735Y-31040388D01*
X119161378Y-31131102D01*
X119161378Y-31630030D01*
X118707807Y-31630030D02*
X118707807Y-30677530D01*
X118617092Y-31267173D02*
X118344950Y-31630030D01*
X118344950Y-30995030D02*
X118707807Y-31357888D01*
X117982092Y-31584673D02*
X117891378Y-31630030D01*
X117709950Y-31630030D01*
X117619235Y-31584673D01*
X117573878Y-31493959D01*
X117573878Y-31448602D01*
X117619235Y-31357888D01*
X117709950Y-31312530D01*
X117846021Y-31312530D01*
X117936735Y-31267173D01*
X117982092Y-31176459D01*
X117982092Y-31131102D01*
X117936735Y-31040388D01*
X117846021Y-30995030D01*
X117709950Y-30995030D01*
X117619235Y-31040388D01*
X117165664Y-31539316D02*
X117120307Y-31584673D01*
X117165664Y-31630030D01*
X117211021Y-31584673D01*
X117165664Y-31539316D01*
X117165664Y-31630030D01*
X117165664Y-31040388D02*
X117120307Y-31085745D01*
X117165664Y-31131102D01*
X117211021Y-31085745D01*
X117165664Y-31040388D01*
X117165664Y-31131102D01*
X128096735Y-32211055D02*
X127552450Y-32211055D01*
X127824592Y-33163555D02*
X127824592Y-32211055D01*
X126826735Y-32528555D02*
X126826735Y-33163555D01*
X127234950Y-32528555D02*
X127234950Y-33027484D01*
X127189592Y-33118198D01*
X127098878Y-33163555D01*
X126962807Y-33163555D01*
X126872092Y-33118198D01*
X126826735Y-33072841D01*
X126373164Y-33163555D02*
X126373164Y-32211055D01*
X126373164Y-32573913D02*
X126282450Y-32528555D01*
X126101021Y-32528555D01*
X126010307Y-32573913D01*
X125964950Y-32619270D01*
X125919592Y-32709984D01*
X125919592Y-32982127D01*
X125964950Y-33072841D01*
X126010307Y-33118198D01*
X126101021Y-33163555D01*
X126282450Y-33163555D01*
X126373164Y-33118198D01*
X125148521Y-33118198D02*
X125239235Y-33163555D01*
X125420664Y-33163555D01*
X125511378Y-33118198D01*
X125556735Y-33027484D01*
X125556735Y-32664627D01*
X125511378Y-32573913D01*
X125420664Y-32528555D01*
X125239235Y-32528555D01*
X125148521Y-32573913D01*
X125103164Y-32664627D01*
X125103164Y-32755341D01*
X125556735Y-32846055D01*
X124831021Y-32211055D02*
X124286735Y-32211055D01*
X124558878Y-33163555D02*
X124558878Y-32211055D01*
X123969235Y-33163555D02*
X123969235Y-32528555D01*
X123969235Y-32211055D02*
X124014592Y-32256413D01*
X123969235Y-32301770D01*
X123923878Y-32256413D01*
X123969235Y-32211055D01*
X123969235Y-32301770D01*
X123515664Y-33163555D02*
X123515664Y-32528555D01*
X123515664Y-32619270D02*
X123470307Y-32573913D01*
X123379592Y-32528555D01*
X123243521Y-32528555D01*
X123152807Y-32573913D01*
X123107450Y-32664627D01*
X123107450Y-33163555D01*
X123107450Y-32664627D02*
X123062092Y-32573913D01*
X122971378Y-32528555D01*
X122835307Y-32528555D01*
X122744592Y-32573913D01*
X122699235Y-32664627D01*
X122699235Y-33163555D01*
X121882807Y-33118198D02*
X121973521Y-33163555D01*
X122154950Y-33163555D01*
X122245664Y-33118198D01*
X122291021Y-33027484D01*
X122291021Y-32664627D01*
X122245664Y-32573913D01*
X122154950Y-32528555D01*
X121973521Y-32528555D01*
X121882807Y-32573913D01*
X121837450Y-32664627D01*
X121837450Y-32755341D01*
X122291021Y-32846055D01*
X120703521Y-32800698D02*
X119977807Y-32800698D01*
X118798521Y-33163555D02*
X118798521Y-32528555D01*
X118798521Y-32709984D02*
X118753164Y-32619270D01*
X118707807Y-32573913D01*
X118617092Y-32528555D01*
X118526378Y-32528555D01*
X117846021Y-33118198D02*
X117936735Y-33163555D01*
X118118164Y-33163555D01*
X118208878Y-33118198D01*
X118254235Y-33027484D01*
X118254235Y-32664627D01*
X118208878Y-32573913D01*
X118118164Y-32528555D01*
X117936735Y-32528555D01*
X117846021Y-32573913D01*
X117800664Y-32664627D01*
X117800664Y-32755341D01*
X118254235Y-32846055D01*
X117483164Y-32528555D02*
X117256378Y-33163555D01*
X117029592Y-32528555D01*
X116303878Y-33118198D02*
X116394592Y-33163555D01*
X116576021Y-33163555D01*
X116666735Y-33118198D01*
X116712092Y-33027484D01*
X116712092Y-32664627D01*
X116666735Y-32573913D01*
X116576021Y-32528555D01*
X116394592Y-32528555D01*
X116303878Y-32573913D01*
X116258521Y-32664627D01*
X116258521Y-32755341D01*
X116712092Y-32846055D01*
X115850307Y-33163555D02*
X115850307Y-32528555D01*
X115850307Y-32709984D02*
X115804949Y-32619270D01*
X115759592Y-32573913D01*
X115668878Y-32528555D01*
X115578164Y-32528555D01*
X115306021Y-33118198D02*
X115215307Y-33163555D01*
X115033878Y-33163555D01*
X114943164Y-33118198D01*
X114897807Y-33027484D01*
X114897807Y-32982127D01*
X114943164Y-32891413D01*
X115033878Y-32846055D01*
X115169949Y-32846055D01*
X115260664Y-32800698D01*
X115306021Y-32709984D01*
X115306021Y-32664627D01*
X115260664Y-32573913D01*
X115169949Y-32528555D01*
X115033878Y-32528555D01*
X114943164Y-32573913D01*
X114126735Y-33118198D02*
X114217449Y-33163555D01*
X114398878Y-33163555D01*
X114489592Y-33118198D01*
X114534949Y-33027484D01*
X114534949Y-32664627D01*
X114489592Y-32573913D01*
X114398878Y-32528555D01*
X114217449Y-32528555D01*
X114126735Y-32573913D01*
X114081378Y-32664627D01*
X114081378Y-32755341D01*
X114534949Y-32846055D01*
X112584592Y-33118198D02*
X112675307Y-33163555D01*
X112856735Y-33163555D01*
X112947449Y-33118198D01*
X112992807Y-33027484D01*
X112992807Y-32664627D01*
X112947449Y-32573913D01*
X112856735Y-32528555D01*
X112675307Y-32528555D01*
X112584592Y-32573913D01*
X112539235Y-32664627D01*
X112539235Y-32755341D01*
X112992807Y-32846055D01*
X112131021Y-32528555D02*
X112131021Y-33163555D01*
X112131021Y-32619270D02*
X112085664Y-32573913D01*
X111994949Y-32528555D01*
X111858878Y-32528555D01*
X111768164Y-32573913D01*
X111722807Y-32664627D01*
X111722807Y-33163555D01*
X110861021Y-32528555D02*
X110861021Y-33299627D01*
X110906378Y-33390341D01*
X110951735Y-33435698D01*
X111042449Y-33481055D01*
X111178521Y-33481055D01*
X111269235Y-33435698D01*
X110861021Y-33118198D02*
X110951735Y-33163555D01*
X111133164Y-33163555D01*
X111223878Y-33118198D01*
X111269235Y-33072841D01*
X111314592Y-32982127D01*
X111314592Y-32709984D01*
X111269235Y-32619270D01*
X111223878Y-32573913D01*
X111133164Y-32528555D01*
X110951735Y-32528555D01*
X110861021Y-32573913D01*
X110407449Y-33163555D02*
X110407449Y-32528555D01*
X110407449Y-32211055D02*
X110452807Y-32256413D01*
X110407449Y-32301770D01*
X110362092Y-32256413D01*
X110407449Y-32211055D01*
X110407449Y-32301770D01*
X109953878Y-32528555D02*
X109953878Y-33163555D01*
X109953878Y-32619270D02*
X109908521Y-32573913D01*
X109817807Y-32528555D01*
X109681735Y-32528555D01*
X109591021Y-32573913D01*
X109545664Y-32664627D01*
X109545664Y-33163555D01*
X108729235Y-33118198D02*
X108819949Y-33163555D01*
X109001378Y-33163555D01*
X109092092Y-33118198D01*
X109137449Y-33027484D01*
X109137449Y-32664627D01*
X109092092Y-32573913D01*
X109001378Y-32528555D01*
X108819949Y-32528555D01*
X108729235Y-32573913D01*
X108683878Y-32664627D01*
X108683878Y-32755341D01*
X109137449Y-32846055D01*
X107912807Y-33118198D02*
X108003521Y-33163555D01*
X108184949Y-33163555D01*
X108275664Y-33118198D01*
X108321021Y-33027484D01*
X108321021Y-32664627D01*
X108275664Y-32573913D01*
X108184949Y-32528555D01*
X108003521Y-32528555D01*
X107912807Y-32573913D01*
X107867449Y-32664627D01*
X107867449Y-32755341D01*
X108321021Y-32846055D01*
X107459235Y-33163555D02*
X107459235Y-32528555D01*
X107459235Y-32709984D02*
X107413878Y-32619270D01*
X107368521Y-32573913D01*
X107277807Y-32528555D01*
X107187092Y-32528555D01*
X106869592Y-33163555D02*
X106869592Y-32528555D01*
X106869592Y-32211055D02*
X106914949Y-32256413D01*
X106869592Y-32301770D01*
X106824235Y-32256413D01*
X106869592Y-32211055D01*
X106869592Y-32301770D01*
X106416021Y-32528555D02*
X106416021Y-33163555D01*
X106416021Y-32619270D02*
X106370664Y-32573913D01*
X106279949Y-32528555D01*
X106143878Y-32528555D01*
X106053164Y-32573913D01*
X106007807Y-32664627D01*
X106007807Y-33163555D01*
X105146021Y-32528555D02*
X105146021Y-33299627D01*
X105191378Y-33390341D01*
X105236735Y-33435698D01*
X105327449Y-33481055D01*
X105463521Y-33481055D01*
X105554235Y-33435698D01*
X105146021Y-33118198D02*
X105236735Y-33163555D01*
X105418164Y-33163555D01*
X105508878Y-33118198D01*
X105554235Y-33072841D01*
X105599592Y-32982127D01*
X105599592Y-32709984D01*
X105554235Y-32619270D01*
X105508878Y-32573913D01*
X105418164Y-32528555D01*
X105236735Y-32528555D01*
X105146021Y-32573913D01*
X103830664Y-33163555D02*
X103921378Y-33118198D01*
X103966735Y-33072841D01*
X104012092Y-32982127D01*
X104012092Y-32709984D01*
X103966735Y-32619270D01*
X103921378Y-32573913D01*
X103830664Y-32528555D01*
X103694592Y-32528555D01*
X103603878Y-32573913D01*
X103558521Y-32619270D01*
X103513164Y-32709984D01*
X103513164Y-32982127D01*
X103558521Y-33072841D01*
X103603878Y-33118198D01*
X103694592Y-33163555D01*
X103830664Y-33163555D01*
X103241021Y-32528555D02*
X102878164Y-32528555D01*
X103104949Y-33163555D02*
X103104949Y-32347127D01*
X103059592Y-32256413D01*
X102968878Y-32211055D01*
X102878164Y-32211055D01*
X101971021Y-32528555D02*
X101608164Y-32528555D01*
X101834949Y-32211055D02*
X101834949Y-33027484D01*
X101789592Y-33118198D01*
X101698878Y-33163555D01*
X101608164Y-33163555D01*
X101290664Y-33163555D02*
X101290664Y-32211055D01*
X100882449Y-33163555D02*
X100882449Y-32664627D01*
X100927807Y-32573913D01*
X101018521Y-32528555D01*
X101154592Y-32528555D01*
X101245307Y-32573913D01*
X101290664Y-32619270D01*
X100066021Y-33118198D02*
X100156735Y-33163555D01*
X100338164Y-33163555D01*
X100428878Y-33118198D01*
X100474235Y-33027484D01*
X100474235Y-32664627D01*
X100428878Y-32573913D01*
X100338164Y-32528555D01*
X100156735Y-32528555D01*
X100066021Y-32573913D01*
X100020664Y-32664627D01*
X100020664Y-32755341D01*
X100474235Y-32846055D01*
X126509235Y-34697080D02*
X126509235Y-33744580D01*
X126509235Y-34107438D02*
X126418521Y-34062080D01*
X126237092Y-34062080D01*
X126146378Y-34107438D01*
X126101021Y-34152795D01*
X126055664Y-34243509D01*
X126055664Y-34515652D01*
X126101021Y-34606366D01*
X126146378Y-34651723D01*
X126237092Y-34697080D01*
X126418521Y-34697080D01*
X126509235Y-34651723D01*
X125647450Y-34697080D02*
X125647450Y-34062080D01*
X125647450Y-33744580D02*
X125692807Y-33789938D01*
X125647450Y-33835295D01*
X125602092Y-33789938D01*
X125647450Y-33744580D01*
X125647450Y-33835295D01*
X124785664Y-34062080D02*
X124785664Y-34833152D01*
X124831021Y-34923866D01*
X124876378Y-34969223D01*
X124967092Y-35014580D01*
X125103164Y-35014580D01*
X125193878Y-34969223D01*
X124785664Y-34651723D02*
X124876378Y-34697080D01*
X125057807Y-34697080D01*
X125148521Y-34651723D01*
X125193878Y-34606366D01*
X125239235Y-34515652D01*
X125239235Y-34243509D01*
X125193878Y-34152795D01*
X125148521Y-34107438D01*
X125057807Y-34062080D01*
X124876378Y-34062080D01*
X124785664Y-34107438D01*
X123651735Y-34651723D02*
X123561021Y-34697080D01*
X123379592Y-34697080D01*
X123288878Y-34651723D01*
X123243521Y-34561009D01*
X123243521Y-34515652D01*
X123288878Y-34424938D01*
X123379592Y-34379580D01*
X123515664Y-34379580D01*
X123606378Y-34334223D01*
X123651735Y-34243509D01*
X123651735Y-34198152D01*
X123606378Y-34107438D01*
X123515664Y-34062080D01*
X123379592Y-34062080D01*
X123288878Y-34107438D01*
X122971378Y-34062080D02*
X122608521Y-34062080D01*
X122835307Y-33744580D02*
X122835307Y-34561009D01*
X122789950Y-34651723D01*
X122699235Y-34697080D01*
X122608521Y-34697080D01*
X121882807Y-34062080D02*
X121882807Y-34697080D01*
X122291021Y-34062080D02*
X122291021Y-34561009D01*
X122245664Y-34651723D01*
X122154950Y-34697080D01*
X122018878Y-34697080D01*
X121928164Y-34651723D01*
X121882807Y-34606366D01*
X121429235Y-34062080D02*
X121429235Y-35014580D01*
X121429235Y-34107438D02*
X121338521Y-34062080D01*
X121157092Y-34062080D01*
X121066378Y-34107438D01*
X121021021Y-34152795D01*
X120975664Y-34243509D01*
X120975664Y-34515652D01*
X121021021Y-34606366D01*
X121066378Y-34651723D01*
X121157092Y-34697080D01*
X121338521Y-34697080D01*
X121429235Y-34651723D01*
X120567450Y-34697080D02*
X120567450Y-34062080D01*
X120567450Y-33744580D02*
X120612807Y-33789938D01*
X120567450Y-33835295D01*
X120522092Y-33789938D01*
X120567450Y-33744580D01*
X120567450Y-33835295D01*
X119705664Y-34697080D02*
X119705664Y-33744580D01*
X119705664Y-34651723D02*
X119796378Y-34697080D01*
X119977807Y-34697080D01*
X120068521Y-34651723D01*
X120113878Y-34606366D01*
X120159235Y-34515652D01*
X120159235Y-34243509D01*
X120113878Y-34152795D01*
X120068521Y-34107438D01*
X119977807Y-34062080D01*
X119796378Y-34062080D01*
X119705664Y-34107438D01*
X118526378Y-34697080D02*
X118526378Y-33744580D01*
X118299592Y-33744580D01*
X118163521Y-33789938D01*
X118072807Y-33880652D01*
X118027450Y-33971366D01*
X117982092Y-34152795D01*
X117982092Y-34288866D01*
X118027450Y-34470295D01*
X118072807Y-34561009D01*
X118163521Y-34651723D01*
X118299592Y-34697080D01*
X118526378Y-34697080D01*
X117573878Y-34697080D02*
X117573878Y-33744580D01*
X117120307Y-34697080D02*
X117120307Y-33744580D01*
X116757450Y-33744580D01*
X116666735Y-33789938D01*
X116621378Y-33835295D01*
X116576021Y-33926009D01*
X116576021Y-34062080D01*
X116621378Y-34152795D01*
X116666735Y-34198152D01*
X116757450Y-34243509D01*
X117120307Y-34243509D01*
X116167807Y-34334223D02*
X115442092Y-34334223D01*
X114580307Y-34062080D02*
X114580307Y-34697080D01*
X114807092Y-33699223D02*
X115033878Y-34379580D01*
X114444235Y-34379580D01*
X113899950Y-33744580D02*
X113809235Y-33744580D01*
X113718521Y-33789938D01*
X113673164Y-33835295D01*
X113627807Y-33926009D01*
X113582450Y-34107438D01*
X113582450Y-34334223D01*
X113627807Y-34515652D01*
X113673164Y-34606366D01*
X113718521Y-34651723D01*
X113809235Y-34697080D01*
X113899950Y-34697080D01*
X113990664Y-34651723D01*
X114036021Y-34606366D01*
X114081378Y-34515652D01*
X114126735Y-34334223D01*
X114126735Y-34107438D01*
X114081378Y-33926009D01*
X114036021Y-33835295D01*
X113990664Y-33789938D01*
X113899950Y-33744580D01*
X113128878Y-34651723D02*
X113128878Y-34697080D01*
X113174235Y-34787795D01*
X113219592Y-34833152D01*
X113174235Y-34107438D02*
X113128878Y-34152795D01*
X113174235Y-34198152D01*
X113219592Y-34152795D01*
X113174235Y-34107438D01*
X113174235Y-34198152D01*
X111994950Y-34697080D02*
X111994950Y-33744580D01*
X111768164Y-33744580D01*
X111632092Y-33789938D01*
X111541378Y-33880652D01*
X111496021Y-33971366D01*
X111450664Y-34152795D01*
X111450664Y-34288866D01*
X111496021Y-34470295D01*
X111541378Y-34561009D01*
X111632092Y-34651723D01*
X111768164Y-34697080D01*
X111994950Y-34697080D01*
X111178521Y-33744580D02*
X110634235Y-33744580D01*
X110906378Y-34697080D02*
X110906378Y-33744580D01*
X110362092Y-34424938D02*
X109908521Y-34424938D01*
X110452807Y-34697080D02*
X110135307Y-33744580D01*
X109817807Y-34697080D01*
X108956021Y-34606366D02*
X109001378Y-34651723D01*
X109137450Y-34697080D01*
X109228164Y-34697080D01*
X109364235Y-34651723D01*
X109454950Y-34561009D01*
X109500307Y-34470295D01*
X109545664Y-34288866D01*
X109545664Y-34152795D01*
X109500307Y-33971366D01*
X109454950Y-33880652D01*
X109364235Y-33789938D01*
X109228164Y-33744580D01*
X109137450Y-33744580D01*
X109001378Y-33789938D01*
X108956021Y-33835295D01*
X108547807Y-34697080D02*
X108547807Y-33744580D01*
X108003521Y-34697080D02*
X108411735Y-34152795D01*
X108003521Y-33744580D02*
X108547807Y-34288866D01*
X106461378Y-34651723D02*
X106552092Y-34697080D01*
X106733521Y-34697080D01*
X106824235Y-34651723D01*
X106869592Y-34606366D01*
X106914950Y-34515652D01*
X106914950Y-34243509D01*
X106869592Y-34152795D01*
X106824235Y-34107438D01*
X106733521Y-34062080D01*
X106552092Y-34062080D01*
X106461378Y-34107438D01*
X106053164Y-34697080D02*
X106053164Y-34062080D01*
X106053164Y-33744580D02*
X106098521Y-33789938D01*
X106053164Y-33835295D01*
X106007807Y-33789938D01*
X106053164Y-33744580D01*
X106053164Y-33835295D01*
X105599592Y-34697080D02*
X105599592Y-34062080D01*
X105599592Y-34243509D02*
X105554235Y-34152795D01*
X105508878Y-34107438D01*
X105418164Y-34062080D01*
X105327450Y-34062080D01*
X104601735Y-34651723D02*
X104692450Y-34697080D01*
X104873878Y-34697080D01*
X104964592Y-34651723D01*
X105009950Y-34606366D01*
X105055307Y-34515652D01*
X105055307Y-34243509D01*
X105009950Y-34152795D01*
X104964592Y-34107438D01*
X104873878Y-34062080D01*
X104692450Y-34062080D01*
X104601735Y-34107438D01*
X103785307Y-34062080D02*
X103785307Y-34697080D01*
X104193521Y-34062080D02*
X104193521Y-34561009D01*
X104148164Y-34651723D01*
X104057450Y-34697080D01*
X103921378Y-34697080D01*
X103830664Y-34651723D01*
X103785307Y-34606366D01*
X103331735Y-34697080D02*
X103331735Y-34062080D01*
X103331735Y-33744580D02*
X103377092Y-33789938D01*
X103331735Y-33835295D01*
X103286378Y-33789938D01*
X103331735Y-33744580D01*
X103331735Y-33835295D01*
X103014235Y-34062080D02*
X102651378Y-34062080D01*
X102878164Y-33744580D02*
X102878164Y-34561009D01*
X102832807Y-34651723D01*
X102742092Y-34697080D01*
X102651378Y-34697080D01*
X101199950Y-34697080D02*
X101199950Y-34198152D01*
X101245307Y-34107438D01*
X101336021Y-34062080D01*
X101517450Y-34062080D01*
X101608164Y-34107438D01*
X101199950Y-34651723D02*
X101290664Y-34697080D01*
X101517450Y-34697080D01*
X101608164Y-34651723D01*
X101653521Y-34561009D01*
X101653521Y-34470295D01*
X101608164Y-34379580D01*
X101517450Y-34334223D01*
X101290664Y-34334223D01*
X101199950Y-34288866D01*
X100746378Y-34062080D02*
X100746378Y-34697080D01*
X100746378Y-34152795D02*
X100701021Y-34107438D01*
X100610307Y-34062080D01*
X100474235Y-34062080D01*
X100383521Y-34107438D01*
X100338164Y-34198152D01*
X100338164Y-34697080D01*
X99476378Y-34697080D02*
X99476378Y-33744580D01*
X99476378Y-34651723D02*
X99567092Y-34697080D01*
X99748521Y-34697080D01*
X99839235Y-34651723D01*
X99884592Y-34606366D01*
X99929950Y-34515652D01*
X99929950Y-34243509D01*
X99884592Y-34152795D01*
X99839235Y-34107438D01*
X99748521Y-34062080D01*
X99567092Y-34062080D01*
X99476378Y-34107438D01*
X126645307Y-35278105D02*
X126101021Y-35278105D01*
X126373164Y-36230605D02*
X126373164Y-35278105D01*
X125783521Y-35731677D02*
X125466021Y-35731677D01*
X125329950Y-36230605D02*
X125783521Y-36230605D01*
X125783521Y-35278105D01*
X125329950Y-35278105D01*
X124967092Y-35958463D02*
X124513521Y-35958463D01*
X125057807Y-36230605D02*
X124740307Y-35278105D01*
X124422807Y-36230605D01*
X124150664Y-35368820D02*
X124105307Y-35323463D01*
X124014592Y-35278105D01*
X123787807Y-35278105D01*
X123697092Y-35323463D01*
X123651735Y-35368820D01*
X123606378Y-35459534D01*
X123606378Y-35550248D01*
X123651735Y-35686320D01*
X124196021Y-36230605D01*
X123606378Y-36230605D01*
X123016735Y-35278105D02*
X122926021Y-35278105D01*
X122835307Y-35323463D01*
X122789950Y-35368820D01*
X122744592Y-35459534D01*
X122699235Y-35640963D01*
X122699235Y-35867748D01*
X122744592Y-36049177D01*
X122789950Y-36139891D01*
X122835307Y-36185248D01*
X122926021Y-36230605D01*
X123016735Y-36230605D01*
X123107450Y-36185248D01*
X123152807Y-36139891D01*
X123198164Y-36049177D01*
X123243521Y-35867748D01*
X123243521Y-35640963D01*
X123198164Y-35459534D01*
X123152807Y-35368820D01*
X123107450Y-35323463D01*
X123016735Y-35278105D01*
X122336378Y-35368820D02*
X122291021Y-35323463D01*
X122200307Y-35278105D01*
X121973521Y-35278105D01*
X121882807Y-35323463D01*
X121837450Y-35368820D01*
X121792092Y-35459534D01*
X121792092Y-35550248D01*
X121837450Y-35686320D01*
X122381735Y-36230605D01*
X121792092Y-36230605D01*
X120930307Y-35278105D02*
X121383878Y-35278105D01*
X121429235Y-35731677D01*
X121383878Y-35686320D01*
X121293164Y-35640963D01*
X121066378Y-35640963D01*
X120975664Y-35686320D01*
X120930307Y-35731677D01*
X120884950Y-35822391D01*
X120884950Y-36049177D01*
X120930307Y-36139891D01*
X120975664Y-36185248D01*
X121066378Y-36230605D01*
X121293164Y-36230605D01*
X121383878Y-36185248D01*
X121429235Y-36139891D01*
X120159235Y-35731677D02*
X120023164Y-35777034D01*
X119977807Y-35822391D01*
X119932450Y-35913105D01*
X119932450Y-36049177D01*
X119977807Y-36139891D01*
X120023164Y-36185248D01*
X120113878Y-36230605D01*
X120476735Y-36230605D01*
X120476735Y-35278105D01*
X120159235Y-35278105D01*
X120068521Y-35323463D01*
X120023164Y-35368820D01*
X119977807Y-35459534D01*
X119977807Y-35550248D01*
X120023164Y-35640963D01*
X120068521Y-35686320D01*
X120159235Y-35731677D01*
X120476735Y-35731677D01*
X118843878Y-36185248D02*
X118753164Y-36230605D01*
X118571735Y-36230605D01*
X118481021Y-36185248D01*
X118435664Y-36094534D01*
X118435664Y-36049177D01*
X118481021Y-35958463D01*
X118571735Y-35913105D01*
X118707807Y-35913105D01*
X118798521Y-35867748D01*
X118843878Y-35777034D01*
X118843878Y-35731677D01*
X118798521Y-35640963D01*
X118707807Y-35595605D01*
X118571735Y-35595605D01*
X118481021Y-35640963D01*
X117664592Y-36185248D02*
X117755307Y-36230605D01*
X117936735Y-36230605D01*
X118027450Y-36185248D01*
X118072807Y-36094534D01*
X118072807Y-35731677D01*
X118027450Y-35640963D01*
X117936735Y-35595605D01*
X117755307Y-35595605D01*
X117664592Y-35640963D01*
X117619235Y-35731677D01*
X117619235Y-35822391D01*
X118072807Y-35913105D01*
X116802807Y-36185248D02*
X116893521Y-36230605D01*
X117074950Y-36230605D01*
X117165664Y-36185248D01*
X117211021Y-36139891D01*
X117256378Y-36049177D01*
X117256378Y-35777034D01*
X117211021Y-35686320D01*
X117165664Y-35640963D01*
X117074950Y-35595605D01*
X116893521Y-35595605D01*
X116802807Y-35640963D01*
X116530664Y-35595605D02*
X116167807Y-35595605D01*
X116394592Y-35278105D02*
X116394592Y-36094534D01*
X116349235Y-36185248D01*
X116258521Y-36230605D01*
X116167807Y-36230605D01*
X115850307Y-36230605D02*
X115850307Y-35595605D01*
X115850307Y-35278105D02*
X115895664Y-35323463D01*
X115850307Y-35368820D01*
X115804950Y-35323463D01*
X115850307Y-35278105D01*
X115850307Y-35368820D01*
X115260664Y-36230605D02*
X115351378Y-36185248D01*
X115396735Y-36139891D01*
X115442092Y-36049177D01*
X115442092Y-35777034D01*
X115396735Y-35686320D01*
X115351378Y-35640963D01*
X115260664Y-35595605D01*
X115124592Y-35595605D01*
X115033878Y-35640963D01*
X114988521Y-35686320D01*
X114943164Y-35777034D01*
X114943164Y-36049177D01*
X114988521Y-36139891D01*
X115033878Y-36185248D01*
X115124592Y-36230605D01*
X115260664Y-36230605D01*
X114534950Y-35595605D02*
X114534950Y-36230605D01*
X114534950Y-35686320D02*
X114489592Y-35640963D01*
X114398878Y-35595605D01*
X114262807Y-35595605D01*
X114172092Y-35640963D01*
X114126735Y-35731677D01*
X114126735Y-36230605D01*
X113083521Y-35595605D02*
X112720664Y-35595605D01*
X112947450Y-36230605D02*
X112947450Y-35414177D01*
X112902092Y-35323463D01*
X112811378Y-35278105D01*
X112720664Y-35278105D01*
X112403164Y-36230605D02*
X112403164Y-35595605D01*
X112403164Y-35777034D02*
X112357807Y-35686320D01*
X112312450Y-35640963D01*
X112221735Y-35595605D01*
X112131021Y-35595605D01*
X111677450Y-36230605D02*
X111768164Y-36185248D01*
X111813521Y-36139891D01*
X111858878Y-36049177D01*
X111858878Y-35777034D01*
X111813521Y-35686320D01*
X111768164Y-35640963D01*
X111677450Y-35595605D01*
X111541378Y-35595605D01*
X111450664Y-35640963D01*
X111405307Y-35686320D01*
X111359950Y-35777034D01*
X111359950Y-36049177D01*
X111405307Y-36139891D01*
X111450664Y-36185248D01*
X111541378Y-36230605D01*
X111677450Y-36230605D01*
X110951735Y-36230605D02*
X110951735Y-35595605D01*
X110951735Y-35686320D02*
X110906378Y-35640963D01*
X110815664Y-35595605D01*
X110679592Y-35595605D01*
X110588878Y-35640963D01*
X110543521Y-35731677D01*
X110543521Y-36230605D01*
X110543521Y-35731677D02*
X110498164Y-35640963D01*
X110407450Y-35595605D01*
X110271378Y-35595605D01*
X110180664Y-35640963D01*
X110135307Y-35731677D01*
X110135307Y-36230605D01*
X109092092Y-35595605D02*
X108729235Y-35595605D01*
X108956021Y-35278105D02*
X108956021Y-36094534D01*
X108910664Y-36185248D01*
X108819950Y-36230605D01*
X108729235Y-36230605D01*
X108411735Y-36230605D02*
X108411735Y-35278105D01*
X108003521Y-36230605D02*
X108003521Y-35731677D01*
X108048878Y-35640963D01*
X108139592Y-35595605D01*
X108275664Y-35595605D01*
X108366378Y-35640963D01*
X108411735Y-35686320D01*
X107187092Y-36185248D02*
X107277807Y-36230605D01*
X107459235Y-36230605D01*
X107549950Y-36185248D01*
X107595307Y-36094534D01*
X107595307Y-35731677D01*
X107549950Y-35640963D01*
X107459235Y-35595605D01*
X107277807Y-35595605D01*
X107187092Y-35640963D01*
X107141735Y-35731677D01*
X107141735Y-35822391D01*
X107595307Y-35913105D01*
X106053164Y-36185248D02*
X105917092Y-36230605D01*
X105690307Y-36230605D01*
X105599592Y-36185248D01*
X105554235Y-36139891D01*
X105508878Y-36049177D01*
X105508878Y-35958463D01*
X105554235Y-35867748D01*
X105599592Y-35822391D01*
X105690307Y-35777034D01*
X105871735Y-35731677D01*
X105962450Y-35686320D01*
X106007807Y-35640963D01*
X106053164Y-35550248D01*
X106053164Y-35459534D01*
X106007807Y-35368820D01*
X105962450Y-35323463D01*
X105871735Y-35278105D01*
X105644950Y-35278105D01*
X105508878Y-35323463D01*
X105100664Y-35595605D02*
X105100664Y-36230605D01*
X105100664Y-35686320D02*
X105055307Y-35640963D01*
X104964592Y-35595605D01*
X104828521Y-35595605D01*
X104737807Y-35640963D01*
X104692450Y-35731677D01*
X104692450Y-36230605D01*
X103830664Y-36230605D02*
X103830664Y-35731677D01*
X103876021Y-35640963D01*
X103966735Y-35595605D01*
X104148164Y-35595605D01*
X104238878Y-35640963D01*
X103830664Y-36185248D02*
X103921378Y-36230605D01*
X104148164Y-36230605D01*
X104238878Y-36185248D01*
X104284235Y-36094534D01*
X104284235Y-36003820D01*
X104238878Y-35913105D01*
X104148164Y-35867748D01*
X103921378Y-35867748D01*
X103830664Y-35822391D01*
X103377092Y-36230605D02*
X103377092Y-35595605D01*
X103377092Y-35777034D02*
X103331735Y-35686320D01*
X103286378Y-35640963D01*
X103195664Y-35595605D01*
X103104950Y-35595605D01*
X102787450Y-36230605D02*
X102787450Y-35278105D01*
X102696735Y-35867748D02*
X102424592Y-36230605D01*
X102424592Y-35595605D02*
X102787450Y-35958463D01*
X100973164Y-35731677D02*
X100837092Y-35777034D01*
X100791735Y-35822391D01*
X100746378Y-35913105D01*
X100746378Y-36049177D01*
X100791735Y-36139891D01*
X100837092Y-36185248D01*
X100927807Y-36230605D01*
X101290664Y-36230605D01*
X101290664Y-35278105D01*
X100973164Y-35278105D01*
X100882450Y-35323463D01*
X100837092Y-35368820D01*
X100791735Y-35459534D01*
X100791735Y-35550248D01*
X100837092Y-35640963D01*
X100882450Y-35686320D01*
X100973164Y-35731677D01*
X101290664Y-35731677D01*
X99929950Y-36230605D02*
X99929950Y-35731677D01*
X99975307Y-35640963D01*
X100066021Y-35595605D01*
X100247450Y-35595605D01*
X100338164Y-35640963D01*
X99929950Y-36185248D02*
X100020664Y-36230605D01*
X100247450Y-36230605D01*
X100338164Y-36185248D01*
X100383521Y-36094534D01*
X100383521Y-36003820D01*
X100338164Y-35913105D01*
X100247450Y-35867748D01*
X100020664Y-35867748D01*
X99929950Y-35822391D01*
X99476378Y-36230605D02*
X99476378Y-35595605D01*
X99476378Y-35777034D02*
X99431021Y-35686320D01*
X99385664Y-35640963D01*
X99294950Y-35595605D01*
X99204235Y-35595605D01*
X98886735Y-36230605D02*
X98886735Y-35278105D01*
X98796021Y-35867748D02*
X98523878Y-36230605D01*
X98523878Y-35595605D02*
X98886735Y-35958463D01*
X97752807Y-36185248D02*
X97843521Y-36230605D01*
X98024950Y-36230605D01*
X98115664Y-36185248D01*
X98161021Y-36094534D01*
X98161021Y-35731677D01*
X98115664Y-35640963D01*
X98024950Y-35595605D01*
X97843521Y-35595605D01*
X97752807Y-35640963D01*
X97707450Y-35731677D01*
X97707450Y-35822391D01*
X98161021Y-35913105D01*
X97299235Y-36230605D02*
X97299235Y-35595605D01*
X97299235Y-35777034D02*
X97253878Y-35686320D01*
X97208521Y-35640963D01*
X97117807Y-35595605D01*
X97027092Y-35595605D01*
X96664235Y-36185248D02*
X96664235Y-36230605D01*
X96709592Y-36321320D01*
X96754950Y-36366677D01*
X96709592Y-35640963D02*
X96664235Y-35686320D01*
X96709592Y-35731677D01*
X96754950Y-35686320D01*
X96709592Y-35640963D01*
X96709592Y-35731677D01*
X126101021Y-37718773D02*
X126191735Y-37764130D01*
X126373164Y-37764130D01*
X126463878Y-37718773D01*
X126509235Y-37673416D01*
X126554592Y-37582702D01*
X126554592Y-37310559D01*
X126509235Y-37219845D01*
X126463878Y-37174488D01*
X126373164Y-37129130D01*
X126191735Y-37129130D01*
X126101021Y-37174488D01*
X125556735Y-37764130D02*
X125647450Y-37718773D01*
X125692807Y-37673416D01*
X125738164Y-37582702D01*
X125738164Y-37310559D01*
X125692807Y-37219845D01*
X125647450Y-37174488D01*
X125556735Y-37129130D01*
X125420664Y-37129130D01*
X125329950Y-37174488D01*
X125284592Y-37219845D01*
X125239235Y-37310559D01*
X125239235Y-37582702D01*
X125284592Y-37673416D01*
X125329950Y-37718773D01*
X125420664Y-37764130D01*
X125556735Y-37764130D01*
X124831021Y-37129130D02*
X124831021Y-38081630D01*
X124831021Y-37174488D02*
X124740307Y-37129130D01*
X124558878Y-37129130D01*
X124468164Y-37174488D01*
X124422807Y-37219845D01*
X124377450Y-37310559D01*
X124377450Y-37582702D01*
X124422807Y-37673416D01*
X124468164Y-37718773D01*
X124558878Y-37764130D01*
X124740307Y-37764130D01*
X124831021Y-37718773D01*
X123969235Y-37764130D02*
X123969235Y-37129130D01*
X123969235Y-36811630D02*
X124014592Y-36856988D01*
X123969235Y-36902345D01*
X123923878Y-36856988D01*
X123969235Y-36811630D01*
X123969235Y-36902345D01*
X123379592Y-37764130D02*
X123470307Y-37718773D01*
X123515664Y-37673416D01*
X123561021Y-37582702D01*
X123561021Y-37310559D01*
X123515664Y-37219845D01*
X123470307Y-37174488D01*
X123379592Y-37129130D01*
X123243521Y-37129130D01*
X123152807Y-37174488D01*
X123107450Y-37219845D01*
X123062092Y-37310559D01*
X123062092Y-37582702D01*
X123107450Y-37673416D01*
X123152807Y-37718773D01*
X123243521Y-37764130D01*
X123379592Y-37764130D01*
X122245664Y-37129130D02*
X122245664Y-37764130D01*
X122653878Y-37129130D02*
X122653878Y-37628059D01*
X122608521Y-37718773D01*
X122517807Y-37764130D01*
X122381735Y-37764130D01*
X122291021Y-37718773D01*
X122245664Y-37673416D01*
X121837450Y-37718773D02*
X121746735Y-37764130D01*
X121565307Y-37764130D01*
X121474592Y-37718773D01*
X121429235Y-37628059D01*
X121429235Y-37582702D01*
X121474592Y-37491988D01*
X121565307Y-37446630D01*
X121701378Y-37446630D01*
X121792092Y-37401273D01*
X121837450Y-37310559D01*
X121837450Y-37265202D01*
X121792092Y-37174488D01*
X121701378Y-37129130D01*
X121565307Y-37129130D01*
X121474592Y-37174488D01*
X120431378Y-37129130D02*
X120068521Y-37129130D01*
X120295307Y-37764130D02*
X120295307Y-36947702D01*
X120249950Y-36856988D01*
X120159235Y-36811630D01*
X120068521Y-36811630D01*
X119614950Y-37764130D02*
X119705664Y-37718773D01*
X119751021Y-37673416D01*
X119796378Y-37582702D01*
X119796378Y-37310559D01*
X119751021Y-37219845D01*
X119705664Y-37174488D01*
X119614950Y-37129130D01*
X119478878Y-37129130D01*
X119388164Y-37174488D01*
X119342807Y-37219845D01*
X119297450Y-37310559D01*
X119297450Y-37582702D01*
X119342807Y-37673416D01*
X119388164Y-37718773D01*
X119478878Y-37764130D01*
X119614950Y-37764130D01*
X118753164Y-37764130D02*
X118843878Y-37718773D01*
X118889235Y-37673416D01*
X118934592Y-37582702D01*
X118934592Y-37310559D01*
X118889235Y-37219845D01*
X118843878Y-37174488D01*
X118753164Y-37129130D01*
X118617092Y-37129130D01*
X118526378Y-37174488D01*
X118481021Y-37219845D01*
X118435664Y-37310559D01*
X118435664Y-37582702D01*
X118481021Y-37673416D01*
X118526378Y-37718773D01*
X118617092Y-37764130D01*
X118753164Y-37764130D01*
X118163521Y-37129130D02*
X117800664Y-37129130D01*
X118027450Y-36811630D02*
X118027450Y-37628059D01*
X117982092Y-37718773D01*
X117891378Y-37764130D01*
X117800664Y-37764130D01*
X117483164Y-37129130D02*
X117483164Y-38081630D01*
X117483164Y-37174488D02*
X117392450Y-37129130D01*
X117211021Y-37129130D01*
X117120307Y-37174488D01*
X117074950Y-37219845D01*
X117029592Y-37310559D01*
X117029592Y-37582702D01*
X117074950Y-37673416D01*
X117120307Y-37718773D01*
X117211021Y-37764130D01*
X117392450Y-37764130D01*
X117483164Y-37718773D01*
X116621378Y-37764130D02*
X116621378Y-37129130D01*
X116621378Y-37310559D02*
X116576021Y-37219845D01*
X116530664Y-37174488D01*
X116439950Y-37129130D01*
X116349235Y-37129130D01*
X116031735Y-37764130D02*
X116031735Y-37129130D01*
X116031735Y-36811630D02*
X116077092Y-36856988D01*
X116031735Y-36902345D01*
X115986378Y-36856988D01*
X116031735Y-36811630D01*
X116031735Y-36902345D01*
X115578164Y-37129130D02*
X115578164Y-37764130D01*
X115578164Y-37219845D02*
X115532807Y-37174488D01*
X115442092Y-37129130D01*
X115306021Y-37129130D01*
X115215307Y-37174488D01*
X115169950Y-37265202D01*
X115169950Y-37764130D01*
X114852450Y-37129130D02*
X114489592Y-37129130D01*
X114716378Y-36811630D02*
X114716378Y-37628059D01*
X114671021Y-37718773D01*
X114580307Y-37764130D01*
X114489592Y-37764130D01*
X114217450Y-37718773D02*
X114126735Y-37764130D01*
X113945307Y-37764130D01*
X113854592Y-37718773D01*
X113809235Y-37628059D01*
X113809235Y-37582702D01*
X113854592Y-37491988D01*
X113945307Y-37446630D01*
X114081378Y-37446630D01*
X114172092Y-37401273D01*
X114217450Y-37310559D01*
X114217450Y-37265202D01*
X114172092Y-37174488D01*
X114081378Y-37129130D01*
X113945307Y-37129130D01*
X113854592Y-37174488D01*
X112267092Y-37764130D02*
X112267092Y-37265202D01*
X112312450Y-37174488D01*
X112403164Y-37129130D01*
X112584592Y-37129130D01*
X112675307Y-37174488D01*
X112267092Y-37718773D02*
X112357807Y-37764130D01*
X112584592Y-37764130D01*
X112675307Y-37718773D01*
X112720664Y-37628059D01*
X112720664Y-37537345D01*
X112675307Y-37446630D01*
X112584592Y-37401273D01*
X112357807Y-37401273D01*
X112267092Y-37355916D01*
X111813521Y-37129130D02*
X111813521Y-37764130D01*
X111813521Y-37219845D02*
X111768164Y-37174488D01*
X111677450Y-37129130D01*
X111541378Y-37129130D01*
X111450664Y-37174488D01*
X111405307Y-37265202D01*
X111405307Y-37764130D01*
X110543521Y-37764130D02*
X110543521Y-36811630D01*
X110543521Y-37718773D02*
X110634235Y-37764130D01*
X110815664Y-37764130D01*
X110906378Y-37718773D01*
X110951735Y-37673416D01*
X110997092Y-37582702D01*
X110997092Y-37310559D01*
X110951735Y-37219845D01*
X110906378Y-37174488D01*
X110815664Y-37129130D01*
X110634235Y-37129130D01*
X110543521Y-37174488D01*
X109409592Y-37718773D02*
X109318878Y-37764130D01*
X109137450Y-37764130D01*
X109046735Y-37718773D01*
X109001378Y-37628059D01*
X109001378Y-37582702D01*
X109046735Y-37491988D01*
X109137450Y-37446630D01*
X109273521Y-37446630D01*
X109364235Y-37401273D01*
X109409592Y-37310559D01*
X109409592Y-37265202D01*
X109364235Y-37174488D01*
X109273521Y-37129130D01*
X109137450Y-37129130D01*
X109046735Y-37174488D01*
X108593164Y-37764130D02*
X108593164Y-37129130D01*
X108593164Y-36811630D02*
X108638521Y-36856988D01*
X108593164Y-36902345D01*
X108547807Y-36856988D01*
X108593164Y-36811630D01*
X108593164Y-36902345D01*
X108003521Y-37764130D02*
X108094235Y-37718773D01*
X108139592Y-37628059D01*
X108139592Y-36811630D01*
X107640664Y-37764130D02*
X107640664Y-36811630D01*
X107549950Y-37401273D02*
X107277807Y-37764130D01*
X107277807Y-37129130D02*
X107640664Y-37491988D01*
X106914950Y-37718773D02*
X106824235Y-37764130D01*
X106642807Y-37764130D01*
X106552092Y-37718773D01*
X106506735Y-37628059D01*
X106506735Y-37582702D01*
X106552092Y-37491988D01*
X106642807Y-37446630D01*
X106778878Y-37446630D01*
X106869592Y-37401273D01*
X106914950Y-37310559D01*
X106914950Y-37265202D01*
X106869592Y-37174488D01*
X106778878Y-37129130D01*
X106642807Y-37129130D01*
X106552092Y-37174488D01*
X105690307Y-37718773D02*
X105781021Y-37764130D01*
X105962450Y-37764130D01*
X106053164Y-37718773D01*
X106098521Y-37673416D01*
X106143878Y-37582702D01*
X106143878Y-37310559D01*
X106098521Y-37219845D01*
X106053164Y-37174488D01*
X105962450Y-37129130D01*
X105781021Y-37129130D01*
X105690307Y-37174488D01*
X105282092Y-37764130D02*
X105282092Y-37129130D01*
X105282092Y-37310559D02*
X105236735Y-37219845D01*
X105191378Y-37174488D01*
X105100664Y-37129130D01*
X105009950Y-37129130D01*
X104329592Y-37718773D02*
X104420307Y-37764130D01*
X104601735Y-37764130D01*
X104692450Y-37718773D01*
X104737807Y-37628059D01*
X104737807Y-37265202D01*
X104692450Y-37174488D01*
X104601735Y-37129130D01*
X104420307Y-37129130D01*
X104329592Y-37174488D01*
X104284235Y-37265202D01*
X104284235Y-37355916D01*
X104737807Y-37446630D01*
X103513164Y-37718773D02*
X103603878Y-37764130D01*
X103785307Y-37764130D01*
X103876021Y-37718773D01*
X103921378Y-37628059D01*
X103921378Y-37265202D01*
X103876021Y-37174488D01*
X103785307Y-37129130D01*
X103603878Y-37129130D01*
X103513164Y-37174488D01*
X103467807Y-37265202D01*
X103467807Y-37355916D01*
X103921378Y-37446630D01*
X103059592Y-37129130D02*
X103059592Y-37764130D01*
X103059592Y-37219845D02*
X103014235Y-37174488D01*
X102923521Y-37129130D01*
X102787450Y-37129130D01*
X102696735Y-37174488D01*
X102651378Y-37265202D01*
X102651378Y-37764130D01*
X128096735Y-38345155D02*
X127552450Y-38345155D01*
X127824592Y-39297655D02*
X127824592Y-38345155D01*
X127234950Y-39297655D02*
X127234950Y-38662655D01*
X127234950Y-38844084D02*
X127189592Y-38753370D01*
X127144235Y-38708013D01*
X127053521Y-38662655D01*
X126962807Y-38662655D01*
X126509235Y-39297655D02*
X126599950Y-39252298D01*
X126645307Y-39206941D01*
X126690664Y-39116227D01*
X126690664Y-38844084D01*
X126645307Y-38753370D01*
X126599950Y-38708013D01*
X126509235Y-38662655D01*
X126373164Y-38662655D01*
X126282450Y-38708013D01*
X126237092Y-38753370D01*
X126191735Y-38844084D01*
X126191735Y-39116227D01*
X126237092Y-39206941D01*
X126282450Y-39252298D01*
X126373164Y-39297655D01*
X126509235Y-39297655D01*
X125783521Y-38662655D02*
X125783521Y-39297655D01*
X125783521Y-38753370D02*
X125738164Y-38708013D01*
X125647450Y-38662655D01*
X125511378Y-38662655D01*
X125420664Y-38708013D01*
X125375307Y-38798727D01*
X125375307Y-39297655D01*
X124921735Y-39297655D02*
X124921735Y-38662655D01*
X124921735Y-38345155D02*
X124967092Y-38390513D01*
X124921735Y-38435870D01*
X124876378Y-38390513D01*
X124921735Y-38345155D01*
X124921735Y-38435870D01*
X124558878Y-39297655D02*
X124059950Y-38662655D01*
X124558878Y-38662655D02*
X124059950Y-39297655D01*
X122971378Y-38934798D02*
X122245664Y-38934798D01*
X120930307Y-39297655D02*
X121021021Y-39252298D01*
X121066378Y-39206941D01*
X121111735Y-39116227D01*
X121111735Y-38844084D01*
X121066378Y-38753370D01*
X121021021Y-38708013D01*
X120930307Y-38662655D01*
X120794235Y-38662655D01*
X120703521Y-38708013D01*
X120658164Y-38753370D01*
X120612807Y-38844084D01*
X120612807Y-39116227D01*
X120658164Y-39206941D01*
X120703521Y-39252298D01*
X120794235Y-39297655D01*
X120930307Y-39297655D01*
X120204592Y-39297655D02*
X120204592Y-38662655D01*
X120204592Y-38844084D02*
X120159235Y-38753370D01*
X120113878Y-38708013D01*
X120023164Y-38662655D01*
X119932450Y-38662655D01*
X119614950Y-39297655D02*
X119614950Y-38662655D01*
X119614950Y-38345155D02*
X119660307Y-38390513D01*
X119614950Y-38435870D01*
X119569592Y-38390513D01*
X119614950Y-38345155D01*
X119614950Y-38435870D01*
X118753164Y-38662655D02*
X118753164Y-39433727D01*
X118798521Y-39524441D01*
X118843878Y-39569798D01*
X118934592Y-39615155D01*
X119070664Y-39615155D01*
X119161378Y-39569798D01*
X118753164Y-39252298D02*
X118843878Y-39297655D01*
X119025307Y-39297655D01*
X119116021Y-39252298D01*
X119161378Y-39206941D01*
X119206735Y-39116227D01*
X119206735Y-38844084D01*
X119161378Y-38753370D01*
X119116021Y-38708013D01*
X119025307Y-38662655D01*
X118843878Y-38662655D01*
X118753164Y-38708013D01*
X118299592Y-39297655D02*
X118299592Y-38662655D01*
X118299592Y-38345155D02*
X118344950Y-38390513D01*
X118299592Y-38435870D01*
X118254235Y-38390513D01*
X118299592Y-38345155D01*
X118299592Y-38435870D01*
X117846021Y-38662655D02*
X117846021Y-39297655D01*
X117846021Y-38753370D02*
X117800664Y-38708013D01*
X117709950Y-38662655D01*
X117573878Y-38662655D01*
X117483164Y-38708013D01*
X117437807Y-38798727D01*
X117437807Y-39297655D01*
X116576021Y-39297655D02*
X116576021Y-38798727D01*
X116621378Y-38708013D01*
X116712092Y-38662655D01*
X116893521Y-38662655D01*
X116984235Y-38708013D01*
X116576021Y-39252298D02*
X116666735Y-39297655D01*
X116893521Y-39297655D01*
X116984235Y-39252298D01*
X117029592Y-39161584D01*
X117029592Y-39070870D01*
X116984235Y-38980155D01*
X116893521Y-38934798D01*
X116666735Y-38934798D01*
X116576021Y-38889441D01*
X115986378Y-39297655D02*
X116077092Y-39252298D01*
X116122450Y-39161584D01*
X116122450Y-38345155D01*
X115033878Y-38662655D02*
X114671021Y-38662655D01*
X114897807Y-38345155D02*
X114897807Y-39161584D01*
X114852450Y-39252298D01*
X114761735Y-39297655D01*
X114671021Y-39297655D01*
X114353521Y-39297655D02*
X114353521Y-38662655D01*
X114353521Y-38844084D02*
X114308164Y-38753370D01*
X114262807Y-38708013D01*
X114172092Y-38662655D01*
X114081378Y-38662655D01*
X113355664Y-39297655D02*
X113355664Y-38798727D01*
X113401021Y-38708013D01*
X113491735Y-38662655D01*
X113673164Y-38662655D01*
X113763878Y-38708013D01*
X113355664Y-39252298D02*
X113446378Y-39297655D01*
X113673164Y-39297655D01*
X113763878Y-39252298D01*
X113809235Y-39161584D01*
X113809235Y-39070870D01*
X113763878Y-38980155D01*
X113673164Y-38934798D01*
X113446378Y-38934798D01*
X113355664Y-38889441D01*
X112902092Y-38662655D02*
X112902092Y-39297655D01*
X112902092Y-38753370D02*
X112856735Y-38708013D01*
X112766021Y-38662655D01*
X112629950Y-38662655D01*
X112539235Y-38708013D01*
X112493878Y-38798727D01*
X112493878Y-39297655D01*
X112085664Y-39252298D02*
X111994950Y-39297655D01*
X111813521Y-39297655D01*
X111722807Y-39252298D01*
X111677450Y-39161584D01*
X111677450Y-39116227D01*
X111722807Y-39025513D01*
X111813521Y-38980155D01*
X111949592Y-38980155D01*
X112040307Y-38934798D01*
X112085664Y-38844084D01*
X112085664Y-38798727D01*
X112040307Y-38708013D01*
X111949592Y-38662655D01*
X111813521Y-38662655D01*
X111722807Y-38708013D01*
X110861021Y-39252298D02*
X110951735Y-39297655D01*
X111133164Y-39297655D01*
X111223878Y-39252298D01*
X111269235Y-39206941D01*
X111314592Y-39116227D01*
X111314592Y-38844084D01*
X111269235Y-38753370D01*
X111223878Y-38708013D01*
X111133164Y-38662655D01*
X110951735Y-38662655D01*
X110861021Y-38708013D01*
X110089950Y-39252298D02*
X110180664Y-39297655D01*
X110362092Y-39297655D01*
X110452807Y-39252298D01*
X110498164Y-39161584D01*
X110498164Y-38798727D01*
X110452807Y-38708013D01*
X110362092Y-38662655D01*
X110180664Y-38662655D01*
X110089950Y-38708013D01*
X110044592Y-38798727D01*
X110044592Y-38889441D01*
X110498164Y-38980155D01*
X109636378Y-39297655D02*
X109636378Y-38662655D01*
X109636378Y-38345155D02*
X109681735Y-38390513D01*
X109636378Y-38435870D01*
X109591021Y-38390513D01*
X109636378Y-38345155D01*
X109636378Y-38435870D01*
X109273521Y-38662655D02*
X109046735Y-39297655D01*
X108819950Y-38662655D01*
X108094235Y-39252298D02*
X108184950Y-39297655D01*
X108366378Y-39297655D01*
X108457092Y-39252298D01*
X108502450Y-39161584D01*
X108502450Y-38798727D01*
X108457092Y-38708013D01*
X108366378Y-38662655D01*
X108184950Y-38662655D01*
X108094235Y-38708013D01*
X108048878Y-38798727D01*
X108048878Y-38889441D01*
X108502450Y-38980155D01*
X107640664Y-39297655D02*
X107640664Y-38662655D01*
X107640664Y-38844084D02*
X107595307Y-38753370D01*
X107549950Y-38708013D01*
X107459235Y-38662655D01*
X107368521Y-38662655D01*
X106370664Y-38299798D02*
X107187092Y-39524441D01*
X106053164Y-39297655D02*
X106053164Y-38662655D01*
X106053164Y-38844084D02*
X106007807Y-38753370D01*
X105962450Y-38708013D01*
X105871735Y-38662655D01*
X105781021Y-38662655D01*
X105100664Y-39252298D02*
X105191378Y-39297655D01*
X105372807Y-39297655D01*
X105463521Y-39252298D01*
X105508878Y-39161584D01*
X105508878Y-38798727D01*
X105463521Y-38708013D01*
X105372807Y-38662655D01*
X105191378Y-38662655D01*
X105100664Y-38708013D01*
X105055307Y-38798727D01*
X105055307Y-38889441D01*
X105508878Y-38980155D01*
X104238878Y-38662655D02*
X104238878Y-39433727D01*
X104284235Y-39524441D01*
X104329592Y-39569798D01*
X104420307Y-39615155D01*
X104556378Y-39615155D01*
X104647092Y-39569798D01*
X104238878Y-39252298D02*
X104329592Y-39297655D01*
X104511021Y-39297655D01*
X104601735Y-39252298D01*
X104647092Y-39206941D01*
X104692450Y-39116227D01*
X104692450Y-38844084D01*
X104647092Y-38753370D01*
X104601735Y-38708013D01*
X104511021Y-38662655D01*
X104329592Y-38662655D01*
X104238878Y-38708013D01*
X103785307Y-39297655D02*
X103785307Y-38662655D01*
X103785307Y-38345155D02*
X103830664Y-38390513D01*
X103785307Y-38435870D01*
X103739950Y-38390513D01*
X103785307Y-38345155D01*
X103785307Y-38435870D01*
X103377092Y-39252298D02*
X103286378Y-39297655D01*
X103104950Y-39297655D01*
X103014235Y-39252298D01*
X102968878Y-39161584D01*
X102968878Y-39116227D01*
X103014235Y-39025513D01*
X103104950Y-38980155D01*
X103241021Y-38980155D01*
X103331735Y-38934798D01*
X103377092Y-38844084D01*
X103377092Y-38798727D01*
X103331735Y-38708013D01*
X103241021Y-38662655D01*
X103104950Y-38662655D01*
X103014235Y-38708013D01*
X102696735Y-38662655D02*
X102333878Y-38662655D01*
X102560664Y-38345155D02*
X102560664Y-39161584D01*
X102515307Y-39252298D01*
X102424592Y-39297655D01*
X102333878Y-39297655D01*
X101653521Y-39252298D02*
X101744235Y-39297655D01*
X101925664Y-39297655D01*
X102016378Y-39252298D01*
X102061735Y-39161584D01*
X102061735Y-38798727D01*
X102016378Y-38708013D01*
X101925664Y-38662655D01*
X101744235Y-38662655D01*
X101653521Y-38708013D01*
X101608164Y-38798727D01*
X101608164Y-38889441D01*
X102061735Y-38980155D01*
X101199950Y-39297655D02*
X101199950Y-38662655D01*
X101199950Y-38844084D02*
X101154592Y-38753370D01*
X101109235Y-38708013D01*
X101018521Y-38662655D01*
X100927807Y-38662655D01*
X126373164Y-40831180D02*
X126463878Y-40785823D01*
X126509235Y-40695109D01*
X126509235Y-39878680D01*
X125874235Y-40831180D02*
X125964950Y-40785823D01*
X126010307Y-40740466D01*
X126055664Y-40649752D01*
X126055664Y-40377609D01*
X126010307Y-40286895D01*
X125964950Y-40241538D01*
X125874235Y-40196180D01*
X125738164Y-40196180D01*
X125647450Y-40241538D01*
X125602092Y-40286895D01*
X125556735Y-40377609D01*
X125556735Y-40649752D01*
X125602092Y-40740466D01*
X125647450Y-40785823D01*
X125738164Y-40831180D01*
X125874235Y-40831180D01*
X124740307Y-40196180D02*
X124740307Y-40967252D01*
X124785664Y-41057966D01*
X124831021Y-41103323D01*
X124921735Y-41148680D01*
X125057807Y-41148680D01*
X125148521Y-41103323D01*
X124740307Y-40785823D02*
X124831021Y-40831180D01*
X125012450Y-40831180D01*
X125103164Y-40785823D01*
X125148521Y-40740466D01*
X125193878Y-40649752D01*
X125193878Y-40377609D01*
X125148521Y-40286895D01*
X125103164Y-40241538D01*
X125012450Y-40196180D01*
X124831021Y-40196180D01*
X124740307Y-40241538D01*
X124286735Y-40831180D02*
X124286735Y-40196180D01*
X124286735Y-39878680D02*
X124332092Y-39924038D01*
X124286735Y-39969395D01*
X124241378Y-39924038D01*
X124286735Y-39878680D01*
X124286735Y-39969395D01*
X123424950Y-40785823D02*
X123515664Y-40831180D01*
X123697092Y-40831180D01*
X123787807Y-40785823D01*
X123833164Y-40740466D01*
X123878521Y-40649752D01*
X123878521Y-40377609D01*
X123833164Y-40286895D01*
X123787807Y-40241538D01*
X123697092Y-40196180D01*
X123515664Y-40196180D01*
X123424950Y-40241538D01*
X122427092Y-40196180D02*
X122064235Y-40196180D01*
X122291021Y-40831180D02*
X122291021Y-40014752D01*
X122245664Y-39924038D01*
X122154950Y-39878680D01*
X122064235Y-39878680D01*
X121610664Y-40831180D02*
X121701378Y-40785823D01*
X121746735Y-40740466D01*
X121792092Y-40649752D01*
X121792092Y-40377609D01*
X121746735Y-40286895D01*
X121701378Y-40241538D01*
X121610664Y-40196180D01*
X121474592Y-40196180D01*
X121383878Y-40241538D01*
X121338521Y-40286895D01*
X121293164Y-40377609D01*
X121293164Y-40649752D01*
X121338521Y-40740466D01*
X121383878Y-40785823D01*
X121474592Y-40831180D01*
X121610664Y-40831180D01*
X120884950Y-40831180D02*
X120884950Y-40196180D01*
X120884950Y-40377609D02*
X120839592Y-40286895D01*
X120794235Y-40241538D01*
X120703521Y-40196180D01*
X120612807Y-40196180D01*
X119161378Y-40785823D02*
X119252092Y-40831180D01*
X119433521Y-40831180D01*
X119524235Y-40785823D01*
X119569592Y-40740466D01*
X119614950Y-40649752D01*
X119614950Y-40377609D01*
X119569592Y-40286895D01*
X119524235Y-40241538D01*
X119433521Y-40196180D01*
X119252092Y-40196180D01*
X119161378Y-40241538D01*
X118344950Y-40831180D02*
X118344950Y-40332252D01*
X118390307Y-40241538D01*
X118481021Y-40196180D01*
X118662450Y-40196180D01*
X118753164Y-40241538D01*
X118344950Y-40785823D02*
X118435664Y-40831180D01*
X118662450Y-40831180D01*
X118753164Y-40785823D01*
X118798521Y-40695109D01*
X118798521Y-40604395D01*
X118753164Y-40513680D01*
X118662450Y-40468323D01*
X118435664Y-40468323D01*
X118344950Y-40422966D01*
X117891378Y-40831180D02*
X117891378Y-40196180D01*
X117891378Y-40377609D02*
X117846021Y-40286895D01*
X117800664Y-40241538D01*
X117709950Y-40196180D01*
X117619235Y-40196180D01*
X116893521Y-40831180D02*
X116893521Y-39878680D01*
X116893521Y-40785823D02*
X116984235Y-40831180D01*
X117165664Y-40831180D01*
X117256378Y-40785823D01*
X117301735Y-40740466D01*
X117347092Y-40649752D01*
X117347092Y-40377609D01*
X117301735Y-40286895D01*
X117256378Y-40241538D01*
X117165664Y-40196180D01*
X116984235Y-40196180D01*
X116893521Y-40241538D01*
X115306021Y-40831180D02*
X115306021Y-39878680D01*
X115306021Y-40785823D02*
X115396735Y-40831180D01*
X115578164Y-40831180D01*
X115668878Y-40785823D01*
X115714235Y-40740466D01*
X115759592Y-40649752D01*
X115759592Y-40377609D01*
X115714235Y-40286895D01*
X115668878Y-40241538D01*
X115578164Y-40196180D01*
X115396735Y-40196180D01*
X115306021Y-40241538D01*
X114489592Y-40785823D02*
X114580307Y-40831180D01*
X114761735Y-40831180D01*
X114852450Y-40785823D01*
X114897807Y-40695109D01*
X114897807Y-40332252D01*
X114852450Y-40241538D01*
X114761735Y-40196180D01*
X114580307Y-40196180D01*
X114489592Y-40241538D01*
X114444235Y-40332252D01*
X114444235Y-40422966D01*
X114897807Y-40513680D01*
X114172092Y-40196180D02*
X113809235Y-40196180D01*
X114036021Y-39878680D02*
X114036021Y-40695109D01*
X113990664Y-40785823D01*
X113899950Y-40831180D01*
X113809235Y-40831180D01*
X113128878Y-40785823D02*
X113219592Y-40831180D01*
X113401021Y-40831180D01*
X113491735Y-40785823D01*
X113537092Y-40695109D01*
X113537092Y-40332252D01*
X113491735Y-40241538D01*
X113401021Y-40196180D01*
X113219592Y-40196180D01*
X113128878Y-40241538D01*
X113083521Y-40332252D01*
X113083521Y-40422966D01*
X113537092Y-40513680D01*
X112267092Y-40785823D02*
X112357807Y-40831180D01*
X112539235Y-40831180D01*
X112629950Y-40785823D01*
X112675307Y-40740466D01*
X112720664Y-40649752D01*
X112720664Y-40377609D01*
X112675307Y-40286895D01*
X112629950Y-40241538D01*
X112539235Y-40196180D01*
X112357807Y-40196180D01*
X112267092Y-40241538D01*
X111994950Y-40196180D02*
X111632092Y-40196180D01*
X111858878Y-39878680D02*
X111858878Y-40695109D01*
X111813521Y-40785823D01*
X111722807Y-40831180D01*
X111632092Y-40831180D01*
X111314592Y-40831180D02*
X111314592Y-40196180D01*
X111314592Y-39878680D02*
X111359950Y-39924038D01*
X111314592Y-39969395D01*
X111269235Y-39924038D01*
X111314592Y-39878680D01*
X111314592Y-39969395D01*
X110724950Y-40831180D02*
X110815664Y-40785823D01*
X110861021Y-40740466D01*
X110906378Y-40649752D01*
X110906378Y-40377609D01*
X110861021Y-40286895D01*
X110815664Y-40241538D01*
X110724950Y-40196180D01*
X110588878Y-40196180D01*
X110498164Y-40241538D01*
X110452807Y-40286895D01*
X110407450Y-40377609D01*
X110407450Y-40649752D01*
X110452807Y-40740466D01*
X110498164Y-40785823D01*
X110588878Y-40831180D01*
X110724950Y-40831180D01*
X109999235Y-40196180D02*
X109999235Y-40831180D01*
X109999235Y-40286895D02*
X109953878Y-40241538D01*
X109863164Y-40196180D01*
X109727092Y-40196180D01*
X109636378Y-40241538D01*
X109591021Y-40332252D01*
X109591021Y-40831180D01*
X128006021Y-42319348D02*
X127915307Y-42364705D01*
X127733878Y-42364705D01*
X127643164Y-42319348D01*
X127597807Y-42228634D01*
X127597807Y-42183277D01*
X127643164Y-42092563D01*
X127733878Y-42047205D01*
X127869950Y-42047205D01*
X127960664Y-42001848D01*
X128006021Y-41911134D01*
X128006021Y-41865777D01*
X127960664Y-41775063D01*
X127869950Y-41729705D01*
X127733878Y-41729705D01*
X127643164Y-41775063D01*
X126826735Y-42319348D02*
X126917450Y-42364705D01*
X127098878Y-42364705D01*
X127189592Y-42319348D01*
X127234950Y-42228634D01*
X127234950Y-41865777D01*
X127189592Y-41775063D01*
X127098878Y-41729705D01*
X126917450Y-41729705D01*
X126826735Y-41775063D01*
X126781378Y-41865777D01*
X126781378Y-41956491D01*
X127234950Y-42047205D01*
X125964950Y-42364705D02*
X125964950Y-41865777D01*
X126010307Y-41775063D01*
X126101021Y-41729705D01*
X126282450Y-41729705D01*
X126373164Y-41775063D01*
X125964950Y-42319348D02*
X126055664Y-42364705D01*
X126282450Y-42364705D01*
X126373164Y-42319348D01*
X126418521Y-42228634D01*
X126418521Y-42137920D01*
X126373164Y-42047205D01*
X126282450Y-42001848D01*
X126055664Y-42001848D01*
X125964950Y-41956491D01*
X125647450Y-41729705D02*
X125284592Y-41729705D01*
X125511378Y-41412205D02*
X125511378Y-42228634D01*
X125466021Y-42319348D01*
X125375307Y-42364705D01*
X125284592Y-42364705D01*
X124286735Y-42319348D02*
X124196021Y-42364705D01*
X124014592Y-42364705D01*
X123923878Y-42319348D01*
X123878521Y-42228634D01*
X123878521Y-42183277D01*
X123923878Y-42092563D01*
X124014592Y-42047205D01*
X124150664Y-42047205D01*
X124241378Y-42001848D01*
X124286735Y-41911134D01*
X124286735Y-41865777D01*
X124241378Y-41775063D01*
X124150664Y-41729705D01*
X124014592Y-41729705D01*
X123923878Y-41775063D01*
X123062092Y-42364705D02*
X123062092Y-41865777D01*
X123107450Y-41775063D01*
X123198164Y-41729705D01*
X123379592Y-41729705D01*
X123470307Y-41775063D01*
X123062092Y-42319348D02*
X123152807Y-42364705D01*
X123379592Y-42364705D01*
X123470307Y-42319348D01*
X123515664Y-42228634D01*
X123515664Y-42137920D01*
X123470307Y-42047205D01*
X123379592Y-42001848D01*
X123152807Y-42001848D01*
X123062092Y-41956491D01*
X122744592Y-41729705D02*
X122381735Y-41729705D01*
X122608521Y-42364705D02*
X122608521Y-41548277D01*
X122563164Y-41457563D01*
X122472450Y-41412205D01*
X122381735Y-41412205D01*
X121701378Y-42319348D02*
X121792092Y-42364705D01*
X121973521Y-42364705D01*
X122064235Y-42319348D01*
X122109592Y-42228634D01*
X122109592Y-41865777D01*
X122064235Y-41775063D01*
X121973521Y-41729705D01*
X121792092Y-41729705D01*
X121701378Y-41775063D01*
X121656021Y-41865777D01*
X121656021Y-41956491D01*
X122109592Y-42047205D01*
X121383878Y-41729705D02*
X121021021Y-41729705D01*
X121247807Y-41412205D02*
X121247807Y-42228634D01*
X121202450Y-42319348D01*
X121111735Y-42364705D01*
X121021021Y-42364705D01*
X120794235Y-41729705D02*
X120567450Y-42364705D01*
X120340664Y-41729705D02*
X120567450Y-42364705D01*
X120658164Y-42591491D01*
X120703521Y-42636848D01*
X120794235Y-42682205D01*
X119297450Y-42319348D02*
X119206735Y-42364705D01*
X119025307Y-42364705D01*
X118934592Y-42319348D01*
X118889235Y-42228634D01*
X118889235Y-42183277D01*
X118934592Y-42092563D01*
X119025307Y-42047205D01*
X119161378Y-42047205D01*
X119252092Y-42001848D01*
X119297450Y-41911134D01*
X119297450Y-41865777D01*
X119252092Y-41775063D01*
X119161378Y-41729705D01*
X119025307Y-41729705D01*
X118934592Y-41775063D01*
X118571735Y-41729705D02*
X118390307Y-42364705D01*
X118208878Y-41911134D01*
X118027450Y-42364705D01*
X117846021Y-41729705D01*
X117483164Y-42364705D02*
X117483164Y-41729705D01*
X117483164Y-41412205D02*
X117528521Y-41457563D01*
X117483164Y-41502920D01*
X117437807Y-41457563D01*
X117483164Y-41412205D01*
X117483164Y-41502920D01*
X117165664Y-41729705D02*
X116802807Y-41729705D01*
X117029592Y-41412205D02*
X117029592Y-42228634D01*
X116984235Y-42319348D01*
X116893521Y-42364705D01*
X116802807Y-42364705D01*
X116077092Y-42319348D02*
X116167807Y-42364705D01*
X116349235Y-42364705D01*
X116439950Y-42319348D01*
X116485307Y-42273991D01*
X116530664Y-42183277D01*
X116530664Y-41911134D01*
X116485307Y-41820420D01*
X116439950Y-41775063D01*
X116349235Y-41729705D01*
X116167807Y-41729705D01*
X116077092Y-41775063D01*
X115668878Y-42364705D02*
X115668878Y-41412205D01*
X115260664Y-42364705D02*
X115260664Y-41865777D01*
X115306021Y-41775063D01*
X115396735Y-41729705D01*
X115532807Y-41729705D01*
X115623521Y-41775063D01*
X115668878Y-41820420D01*
X114081378Y-42001848D02*
X113355664Y-42001848D01*
X111768164Y-41729705D02*
X111768164Y-42500777D01*
X111813521Y-42591491D01*
X111858878Y-42636848D01*
X111949592Y-42682205D01*
X112085664Y-42682205D01*
X112176378Y-42636848D01*
X111768164Y-42319348D02*
X111858878Y-42364705D01*
X112040307Y-42364705D01*
X112131021Y-42319348D01*
X112176378Y-42273991D01*
X112221735Y-42183277D01*
X112221735Y-41911134D01*
X112176378Y-41820420D01*
X112131021Y-41775063D01*
X112040307Y-41729705D01*
X111858878Y-41729705D01*
X111768164Y-41775063D01*
X110951735Y-42319348D02*
X111042450Y-42364705D01*
X111223878Y-42364705D01*
X111314592Y-42319348D01*
X111359950Y-42228634D01*
X111359950Y-41865777D01*
X111314592Y-41775063D01*
X111223878Y-41729705D01*
X111042450Y-41729705D01*
X110951735Y-41775063D01*
X110906378Y-41865777D01*
X110906378Y-41956491D01*
X111359950Y-42047205D01*
X110498164Y-41729705D02*
X110498164Y-42364705D01*
X110498164Y-41820420D02*
X110452807Y-41775063D01*
X110362092Y-41729705D01*
X110226021Y-41729705D01*
X110135307Y-41775063D01*
X110089950Y-41865777D01*
X110089950Y-42364705D01*
X109273521Y-42319348D02*
X109364235Y-42364705D01*
X109545664Y-42364705D01*
X109636378Y-42319348D01*
X109681735Y-42228634D01*
X109681735Y-41865777D01*
X109636378Y-41775063D01*
X109545664Y-41729705D01*
X109364235Y-41729705D01*
X109273521Y-41775063D01*
X109228164Y-41865777D01*
X109228164Y-41956491D01*
X109681735Y-42047205D01*
X108819950Y-42364705D02*
X108819950Y-41729705D01*
X108819950Y-41911134D02*
X108774592Y-41820420D01*
X108729235Y-41775063D01*
X108638521Y-41729705D01*
X108547807Y-41729705D01*
X107822092Y-42364705D02*
X107822092Y-41865777D01*
X107867450Y-41775063D01*
X107958164Y-41729705D01*
X108139592Y-41729705D01*
X108230307Y-41775063D01*
X107822092Y-42319348D02*
X107912807Y-42364705D01*
X108139592Y-42364705D01*
X108230307Y-42319348D01*
X108275664Y-42228634D01*
X108275664Y-42137920D01*
X108230307Y-42047205D01*
X108139592Y-42001848D01*
X107912807Y-42001848D01*
X107822092Y-41956491D01*
X107232450Y-42364705D02*
X107323164Y-42319348D01*
X107368521Y-42228634D01*
X107368521Y-41412205D01*
X106733521Y-42364705D02*
X106824235Y-42319348D01*
X106869592Y-42228634D01*
X106869592Y-41412205D01*
X106461378Y-41729705D02*
X106234592Y-42364705D01*
X106007807Y-41729705D02*
X106234592Y-42364705D01*
X106325307Y-42591491D01*
X106370664Y-42636848D01*
X106461378Y-42682205D01*
X104919235Y-42364705D02*
X104919235Y-41412205D01*
X104919235Y-41775063D02*
X104828521Y-41729705D01*
X104647092Y-41729705D01*
X104556378Y-41775063D01*
X104511021Y-41820420D01*
X104465664Y-41911134D01*
X104465664Y-42183277D01*
X104511021Y-42273991D01*
X104556378Y-42319348D01*
X104647092Y-42364705D01*
X104828521Y-42364705D01*
X104919235Y-42319348D01*
X103694592Y-42319348D02*
X103785307Y-42364705D01*
X103966735Y-42364705D01*
X104057450Y-42319348D01*
X104102807Y-42228634D01*
X104102807Y-41865777D01*
X104057450Y-41775063D01*
X103966735Y-41729705D01*
X103785307Y-41729705D01*
X103694592Y-41775063D01*
X103649235Y-41865777D01*
X103649235Y-41956491D01*
X104102807Y-42047205D01*
X103241021Y-42364705D02*
X103241021Y-41729705D01*
X103241021Y-41412205D02*
X103286378Y-41457563D01*
X103241021Y-41502920D01*
X103195664Y-41457563D01*
X103241021Y-41412205D01*
X103241021Y-41502920D01*
X102787450Y-41729705D02*
X102787450Y-42364705D01*
X102787450Y-41820420D02*
X102742092Y-41775063D01*
X102651378Y-41729705D01*
X102515307Y-41729705D01*
X102424592Y-41775063D01*
X102379235Y-41865777D01*
X102379235Y-42364705D01*
X101517450Y-41729705D02*
X101517450Y-42500777D01*
X101562807Y-42591491D01*
X101608164Y-42636848D01*
X101698878Y-42682205D01*
X101834950Y-42682205D01*
X101925664Y-42636848D01*
X101517450Y-42319348D02*
X101608164Y-42364705D01*
X101789592Y-42364705D01*
X101880307Y-42319348D01*
X101925664Y-42273991D01*
X101971021Y-42183277D01*
X101971021Y-41911134D01*
X101925664Y-41820420D01*
X101880307Y-41775063D01*
X101789592Y-41729705D01*
X101608164Y-41729705D01*
X101517450Y-41775063D01*
X99929950Y-42364705D02*
X99929950Y-41865777D01*
X99975307Y-41775063D01*
X100066021Y-41729705D01*
X100247450Y-41729705D01*
X100338164Y-41775063D01*
X99929950Y-42319348D02*
X100020664Y-42364705D01*
X100247450Y-42364705D01*
X100338164Y-42319348D01*
X100383521Y-42228634D01*
X100383521Y-42137920D01*
X100338164Y-42047205D01*
X100247450Y-42001848D01*
X100020664Y-42001848D01*
X99929950Y-41956491D01*
X126554592Y-43852873D02*
X126463878Y-43898230D01*
X126282450Y-43898230D01*
X126191735Y-43852873D01*
X126146378Y-43762159D01*
X126146378Y-43716802D01*
X126191735Y-43626088D01*
X126282450Y-43580730D01*
X126418521Y-43580730D01*
X126509235Y-43535373D01*
X126554592Y-43444659D01*
X126554592Y-43399302D01*
X126509235Y-43308588D01*
X126418521Y-43263230D01*
X126282450Y-43263230D01*
X126191735Y-43308588D01*
X125738164Y-43898230D02*
X125738164Y-42945730D01*
X125329950Y-43898230D02*
X125329950Y-43399302D01*
X125375307Y-43308588D01*
X125466021Y-43263230D01*
X125602092Y-43263230D01*
X125692807Y-43308588D01*
X125738164Y-43353945D01*
X124876378Y-43898230D02*
X124876378Y-43263230D01*
X124876378Y-42945730D02*
X124921735Y-42991088D01*
X124876378Y-43036445D01*
X124831021Y-42991088D01*
X124876378Y-42945730D01*
X124876378Y-43036445D01*
X124558878Y-43263230D02*
X124196021Y-43263230D01*
X124422807Y-42945730D02*
X124422807Y-43762159D01*
X124377450Y-43852873D01*
X124286735Y-43898230D01*
X124196021Y-43898230D01*
X123878521Y-43898230D02*
X123878521Y-42945730D01*
X123470307Y-43898230D02*
X123470307Y-43399302D01*
X123515664Y-43308588D01*
X123606378Y-43263230D01*
X123742450Y-43263230D01*
X123833164Y-43308588D01*
X123878521Y-43353945D01*
X122653878Y-43852873D02*
X122744592Y-43898230D01*
X122926021Y-43898230D01*
X123016735Y-43852873D01*
X123062092Y-43762159D01*
X123062092Y-43399302D01*
X123016735Y-43308588D01*
X122926021Y-43263230D01*
X122744592Y-43263230D01*
X122653878Y-43308588D01*
X122608521Y-43399302D01*
X122608521Y-43490016D01*
X123062092Y-43580730D01*
X121792092Y-43898230D02*
X121792092Y-43399302D01*
X121837450Y-43308588D01*
X121928164Y-43263230D01*
X122109592Y-43263230D01*
X122200307Y-43308588D01*
X121792092Y-43852873D02*
X121882807Y-43898230D01*
X122109592Y-43898230D01*
X122200307Y-43852873D01*
X122245664Y-43762159D01*
X122245664Y-43671445D01*
X122200307Y-43580730D01*
X122109592Y-43535373D01*
X121882807Y-43535373D01*
X121792092Y-43490016D01*
X120930307Y-43898230D02*
X120930307Y-42945730D01*
X120930307Y-43852873D02*
X121021021Y-43898230D01*
X121202450Y-43898230D01*
X121293164Y-43852873D01*
X121338521Y-43807516D01*
X121383878Y-43716802D01*
X121383878Y-43444659D01*
X121338521Y-43353945D01*
X121293164Y-43308588D01*
X121202450Y-43263230D01*
X121021021Y-43263230D01*
X120930307Y-43308588D01*
X119342807Y-43898230D02*
X119342807Y-43399302D01*
X119388164Y-43308588D01*
X119478878Y-43263230D01*
X119660307Y-43263230D01*
X119751021Y-43308588D01*
X119342807Y-43852873D02*
X119433521Y-43898230D01*
X119660307Y-43898230D01*
X119751021Y-43852873D01*
X119796378Y-43762159D01*
X119796378Y-43671445D01*
X119751021Y-43580730D01*
X119660307Y-43535373D01*
X119433521Y-43535373D01*
X119342807Y-43490016D01*
X118889235Y-43263230D02*
X118889235Y-43898230D01*
X118889235Y-43353945D02*
X118843878Y-43308588D01*
X118753164Y-43263230D01*
X118617092Y-43263230D01*
X118526378Y-43308588D01*
X118481021Y-43399302D01*
X118481021Y-43898230D01*
X117619235Y-43898230D02*
X117619235Y-42945730D01*
X117619235Y-43852873D02*
X117709950Y-43898230D01*
X117891378Y-43898230D01*
X117982092Y-43852873D01*
X118027450Y-43807516D01*
X118072807Y-43716802D01*
X118072807Y-43444659D01*
X118027450Y-43353945D01*
X117982092Y-43308588D01*
X117891378Y-43263230D01*
X117709950Y-43263230D01*
X117619235Y-43308588D01*
X116077092Y-43852873D02*
X116167807Y-43898230D01*
X116349235Y-43898230D01*
X116439950Y-43852873D01*
X116485307Y-43762159D01*
X116485307Y-43399302D01*
X116439950Y-43308588D01*
X116349235Y-43263230D01*
X116167807Y-43263230D01*
X116077092Y-43308588D01*
X116031735Y-43399302D01*
X116031735Y-43490016D01*
X116485307Y-43580730D01*
X115623521Y-43263230D02*
X115623521Y-43898230D01*
X115623521Y-43353945D02*
X115578164Y-43308588D01*
X115487450Y-43263230D01*
X115351378Y-43263230D01*
X115260664Y-43308588D01*
X115215307Y-43399302D01*
X115215307Y-43898230D01*
X114353521Y-43852873D02*
X114444235Y-43898230D01*
X114625664Y-43898230D01*
X114716378Y-43852873D01*
X114761735Y-43807516D01*
X114807092Y-43716802D01*
X114807092Y-43444659D01*
X114761735Y-43353945D01*
X114716378Y-43308588D01*
X114625664Y-43263230D01*
X114444235Y-43263230D01*
X114353521Y-43308588D01*
X113809235Y-43898230D02*
X113899950Y-43852873D01*
X113945307Y-43807516D01*
X113990664Y-43716802D01*
X113990664Y-43444659D01*
X113945307Y-43353945D01*
X113899950Y-43308588D01*
X113809235Y-43263230D01*
X113673164Y-43263230D01*
X113582450Y-43308588D01*
X113537092Y-43353945D01*
X113491735Y-43444659D01*
X113491735Y-43716802D01*
X113537092Y-43807516D01*
X113582450Y-43852873D01*
X113673164Y-43898230D01*
X113809235Y-43898230D01*
X112675307Y-43263230D02*
X112675307Y-43898230D01*
X113083521Y-43263230D02*
X113083521Y-43762159D01*
X113038164Y-43852873D01*
X112947450Y-43898230D01*
X112811378Y-43898230D01*
X112720664Y-43852873D01*
X112675307Y-43807516D01*
X112221735Y-43898230D02*
X112221735Y-43263230D01*
X112221735Y-43444659D02*
X112176378Y-43353945D01*
X112131021Y-43308588D01*
X112040307Y-43263230D01*
X111949592Y-43263230D01*
X111223878Y-43898230D02*
X111223878Y-43399302D01*
X111269235Y-43308588D01*
X111359950Y-43263230D01*
X111541378Y-43263230D01*
X111632092Y-43308588D01*
X111223878Y-43852873D02*
X111314592Y-43898230D01*
X111541378Y-43898230D01*
X111632092Y-43852873D01*
X111677450Y-43762159D01*
X111677450Y-43671445D01*
X111632092Y-43580730D01*
X111541378Y-43535373D01*
X111314592Y-43535373D01*
X111223878Y-43490016D01*
X110362092Y-43263230D02*
X110362092Y-44034302D01*
X110407450Y-44125016D01*
X110452807Y-44170373D01*
X110543521Y-44215730D01*
X110679592Y-44215730D01*
X110770307Y-44170373D01*
X110362092Y-43852873D02*
X110452807Y-43898230D01*
X110634235Y-43898230D01*
X110724950Y-43852873D01*
X110770307Y-43807516D01*
X110815664Y-43716802D01*
X110815664Y-43444659D01*
X110770307Y-43353945D01*
X110724950Y-43308588D01*
X110634235Y-43263230D01*
X110452807Y-43263230D01*
X110362092Y-43308588D01*
X109908521Y-43898230D02*
X109908521Y-43263230D01*
X109908521Y-42945730D02*
X109953878Y-42991088D01*
X109908521Y-43036445D01*
X109863164Y-42991088D01*
X109908521Y-42945730D01*
X109908521Y-43036445D01*
X109454950Y-43263230D02*
X109454950Y-43898230D01*
X109454950Y-43353945D02*
X109409592Y-43308588D01*
X109318878Y-43263230D01*
X109182807Y-43263230D01*
X109092092Y-43308588D01*
X109046735Y-43399302D01*
X109046735Y-43898230D01*
X108184950Y-43263230D02*
X108184950Y-44034302D01*
X108230307Y-44125016D01*
X108275664Y-44170373D01*
X108366378Y-44215730D01*
X108502450Y-44215730D01*
X108593164Y-44170373D01*
X108184950Y-43852873D02*
X108275664Y-43898230D01*
X108457092Y-43898230D01*
X108547807Y-43852873D01*
X108593164Y-43807516D01*
X108638521Y-43716802D01*
X108638521Y-43444659D01*
X108593164Y-43353945D01*
X108547807Y-43308588D01*
X108457092Y-43263230D01*
X108275664Y-43263230D01*
X108184950Y-43308588D01*
X107005664Y-43898230D02*
X107005664Y-43263230D01*
X107005664Y-43353945D02*
X106960307Y-43308588D01*
X106869592Y-43263230D01*
X106733521Y-43263230D01*
X106642807Y-43308588D01*
X106597450Y-43399302D01*
X106597450Y-43898230D01*
X106597450Y-43399302D02*
X106552092Y-43308588D01*
X106461378Y-43263230D01*
X106325307Y-43263230D01*
X106234592Y-43308588D01*
X106189235Y-43399302D01*
X106189235Y-43898230D01*
X105826378Y-43263230D02*
X105599592Y-43898230D01*
X105372807Y-43263230D02*
X105599592Y-43898230D01*
X105690307Y-44125016D01*
X105735664Y-44170373D01*
X105826378Y-44215730D01*
X104420307Y-43263230D02*
X104057450Y-43263230D01*
X104284235Y-42945730D02*
X104284235Y-43762159D01*
X104238878Y-43852873D01*
X104148164Y-43898230D01*
X104057450Y-43898230D01*
X103377092Y-43852873D02*
X103467807Y-43898230D01*
X103649235Y-43898230D01*
X103739950Y-43852873D01*
X103785307Y-43762159D01*
X103785307Y-43399302D01*
X103739950Y-43308588D01*
X103649235Y-43263230D01*
X103467807Y-43263230D01*
X103377092Y-43308588D01*
X103331735Y-43399302D01*
X103331735Y-43490016D01*
X103785307Y-43580730D01*
X102923521Y-43898230D02*
X102923521Y-43263230D01*
X102923521Y-43444659D02*
X102878164Y-43353945D01*
X102832807Y-43308588D01*
X102742092Y-43263230D01*
X102651378Y-43263230D01*
X102333878Y-43898230D02*
X102333878Y-43263230D01*
X102333878Y-43444659D02*
X102288521Y-43353945D01*
X102243164Y-43308588D01*
X102152450Y-43263230D01*
X102061735Y-43263230D01*
X101744235Y-43898230D02*
X101744235Y-43263230D01*
X101744235Y-42945730D02*
X101789592Y-42991088D01*
X101744235Y-43036445D01*
X101698878Y-42991088D01*
X101744235Y-42945730D01*
X101744235Y-43036445D01*
X101290664Y-43898230D02*
X101290664Y-42945730D01*
X101290664Y-43308588D02*
X101199950Y-43263230D01*
X101018521Y-43263230D01*
X100927807Y-43308588D01*
X100882450Y-43353945D01*
X100837092Y-43444659D01*
X100837092Y-43716802D01*
X100882450Y-43807516D01*
X100927807Y-43852873D01*
X101018521Y-43898230D01*
X101199950Y-43898230D01*
X101290664Y-43852873D01*
X100292807Y-43898230D02*
X100383521Y-43852873D01*
X100428878Y-43762159D01*
X100428878Y-42945730D01*
X99567092Y-43852873D02*
X99657807Y-43898230D01*
X99839235Y-43898230D01*
X99929950Y-43852873D01*
X99975307Y-43762159D01*
X99975307Y-43399302D01*
X99929950Y-43308588D01*
X99839235Y-43263230D01*
X99657807Y-43263230D01*
X99567092Y-43308588D01*
X99521735Y-43399302D01*
X99521735Y-43490016D01*
X99975307Y-43580730D01*
X126509235Y-45431755D02*
X126509235Y-44796755D01*
X126509235Y-44479255D02*
X126554592Y-44524613D01*
X126509235Y-44569970D01*
X126463878Y-44524613D01*
X126509235Y-44479255D01*
X126509235Y-44569970D01*
X125647450Y-45431755D02*
X125647450Y-44479255D01*
X125647450Y-45386398D02*
X125738164Y-45431755D01*
X125919592Y-45431755D01*
X126010307Y-45386398D01*
X126055664Y-45341041D01*
X126101021Y-45250327D01*
X126101021Y-44978184D01*
X126055664Y-44887470D01*
X126010307Y-44842113D01*
X125919592Y-44796755D01*
X125738164Y-44796755D01*
X125647450Y-44842113D01*
X124831021Y-45386398D02*
X124921735Y-45431755D01*
X125103164Y-45431755D01*
X125193878Y-45386398D01*
X125239235Y-45295684D01*
X125239235Y-44932827D01*
X125193878Y-44842113D01*
X125103164Y-44796755D01*
X124921735Y-44796755D01*
X124831021Y-44842113D01*
X124785664Y-44932827D01*
X124785664Y-45023541D01*
X125239235Y-45114255D01*
X123969235Y-45431755D02*
X123969235Y-44932827D01*
X124014592Y-44842113D01*
X124105307Y-44796755D01*
X124286735Y-44796755D01*
X124377450Y-44842113D01*
X123969235Y-45386398D02*
X124059950Y-45431755D01*
X124286735Y-45431755D01*
X124377450Y-45386398D01*
X124422807Y-45295684D01*
X124422807Y-45204970D01*
X124377450Y-45114255D01*
X124286735Y-45068898D01*
X124059950Y-45068898D01*
X123969235Y-45023541D01*
X123561021Y-45386398D02*
X123470307Y-45431755D01*
X123288878Y-45431755D01*
X123198164Y-45386398D01*
X123152807Y-45295684D01*
X123152807Y-45250327D01*
X123198164Y-45159613D01*
X123288878Y-45114255D01*
X123424950Y-45114255D01*
X123515664Y-45068898D01*
X123561021Y-44978184D01*
X123561021Y-44932827D01*
X123515664Y-44842113D01*
X123424950Y-44796755D01*
X123288878Y-44796755D01*
X123198164Y-44842113D01*
X184421235Y-128242559D02*
X184421235Y-128696130D01*
X184738735Y-127743630D02*
X184421235Y-128242559D01*
X184103735Y-127743630D01*
X183650164Y-128696130D02*
X183740878Y-128650773D01*
X183786235Y-128605416D01*
X183831592Y-128514702D01*
X183831592Y-128242559D01*
X183786235Y-128151845D01*
X183740878Y-128106488D01*
X183650164Y-128061130D01*
X183514092Y-128061130D01*
X183423378Y-128106488D01*
X183378021Y-128151845D01*
X183332664Y-128242559D01*
X183332664Y-128514702D01*
X183378021Y-128605416D01*
X183423378Y-128650773D01*
X183514092Y-128696130D01*
X183650164Y-128696130D01*
X182516235Y-128061130D02*
X182516235Y-128696130D01*
X182924450Y-128061130D02*
X182924450Y-128560059D01*
X182879092Y-128650773D01*
X182788378Y-128696130D01*
X182652307Y-128696130D01*
X182561592Y-128650773D01*
X182516235Y-128605416D01*
X181382307Y-128650773D02*
X181291592Y-128696130D01*
X181110164Y-128696130D01*
X181019450Y-128650773D01*
X180974092Y-128560059D01*
X180974092Y-128514702D01*
X181019450Y-128423988D01*
X181110164Y-128378630D01*
X181246235Y-128378630D01*
X181336950Y-128333273D01*
X181382307Y-128242559D01*
X181382307Y-128197202D01*
X181336950Y-128106488D01*
X181246235Y-128061130D01*
X181110164Y-128061130D01*
X181019450Y-128106488D01*
X180565878Y-128696130D02*
X180565878Y-127743630D01*
X180157664Y-128696130D02*
X180157664Y-128197202D01*
X180203021Y-128106488D01*
X180293735Y-128061130D01*
X180429807Y-128061130D01*
X180520521Y-128106488D01*
X180565878Y-128151845D01*
X179568021Y-128696130D02*
X179658735Y-128650773D01*
X179704092Y-128605416D01*
X179749450Y-128514702D01*
X179749450Y-128242559D01*
X179704092Y-128151845D01*
X179658735Y-128106488D01*
X179568021Y-128061130D01*
X179431950Y-128061130D01*
X179341235Y-128106488D01*
X179295878Y-128151845D01*
X179250521Y-128242559D01*
X179250521Y-128514702D01*
X179295878Y-128605416D01*
X179341235Y-128650773D01*
X179431950Y-128696130D01*
X179568021Y-128696130D01*
X178434092Y-128061130D02*
X178434092Y-128696130D01*
X178842307Y-128061130D02*
X178842307Y-128560059D01*
X178796950Y-128650773D01*
X178706235Y-128696130D01*
X178570164Y-128696130D01*
X178479450Y-128650773D01*
X178434092Y-128605416D01*
X177844450Y-128696130D02*
X177935164Y-128650773D01*
X177980521Y-128560059D01*
X177980521Y-127743630D01*
X177073378Y-128696130D02*
X177073378Y-127743630D01*
X177073378Y-128650773D02*
X177164092Y-128696130D01*
X177345521Y-128696130D01*
X177436235Y-128650773D01*
X177481592Y-128605416D01*
X177526950Y-128514702D01*
X177526950Y-128242559D01*
X177481592Y-128151845D01*
X177436235Y-128106488D01*
X177345521Y-128061130D01*
X177164092Y-128061130D01*
X177073378Y-128106488D01*
X176619807Y-128061130D02*
X176619807Y-128696130D01*
X176619807Y-128151845D02*
X176574450Y-128106488D01*
X176483735Y-128061130D01*
X176347664Y-128061130D01*
X176256950Y-128106488D01*
X176211592Y-128197202D01*
X176211592Y-128696130D01*
X175712664Y-127743630D02*
X175803378Y-127925059D01*
X175440521Y-128061130D02*
X175077664Y-128061130D01*
X175304450Y-127743630D02*
X175304450Y-128560059D01*
X175259092Y-128650773D01*
X175168378Y-128696130D01*
X175077664Y-128696130D01*
X174034450Y-128696130D02*
X174034450Y-127743630D01*
X173626235Y-128696130D02*
X173626235Y-128197202D01*
X173671592Y-128106488D01*
X173762307Y-128061130D01*
X173898378Y-128061130D01*
X173989092Y-128106488D01*
X174034450Y-128151845D01*
X172764450Y-128696130D02*
X172764450Y-128197202D01*
X172809807Y-128106488D01*
X172900521Y-128061130D01*
X173081950Y-128061130D01*
X173172664Y-128106488D01*
X172764450Y-128650773D02*
X172855164Y-128696130D01*
X173081950Y-128696130D01*
X173172664Y-128650773D01*
X173218021Y-128560059D01*
X173218021Y-128469345D01*
X173172664Y-128378630D01*
X173081950Y-128333273D01*
X172855164Y-128333273D01*
X172764450Y-128287916D01*
X172401592Y-128061130D02*
X172174807Y-128696130D01*
X171948021Y-128061130D01*
X171222307Y-128650773D02*
X171313021Y-128696130D01*
X171494450Y-128696130D01*
X171585164Y-128650773D01*
X171630521Y-128560059D01*
X171630521Y-128197202D01*
X171585164Y-128106488D01*
X171494450Y-128061130D01*
X171313021Y-128061130D01*
X171222307Y-128106488D01*
X171176950Y-128197202D01*
X171176950Y-128287916D01*
X171630521Y-128378630D01*
X170043021Y-128696130D02*
X170043021Y-127743630D01*
X170043021Y-128106488D02*
X169952307Y-128061130D01*
X169770878Y-128061130D01*
X169680164Y-128106488D01*
X169634807Y-128151845D01*
X169589450Y-128242559D01*
X169589450Y-128514702D01*
X169634807Y-128605416D01*
X169680164Y-128650773D01*
X169770878Y-128696130D01*
X169952307Y-128696130D01*
X170043021Y-128650773D01*
X168773021Y-128061130D02*
X168773021Y-128696130D01*
X169181235Y-128061130D02*
X169181235Y-128560059D01*
X169135878Y-128650773D01*
X169045164Y-128696130D01*
X168909092Y-128696130D01*
X168818378Y-128650773D01*
X168773021Y-128605416D01*
X168319450Y-128696130D02*
X168319450Y-128061130D01*
X168319450Y-127743630D02*
X168364807Y-127788988D01*
X168319450Y-127834345D01*
X168274092Y-127788988D01*
X168319450Y-127743630D01*
X168319450Y-127834345D01*
X167729807Y-128696130D02*
X167820521Y-128650773D01*
X167865878Y-128560059D01*
X167865878Y-127743630D01*
X167503021Y-128061130D02*
X167140164Y-128061130D01*
X167366950Y-127743630D02*
X167366950Y-128560059D01*
X167321592Y-128650773D01*
X167230878Y-128696130D01*
X167140164Y-128696130D01*
X166233021Y-128061130D02*
X165870164Y-128061130D01*
X166096950Y-127743630D02*
X166096950Y-128560059D01*
X166051592Y-128650773D01*
X165960878Y-128696130D01*
X165870164Y-128696130D01*
X165552664Y-128696130D02*
X165552664Y-127743630D01*
X165144450Y-128696130D02*
X165144450Y-128197202D01*
X165189807Y-128106488D01*
X165280521Y-128061130D01*
X165416592Y-128061130D01*
X165507307Y-128106488D01*
X165552664Y-128151845D01*
X164690878Y-128696130D02*
X164690878Y-128061130D01*
X164690878Y-127743630D02*
X164736235Y-127788988D01*
X164690878Y-127834345D01*
X164645521Y-127788988D01*
X164690878Y-127743630D01*
X164690878Y-127834345D01*
X164282664Y-128650773D02*
X164191950Y-128696130D01*
X164010521Y-128696130D01*
X163919807Y-128650773D01*
X163874450Y-128560059D01*
X163874450Y-128514702D01*
X163919807Y-128423988D01*
X164010521Y-128378630D01*
X164146592Y-128378630D01*
X164237307Y-128333273D01*
X164282664Y-128242559D01*
X164282664Y-128197202D01*
X164237307Y-128106488D01*
X164146592Y-128061130D01*
X164010521Y-128061130D01*
X163919807Y-128106488D01*
X163466235Y-128605416D02*
X163420878Y-128650773D01*
X163466235Y-128696130D01*
X163511592Y-128650773D01*
X163466235Y-128605416D01*
X163466235Y-128696130D01*
X184602664Y-130229655D02*
X184602664Y-129277155D01*
X184285164Y-129594655D02*
X183922307Y-129594655D01*
X184149092Y-129277155D02*
X184149092Y-130093584D01*
X184103735Y-130184298D01*
X184013021Y-130229655D01*
X183922307Y-130229655D01*
X183559450Y-129277155D02*
X183650164Y-129458584D01*
X183196592Y-130184298D02*
X183105878Y-130229655D01*
X182924450Y-130229655D01*
X182833735Y-130184298D01*
X182788378Y-130093584D01*
X182788378Y-130048227D01*
X182833735Y-129957513D01*
X182924450Y-129912155D01*
X183060521Y-129912155D01*
X183151235Y-129866798D01*
X183196592Y-129776084D01*
X183196592Y-129730727D01*
X183151235Y-129640013D01*
X183060521Y-129594655D01*
X182924450Y-129594655D01*
X182833735Y-129640013D01*
X181246235Y-130229655D02*
X181246235Y-129730727D01*
X181291592Y-129640013D01*
X181382307Y-129594655D01*
X181563735Y-129594655D01*
X181654450Y-129640013D01*
X181246235Y-130184298D02*
X181336950Y-130229655D01*
X181563735Y-130229655D01*
X181654450Y-130184298D01*
X181699807Y-130093584D01*
X181699807Y-130002870D01*
X181654450Y-129912155D01*
X181563735Y-129866798D01*
X181336950Y-129866798D01*
X181246235Y-129821441D01*
X180066950Y-130229655D02*
X180066950Y-129277155D01*
X180066950Y-129640013D02*
X179976235Y-129594655D01*
X179794807Y-129594655D01*
X179704092Y-129640013D01*
X179658735Y-129685370D01*
X179613378Y-129776084D01*
X179613378Y-130048227D01*
X179658735Y-130138941D01*
X179704092Y-130184298D01*
X179794807Y-130229655D01*
X179976235Y-130229655D01*
X180066950Y-130184298D01*
X178796950Y-130229655D02*
X178796950Y-129730727D01*
X178842307Y-129640013D01*
X178933021Y-129594655D01*
X179114450Y-129594655D01*
X179205164Y-129640013D01*
X178796950Y-130184298D02*
X178887664Y-130229655D01*
X179114450Y-130229655D01*
X179205164Y-130184298D01*
X179250521Y-130093584D01*
X179250521Y-130002870D01*
X179205164Y-129912155D01*
X179114450Y-129866798D01*
X178887664Y-129866798D01*
X178796950Y-129821441D01*
X177935164Y-130229655D02*
X177935164Y-129277155D01*
X177935164Y-130184298D02*
X178025878Y-130229655D01*
X178207307Y-130229655D01*
X178298021Y-130184298D01*
X178343378Y-130138941D01*
X178388735Y-130048227D01*
X178388735Y-129776084D01*
X178343378Y-129685370D01*
X178298021Y-129640013D01*
X178207307Y-129594655D01*
X178025878Y-129594655D01*
X177935164Y-129640013D01*
X176801235Y-130184298D02*
X176710521Y-130229655D01*
X176529092Y-130229655D01*
X176438378Y-130184298D01*
X176393021Y-130093584D01*
X176393021Y-130048227D01*
X176438378Y-129957513D01*
X176529092Y-129912155D01*
X176665164Y-129912155D01*
X176755878Y-129866798D01*
X176801235Y-129776084D01*
X176801235Y-129730727D01*
X176755878Y-129640013D01*
X176665164Y-129594655D01*
X176529092Y-129594655D01*
X176438378Y-129640013D01*
X175848735Y-130229655D02*
X175939450Y-130184298D01*
X175984807Y-130138941D01*
X176030164Y-130048227D01*
X176030164Y-129776084D01*
X175984807Y-129685370D01*
X175939450Y-129640013D01*
X175848735Y-129594655D01*
X175712664Y-129594655D01*
X175621950Y-129640013D01*
X175576592Y-129685370D01*
X175531235Y-129776084D01*
X175531235Y-130048227D01*
X175576592Y-130138941D01*
X175621950Y-130184298D01*
X175712664Y-130229655D01*
X175848735Y-130229655D01*
X174714807Y-129594655D02*
X174714807Y-130229655D01*
X175123021Y-129594655D02*
X175123021Y-130093584D01*
X175077664Y-130184298D01*
X174986950Y-130229655D01*
X174850878Y-130229655D01*
X174760164Y-130184298D01*
X174714807Y-130138941D01*
X174261235Y-129594655D02*
X174261235Y-130229655D01*
X174261235Y-129685370D02*
X174215878Y-129640013D01*
X174125164Y-129594655D01*
X173989092Y-129594655D01*
X173898378Y-129640013D01*
X173853021Y-129730727D01*
X173853021Y-130229655D01*
X172991235Y-130229655D02*
X172991235Y-129277155D01*
X172991235Y-130184298D02*
X173081950Y-130229655D01*
X173263378Y-130229655D01*
X173354092Y-130184298D01*
X173399450Y-130138941D01*
X173444807Y-130048227D01*
X173444807Y-129776084D01*
X173399450Y-129685370D01*
X173354092Y-129640013D01*
X173263378Y-129594655D01*
X173081950Y-129594655D01*
X172991235Y-129640013D01*
X171403735Y-130184298D02*
X171494450Y-130229655D01*
X171675878Y-130229655D01*
X171766592Y-130184298D01*
X171811950Y-130138941D01*
X171857307Y-130048227D01*
X171857307Y-129776084D01*
X171811950Y-129685370D01*
X171766592Y-129640013D01*
X171675878Y-129594655D01*
X171494450Y-129594655D01*
X171403735Y-129640013D01*
X170587307Y-130229655D02*
X170587307Y-129730727D01*
X170632664Y-129640013D01*
X170723378Y-129594655D01*
X170904807Y-129594655D01*
X170995521Y-129640013D01*
X170587307Y-130184298D02*
X170678021Y-130229655D01*
X170904807Y-130229655D01*
X170995521Y-130184298D01*
X171040878Y-130093584D01*
X171040878Y-130002870D01*
X170995521Y-129912155D01*
X170904807Y-129866798D01*
X170678021Y-129866798D01*
X170587307Y-129821441D01*
X170133735Y-130229655D02*
X170133735Y-129594655D01*
X170133735Y-129776084D02*
X170088378Y-129685370D01*
X170043021Y-129640013D01*
X169952307Y-129594655D01*
X169861592Y-129594655D01*
X169135878Y-130229655D02*
X169135878Y-129277155D01*
X169135878Y-130184298D02*
X169226592Y-130229655D01*
X169408021Y-130229655D01*
X169498735Y-130184298D01*
X169544092Y-130138941D01*
X169589450Y-130048227D01*
X169589450Y-129776084D01*
X169544092Y-129685370D01*
X169498735Y-129640013D01*
X169408021Y-129594655D01*
X169226592Y-129594655D01*
X169135878Y-129640013D01*
X168682307Y-130138941D02*
X168636950Y-130184298D01*
X168682307Y-130229655D01*
X168727664Y-130184298D01*
X168682307Y-130138941D01*
X168682307Y-130229655D01*
M02*
