%TF.GenerationSoftware,KiCad,Pcbnew,(6.0.11)*%
%TF.CreationDate,2023-02-07T20:42:09-07:00*%
%TF.ProjectId,gameblaster,67616d65-626c-4617-9374-65722e6b6963,1*%
%TF.SameCoordinates,Original*%
%TF.FileFunction,Legend,Bot*%
%TF.FilePolarity,Positive*%
%FSLAX46Y46*%
G04 Gerber Fmt 4.6, Leading zero omitted, Abs format (unit mm)*
G04 Created by KiCad (PCBNEW (6.0.11)) date 2023-02-07 20:42:09*
%MOMM*%
%LPD*%
G01*
G04 APERTURE LIST*
%ADD10C,0.127000*%
G04 APERTURE END LIST*
D10*
X184421235Y-128242559D02*
X184421235Y-128696130D01*
X184738735Y-127743630D02*
X184421235Y-128242559D01*
X184103735Y-127743630D01*
X183650164Y-128696130D02*
X183740878Y-128650773D01*
X183786235Y-128605416D01*
X183831592Y-128514702D01*
X183831592Y-128242559D01*
X183786235Y-128151845D01*
X183740878Y-128106488D01*
X183650164Y-128061130D01*
X183514092Y-128061130D01*
X183423378Y-128106488D01*
X183378021Y-128151845D01*
X183332664Y-128242559D01*
X183332664Y-128514702D01*
X183378021Y-128605416D01*
X183423378Y-128650773D01*
X183514092Y-128696130D01*
X183650164Y-128696130D01*
X182516235Y-128061130D02*
X182516235Y-128696130D01*
X182924450Y-128061130D02*
X182924450Y-128560059D01*
X182879092Y-128650773D01*
X182788378Y-128696130D01*
X182652307Y-128696130D01*
X182561592Y-128650773D01*
X182516235Y-128605416D01*
X181382307Y-128650773D02*
X181291592Y-128696130D01*
X181110164Y-128696130D01*
X181019450Y-128650773D01*
X180974092Y-128560059D01*
X180974092Y-128514702D01*
X181019450Y-128423988D01*
X181110164Y-128378630D01*
X181246235Y-128378630D01*
X181336950Y-128333273D01*
X181382307Y-128242559D01*
X181382307Y-128197202D01*
X181336950Y-128106488D01*
X181246235Y-128061130D01*
X181110164Y-128061130D01*
X181019450Y-128106488D01*
X180565878Y-128696130D02*
X180565878Y-127743630D01*
X180157664Y-128696130D02*
X180157664Y-128197202D01*
X180203021Y-128106488D01*
X180293735Y-128061130D01*
X180429807Y-128061130D01*
X180520521Y-128106488D01*
X180565878Y-128151845D01*
X179568021Y-128696130D02*
X179658735Y-128650773D01*
X179704092Y-128605416D01*
X179749450Y-128514702D01*
X179749450Y-128242559D01*
X179704092Y-128151845D01*
X179658735Y-128106488D01*
X179568021Y-128061130D01*
X179431950Y-128061130D01*
X179341235Y-128106488D01*
X179295878Y-128151845D01*
X179250521Y-128242559D01*
X179250521Y-128514702D01*
X179295878Y-128605416D01*
X179341235Y-128650773D01*
X179431950Y-128696130D01*
X179568021Y-128696130D01*
X178434092Y-128061130D02*
X178434092Y-128696130D01*
X178842307Y-128061130D02*
X178842307Y-128560059D01*
X178796950Y-128650773D01*
X178706235Y-128696130D01*
X178570164Y-128696130D01*
X178479450Y-128650773D01*
X178434092Y-128605416D01*
X177844450Y-128696130D02*
X177935164Y-128650773D01*
X177980521Y-128560059D01*
X177980521Y-127743630D01*
X177073378Y-128696130D02*
X177073378Y-127743630D01*
X177073378Y-128650773D02*
X177164092Y-128696130D01*
X177345521Y-128696130D01*
X177436235Y-128650773D01*
X177481592Y-128605416D01*
X177526950Y-128514702D01*
X177526950Y-128242559D01*
X177481592Y-128151845D01*
X177436235Y-128106488D01*
X177345521Y-128061130D01*
X177164092Y-128061130D01*
X177073378Y-128106488D01*
X176619807Y-128061130D02*
X176619807Y-128696130D01*
X176619807Y-128151845D02*
X176574450Y-128106488D01*
X176483735Y-128061130D01*
X176347664Y-128061130D01*
X176256950Y-128106488D01*
X176211592Y-128197202D01*
X176211592Y-128696130D01*
X175712664Y-127743630D02*
X175803378Y-127925059D01*
X175440521Y-128061130D02*
X175077664Y-128061130D01*
X175304450Y-127743630D02*
X175304450Y-128560059D01*
X175259092Y-128650773D01*
X175168378Y-128696130D01*
X175077664Y-128696130D01*
X174034450Y-128696130D02*
X174034450Y-127743630D01*
X173626235Y-128696130D02*
X173626235Y-128197202D01*
X173671592Y-128106488D01*
X173762307Y-128061130D01*
X173898378Y-128061130D01*
X173989092Y-128106488D01*
X174034450Y-128151845D01*
X172764450Y-128696130D02*
X172764450Y-128197202D01*
X172809807Y-128106488D01*
X172900521Y-128061130D01*
X173081950Y-128061130D01*
X173172664Y-128106488D01*
X172764450Y-128650773D02*
X172855164Y-128696130D01*
X173081950Y-128696130D01*
X173172664Y-128650773D01*
X173218021Y-128560059D01*
X173218021Y-128469345D01*
X173172664Y-128378630D01*
X173081950Y-128333273D01*
X172855164Y-128333273D01*
X172764450Y-128287916D01*
X172401592Y-128061130D02*
X172174807Y-128696130D01*
X171948021Y-128061130D01*
X171222307Y-128650773D02*
X171313021Y-128696130D01*
X171494450Y-128696130D01*
X171585164Y-128650773D01*
X171630521Y-128560059D01*
X171630521Y-128197202D01*
X171585164Y-128106488D01*
X171494450Y-128061130D01*
X171313021Y-128061130D01*
X171222307Y-128106488D01*
X171176950Y-128197202D01*
X171176950Y-128287916D01*
X171630521Y-128378630D01*
X170043021Y-128696130D02*
X170043021Y-127743630D01*
X170043021Y-128106488D02*
X169952307Y-128061130D01*
X169770878Y-128061130D01*
X169680164Y-128106488D01*
X169634807Y-128151845D01*
X169589450Y-128242559D01*
X169589450Y-128514702D01*
X169634807Y-128605416D01*
X169680164Y-128650773D01*
X169770878Y-128696130D01*
X169952307Y-128696130D01*
X170043021Y-128650773D01*
X168773021Y-128061130D02*
X168773021Y-128696130D01*
X169181235Y-128061130D02*
X169181235Y-128560059D01*
X169135878Y-128650773D01*
X169045164Y-128696130D01*
X168909092Y-128696130D01*
X168818378Y-128650773D01*
X168773021Y-128605416D01*
X168319450Y-128696130D02*
X168319450Y-128061130D01*
X168319450Y-127743630D02*
X168364807Y-127788988D01*
X168319450Y-127834345D01*
X168274092Y-127788988D01*
X168319450Y-127743630D01*
X168319450Y-127834345D01*
X167729807Y-128696130D02*
X167820521Y-128650773D01*
X167865878Y-128560059D01*
X167865878Y-127743630D01*
X167503021Y-128061130D02*
X167140164Y-128061130D01*
X167366950Y-127743630D02*
X167366950Y-128560059D01*
X167321592Y-128650773D01*
X167230878Y-128696130D01*
X167140164Y-128696130D01*
X166233021Y-128061130D02*
X165870164Y-128061130D01*
X166096950Y-127743630D02*
X166096950Y-128560059D01*
X166051592Y-128650773D01*
X165960878Y-128696130D01*
X165870164Y-128696130D01*
X165552664Y-128696130D02*
X165552664Y-127743630D01*
X165144450Y-128696130D02*
X165144450Y-128197202D01*
X165189807Y-128106488D01*
X165280521Y-128061130D01*
X165416592Y-128061130D01*
X165507307Y-128106488D01*
X165552664Y-128151845D01*
X164690878Y-128696130D02*
X164690878Y-128061130D01*
X164690878Y-127743630D02*
X164736235Y-127788988D01*
X164690878Y-127834345D01*
X164645521Y-127788988D01*
X164690878Y-127743630D01*
X164690878Y-127834345D01*
X164282664Y-128650773D02*
X164191950Y-128696130D01*
X164010521Y-128696130D01*
X163919807Y-128650773D01*
X163874450Y-128560059D01*
X163874450Y-128514702D01*
X163919807Y-128423988D01*
X164010521Y-128378630D01*
X164146592Y-128378630D01*
X164237307Y-128333273D01*
X164282664Y-128242559D01*
X164282664Y-128197202D01*
X164237307Y-128106488D01*
X164146592Y-128061130D01*
X164010521Y-128061130D01*
X163919807Y-128106488D01*
X163466235Y-128605416D02*
X163420878Y-128650773D01*
X163466235Y-128696130D01*
X163511592Y-128650773D01*
X163466235Y-128605416D01*
X163466235Y-128696130D01*
X184602664Y-130229655D02*
X184602664Y-129277155D01*
X184285164Y-129594655D02*
X183922307Y-129594655D01*
X184149092Y-129277155D02*
X184149092Y-130093584D01*
X184103735Y-130184298D01*
X184013021Y-130229655D01*
X183922307Y-130229655D01*
X183559450Y-129277155D02*
X183650164Y-129458584D01*
X183196592Y-130184298D02*
X183105878Y-130229655D01*
X182924450Y-130229655D01*
X182833735Y-130184298D01*
X182788378Y-130093584D01*
X182788378Y-130048227D01*
X182833735Y-129957513D01*
X182924450Y-129912155D01*
X183060521Y-129912155D01*
X183151235Y-129866798D01*
X183196592Y-129776084D01*
X183196592Y-129730727D01*
X183151235Y-129640013D01*
X183060521Y-129594655D01*
X182924450Y-129594655D01*
X182833735Y-129640013D01*
X181246235Y-130229655D02*
X181246235Y-129730727D01*
X181291592Y-129640013D01*
X181382307Y-129594655D01*
X181563735Y-129594655D01*
X181654450Y-129640013D01*
X181246235Y-130184298D02*
X181336950Y-130229655D01*
X181563735Y-130229655D01*
X181654450Y-130184298D01*
X181699807Y-130093584D01*
X181699807Y-130002870D01*
X181654450Y-129912155D01*
X181563735Y-129866798D01*
X181336950Y-129866798D01*
X181246235Y-129821441D01*
X180066950Y-130229655D02*
X180066950Y-129277155D01*
X180066950Y-129640013D02*
X179976235Y-129594655D01*
X179794807Y-129594655D01*
X179704092Y-129640013D01*
X179658735Y-129685370D01*
X179613378Y-129776084D01*
X179613378Y-130048227D01*
X179658735Y-130138941D01*
X179704092Y-130184298D01*
X179794807Y-130229655D01*
X179976235Y-130229655D01*
X180066950Y-130184298D01*
X178796950Y-130229655D02*
X178796950Y-129730727D01*
X178842307Y-129640013D01*
X178933021Y-129594655D01*
X179114450Y-129594655D01*
X179205164Y-129640013D01*
X178796950Y-130184298D02*
X178887664Y-130229655D01*
X179114450Y-130229655D01*
X179205164Y-130184298D01*
X179250521Y-130093584D01*
X179250521Y-130002870D01*
X179205164Y-129912155D01*
X179114450Y-129866798D01*
X178887664Y-129866798D01*
X178796950Y-129821441D01*
X177935164Y-130229655D02*
X177935164Y-129277155D01*
X177935164Y-130184298D02*
X178025878Y-130229655D01*
X178207307Y-130229655D01*
X178298021Y-130184298D01*
X178343378Y-130138941D01*
X178388735Y-130048227D01*
X178388735Y-129776084D01*
X178343378Y-129685370D01*
X178298021Y-129640013D01*
X178207307Y-129594655D01*
X178025878Y-129594655D01*
X177935164Y-129640013D01*
X176801235Y-130184298D02*
X176710521Y-130229655D01*
X176529092Y-130229655D01*
X176438378Y-130184298D01*
X176393021Y-130093584D01*
X176393021Y-130048227D01*
X176438378Y-129957513D01*
X176529092Y-129912155D01*
X176665164Y-129912155D01*
X176755878Y-129866798D01*
X176801235Y-129776084D01*
X176801235Y-129730727D01*
X176755878Y-129640013D01*
X176665164Y-129594655D01*
X176529092Y-129594655D01*
X176438378Y-129640013D01*
X175848735Y-130229655D02*
X175939450Y-130184298D01*
X175984807Y-130138941D01*
X176030164Y-130048227D01*
X176030164Y-129776084D01*
X175984807Y-129685370D01*
X175939450Y-129640013D01*
X175848735Y-129594655D01*
X175712664Y-129594655D01*
X175621950Y-129640013D01*
X175576592Y-129685370D01*
X175531235Y-129776084D01*
X175531235Y-130048227D01*
X175576592Y-130138941D01*
X175621950Y-130184298D01*
X175712664Y-130229655D01*
X175848735Y-130229655D01*
X174714807Y-129594655D02*
X174714807Y-130229655D01*
X175123021Y-129594655D02*
X175123021Y-130093584D01*
X175077664Y-130184298D01*
X174986950Y-130229655D01*
X174850878Y-130229655D01*
X174760164Y-130184298D01*
X174714807Y-130138941D01*
X174261235Y-129594655D02*
X174261235Y-130229655D01*
X174261235Y-129685370D02*
X174215878Y-129640013D01*
X174125164Y-129594655D01*
X173989092Y-129594655D01*
X173898378Y-129640013D01*
X173853021Y-129730727D01*
X173853021Y-130229655D01*
X172991235Y-130229655D02*
X172991235Y-129277155D01*
X172991235Y-130184298D02*
X173081950Y-130229655D01*
X173263378Y-130229655D01*
X173354092Y-130184298D01*
X173399450Y-130138941D01*
X173444807Y-130048227D01*
X173444807Y-129776084D01*
X173399450Y-129685370D01*
X173354092Y-129640013D01*
X173263378Y-129594655D01*
X173081950Y-129594655D01*
X172991235Y-129640013D01*
X171403735Y-130184298D02*
X171494450Y-130229655D01*
X171675878Y-130229655D01*
X171766592Y-130184298D01*
X171811950Y-130138941D01*
X171857307Y-130048227D01*
X171857307Y-129776084D01*
X171811950Y-129685370D01*
X171766592Y-129640013D01*
X171675878Y-129594655D01*
X171494450Y-129594655D01*
X171403735Y-129640013D01*
X170587307Y-130229655D02*
X170587307Y-129730727D01*
X170632664Y-129640013D01*
X170723378Y-129594655D01*
X170904807Y-129594655D01*
X170995521Y-129640013D01*
X170587307Y-130184298D02*
X170678021Y-130229655D01*
X170904807Y-130229655D01*
X170995521Y-130184298D01*
X171040878Y-130093584D01*
X171040878Y-130002870D01*
X170995521Y-129912155D01*
X170904807Y-129866798D01*
X170678021Y-129866798D01*
X170587307Y-129821441D01*
X170133735Y-130229655D02*
X170133735Y-129594655D01*
X170133735Y-129776084D02*
X170088378Y-129685370D01*
X170043021Y-129640013D01*
X169952307Y-129594655D01*
X169861592Y-129594655D01*
X169135878Y-130229655D02*
X169135878Y-129277155D01*
X169135878Y-130184298D02*
X169226592Y-130229655D01*
X169408021Y-130229655D01*
X169498735Y-130184298D01*
X169544092Y-130138941D01*
X169589450Y-130048227D01*
X169589450Y-129776084D01*
X169544092Y-129685370D01*
X169498735Y-129640013D01*
X169408021Y-129594655D01*
X169226592Y-129594655D01*
X169135878Y-129640013D01*
X168682307Y-130138941D02*
X168636950Y-130184298D01*
X168682307Y-130229655D01*
X168727664Y-130184298D01*
X168682307Y-130138941D01*
X168682307Y-130229655D01*
X124196021Y-31330673D02*
X124059950Y-31376030D01*
X123833164Y-31376030D01*
X123742450Y-31330673D01*
X123697092Y-31285316D01*
X123651735Y-31194602D01*
X123651735Y-31103888D01*
X123697092Y-31013173D01*
X123742450Y-30967816D01*
X123833164Y-30922459D01*
X124014592Y-30877102D01*
X124105307Y-30831745D01*
X124150664Y-30786388D01*
X124196021Y-30695673D01*
X124196021Y-30604959D01*
X124150664Y-30514245D01*
X124105307Y-30468888D01*
X124014592Y-30423530D01*
X123787807Y-30423530D01*
X123651735Y-30468888D01*
X123243521Y-30741030D02*
X123243521Y-31693530D01*
X123243521Y-30786388D02*
X123152807Y-30741030D01*
X122971378Y-30741030D01*
X122880664Y-30786388D01*
X122835307Y-30831745D01*
X122789950Y-30922459D01*
X122789950Y-31194602D01*
X122835307Y-31285316D01*
X122880664Y-31330673D01*
X122971378Y-31376030D01*
X123152807Y-31376030D01*
X123243521Y-31330673D01*
X122018878Y-31330673D02*
X122109592Y-31376030D01*
X122291021Y-31376030D01*
X122381735Y-31330673D01*
X122427092Y-31239959D01*
X122427092Y-30877102D01*
X122381735Y-30786388D01*
X122291021Y-30741030D01*
X122109592Y-30741030D01*
X122018878Y-30786388D01*
X121973521Y-30877102D01*
X121973521Y-30967816D01*
X122427092Y-31058530D01*
X121157092Y-31330673D02*
X121247807Y-31376030D01*
X121429235Y-31376030D01*
X121519950Y-31330673D01*
X121565307Y-31285316D01*
X121610664Y-31194602D01*
X121610664Y-30922459D01*
X121565307Y-30831745D01*
X121519950Y-30786388D01*
X121429235Y-30741030D01*
X121247807Y-30741030D01*
X121157092Y-30786388D01*
X120748878Y-31376030D02*
X120748878Y-30741030D01*
X120748878Y-30423530D02*
X120794235Y-30468888D01*
X120748878Y-30514245D01*
X120703521Y-30468888D01*
X120748878Y-30423530D01*
X120748878Y-30514245D01*
X119887092Y-31376030D02*
X119887092Y-30877102D01*
X119932450Y-30786388D01*
X120023164Y-30741030D01*
X120204592Y-30741030D01*
X120295307Y-30786388D01*
X119887092Y-31330673D02*
X119977807Y-31376030D01*
X120204592Y-31376030D01*
X120295307Y-31330673D01*
X120340664Y-31239959D01*
X120340664Y-31149245D01*
X120295307Y-31058530D01*
X120204592Y-31013173D01*
X119977807Y-31013173D01*
X119887092Y-30967816D01*
X119297450Y-31376030D02*
X119388164Y-31330673D01*
X119433521Y-31239959D01*
X119433521Y-30423530D01*
X118344950Y-30423530D02*
X117800664Y-30423530D01*
X118072807Y-31376030D02*
X118072807Y-30423530D01*
X117483164Y-31376030D02*
X117483164Y-30423530D01*
X117074950Y-31376030D02*
X117074950Y-30877102D01*
X117120307Y-30786388D01*
X117211021Y-30741030D01*
X117347092Y-30741030D01*
X117437807Y-30786388D01*
X117483164Y-30831745D01*
X116213164Y-31376030D02*
X116213164Y-30877102D01*
X116258521Y-30786388D01*
X116349235Y-30741030D01*
X116530664Y-30741030D01*
X116621378Y-30786388D01*
X116213164Y-31330673D02*
X116303878Y-31376030D01*
X116530664Y-31376030D01*
X116621378Y-31330673D01*
X116666735Y-31239959D01*
X116666735Y-31149245D01*
X116621378Y-31058530D01*
X116530664Y-31013173D01*
X116303878Y-31013173D01*
X116213164Y-30967816D01*
X115759592Y-30741030D02*
X115759592Y-31376030D01*
X115759592Y-30831745D02*
X115714235Y-30786388D01*
X115623521Y-30741030D01*
X115487450Y-30741030D01*
X115396735Y-30786388D01*
X115351378Y-30877102D01*
X115351378Y-31376030D01*
X114897807Y-31376030D02*
X114897807Y-30423530D01*
X114807092Y-31013173D02*
X114534950Y-31376030D01*
X114534950Y-30741030D02*
X114897807Y-31103888D01*
X114172092Y-31330673D02*
X114081378Y-31376030D01*
X113899950Y-31376030D01*
X113809235Y-31330673D01*
X113763878Y-31239959D01*
X113763878Y-31194602D01*
X113809235Y-31103888D01*
X113899950Y-31058530D01*
X114036021Y-31058530D01*
X114126735Y-31013173D01*
X114172092Y-30922459D01*
X114172092Y-30877102D01*
X114126735Y-30786388D01*
X114036021Y-30741030D01*
X113899950Y-30741030D01*
X113809235Y-30786388D01*
X113355664Y-31285316D02*
X113310307Y-31330673D01*
X113355664Y-31376030D01*
X113401021Y-31330673D01*
X113355664Y-31285316D01*
X113355664Y-31376030D01*
X113355664Y-30786388D02*
X113310307Y-30831745D01*
X113355664Y-30877102D01*
X113401021Y-30831745D01*
X113355664Y-30786388D01*
X113355664Y-30877102D01*
X124286735Y-31957055D02*
X123742450Y-31957055D01*
X124014592Y-32909555D02*
X124014592Y-31957055D01*
X123016735Y-32274555D02*
X123016735Y-32909555D01*
X123424950Y-32274555D02*
X123424950Y-32773484D01*
X123379592Y-32864198D01*
X123288878Y-32909555D01*
X123152807Y-32909555D01*
X123062092Y-32864198D01*
X123016735Y-32818841D01*
X122563164Y-32909555D02*
X122563164Y-31957055D01*
X122563164Y-32319913D02*
X122472450Y-32274555D01*
X122291021Y-32274555D01*
X122200307Y-32319913D01*
X122154950Y-32365270D01*
X122109592Y-32455984D01*
X122109592Y-32728127D01*
X122154950Y-32818841D01*
X122200307Y-32864198D01*
X122291021Y-32909555D01*
X122472450Y-32909555D01*
X122563164Y-32864198D01*
X121338521Y-32864198D02*
X121429235Y-32909555D01*
X121610664Y-32909555D01*
X121701378Y-32864198D01*
X121746735Y-32773484D01*
X121746735Y-32410627D01*
X121701378Y-32319913D01*
X121610664Y-32274555D01*
X121429235Y-32274555D01*
X121338521Y-32319913D01*
X121293164Y-32410627D01*
X121293164Y-32501341D01*
X121746735Y-32592055D01*
X121021021Y-31957055D02*
X120476735Y-31957055D01*
X120748878Y-32909555D02*
X120748878Y-31957055D01*
X120159235Y-32909555D02*
X120159235Y-32274555D01*
X120159235Y-31957055D02*
X120204592Y-32002413D01*
X120159235Y-32047770D01*
X120113878Y-32002413D01*
X120159235Y-31957055D01*
X120159235Y-32047770D01*
X119705664Y-32909555D02*
X119705664Y-32274555D01*
X119705664Y-32365270D02*
X119660307Y-32319913D01*
X119569592Y-32274555D01*
X119433521Y-32274555D01*
X119342807Y-32319913D01*
X119297450Y-32410627D01*
X119297450Y-32909555D01*
X119297450Y-32410627D02*
X119252092Y-32319913D01*
X119161378Y-32274555D01*
X119025307Y-32274555D01*
X118934592Y-32319913D01*
X118889235Y-32410627D01*
X118889235Y-32909555D01*
X118072807Y-32864198D02*
X118163521Y-32909555D01*
X118344950Y-32909555D01*
X118435664Y-32864198D01*
X118481021Y-32773484D01*
X118481021Y-32410627D01*
X118435664Y-32319913D01*
X118344950Y-32274555D01*
X118163521Y-32274555D01*
X118072807Y-32319913D01*
X118027450Y-32410627D01*
X118027450Y-32501341D01*
X118481021Y-32592055D01*
X116893521Y-32546698D02*
X116167807Y-32546698D01*
X114988521Y-32909555D02*
X114988521Y-32274555D01*
X114988521Y-32455984D02*
X114943164Y-32365270D01*
X114897807Y-32319913D01*
X114807092Y-32274555D01*
X114716378Y-32274555D01*
X114036021Y-32864198D02*
X114126735Y-32909555D01*
X114308164Y-32909555D01*
X114398878Y-32864198D01*
X114444235Y-32773484D01*
X114444235Y-32410627D01*
X114398878Y-32319913D01*
X114308164Y-32274555D01*
X114126735Y-32274555D01*
X114036021Y-32319913D01*
X113990664Y-32410627D01*
X113990664Y-32501341D01*
X114444235Y-32592055D01*
X113673164Y-32274555D02*
X113446378Y-32909555D01*
X113219592Y-32274555D01*
X112493878Y-32864198D02*
X112584592Y-32909555D01*
X112766021Y-32909555D01*
X112856735Y-32864198D01*
X112902092Y-32773484D01*
X112902092Y-32410627D01*
X112856735Y-32319913D01*
X112766021Y-32274555D01*
X112584592Y-32274555D01*
X112493878Y-32319913D01*
X112448521Y-32410627D01*
X112448521Y-32501341D01*
X112902092Y-32592055D01*
X112040307Y-32909555D02*
X112040307Y-32274555D01*
X112040307Y-32455984D02*
X111994949Y-32365270D01*
X111949592Y-32319913D01*
X111858878Y-32274555D01*
X111768164Y-32274555D01*
X111496021Y-32864198D02*
X111405307Y-32909555D01*
X111223878Y-32909555D01*
X111133164Y-32864198D01*
X111087807Y-32773484D01*
X111087807Y-32728127D01*
X111133164Y-32637413D01*
X111223878Y-32592055D01*
X111359949Y-32592055D01*
X111450664Y-32546698D01*
X111496021Y-32455984D01*
X111496021Y-32410627D01*
X111450664Y-32319913D01*
X111359949Y-32274555D01*
X111223878Y-32274555D01*
X111133164Y-32319913D01*
X110316735Y-32864198D02*
X110407449Y-32909555D01*
X110588878Y-32909555D01*
X110679592Y-32864198D01*
X110724949Y-32773484D01*
X110724949Y-32410627D01*
X110679592Y-32319913D01*
X110588878Y-32274555D01*
X110407449Y-32274555D01*
X110316735Y-32319913D01*
X110271378Y-32410627D01*
X110271378Y-32501341D01*
X110724949Y-32592055D01*
X108774592Y-32864198D02*
X108865307Y-32909555D01*
X109046735Y-32909555D01*
X109137449Y-32864198D01*
X109182807Y-32773484D01*
X109182807Y-32410627D01*
X109137449Y-32319913D01*
X109046735Y-32274555D01*
X108865307Y-32274555D01*
X108774592Y-32319913D01*
X108729235Y-32410627D01*
X108729235Y-32501341D01*
X109182807Y-32592055D01*
X108321021Y-32274555D02*
X108321021Y-32909555D01*
X108321021Y-32365270D02*
X108275664Y-32319913D01*
X108184949Y-32274555D01*
X108048878Y-32274555D01*
X107958164Y-32319913D01*
X107912807Y-32410627D01*
X107912807Y-32909555D01*
X107051021Y-32274555D02*
X107051021Y-33045627D01*
X107096378Y-33136341D01*
X107141735Y-33181698D01*
X107232449Y-33227055D01*
X107368521Y-33227055D01*
X107459235Y-33181698D01*
X107051021Y-32864198D02*
X107141735Y-32909555D01*
X107323164Y-32909555D01*
X107413878Y-32864198D01*
X107459235Y-32818841D01*
X107504592Y-32728127D01*
X107504592Y-32455984D01*
X107459235Y-32365270D01*
X107413878Y-32319913D01*
X107323164Y-32274555D01*
X107141735Y-32274555D01*
X107051021Y-32319913D01*
X106597449Y-32909555D02*
X106597449Y-32274555D01*
X106597449Y-31957055D02*
X106642807Y-32002413D01*
X106597449Y-32047770D01*
X106552092Y-32002413D01*
X106597449Y-31957055D01*
X106597449Y-32047770D01*
X106143878Y-32274555D02*
X106143878Y-32909555D01*
X106143878Y-32365270D02*
X106098521Y-32319913D01*
X106007807Y-32274555D01*
X105871735Y-32274555D01*
X105781021Y-32319913D01*
X105735664Y-32410627D01*
X105735664Y-32909555D01*
X104919235Y-32864198D02*
X105009949Y-32909555D01*
X105191378Y-32909555D01*
X105282092Y-32864198D01*
X105327449Y-32773484D01*
X105327449Y-32410627D01*
X105282092Y-32319913D01*
X105191378Y-32274555D01*
X105009949Y-32274555D01*
X104919235Y-32319913D01*
X104873878Y-32410627D01*
X104873878Y-32501341D01*
X105327449Y-32592055D01*
X104102807Y-32864198D02*
X104193521Y-32909555D01*
X104374949Y-32909555D01*
X104465664Y-32864198D01*
X104511021Y-32773484D01*
X104511021Y-32410627D01*
X104465664Y-32319913D01*
X104374949Y-32274555D01*
X104193521Y-32274555D01*
X104102807Y-32319913D01*
X104057449Y-32410627D01*
X104057449Y-32501341D01*
X104511021Y-32592055D01*
X103649235Y-32909555D02*
X103649235Y-32274555D01*
X103649235Y-32455984D02*
X103603878Y-32365270D01*
X103558521Y-32319913D01*
X103467807Y-32274555D01*
X103377092Y-32274555D01*
X103059592Y-32909555D02*
X103059592Y-32274555D01*
X103059592Y-31957055D02*
X103104949Y-32002413D01*
X103059592Y-32047770D01*
X103014235Y-32002413D01*
X103059592Y-31957055D01*
X103059592Y-32047770D01*
X102606021Y-32274555D02*
X102606021Y-32909555D01*
X102606021Y-32365270D02*
X102560664Y-32319913D01*
X102469949Y-32274555D01*
X102333878Y-32274555D01*
X102243164Y-32319913D01*
X102197807Y-32410627D01*
X102197807Y-32909555D01*
X101336021Y-32274555D02*
X101336021Y-33045627D01*
X101381378Y-33136341D01*
X101426735Y-33181698D01*
X101517449Y-33227055D01*
X101653521Y-33227055D01*
X101744235Y-33181698D01*
X101336021Y-32864198D02*
X101426735Y-32909555D01*
X101608164Y-32909555D01*
X101698878Y-32864198D01*
X101744235Y-32818841D01*
X101789592Y-32728127D01*
X101789592Y-32455984D01*
X101744235Y-32365270D01*
X101698878Y-32319913D01*
X101608164Y-32274555D01*
X101426735Y-32274555D01*
X101336021Y-32319913D01*
X100020664Y-32909555D02*
X100111378Y-32864198D01*
X100156735Y-32818841D01*
X100202092Y-32728127D01*
X100202092Y-32455984D01*
X100156735Y-32365270D01*
X100111378Y-32319913D01*
X100020664Y-32274555D01*
X99884592Y-32274555D01*
X99793878Y-32319913D01*
X99748521Y-32365270D01*
X99703164Y-32455984D01*
X99703164Y-32728127D01*
X99748521Y-32818841D01*
X99793878Y-32864198D01*
X99884592Y-32909555D01*
X100020664Y-32909555D01*
X99431021Y-32274555D02*
X99068164Y-32274555D01*
X99294949Y-32909555D02*
X99294949Y-32093127D01*
X99249592Y-32002413D01*
X99158878Y-31957055D01*
X99068164Y-31957055D01*
X98161021Y-32274555D02*
X97798164Y-32274555D01*
X98024949Y-31957055D02*
X98024949Y-32773484D01*
X97979592Y-32864198D01*
X97888878Y-32909555D01*
X97798164Y-32909555D01*
X97480664Y-32909555D02*
X97480664Y-31957055D01*
X97072449Y-32909555D02*
X97072449Y-32410627D01*
X97117807Y-32319913D01*
X97208521Y-32274555D01*
X97344592Y-32274555D01*
X97435307Y-32319913D01*
X97480664Y-32365270D01*
X96256021Y-32864198D02*
X96346735Y-32909555D01*
X96528164Y-32909555D01*
X96618878Y-32864198D01*
X96664235Y-32773484D01*
X96664235Y-32410627D01*
X96618878Y-32319913D01*
X96528164Y-32274555D01*
X96346735Y-32274555D01*
X96256021Y-32319913D01*
X96210664Y-32410627D01*
X96210664Y-32501341D01*
X96664235Y-32592055D01*
X122699235Y-34443080D02*
X122699235Y-33490580D01*
X122699235Y-33853438D02*
X122608521Y-33808080D01*
X122427092Y-33808080D01*
X122336378Y-33853438D01*
X122291021Y-33898795D01*
X122245664Y-33989509D01*
X122245664Y-34261652D01*
X122291021Y-34352366D01*
X122336378Y-34397723D01*
X122427092Y-34443080D01*
X122608521Y-34443080D01*
X122699235Y-34397723D01*
X121837450Y-34443080D02*
X121837450Y-33808080D01*
X121837450Y-33490580D02*
X121882807Y-33535938D01*
X121837450Y-33581295D01*
X121792092Y-33535938D01*
X121837450Y-33490580D01*
X121837450Y-33581295D01*
X120975664Y-33808080D02*
X120975664Y-34579152D01*
X121021021Y-34669866D01*
X121066378Y-34715223D01*
X121157092Y-34760580D01*
X121293164Y-34760580D01*
X121383878Y-34715223D01*
X120975664Y-34397723D02*
X121066378Y-34443080D01*
X121247807Y-34443080D01*
X121338521Y-34397723D01*
X121383878Y-34352366D01*
X121429235Y-34261652D01*
X121429235Y-33989509D01*
X121383878Y-33898795D01*
X121338521Y-33853438D01*
X121247807Y-33808080D01*
X121066378Y-33808080D01*
X120975664Y-33853438D01*
X119841735Y-34397723D02*
X119751021Y-34443080D01*
X119569592Y-34443080D01*
X119478878Y-34397723D01*
X119433521Y-34307009D01*
X119433521Y-34261652D01*
X119478878Y-34170938D01*
X119569592Y-34125580D01*
X119705664Y-34125580D01*
X119796378Y-34080223D01*
X119841735Y-33989509D01*
X119841735Y-33944152D01*
X119796378Y-33853438D01*
X119705664Y-33808080D01*
X119569592Y-33808080D01*
X119478878Y-33853438D01*
X119161378Y-33808080D02*
X118798521Y-33808080D01*
X119025307Y-33490580D02*
X119025307Y-34307009D01*
X118979950Y-34397723D01*
X118889235Y-34443080D01*
X118798521Y-34443080D01*
X118072807Y-33808080D02*
X118072807Y-34443080D01*
X118481021Y-33808080D02*
X118481021Y-34307009D01*
X118435664Y-34397723D01*
X118344950Y-34443080D01*
X118208878Y-34443080D01*
X118118164Y-34397723D01*
X118072807Y-34352366D01*
X117619235Y-33808080D02*
X117619235Y-34760580D01*
X117619235Y-33853438D02*
X117528521Y-33808080D01*
X117347092Y-33808080D01*
X117256378Y-33853438D01*
X117211021Y-33898795D01*
X117165664Y-33989509D01*
X117165664Y-34261652D01*
X117211021Y-34352366D01*
X117256378Y-34397723D01*
X117347092Y-34443080D01*
X117528521Y-34443080D01*
X117619235Y-34397723D01*
X116757450Y-34443080D02*
X116757450Y-33808080D01*
X116757450Y-33490580D02*
X116802807Y-33535938D01*
X116757450Y-33581295D01*
X116712092Y-33535938D01*
X116757450Y-33490580D01*
X116757450Y-33581295D01*
X115895664Y-34443080D02*
X115895664Y-33490580D01*
X115895664Y-34397723D02*
X115986378Y-34443080D01*
X116167807Y-34443080D01*
X116258521Y-34397723D01*
X116303878Y-34352366D01*
X116349235Y-34261652D01*
X116349235Y-33989509D01*
X116303878Y-33898795D01*
X116258521Y-33853438D01*
X116167807Y-33808080D01*
X115986378Y-33808080D01*
X115895664Y-33853438D01*
X114716378Y-34443080D02*
X114716378Y-33490580D01*
X114489592Y-33490580D01*
X114353521Y-33535938D01*
X114262807Y-33626652D01*
X114217450Y-33717366D01*
X114172092Y-33898795D01*
X114172092Y-34034866D01*
X114217450Y-34216295D01*
X114262807Y-34307009D01*
X114353521Y-34397723D01*
X114489592Y-34443080D01*
X114716378Y-34443080D01*
X113763878Y-34443080D02*
X113763878Y-33490580D01*
X113310307Y-34443080D02*
X113310307Y-33490580D01*
X112947450Y-33490580D01*
X112856735Y-33535938D01*
X112811378Y-33581295D01*
X112766021Y-33672009D01*
X112766021Y-33808080D01*
X112811378Y-33898795D01*
X112856735Y-33944152D01*
X112947450Y-33989509D01*
X113310307Y-33989509D01*
X112357807Y-34080223D02*
X111632092Y-34080223D01*
X110770307Y-33808080D02*
X110770307Y-34443080D01*
X110997092Y-33445223D02*
X111223878Y-34125580D01*
X110634235Y-34125580D01*
X110089950Y-33490580D02*
X109999235Y-33490580D01*
X109908521Y-33535938D01*
X109863164Y-33581295D01*
X109817807Y-33672009D01*
X109772450Y-33853438D01*
X109772450Y-34080223D01*
X109817807Y-34261652D01*
X109863164Y-34352366D01*
X109908521Y-34397723D01*
X109999235Y-34443080D01*
X110089950Y-34443080D01*
X110180664Y-34397723D01*
X110226021Y-34352366D01*
X110271378Y-34261652D01*
X110316735Y-34080223D01*
X110316735Y-33853438D01*
X110271378Y-33672009D01*
X110226021Y-33581295D01*
X110180664Y-33535938D01*
X110089950Y-33490580D01*
X109318878Y-34397723D02*
X109318878Y-34443080D01*
X109364235Y-34533795D01*
X109409592Y-34579152D01*
X109364235Y-33853438D02*
X109318878Y-33898795D01*
X109364235Y-33944152D01*
X109409592Y-33898795D01*
X109364235Y-33853438D01*
X109364235Y-33944152D01*
X108184950Y-34443080D02*
X108184950Y-33490580D01*
X107958164Y-33490580D01*
X107822092Y-33535938D01*
X107731378Y-33626652D01*
X107686021Y-33717366D01*
X107640664Y-33898795D01*
X107640664Y-34034866D01*
X107686021Y-34216295D01*
X107731378Y-34307009D01*
X107822092Y-34397723D01*
X107958164Y-34443080D01*
X108184950Y-34443080D01*
X107368521Y-33490580D02*
X106824235Y-33490580D01*
X107096378Y-34443080D02*
X107096378Y-33490580D01*
X106552092Y-34170938D02*
X106098521Y-34170938D01*
X106642807Y-34443080D02*
X106325307Y-33490580D01*
X106007807Y-34443080D01*
X105146021Y-34352366D02*
X105191378Y-34397723D01*
X105327450Y-34443080D01*
X105418164Y-34443080D01*
X105554235Y-34397723D01*
X105644950Y-34307009D01*
X105690307Y-34216295D01*
X105735664Y-34034866D01*
X105735664Y-33898795D01*
X105690307Y-33717366D01*
X105644950Y-33626652D01*
X105554235Y-33535938D01*
X105418164Y-33490580D01*
X105327450Y-33490580D01*
X105191378Y-33535938D01*
X105146021Y-33581295D01*
X104737807Y-34443080D02*
X104737807Y-33490580D01*
X104193521Y-34443080D02*
X104601735Y-33898795D01*
X104193521Y-33490580D02*
X104737807Y-34034866D01*
X102651378Y-34397723D02*
X102742092Y-34443080D01*
X102923521Y-34443080D01*
X103014235Y-34397723D01*
X103059592Y-34352366D01*
X103104950Y-34261652D01*
X103104950Y-33989509D01*
X103059592Y-33898795D01*
X103014235Y-33853438D01*
X102923521Y-33808080D01*
X102742092Y-33808080D01*
X102651378Y-33853438D01*
X102243164Y-34443080D02*
X102243164Y-33808080D01*
X102243164Y-33490580D02*
X102288521Y-33535938D01*
X102243164Y-33581295D01*
X102197807Y-33535938D01*
X102243164Y-33490580D01*
X102243164Y-33581295D01*
X101789592Y-34443080D02*
X101789592Y-33808080D01*
X101789592Y-33989509D02*
X101744235Y-33898795D01*
X101698878Y-33853438D01*
X101608164Y-33808080D01*
X101517450Y-33808080D01*
X100791735Y-34397723D02*
X100882450Y-34443080D01*
X101063878Y-34443080D01*
X101154592Y-34397723D01*
X101199950Y-34352366D01*
X101245307Y-34261652D01*
X101245307Y-33989509D01*
X101199950Y-33898795D01*
X101154592Y-33853438D01*
X101063878Y-33808080D01*
X100882450Y-33808080D01*
X100791735Y-33853438D01*
X99975307Y-33808080D02*
X99975307Y-34443080D01*
X100383521Y-33808080D02*
X100383521Y-34307009D01*
X100338164Y-34397723D01*
X100247450Y-34443080D01*
X100111378Y-34443080D01*
X100020664Y-34397723D01*
X99975307Y-34352366D01*
X99521735Y-34443080D02*
X99521735Y-33808080D01*
X99521735Y-33490580D02*
X99567092Y-33535938D01*
X99521735Y-33581295D01*
X99476378Y-33535938D01*
X99521735Y-33490580D01*
X99521735Y-33581295D01*
X99204235Y-33808080D02*
X98841378Y-33808080D01*
X99068164Y-33490580D02*
X99068164Y-34307009D01*
X99022807Y-34397723D01*
X98932092Y-34443080D01*
X98841378Y-34443080D01*
X97389950Y-34443080D02*
X97389950Y-33944152D01*
X97435307Y-33853438D01*
X97526021Y-33808080D01*
X97707450Y-33808080D01*
X97798164Y-33853438D01*
X97389950Y-34397723D02*
X97480664Y-34443080D01*
X97707450Y-34443080D01*
X97798164Y-34397723D01*
X97843521Y-34307009D01*
X97843521Y-34216295D01*
X97798164Y-34125580D01*
X97707450Y-34080223D01*
X97480664Y-34080223D01*
X97389950Y-34034866D01*
X96936378Y-33808080D02*
X96936378Y-34443080D01*
X96936378Y-33898795D02*
X96891021Y-33853438D01*
X96800307Y-33808080D01*
X96664235Y-33808080D01*
X96573521Y-33853438D01*
X96528164Y-33944152D01*
X96528164Y-34443080D01*
X95666378Y-34443080D02*
X95666378Y-33490580D01*
X95666378Y-34397723D02*
X95757092Y-34443080D01*
X95938521Y-34443080D01*
X96029235Y-34397723D01*
X96074592Y-34352366D01*
X96119950Y-34261652D01*
X96119950Y-33989509D01*
X96074592Y-33898795D01*
X96029235Y-33853438D01*
X95938521Y-33808080D01*
X95757092Y-33808080D01*
X95666378Y-33853438D01*
X122835307Y-35024105D02*
X122291021Y-35024105D01*
X122563164Y-35976605D02*
X122563164Y-35024105D01*
X121973521Y-35477677D02*
X121656021Y-35477677D01*
X121519950Y-35976605D02*
X121973521Y-35976605D01*
X121973521Y-35024105D01*
X121519950Y-35024105D01*
X121157092Y-35704463D02*
X120703521Y-35704463D01*
X121247807Y-35976605D02*
X120930307Y-35024105D01*
X120612807Y-35976605D01*
X120340664Y-35114820D02*
X120295307Y-35069463D01*
X120204592Y-35024105D01*
X119977807Y-35024105D01*
X119887092Y-35069463D01*
X119841735Y-35114820D01*
X119796378Y-35205534D01*
X119796378Y-35296248D01*
X119841735Y-35432320D01*
X120386021Y-35976605D01*
X119796378Y-35976605D01*
X119206735Y-35024105D02*
X119116021Y-35024105D01*
X119025307Y-35069463D01*
X118979950Y-35114820D01*
X118934592Y-35205534D01*
X118889235Y-35386963D01*
X118889235Y-35613748D01*
X118934592Y-35795177D01*
X118979950Y-35885891D01*
X119025307Y-35931248D01*
X119116021Y-35976605D01*
X119206735Y-35976605D01*
X119297450Y-35931248D01*
X119342807Y-35885891D01*
X119388164Y-35795177D01*
X119433521Y-35613748D01*
X119433521Y-35386963D01*
X119388164Y-35205534D01*
X119342807Y-35114820D01*
X119297450Y-35069463D01*
X119206735Y-35024105D01*
X118526378Y-35114820D02*
X118481021Y-35069463D01*
X118390307Y-35024105D01*
X118163521Y-35024105D01*
X118072807Y-35069463D01*
X118027450Y-35114820D01*
X117982092Y-35205534D01*
X117982092Y-35296248D01*
X118027450Y-35432320D01*
X118571735Y-35976605D01*
X117982092Y-35976605D01*
X117120307Y-35024105D02*
X117573878Y-35024105D01*
X117619235Y-35477677D01*
X117573878Y-35432320D01*
X117483164Y-35386963D01*
X117256378Y-35386963D01*
X117165664Y-35432320D01*
X117120307Y-35477677D01*
X117074950Y-35568391D01*
X117074950Y-35795177D01*
X117120307Y-35885891D01*
X117165664Y-35931248D01*
X117256378Y-35976605D01*
X117483164Y-35976605D01*
X117573878Y-35931248D01*
X117619235Y-35885891D01*
X116349235Y-35477677D02*
X116213164Y-35523034D01*
X116167807Y-35568391D01*
X116122450Y-35659105D01*
X116122450Y-35795177D01*
X116167807Y-35885891D01*
X116213164Y-35931248D01*
X116303878Y-35976605D01*
X116666735Y-35976605D01*
X116666735Y-35024105D01*
X116349235Y-35024105D01*
X116258521Y-35069463D01*
X116213164Y-35114820D01*
X116167807Y-35205534D01*
X116167807Y-35296248D01*
X116213164Y-35386963D01*
X116258521Y-35432320D01*
X116349235Y-35477677D01*
X116666735Y-35477677D01*
X115033878Y-35931248D02*
X114943164Y-35976605D01*
X114761735Y-35976605D01*
X114671021Y-35931248D01*
X114625664Y-35840534D01*
X114625664Y-35795177D01*
X114671021Y-35704463D01*
X114761735Y-35659105D01*
X114897807Y-35659105D01*
X114988521Y-35613748D01*
X115033878Y-35523034D01*
X115033878Y-35477677D01*
X114988521Y-35386963D01*
X114897807Y-35341605D01*
X114761735Y-35341605D01*
X114671021Y-35386963D01*
X113854592Y-35931248D02*
X113945307Y-35976605D01*
X114126735Y-35976605D01*
X114217450Y-35931248D01*
X114262807Y-35840534D01*
X114262807Y-35477677D01*
X114217450Y-35386963D01*
X114126735Y-35341605D01*
X113945307Y-35341605D01*
X113854592Y-35386963D01*
X113809235Y-35477677D01*
X113809235Y-35568391D01*
X114262807Y-35659105D01*
X112992807Y-35931248D02*
X113083521Y-35976605D01*
X113264950Y-35976605D01*
X113355664Y-35931248D01*
X113401021Y-35885891D01*
X113446378Y-35795177D01*
X113446378Y-35523034D01*
X113401021Y-35432320D01*
X113355664Y-35386963D01*
X113264950Y-35341605D01*
X113083521Y-35341605D01*
X112992807Y-35386963D01*
X112720664Y-35341605D02*
X112357807Y-35341605D01*
X112584592Y-35024105D02*
X112584592Y-35840534D01*
X112539235Y-35931248D01*
X112448521Y-35976605D01*
X112357807Y-35976605D01*
X112040307Y-35976605D02*
X112040307Y-35341605D01*
X112040307Y-35024105D02*
X112085664Y-35069463D01*
X112040307Y-35114820D01*
X111994950Y-35069463D01*
X112040307Y-35024105D01*
X112040307Y-35114820D01*
X111450664Y-35976605D02*
X111541378Y-35931248D01*
X111586735Y-35885891D01*
X111632092Y-35795177D01*
X111632092Y-35523034D01*
X111586735Y-35432320D01*
X111541378Y-35386963D01*
X111450664Y-35341605D01*
X111314592Y-35341605D01*
X111223878Y-35386963D01*
X111178521Y-35432320D01*
X111133164Y-35523034D01*
X111133164Y-35795177D01*
X111178521Y-35885891D01*
X111223878Y-35931248D01*
X111314592Y-35976605D01*
X111450664Y-35976605D01*
X110724950Y-35341605D02*
X110724950Y-35976605D01*
X110724950Y-35432320D02*
X110679592Y-35386963D01*
X110588878Y-35341605D01*
X110452807Y-35341605D01*
X110362092Y-35386963D01*
X110316735Y-35477677D01*
X110316735Y-35976605D01*
X109273521Y-35341605D02*
X108910664Y-35341605D01*
X109137450Y-35976605D02*
X109137450Y-35160177D01*
X109092092Y-35069463D01*
X109001378Y-35024105D01*
X108910664Y-35024105D01*
X108593164Y-35976605D02*
X108593164Y-35341605D01*
X108593164Y-35523034D02*
X108547807Y-35432320D01*
X108502450Y-35386963D01*
X108411735Y-35341605D01*
X108321021Y-35341605D01*
X107867450Y-35976605D02*
X107958164Y-35931248D01*
X108003521Y-35885891D01*
X108048878Y-35795177D01*
X108048878Y-35523034D01*
X108003521Y-35432320D01*
X107958164Y-35386963D01*
X107867450Y-35341605D01*
X107731378Y-35341605D01*
X107640664Y-35386963D01*
X107595307Y-35432320D01*
X107549950Y-35523034D01*
X107549950Y-35795177D01*
X107595307Y-35885891D01*
X107640664Y-35931248D01*
X107731378Y-35976605D01*
X107867450Y-35976605D01*
X107141735Y-35976605D02*
X107141735Y-35341605D01*
X107141735Y-35432320D02*
X107096378Y-35386963D01*
X107005664Y-35341605D01*
X106869592Y-35341605D01*
X106778878Y-35386963D01*
X106733521Y-35477677D01*
X106733521Y-35976605D01*
X106733521Y-35477677D02*
X106688164Y-35386963D01*
X106597450Y-35341605D01*
X106461378Y-35341605D01*
X106370664Y-35386963D01*
X106325307Y-35477677D01*
X106325307Y-35976605D01*
X105282092Y-35341605D02*
X104919235Y-35341605D01*
X105146021Y-35024105D02*
X105146021Y-35840534D01*
X105100664Y-35931248D01*
X105009950Y-35976605D01*
X104919235Y-35976605D01*
X104601735Y-35976605D02*
X104601735Y-35024105D01*
X104193521Y-35976605D02*
X104193521Y-35477677D01*
X104238878Y-35386963D01*
X104329592Y-35341605D01*
X104465664Y-35341605D01*
X104556378Y-35386963D01*
X104601735Y-35432320D01*
X103377092Y-35931248D02*
X103467807Y-35976605D01*
X103649235Y-35976605D01*
X103739950Y-35931248D01*
X103785307Y-35840534D01*
X103785307Y-35477677D01*
X103739950Y-35386963D01*
X103649235Y-35341605D01*
X103467807Y-35341605D01*
X103377092Y-35386963D01*
X103331735Y-35477677D01*
X103331735Y-35568391D01*
X103785307Y-35659105D01*
X102243164Y-35931248D02*
X102107092Y-35976605D01*
X101880307Y-35976605D01*
X101789592Y-35931248D01*
X101744235Y-35885891D01*
X101698878Y-35795177D01*
X101698878Y-35704463D01*
X101744235Y-35613748D01*
X101789592Y-35568391D01*
X101880307Y-35523034D01*
X102061735Y-35477677D01*
X102152450Y-35432320D01*
X102197807Y-35386963D01*
X102243164Y-35296248D01*
X102243164Y-35205534D01*
X102197807Y-35114820D01*
X102152450Y-35069463D01*
X102061735Y-35024105D01*
X101834950Y-35024105D01*
X101698878Y-35069463D01*
X101290664Y-35341605D02*
X101290664Y-35976605D01*
X101290664Y-35432320D02*
X101245307Y-35386963D01*
X101154592Y-35341605D01*
X101018521Y-35341605D01*
X100927807Y-35386963D01*
X100882450Y-35477677D01*
X100882450Y-35976605D01*
X100020664Y-35976605D02*
X100020664Y-35477677D01*
X100066021Y-35386963D01*
X100156735Y-35341605D01*
X100338164Y-35341605D01*
X100428878Y-35386963D01*
X100020664Y-35931248D02*
X100111378Y-35976605D01*
X100338164Y-35976605D01*
X100428878Y-35931248D01*
X100474235Y-35840534D01*
X100474235Y-35749820D01*
X100428878Y-35659105D01*
X100338164Y-35613748D01*
X100111378Y-35613748D01*
X100020664Y-35568391D01*
X99567092Y-35976605D02*
X99567092Y-35341605D01*
X99567092Y-35523034D02*
X99521735Y-35432320D01*
X99476378Y-35386963D01*
X99385664Y-35341605D01*
X99294950Y-35341605D01*
X98977450Y-35976605D02*
X98977450Y-35024105D01*
X98886735Y-35613748D02*
X98614592Y-35976605D01*
X98614592Y-35341605D02*
X98977450Y-35704463D01*
X97163164Y-35477677D02*
X97027092Y-35523034D01*
X96981735Y-35568391D01*
X96936378Y-35659105D01*
X96936378Y-35795177D01*
X96981735Y-35885891D01*
X97027092Y-35931248D01*
X97117807Y-35976605D01*
X97480664Y-35976605D01*
X97480664Y-35024105D01*
X97163164Y-35024105D01*
X97072450Y-35069463D01*
X97027092Y-35114820D01*
X96981735Y-35205534D01*
X96981735Y-35296248D01*
X97027092Y-35386963D01*
X97072450Y-35432320D01*
X97163164Y-35477677D01*
X97480664Y-35477677D01*
X96119950Y-35976605D02*
X96119950Y-35477677D01*
X96165307Y-35386963D01*
X96256021Y-35341605D01*
X96437450Y-35341605D01*
X96528164Y-35386963D01*
X96119950Y-35931248D02*
X96210664Y-35976605D01*
X96437450Y-35976605D01*
X96528164Y-35931248D01*
X96573521Y-35840534D01*
X96573521Y-35749820D01*
X96528164Y-35659105D01*
X96437450Y-35613748D01*
X96210664Y-35613748D01*
X96119950Y-35568391D01*
X95666378Y-35976605D02*
X95666378Y-35341605D01*
X95666378Y-35523034D02*
X95621021Y-35432320D01*
X95575664Y-35386963D01*
X95484950Y-35341605D01*
X95394235Y-35341605D01*
X95076735Y-35976605D02*
X95076735Y-35024105D01*
X94986021Y-35613748D02*
X94713878Y-35976605D01*
X94713878Y-35341605D02*
X95076735Y-35704463D01*
X93942807Y-35931248D02*
X94033521Y-35976605D01*
X94214950Y-35976605D01*
X94305664Y-35931248D01*
X94351021Y-35840534D01*
X94351021Y-35477677D01*
X94305664Y-35386963D01*
X94214950Y-35341605D01*
X94033521Y-35341605D01*
X93942807Y-35386963D01*
X93897450Y-35477677D01*
X93897450Y-35568391D01*
X94351021Y-35659105D01*
X93489235Y-35976605D02*
X93489235Y-35341605D01*
X93489235Y-35523034D02*
X93443878Y-35432320D01*
X93398521Y-35386963D01*
X93307807Y-35341605D01*
X93217092Y-35341605D01*
X92854235Y-35931248D02*
X92854235Y-35976605D01*
X92899592Y-36067320D01*
X92944950Y-36112677D01*
X92899592Y-35386963D02*
X92854235Y-35432320D01*
X92899592Y-35477677D01*
X92944950Y-35432320D01*
X92899592Y-35386963D01*
X92899592Y-35477677D01*
X122291021Y-37464773D02*
X122381735Y-37510130D01*
X122563164Y-37510130D01*
X122653878Y-37464773D01*
X122699235Y-37419416D01*
X122744592Y-37328702D01*
X122744592Y-37056559D01*
X122699235Y-36965845D01*
X122653878Y-36920488D01*
X122563164Y-36875130D01*
X122381735Y-36875130D01*
X122291021Y-36920488D01*
X121746735Y-37510130D02*
X121837450Y-37464773D01*
X121882807Y-37419416D01*
X121928164Y-37328702D01*
X121928164Y-37056559D01*
X121882807Y-36965845D01*
X121837450Y-36920488D01*
X121746735Y-36875130D01*
X121610664Y-36875130D01*
X121519950Y-36920488D01*
X121474592Y-36965845D01*
X121429235Y-37056559D01*
X121429235Y-37328702D01*
X121474592Y-37419416D01*
X121519950Y-37464773D01*
X121610664Y-37510130D01*
X121746735Y-37510130D01*
X121021021Y-36875130D02*
X121021021Y-37827630D01*
X121021021Y-36920488D02*
X120930307Y-36875130D01*
X120748878Y-36875130D01*
X120658164Y-36920488D01*
X120612807Y-36965845D01*
X120567450Y-37056559D01*
X120567450Y-37328702D01*
X120612807Y-37419416D01*
X120658164Y-37464773D01*
X120748878Y-37510130D01*
X120930307Y-37510130D01*
X121021021Y-37464773D01*
X120159235Y-37510130D02*
X120159235Y-36875130D01*
X120159235Y-36557630D02*
X120204592Y-36602988D01*
X120159235Y-36648345D01*
X120113878Y-36602988D01*
X120159235Y-36557630D01*
X120159235Y-36648345D01*
X119569592Y-37510130D02*
X119660307Y-37464773D01*
X119705664Y-37419416D01*
X119751021Y-37328702D01*
X119751021Y-37056559D01*
X119705664Y-36965845D01*
X119660307Y-36920488D01*
X119569592Y-36875130D01*
X119433521Y-36875130D01*
X119342807Y-36920488D01*
X119297450Y-36965845D01*
X119252092Y-37056559D01*
X119252092Y-37328702D01*
X119297450Y-37419416D01*
X119342807Y-37464773D01*
X119433521Y-37510130D01*
X119569592Y-37510130D01*
X118435664Y-36875130D02*
X118435664Y-37510130D01*
X118843878Y-36875130D02*
X118843878Y-37374059D01*
X118798521Y-37464773D01*
X118707807Y-37510130D01*
X118571735Y-37510130D01*
X118481021Y-37464773D01*
X118435664Y-37419416D01*
X118027450Y-37464773D02*
X117936735Y-37510130D01*
X117755307Y-37510130D01*
X117664592Y-37464773D01*
X117619235Y-37374059D01*
X117619235Y-37328702D01*
X117664592Y-37237988D01*
X117755307Y-37192630D01*
X117891378Y-37192630D01*
X117982092Y-37147273D01*
X118027450Y-37056559D01*
X118027450Y-37011202D01*
X117982092Y-36920488D01*
X117891378Y-36875130D01*
X117755307Y-36875130D01*
X117664592Y-36920488D01*
X116621378Y-36875130D02*
X116258521Y-36875130D01*
X116485307Y-37510130D02*
X116485307Y-36693702D01*
X116439950Y-36602988D01*
X116349235Y-36557630D01*
X116258521Y-36557630D01*
X115804950Y-37510130D02*
X115895664Y-37464773D01*
X115941021Y-37419416D01*
X115986378Y-37328702D01*
X115986378Y-37056559D01*
X115941021Y-36965845D01*
X115895664Y-36920488D01*
X115804950Y-36875130D01*
X115668878Y-36875130D01*
X115578164Y-36920488D01*
X115532807Y-36965845D01*
X115487450Y-37056559D01*
X115487450Y-37328702D01*
X115532807Y-37419416D01*
X115578164Y-37464773D01*
X115668878Y-37510130D01*
X115804950Y-37510130D01*
X114943164Y-37510130D02*
X115033878Y-37464773D01*
X115079235Y-37419416D01*
X115124592Y-37328702D01*
X115124592Y-37056559D01*
X115079235Y-36965845D01*
X115033878Y-36920488D01*
X114943164Y-36875130D01*
X114807092Y-36875130D01*
X114716378Y-36920488D01*
X114671021Y-36965845D01*
X114625664Y-37056559D01*
X114625664Y-37328702D01*
X114671021Y-37419416D01*
X114716378Y-37464773D01*
X114807092Y-37510130D01*
X114943164Y-37510130D01*
X114353521Y-36875130D02*
X113990664Y-36875130D01*
X114217450Y-36557630D02*
X114217450Y-37374059D01*
X114172092Y-37464773D01*
X114081378Y-37510130D01*
X113990664Y-37510130D01*
X113673164Y-36875130D02*
X113673164Y-37827630D01*
X113673164Y-36920488D02*
X113582450Y-36875130D01*
X113401021Y-36875130D01*
X113310307Y-36920488D01*
X113264950Y-36965845D01*
X113219592Y-37056559D01*
X113219592Y-37328702D01*
X113264950Y-37419416D01*
X113310307Y-37464773D01*
X113401021Y-37510130D01*
X113582450Y-37510130D01*
X113673164Y-37464773D01*
X112811378Y-37510130D02*
X112811378Y-36875130D01*
X112811378Y-37056559D02*
X112766021Y-36965845D01*
X112720664Y-36920488D01*
X112629950Y-36875130D01*
X112539235Y-36875130D01*
X112221735Y-37510130D02*
X112221735Y-36875130D01*
X112221735Y-36557630D02*
X112267092Y-36602988D01*
X112221735Y-36648345D01*
X112176378Y-36602988D01*
X112221735Y-36557630D01*
X112221735Y-36648345D01*
X111768164Y-36875130D02*
X111768164Y-37510130D01*
X111768164Y-36965845D02*
X111722807Y-36920488D01*
X111632092Y-36875130D01*
X111496021Y-36875130D01*
X111405307Y-36920488D01*
X111359950Y-37011202D01*
X111359950Y-37510130D01*
X111042450Y-36875130D02*
X110679592Y-36875130D01*
X110906378Y-36557630D02*
X110906378Y-37374059D01*
X110861021Y-37464773D01*
X110770307Y-37510130D01*
X110679592Y-37510130D01*
X110407450Y-37464773D02*
X110316735Y-37510130D01*
X110135307Y-37510130D01*
X110044592Y-37464773D01*
X109999235Y-37374059D01*
X109999235Y-37328702D01*
X110044592Y-37237988D01*
X110135307Y-37192630D01*
X110271378Y-37192630D01*
X110362092Y-37147273D01*
X110407450Y-37056559D01*
X110407450Y-37011202D01*
X110362092Y-36920488D01*
X110271378Y-36875130D01*
X110135307Y-36875130D01*
X110044592Y-36920488D01*
X108457092Y-37510130D02*
X108457092Y-37011202D01*
X108502450Y-36920488D01*
X108593164Y-36875130D01*
X108774592Y-36875130D01*
X108865307Y-36920488D01*
X108457092Y-37464773D02*
X108547807Y-37510130D01*
X108774592Y-37510130D01*
X108865307Y-37464773D01*
X108910664Y-37374059D01*
X108910664Y-37283345D01*
X108865307Y-37192630D01*
X108774592Y-37147273D01*
X108547807Y-37147273D01*
X108457092Y-37101916D01*
X108003521Y-36875130D02*
X108003521Y-37510130D01*
X108003521Y-36965845D02*
X107958164Y-36920488D01*
X107867450Y-36875130D01*
X107731378Y-36875130D01*
X107640664Y-36920488D01*
X107595307Y-37011202D01*
X107595307Y-37510130D01*
X106733521Y-37510130D02*
X106733521Y-36557630D01*
X106733521Y-37464773D02*
X106824235Y-37510130D01*
X107005664Y-37510130D01*
X107096378Y-37464773D01*
X107141735Y-37419416D01*
X107187092Y-37328702D01*
X107187092Y-37056559D01*
X107141735Y-36965845D01*
X107096378Y-36920488D01*
X107005664Y-36875130D01*
X106824235Y-36875130D01*
X106733521Y-36920488D01*
X105599592Y-37464773D02*
X105508878Y-37510130D01*
X105327450Y-37510130D01*
X105236735Y-37464773D01*
X105191378Y-37374059D01*
X105191378Y-37328702D01*
X105236735Y-37237988D01*
X105327450Y-37192630D01*
X105463521Y-37192630D01*
X105554235Y-37147273D01*
X105599592Y-37056559D01*
X105599592Y-37011202D01*
X105554235Y-36920488D01*
X105463521Y-36875130D01*
X105327450Y-36875130D01*
X105236735Y-36920488D01*
X104783164Y-37510130D02*
X104783164Y-36875130D01*
X104783164Y-36557630D02*
X104828521Y-36602988D01*
X104783164Y-36648345D01*
X104737807Y-36602988D01*
X104783164Y-36557630D01*
X104783164Y-36648345D01*
X104193521Y-37510130D02*
X104284235Y-37464773D01*
X104329592Y-37374059D01*
X104329592Y-36557630D01*
X103830664Y-37510130D02*
X103830664Y-36557630D01*
X103739950Y-37147273D02*
X103467807Y-37510130D01*
X103467807Y-36875130D02*
X103830664Y-37237988D01*
X103104950Y-37464773D02*
X103014235Y-37510130D01*
X102832807Y-37510130D01*
X102742092Y-37464773D01*
X102696735Y-37374059D01*
X102696735Y-37328702D01*
X102742092Y-37237988D01*
X102832807Y-37192630D01*
X102968878Y-37192630D01*
X103059592Y-37147273D01*
X103104950Y-37056559D01*
X103104950Y-37011202D01*
X103059592Y-36920488D01*
X102968878Y-36875130D01*
X102832807Y-36875130D01*
X102742092Y-36920488D01*
X101880307Y-37464773D02*
X101971021Y-37510130D01*
X102152450Y-37510130D01*
X102243164Y-37464773D01*
X102288521Y-37419416D01*
X102333878Y-37328702D01*
X102333878Y-37056559D01*
X102288521Y-36965845D01*
X102243164Y-36920488D01*
X102152450Y-36875130D01*
X101971021Y-36875130D01*
X101880307Y-36920488D01*
X101472092Y-37510130D02*
X101472092Y-36875130D01*
X101472092Y-37056559D02*
X101426735Y-36965845D01*
X101381378Y-36920488D01*
X101290664Y-36875130D01*
X101199950Y-36875130D01*
X100519592Y-37464773D02*
X100610307Y-37510130D01*
X100791735Y-37510130D01*
X100882450Y-37464773D01*
X100927807Y-37374059D01*
X100927807Y-37011202D01*
X100882450Y-36920488D01*
X100791735Y-36875130D01*
X100610307Y-36875130D01*
X100519592Y-36920488D01*
X100474235Y-37011202D01*
X100474235Y-37101916D01*
X100927807Y-37192630D01*
X99703164Y-37464773D02*
X99793878Y-37510130D01*
X99975307Y-37510130D01*
X100066021Y-37464773D01*
X100111378Y-37374059D01*
X100111378Y-37011202D01*
X100066021Y-36920488D01*
X99975307Y-36875130D01*
X99793878Y-36875130D01*
X99703164Y-36920488D01*
X99657807Y-37011202D01*
X99657807Y-37101916D01*
X100111378Y-37192630D01*
X99249592Y-36875130D02*
X99249592Y-37510130D01*
X99249592Y-36965845D02*
X99204235Y-36920488D01*
X99113521Y-36875130D01*
X98977450Y-36875130D01*
X98886735Y-36920488D01*
X98841378Y-37011202D01*
X98841378Y-37510130D01*
X124286735Y-38091155D02*
X123742450Y-38091155D01*
X124014592Y-39043655D02*
X124014592Y-38091155D01*
X123424950Y-39043655D02*
X123424950Y-38408655D01*
X123424950Y-38590084D02*
X123379592Y-38499370D01*
X123334235Y-38454013D01*
X123243521Y-38408655D01*
X123152807Y-38408655D01*
X122699235Y-39043655D02*
X122789950Y-38998298D01*
X122835307Y-38952941D01*
X122880664Y-38862227D01*
X122880664Y-38590084D01*
X122835307Y-38499370D01*
X122789950Y-38454013D01*
X122699235Y-38408655D01*
X122563164Y-38408655D01*
X122472450Y-38454013D01*
X122427092Y-38499370D01*
X122381735Y-38590084D01*
X122381735Y-38862227D01*
X122427092Y-38952941D01*
X122472450Y-38998298D01*
X122563164Y-39043655D01*
X122699235Y-39043655D01*
X121973521Y-38408655D02*
X121973521Y-39043655D01*
X121973521Y-38499370D02*
X121928164Y-38454013D01*
X121837450Y-38408655D01*
X121701378Y-38408655D01*
X121610664Y-38454013D01*
X121565307Y-38544727D01*
X121565307Y-39043655D01*
X121111735Y-39043655D02*
X121111735Y-38408655D01*
X121111735Y-38091155D02*
X121157092Y-38136513D01*
X121111735Y-38181870D01*
X121066378Y-38136513D01*
X121111735Y-38091155D01*
X121111735Y-38181870D01*
X120748878Y-39043655D02*
X120249950Y-38408655D01*
X120748878Y-38408655D02*
X120249950Y-39043655D01*
X119161378Y-38680798D02*
X118435664Y-38680798D01*
X117120307Y-39043655D02*
X117211021Y-38998298D01*
X117256378Y-38952941D01*
X117301735Y-38862227D01*
X117301735Y-38590084D01*
X117256378Y-38499370D01*
X117211021Y-38454013D01*
X117120307Y-38408655D01*
X116984235Y-38408655D01*
X116893521Y-38454013D01*
X116848164Y-38499370D01*
X116802807Y-38590084D01*
X116802807Y-38862227D01*
X116848164Y-38952941D01*
X116893521Y-38998298D01*
X116984235Y-39043655D01*
X117120307Y-39043655D01*
X116394592Y-39043655D02*
X116394592Y-38408655D01*
X116394592Y-38590084D02*
X116349235Y-38499370D01*
X116303878Y-38454013D01*
X116213164Y-38408655D01*
X116122450Y-38408655D01*
X115804950Y-39043655D02*
X115804950Y-38408655D01*
X115804950Y-38091155D02*
X115850307Y-38136513D01*
X115804950Y-38181870D01*
X115759592Y-38136513D01*
X115804950Y-38091155D01*
X115804950Y-38181870D01*
X114943164Y-38408655D02*
X114943164Y-39179727D01*
X114988521Y-39270441D01*
X115033878Y-39315798D01*
X115124592Y-39361155D01*
X115260664Y-39361155D01*
X115351378Y-39315798D01*
X114943164Y-38998298D02*
X115033878Y-39043655D01*
X115215307Y-39043655D01*
X115306021Y-38998298D01*
X115351378Y-38952941D01*
X115396735Y-38862227D01*
X115396735Y-38590084D01*
X115351378Y-38499370D01*
X115306021Y-38454013D01*
X115215307Y-38408655D01*
X115033878Y-38408655D01*
X114943164Y-38454013D01*
X114489592Y-39043655D02*
X114489592Y-38408655D01*
X114489592Y-38091155D02*
X114534950Y-38136513D01*
X114489592Y-38181870D01*
X114444235Y-38136513D01*
X114489592Y-38091155D01*
X114489592Y-38181870D01*
X114036021Y-38408655D02*
X114036021Y-39043655D01*
X114036021Y-38499370D02*
X113990664Y-38454013D01*
X113899950Y-38408655D01*
X113763878Y-38408655D01*
X113673164Y-38454013D01*
X113627807Y-38544727D01*
X113627807Y-39043655D01*
X112766021Y-39043655D02*
X112766021Y-38544727D01*
X112811378Y-38454013D01*
X112902092Y-38408655D01*
X113083521Y-38408655D01*
X113174235Y-38454013D01*
X112766021Y-38998298D02*
X112856735Y-39043655D01*
X113083521Y-39043655D01*
X113174235Y-38998298D01*
X113219592Y-38907584D01*
X113219592Y-38816870D01*
X113174235Y-38726155D01*
X113083521Y-38680798D01*
X112856735Y-38680798D01*
X112766021Y-38635441D01*
X112176378Y-39043655D02*
X112267092Y-38998298D01*
X112312450Y-38907584D01*
X112312450Y-38091155D01*
X111223878Y-38408655D02*
X110861021Y-38408655D01*
X111087807Y-38091155D02*
X111087807Y-38907584D01*
X111042450Y-38998298D01*
X110951735Y-39043655D01*
X110861021Y-39043655D01*
X110543521Y-39043655D02*
X110543521Y-38408655D01*
X110543521Y-38590084D02*
X110498164Y-38499370D01*
X110452807Y-38454013D01*
X110362092Y-38408655D01*
X110271378Y-38408655D01*
X109545664Y-39043655D02*
X109545664Y-38544727D01*
X109591021Y-38454013D01*
X109681735Y-38408655D01*
X109863164Y-38408655D01*
X109953878Y-38454013D01*
X109545664Y-38998298D02*
X109636378Y-39043655D01*
X109863164Y-39043655D01*
X109953878Y-38998298D01*
X109999235Y-38907584D01*
X109999235Y-38816870D01*
X109953878Y-38726155D01*
X109863164Y-38680798D01*
X109636378Y-38680798D01*
X109545664Y-38635441D01*
X109092092Y-38408655D02*
X109092092Y-39043655D01*
X109092092Y-38499370D02*
X109046735Y-38454013D01*
X108956021Y-38408655D01*
X108819950Y-38408655D01*
X108729235Y-38454013D01*
X108683878Y-38544727D01*
X108683878Y-39043655D01*
X108275664Y-38998298D02*
X108184950Y-39043655D01*
X108003521Y-39043655D01*
X107912807Y-38998298D01*
X107867450Y-38907584D01*
X107867450Y-38862227D01*
X107912807Y-38771513D01*
X108003521Y-38726155D01*
X108139592Y-38726155D01*
X108230307Y-38680798D01*
X108275664Y-38590084D01*
X108275664Y-38544727D01*
X108230307Y-38454013D01*
X108139592Y-38408655D01*
X108003521Y-38408655D01*
X107912807Y-38454013D01*
X107051021Y-38998298D02*
X107141735Y-39043655D01*
X107323164Y-39043655D01*
X107413878Y-38998298D01*
X107459235Y-38952941D01*
X107504592Y-38862227D01*
X107504592Y-38590084D01*
X107459235Y-38499370D01*
X107413878Y-38454013D01*
X107323164Y-38408655D01*
X107141735Y-38408655D01*
X107051021Y-38454013D01*
X106279950Y-38998298D02*
X106370664Y-39043655D01*
X106552092Y-39043655D01*
X106642807Y-38998298D01*
X106688164Y-38907584D01*
X106688164Y-38544727D01*
X106642807Y-38454013D01*
X106552092Y-38408655D01*
X106370664Y-38408655D01*
X106279950Y-38454013D01*
X106234592Y-38544727D01*
X106234592Y-38635441D01*
X106688164Y-38726155D01*
X105826378Y-39043655D02*
X105826378Y-38408655D01*
X105826378Y-38091155D02*
X105871735Y-38136513D01*
X105826378Y-38181870D01*
X105781021Y-38136513D01*
X105826378Y-38091155D01*
X105826378Y-38181870D01*
X105463521Y-38408655D02*
X105236735Y-39043655D01*
X105009950Y-38408655D01*
X104284235Y-38998298D02*
X104374950Y-39043655D01*
X104556378Y-39043655D01*
X104647092Y-38998298D01*
X104692450Y-38907584D01*
X104692450Y-38544727D01*
X104647092Y-38454013D01*
X104556378Y-38408655D01*
X104374950Y-38408655D01*
X104284235Y-38454013D01*
X104238878Y-38544727D01*
X104238878Y-38635441D01*
X104692450Y-38726155D01*
X103830664Y-39043655D02*
X103830664Y-38408655D01*
X103830664Y-38590084D02*
X103785307Y-38499370D01*
X103739950Y-38454013D01*
X103649235Y-38408655D01*
X103558521Y-38408655D01*
X102560664Y-38045798D02*
X103377092Y-39270441D01*
X102243164Y-39043655D02*
X102243164Y-38408655D01*
X102243164Y-38590084D02*
X102197807Y-38499370D01*
X102152450Y-38454013D01*
X102061735Y-38408655D01*
X101971021Y-38408655D01*
X101290664Y-38998298D02*
X101381378Y-39043655D01*
X101562807Y-39043655D01*
X101653521Y-38998298D01*
X101698878Y-38907584D01*
X101698878Y-38544727D01*
X101653521Y-38454013D01*
X101562807Y-38408655D01*
X101381378Y-38408655D01*
X101290664Y-38454013D01*
X101245307Y-38544727D01*
X101245307Y-38635441D01*
X101698878Y-38726155D01*
X100428878Y-38408655D02*
X100428878Y-39179727D01*
X100474235Y-39270441D01*
X100519592Y-39315798D01*
X100610307Y-39361155D01*
X100746378Y-39361155D01*
X100837092Y-39315798D01*
X100428878Y-38998298D02*
X100519592Y-39043655D01*
X100701021Y-39043655D01*
X100791735Y-38998298D01*
X100837092Y-38952941D01*
X100882450Y-38862227D01*
X100882450Y-38590084D01*
X100837092Y-38499370D01*
X100791735Y-38454013D01*
X100701021Y-38408655D01*
X100519592Y-38408655D01*
X100428878Y-38454013D01*
X99975307Y-39043655D02*
X99975307Y-38408655D01*
X99975307Y-38091155D02*
X100020664Y-38136513D01*
X99975307Y-38181870D01*
X99929950Y-38136513D01*
X99975307Y-38091155D01*
X99975307Y-38181870D01*
X99567092Y-38998298D02*
X99476378Y-39043655D01*
X99294950Y-39043655D01*
X99204235Y-38998298D01*
X99158878Y-38907584D01*
X99158878Y-38862227D01*
X99204235Y-38771513D01*
X99294950Y-38726155D01*
X99431021Y-38726155D01*
X99521735Y-38680798D01*
X99567092Y-38590084D01*
X99567092Y-38544727D01*
X99521735Y-38454013D01*
X99431021Y-38408655D01*
X99294950Y-38408655D01*
X99204235Y-38454013D01*
X98886735Y-38408655D02*
X98523878Y-38408655D01*
X98750664Y-38091155D02*
X98750664Y-38907584D01*
X98705307Y-38998298D01*
X98614592Y-39043655D01*
X98523878Y-39043655D01*
X97843521Y-38998298D02*
X97934235Y-39043655D01*
X98115664Y-39043655D01*
X98206378Y-38998298D01*
X98251735Y-38907584D01*
X98251735Y-38544727D01*
X98206378Y-38454013D01*
X98115664Y-38408655D01*
X97934235Y-38408655D01*
X97843521Y-38454013D01*
X97798164Y-38544727D01*
X97798164Y-38635441D01*
X98251735Y-38726155D01*
X97389950Y-39043655D02*
X97389950Y-38408655D01*
X97389950Y-38590084D02*
X97344592Y-38499370D01*
X97299235Y-38454013D01*
X97208521Y-38408655D01*
X97117807Y-38408655D01*
X122563164Y-40577180D02*
X122653878Y-40531823D01*
X122699235Y-40441109D01*
X122699235Y-39624680D01*
X122064235Y-40577180D02*
X122154950Y-40531823D01*
X122200307Y-40486466D01*
X122245664Y-40395752D01*
X122245664Y-40123609D01*
X122200307Y-40032895D01*
X122154950Y-39987538D01*
X122064235Y-39942180D01*
X121928164Y-39942180D01*
X121837450Y-39987538D01*
X121792092Y-40032895D01*
X121746735Y-40123609D01*
X121746735Y-40395752D01*
X121792092Y-40486466D01*
X121837450Y-40531823D01*
X121928164Y-40577180D01*
X122064235Y-40577180D01*
X120930307Y-39942180D02*
X120930307Y-40713252D01*
X120975664Y-40803966D01*
X121021021Y-40849323D01*
X121111735Y-40894680D01*
X121247807Y-40894680D01*
X121338521Y-40849323D01*
X120930307Y-40531823D02*
X121021021Y-40577180D01*
X121202450Y-40577180D01*
X121293164Y-40531823D01*
X121338521Y-40486466D01*
X121383878Y-40395752D01*
X121383878Y-40123609D01*
X121338521Y-40032895D01*
X121293164Y-39987538D01*
X121202450Y-39942180D01*
X121021021Y-39942180D01*
X120930307Y-39987538D01*
X120476735Y-40577180D02*
X120476735Y-39942180D01*
X120476735Y-39624680D02*
X120522092Y-39670038D01*
X120476735Y-39715395D01*
X120431378Y-39670038D01*
X120476735Y-39624680D01*
X120476735Y-39715395D01*
X119614950Y-40531823D02*
X119705664Y-40577180D01*
X119887092Y-40577180D01*
X119977807Y-40531823D01*
X120023164Y-40486466D01*
X120068521Y-40395752D01*
X120068521Y-40123609D01*
X120023164Y-40032895D01*
X119977807Y-39987538D01*
X119887092Y-39942180D01*
X119705664Y-39942180D01*
X119614950Y-39987538D01*
X118617092Y-39942180D02*
X118254235Y-39942180D01*
X118481021Y-40577180D02*
X118481021Y-39760752D01*
X118435664Y-39670038D01*
X118344950Y-39624680D01*
X118254235Y-39624680D01*
X117800664Y-40577180D02*
X117891378Y-40531823D01*
X117936735Y-40486466D01*
X117982092Y-40395752D01*
X117982092Y-40123609D01*
X117936735Y-40032895D01*
X117891378Y-39987538D01*
X117800664Y-39942180D01*
X117664592Y-39942180D01*
X117573878Y-39987538D01*
X117528521Y-40032895D01*
X117483164Y-40123609D01*
X117483164Y-40395752D01*
X117528521Y-40486466D01*
X117573878Y-40531823D01*
X117664592Y-40577180D01*
X117800664Y-40577180D01*
X117074950Y-40577180D02*
X117074950Y-39942180D01*
X117074950Y-40123609D02*
X117029592Y-40032895D01*
X116984235Y-39987538D01*
X116893521Y-39942180D01*
X116802807Y-39942180D01*
X115351378Y-40531823D02*
X115442092Y-40577180D01*
X115623521Y-40577180D01*
X115714235Y-40531823D01*
X115759592Y-40486466D01*
X115804950Y-40395752D01*
X115804950Y-40123609D01*
X115759592Y-40032895D01*
X115714235Y-39987538D01*
X115623521Y-39942180D01*
X115442092Y-39942180D01*
X115351378Y-39987538D01*
X114534950Y-40577180D02*
X114534950Y-40078252D01*
X114580307Y-39987538D01*
X114671021Y-39942180D01*
X114852450Y-39942180D01*
X114943164Y-39987538D01*
X114534950Y-40531823D02*
X114625664Y-40577180D01*
X114852450Y-40577180D01*
X114943164Y-40531823D01*
X114988521Y-40441109D01*
X114988521Y-40350395D01*
X114943164Y-40259680D01*
X114852450Y-40214323D01*
X114625664Y-40214323D01*
X114534950Y-40168966D01*
X114081378Y-40577180D02*
X114081378Y-39942180D01*
X114081378Y-40123609D02*
X114036021Y-40032895D01*
X113990664Y-39987538D01*
X113899950Y-39942180D01*
X113809235Y-39942180D01*
X113083521Y-40577180D02*
X113083521Y-39624680D01*
X113083521Y-40531823D02*
X113174235Y-40577180D01*
X113355664Y-40577180D01*
X113446378Y-40531823D01*
X113491735Y-40486466D01*
X113537092Y-40395752D01*
X113537092Y-40123609D01*
X113491735Y-40032895D01*
X113446378Y-39987538D01*
X113355664Y-39942180D01*
X113174235Y-39942180D01*
X113083521Y-39987538D01*
X111496021Y-40577180D02*
X111496021Y-39624680D01*
X111496021Y-40531823D02*
X111586735Y-40577180D01*
X111768164Y-40577180D01*
X111858878Y-40531823D01*
X111904235Y-40486466D01*
X111949592Y-40395752D01*
X111949592Y-40123609D01*
X111904235Y-40032895D01*
X111858878Y-39987538D01*
X111768164Y-39942180D01*
X111586735Y-39942180D01*
X111496021Y-39987538D01*
X110679592Y-40531823D02*
X110770307Y-40577180D01*
X110951735Y-40577180D01*
X111042450Y-40531823D01*
X111087807Y-40441109D01*
X111087807Y-40078252D01*
X111042450Y-39987538D01*
X110951735Y-39942180D01*
X110770307Y-39942180D01*
X110679592Y-39987538D01*
X110634235Y-40078252D01*
X110634235Y-40168966D01*
X111087807Y-40259680D01*
X110362092Y-39942180D02*
X109999235Y-39942180D01*
X110226021Y-39624680D02*
X110226021Y-40441109D01*
X110180664Y-40531823D01*
X110089950Y-40577180D01*
X109999235Y-40577180D01*
X109318878Y-40531823D02*
X109409592Y-40577180D01*
X109591021Y-40577180D01*
X109681735Y-40531823D01*
X109727092Y-40441109D01*
X109727092Y-40078252D01*
X109681735Y-39987538D01*
X109591021Y-39942180D01*
X109409592Y-39942180D01*
X109318878Y-39987538D01*
X109273521Y-40078252D01*
X109273521Y-40168966D01*
X109727092Y-40259680D01*
X108457092Y-40531823D02*
X108547807Y-40577180D01*
X108729235Y-40577180D01*
X108819950Y-40531823D01*
X108865307Y-40486466D01*
X108910664Y-40395752D01*
X108910664Y-40123609D01*
X108865307Y-40032895D01*
X108819950Y-39987538D01*
X108729235Y-39942180D01*
X108547807Y-39942180D01*
X108457092Y-39987538D01*
X108184950Y-39942180D02*
X107822092Y-39942180D01*
X108048878Y-39624680D02*
X108048878Y-40441109D01*
X108003521Y-40531823D01*
X107912807Y-40577180D01*
X107822092Y-40577180D01*
X107504592Y-40577180D02*
X107504592Y-39942180D01*
X107504592Y-39624680D02*
X107549950Y-39670038D01*
X107504592Y-39715395D01*
X107459235Y-39670038D01*
X107504592Y-39624680D01*
X107504592Y-39715395D01*
X106914950Y-40577180D02*
X107005664Y-40531823D01*
X107051021Y-40486466D01*
X107096378Y-40395752D01*
X107096378Y-40123609D01*
X107051021Y-40032895D01*
X107005664Y-39987538D01*
X106914950Y-39942180D01*
X106778878Y-39942180D01*
X106688164Y-39987538D01*
X106642807Y-40032895D01*
X106597450Y-40123609D01*
X106597450Y-40395752D01*
X106642807Y-40486466D01*
X106688164Y-40531823D01*
X106778878Y-40577180D01*
X106914950Y-40577180D01*
X106189235Y-39942180D02*
X106189235Y-40577180D01*
X106189235Y-40032895D02*
X106143878Y-39987538D01*
X106053164Y-39942180D01*
X105917092Y-39942180D01*
X105826378Y-39987538D01*
X105781021Y-40078252D01*
X105781021Y-40577180D01*
X124196021Y-42065348D02*
X124105307Y-42110705D01*
X123923878Y-42110705D01*
X123833164Y-42065348D01*
X123787807Y-41974634D01*
X123787807Y-41929277D01*
X123833164Y-41838563D01*
X123923878Y-41793205D01*
X124059950Y-41793205D01*
X124150664Y-41747848D01*
X124196021Y-41657134D01*
X124196021Y-41611777D01*
X124150664Y-41521063D01*
X124059950Y-41475705D01*
X123923878Y-41475705D01*
X123833164Y-41521063D01*
X123016735Y-42065348D02*
X123107450Y-42110705D01*
X123288878Y-42110705D01*
X123379592Y-42065348D01*
X123424950Y-41974634D01*
X123424950Y-41611777D01*
X123379592Y-41521063D01*
X123288878Y-41475705D01*
X123107450Y-41475705D01*
X123016735Y-41521063D01*
X122971378Y-41611777D01*
X122971378Y-41702491D01*
X123424950Y-41793205D01*
X122154950Y-42110705D02*
X122154950Y-41611777D01*
X122200307Y-41521063D01*
X122291021Y-41475705D01*
X122472450Y-41475705D01*
X122563164Y-41521063D01*
X122154950Y-42065348D02*
X122245664Y-42110705D01*
X122472450Y-42110705D01*
X122563164Y-42065348D01*
X122608521Y-41974634D01*
X122608521Y-41883920D01*
X122563164Y-41793205D01*
X122472450Y-41747848D01*
X122245664Y-41747848D01*
X122154950Y-41702491D01*
X121837450Y-41475705D02*
X121474592Y-41475705D01*
X121701378Y-41158205D02*
X121701378Y-41974634D01*
X121656021Y-42065348D01*
X121565307Y-42110705D01*
X121474592Y-42110705D01*
X120476735Y-42065348D02*
X120386021Y-42110705D01*
X120204592Y-42110705D01*
X120113878Y-42065348D01*
X120068521Y-41974634D01*
X120068521Y-41929277D01*
X120113878Y-41838563D01*
X120204592Y-41793205D01*
X120340664Y-41793205D01*
X120431378Y-41747848D01*
X120476735Y-41657134D01*
X120476735Y-41611777D01*
X120431378Y-41521063D01*
X120340664Y-41475705D01*
X120204592Y-41475705D01*
X120113878Y-41521063D01*
X119252092Y-42110705D02*
X119252092Y-41611777D01*
X119297450Y-41521063D01*
X119388164Y-41475705D01*
X119569592Y-41475705D01*
X119660307Y-41521063D01*
X119252092Y-42065348D02*
X119342807Y-42110705D01*
X119569592Y-42110705D01*
X119660307Y-42065348D01*
X119705664Y-41974634D01*
X119705664Y-41883920D01*
X119660307Y-41793205D01*
X119569592Y-41747848D01*
X119342807Y-41747848D01*
X119252092Y-41702491D01*
X118934592Y-41475705D02*
X118571735Y-41475705D01*
X118798521Y-42110705D02*
X118798521Y-41294277D01*
X118753164Y-41203563D01*
X118662450Y-41158205D01*
X118571735Y-41158205D01*
X117891378Y-42065348D02*
X117982092Y-42110705D01*
X118163521Y-42110705D01*
X118254235Y-42065348D01*
X118299592Y-41974634D01*
X118299592Y-41611777D01*
X118254235Y-41521063D01*
X118163521Y-41475705D01*
X117982092Y-41475705D01*
X117891378Y-41521063D01*
X117846021Y-41611777D01*
X117846021Y-41702491D01*
X118299592Y-41793205D01*
X117573878Y-41475705D02*
X117211021Y-41475705D01*
X117437807Y-41158205D02*
X117437807Y-41974634D01*
X117392450Y-42065348D01*
X117301735Y-42110705D01*
X117211021Y-42110705D01*
X116984235Y-41475705D02*
X116757450Y-42110705D01*
X116530664Y-41475705D02*
X116757450Y-42110705D01*
X116848164Y-42337491D01*
X116893521Y-42382848D01*
X116984235Y-42428205D01*
X115487450Y-42065348D02*
X115396735Y-42110705D01*
X115215307Y-42110705D01*
X115124592Y-42065348D01*
X115079235Y-41974634D01*
X115079235Y-41929277D01*
X115124592Y-41838563D01*
X115215307Y-41793205D01*
X115351378Y-41793205D01*
X115442092Y-41747848D01*
X115487450Y-41657134D01*
X115487450Y-41611777D01*
X115442092Y-41521063D01*
X115351378Y-41475705D01*
X115215307Y-41475705D01*
X115124592Y-41521063D01*
X114761735Y-41475705D02*
X114580307Y-42110705D01*
X114398878Y-41657134D01*
X114217450Y-42110705D01*
X114036021Y-41475705D01*
X113673164Y-42110705D02*
X113673164Y-41475705D01*
X113673164Y-41158205D02*
X113718521Y-41203563D01*
X113673164Y-41248920D01*
X113627807Y-41203563D01*
X113673164Y-41158205D01*
X113673164Y-41248920D01*
X113355664Y-41475705D02*
X112992807Y-41475705D01*
X113219592Y-41158205D02*
X113219592Y-41974634D01*
X113174235Y-42065348D01*
X113083521Y-42110705D01*
X112992807Y-42110705D01*
X112267092Y-42065348D02*
X112357807Y-42110705D01*
X112539235Y-42110705D01*
X112629950Y-42065348D01*
X112675307Y-42019991D01*
X112720664Y-41929277D01*
X112720664Y-41657134D01*
X112675307Y-41566420D01*
X112629950Y-41521063D01*
X112539235Y-41475705D01*
X112357807Y-41475705D01*
X112267092Y-41521063D01*
X111858878Y-42110705D02*
X111858878Y-41158205D01*
X111450664Y-42110705D02*
X111450664Y-41611777D01*
X111496021Y-41521063D01*
X111586735Y-41475705D01*
X111722807Y-41475705D01*
X111813521Y-41521063D01*
X111858878Y-41566420D01*
X110271378Y-41747848D02*
X109545664Y-41747848D01*
X107958164Y-41475705D02*
X107958164Y-42246777D01*
X108003521Y-42337491D01*
X108048878Y-42382848D01*
X108139592Y-42428205D01*
X108275664Y-42428205D01*
X108366378Y-42382848D01*
X107958164Y-42065348D02*
X108048878Y-42110705D01*
X108230307Y-42110705D01*
X108321021Y-42065348D01*
X108366378Y-42019991D01*
X108411735Y-41929277D01*
X108411735Y-41657134D01*
X108366378Y-41566420D01*
X108321021Y-41521063D01*
X108230307Y-41475705D01*
X108048878Y-41475705D01*
X107958164Y-41521063D01*
X107141735Y-42065348D02*
X107232450Y-42110705D01*
X107413878Y-42110705D01*
X107504592Y-42065348D01*
X107549950Y-41974634D01*
X107549950Y-41611777D01*
X107504592Y-41521063D01*
X107413878Y-41475705D01*
X107232450Y-41475705D01*
X107141735Y-41521063D01*
X107096378Y-41611777D01*
X107096378Y-41702491D01*
X107549950Y-41793205D01*
X106688164Y-41475705D02*
X106688164Y-42110705D01*
X106688164Y-41566420D02*
X106642807Y-41521063D01*
X106552092Y-41475705D01*
X106416021Y-41475705D01*
X106325307Y-41521063D01*
X106279950Y-41611777D01*
X106279950Y-42110705D01*
X105463521Y-42065348D02*
X105554235Y-42110705D01*
X105735664Y-42110705D01*
X105826378Y-42065348D01*
X105871735Y-41974634D01*
X105871735Y-41611777D01*
X105826378Y-41521063D01*
X105735664Y-41475705D01*
X105554235Y-41475705D01*
X105463521Y-41521063D01*
X105418164Y-41611777D01*
X105418164Y-41702491D01*
X105871735Y-41793205D01*
X105009950Y-42110705D02*
X105009950Y-41475705D01*
X105009950Y-41657134D02*
X104964592Y-41566420D01*
X104919235Y-41521063D01*
X104828521Y-41475705D01*
X104737807Y-41475705D01*
X104012092Y-42110705D02*
X104012092Y-41611777D01*
X104057450Y-41521063D01*
X104148164Y-41475705D01*
X104329592Y-41475705D01*
X104420307Y-41521063D01*
X104012092Y-42065348D02*
X104102807Y-42110705D01*
X104329592Y-42110705D01*
X104420307Y-42065348D01*
X104465664Y-41974634D01*
X104465664Y-41883920D01*
X104420307Y-41793205D01*
X104329592Y-41747848D01*
X104102807Y-41747848D01*
X104012092Y-41702491D01*
X103422450Y-42110705D02*
X103513164Y-42065348D01*
X103558521Y-41974634D01*
X103558521Y-41158205D01*
X102923521Y-42110705D02*
X103014235Y-42065348D01*
X103059592Y-41974634D01*
X103059592Y-41158205D01*
X102651378Y-41475705D02*
X102424592Y-42110705D01*
X102197807Y-41475705D02*
X102424592Y-42110705D01*
X102515307Y-42337491D01*
X102560664Y-42382848D01*
X102651378Y-42428205D01*
X101109235Y-42110705D02*
X101109235Y-41158205D01*
X101109235Y-41521063D02*
X101018521Y-41475705D01*
X100837092Y-41475705D01*
X100746378Y-41521063D01*
X100701021Y-41566420D01*
X100655664Y-41657134D01*
X100655664Y-41929277D01*
X100701021Y-42019991D01*
X100746378Y-42065348D01*
X100837092Y-42110705D01*
X101018521Y-42110705D01*
X101109235Y-42065348D01*
X99884592Y-42065348D02*
X99975307Y-42110705D01*
X100156735Y-42110705D01*
X100247450Y-42065348D01*
X100292807Y-41974634D01*
X100292807Y-41611777D01*
X100247450Y-41521063D01*
X100156735Y-41475705D01*
X99975307Y-41475705D01*
X99884592Y-41521063D01*
X99839235Y-41611777D01*
X99839235Y-41702491D01*
X100292807Y-41793205D01*
X99431021Y-42110705D02*
X99431021Y-41475705D01*
X99431021Y-41158205D02*
X99476378Y-41203563D01*
X99431021Y-41248920D01*
X99385664Y-41203563D01*
X99431021Y-41158205D01*
X99431021Y-41248920D01*
X98977450Y-41475705D02*
X98977450Y-42110705D01*
X98977450Y-41566420D02*
X98932092Y-41521063D01*
X98841378Y-41475705D01*
X98705307Y-41475705D01*
X98614592Y-41521063D01*
X98569235Y-41611777D01*
X98569235Y-42110705D01*
X97707450Y-41475705D02*
X97707450Y-42246777D01*
X97752807Y-42337491D01*
X97798164Y-42382848D01*
X97888878Y-42428205D01*
X98024950Y-42428205D01*
X98115664Y-42382848D01*
X97707450Y-42065348D02*
X97798164Y-42110705D01*
X97979592Y-42110705D01*
X98070307Y-42065348D01*
X98115664Y-42019991D01*
X98161021Y-41929277D01*
X98161021Y-41657134D01*
X98115664Y-41566420D01*
X98070307Y-41521063D01*
X97979592Y-41475705D01*
X97798164Y-41475705D01*
X97707450Y-41521063D01*
X96119950Y-42110705D02*
X96119950Y-41611777D01*
X96165307Y-41521063D01*
X96256021Y-41475705D01*
X96437450Y-41475705D01*
X96528164Y-41521063D01*
X96119950Y-42065348D02*
X96210664Y-42110705D01*
X96437450Y-42110705D01*
X96528164Y-42065348D01*
X96573521Y-41974634D01*
X96573521Y-41883920D01*
X96528164Y-41793205D01*
X96437450Y-41747848D01*
X96210664Y-41747848D01*
X96119950Y-41702491D01*
X122744592Y-43598873D02*
X122653878Y-43644230D01*
X122472450Y-43644230D01*
X122381735Y-43598873D01*
X122336378Y-43508159D01*
X122336378Y-43462802D01*
X122381735Y-43372088D01*
X122472450Y-43326730D01*
X122608521Y-43326730D01*
X122699235Y-43281373D01*
X122744592Y-43190659D01*
X122744592Y-43145302D01*
X122699235Y-43054588D01*
X122608521Y-43009230D01*
X122472450Y-43009230D01*
X122381735Y-43054588D01*
X121928164Y-43644230D02*
X121928164Y-42691730D01*
X121519950Y-43644230D02*
X121519950Y-43145302D01*
X121565307Y-43054588D01*
X121656021Y-43009230D01*
X121792092Y-43009230D01*
X121882807Y-43054588D01*
X121928164Y-43099945D01*
X121066378Y-43644230D02*
X121066378Y-43009230D01*
X121066378Y-42691730D02*
X121111735Y-42737088D01*
X121066378Y-42782445D01*
X121021021Y-42737088D01*
X121066378Y-42691730D01*
X121066378Y-42782445D01*
X120748878Y-43009230D02*
X120386021Y-43009230D01*
X120612807Y-42691730D02*
X120612807Y-43508159D01*
X120567450Y-43598873D01*
X120476735Y-43644230D01*
X120386021Y-43644230D01*
X120068521Y-43644230D02*
X120068521Y-42691730D01*
X119660307Y-43644230D02*
X119660307Y-43145302D01*
X119705664Y-43054588D01*
X119796378Y-43009230D01*
X119932450Y-43009230D01*
X120023164Y-43054588D01*
X120068521Y-43099945D01*
X118843878Y-43598873D02*
X118934592Y-43644230D01*
X119116021Y-43644230D01*
X119206735Y-43598873D01*
X119252092Y-43508159D01*
X119252092Y-43145302D01*
X119206735Y-43054588D01*
X119116021Y-43009230D01*
X118934592Y-43009230D01*
X118843878Y-43054588D01*
X118798521Y-43145302D01*
X118798521Y-43236016D01*
X119252092Y-43326730D01*
X117982092Y-43644230D02*
X117982092Y-43145302D01*
X118027450Y-43054588D01*
X118118164Y-43009230D01*
X118299592Y-43009230D01*
X118390307Y-43054588D01*
X117982092Y-43598873D02*
X118072807Y-43644230D01*
X118299592Y-43644230D01*
X118390307Y-43598873D01*
X118435664Y-43508159D01*
X118435664Y-43417445D01*
X118390307Y-43326730D01*
X118299592Y-43281373D01*
X118072807Y-43281373D01*
X117982092Y-43236016D01*
X117120307Y-43644230D02*
X117120307Y-42691730D01*
X117120307Y-43598873D02*
X117211021Y-43644230D01*
X117392450Y-43644230D01*
X117483164Y-43598873D01*
X117528521Y-43553516D01*
X117573878Y-43462802D01*
X117573878Y-43190659D01*
X117528521Y-43099945D01*
X117483164Y-43054588D01*
X117392450Y-43009230D01*
X117211021Y-43009230D01*
X117120307Y-43054588D01*
X115532807Y-43644230D02*
X115532807Y-43145302D01*
X115578164Y-43054588D01*
X115668878Y-43009230D01*
X115850307Y-43009230D01*
X115941021Y-43054588D01*
X115532807Y-43598873D02*
X115623521Y-43644230D01*
X115850307Y-43644230D01*
X115941021Y-43598873D01*
X115986378Y-43508159D01*
X115986378Y-43417445D01*
X115941021Y-43326730D01*
X115850307Y-43281373D01*
X115623521Y-43281373D01*
X115532807Y-43236016D01*
X115079235Y-43009230D02*
X115079235Y-43644230D01*
X115079235Y-43099945D02*
X115033878Y-43054588D01*
X114943164Y-43009230D01*
X114807092Y-43009230D01*
X114716378Y-43054588D01*
X114671021Y-43145302D01*
X114671021Y-43644230D01*
X113809235Y-43644230D02*
X113809235Y-42691730D01*
X113809235Y-43598873D02*
X113899950Y-43644230D01*
X114081378Y-43644230D01*
X114172092Y-43598873D01*
X114217450Y-43553516D01*
X114262807Y-43462802D01*
X114262807Y-43190659D01*
X114217450Y-43099945D01*
X114172092Y-43054588D01*
X114081378Y-43009230D01*
X113899950Y-43009230D01*
X113809235Y-43054588D01*
X112267092Y-43598873D02*
X112357807Y-43644230D01*
X112539235Y-43644230D01*
X112629950Y-43598873D01*
X112675307Y-43508159D01*
X112675307Y-43145302D01*
X112629950Y-43054588D01*
X112539235Y-43009230D01*
X112357807Y-43009230D01*
X112267092Y-43054588D01*
X112221735Y-43145302D01*
X112221735Y-43236016D01*
X112675307Y-43326730D01*
X111813521Y-43009230D02*
X111813521Y-43644230D01*
X111813521Y-43099945D02*
X111768164Y-43054588D01*
X111677450Y-43009230D01*
X111541378Y-43009230D01*
X111450664Y-43054588D01*
X111405307Y-43145302D01*
X111405307Y-43644230D01*
X110543521Y-43598873D02*
X110634235Y-43644230D01*
X110815664Y-43644230D01*
X110906378Y-43598873D01*
X110951735Y-43553516D01*
X110997092Y-43462802D01*
X110997092Y-43190659D01*
X110951735Y-43099945D01*
X110906378Y-43054588D01*
X110815664Y-43009230D01*
X110634235Y-43009230D01*
X110543521Y-43054588D01*
X109999235Y-43644230D02*
X110089950Y-43598873D01*
X110135307Y-43553516D01*
X110180664Y-43462802D01*
X110180664Y-43190659D01*
X110135307Y-43099945D01*
X110089950Y-43054588D01*
X109999235Y-43009230D01*
X109863164Y-43009230D01*
X109772450Y-43054588D01*
X109727092Y-43099945D01*
X109681735Y-43190659D01*
X109681735Y-43462802D01*
X109727092Y-43553516D01*
X109772450Y-43598873D01*
X109863164Y-43644230D01*
X109999235Y-43644230D01*
X108865307Y-43009230D02*
X108865307Y-43644230D01*
X109273521Y-43009230D02*
X109273521Y-43508159D01*
X109228164Y-43598873D01*
X109137450Y-43644230D01*
X109001378Y-43644230D01*
X108910664Y-43598873D01*
X108865307Y-43553516D01*
X108411735Y-43644230D02*
X108411735Y-43009230D01*
X108411735Y-43190659D02*
X108366378Y-43099945D01*
X108321021Y-43054588D01*
X108230307Y-43009230D01*
X108139592Y-43009230D01*
X107413878Y-43644230D02*
X107413878Y-43145302D01*
X107459235Y-43054588D01*
X107549950Y-43009230D01*
X107731378Y-43009230D01*
X107822092Y-43054588D01*
X107413878Y-43598873D02*
X107504592Y-43644230D01*
X107731378Y-43644230D01*
X107822092Y-43598873D01*
X107867450Y-43508159D01*
X107867450Y-43417445D01*
X107822092Y-43326730D01*
X107731378Y-43281373D01*
X107504592Y-43281373D01*
X107413878Y-43236016D01*
X106552092Y-43009230D02*
X106552092Y-43780302D01*
X106597450Y-43871016D01*
X106642807Y-43916373D01*
X106733521Y-43961730D01*
X106869592Y-43961730D01*
X106960307Y-43916373D01*
X106552092Y-43598873D02*
X106642807Y-43644230D01*
X106824235Y-43644230D01*
X106914950Y-43598873D01*
X106960307Y-43553516D01*
X107005664Y-43462802D01*
X107005664Y-43190659D01*
X106960307Y-43099945D01*
X106914950Y-43054588D01*
X106824235Y-43009230D01*
X106642807Y-43009230D01*
X106552092Y-43054588D01*
X106098521Y-43644230D02*
X106098521Y-43009230D01*
X106098521Y-42691730D02*
X106143878Y-42737088D01*
X106098521Y-42782445D01*
X106053164Y-42737088D01*
X106098521Y-42691730D01*
X106098521Y-42782445D01*
X105644950Y-43009230D02*
X105644950Y-43644230D01*
X105644950Y-43099945D02*
X105599592Y-43054588D01*
X105508878Y-43009230D01*
X105372807Y-43009230D01*
X105282092Y-43054588D01*
X105236735Y-43145302D01*
X105236735Y-43644230D01*
X104374950Y-43009230D02*
X104374950Y-43780302D01*
X104420307Y-43871016D01*
X104465664Y-43916373D01*
X104556378Y-43961730D01*
X104692450Y-43961730D01*
X104783164Y-43916373D01*
X104374950Y-43598873D02*
X104465664Y-43644230D01*
X104647092Y-43644230D01*
X104737807Y-43598873D01*
X104783164Y-43553516D01*
X104828521Y-43462802D01*
X104828521Y-43190659D01*
X104783164Y-43099945D01*
X104737807Y-43054588D01*
X104647092Y-43009230D01*
X104465664Y-43009230D01*
X104374950Y-43054588D01*
X103195664Y-43644230D02*
X103195664Y-43009230D01*
X103195664Y-43099945D02*
X103150307Y-43054588D01*
X103059592Y-43009230D01*
X102923521Y-43009230D01*
X102832807Y-43054588D01*
X102787450Y-43145302D01*
X102787450Y-43644230D01*
X102787450Y-43145302D02*
X102742092Y-43054588D01*
X102651378Y-43009230D01*
X102515307Y-43009230D01*
X102424592Y-43054588D01*
X102379235Y-43145302D01*
X102379235Y-43644230D01*
X102016378Y-43009230D02*
X101789592Y-43644230D01*
X101562807Y-43009230D02*
X101789592Y-43644230D01*
X101880307Y-43871016D01*
X101925664Y-43916373D01*
X102016378Y-43961730D01*
X100610307Y-43009230D02*
X100247450Y-43009230D01*
X100474235Y-42691730D02*
X100474235Y-43508159D01*
X100428878Y-43598873D01*
X100338164Y-43644230D01*
X100247450Y-43644230D01*
X99567092Y-43598873D02*
X99657807Y-43644230D01*
X99839235Y-43644230D01*
X99929950Y-43598873D01*
X99975307Y-43508159D01*
X99975307Y-43145302D01*
X99929950Y-43054588D01*
X99839235Y-43009230D01*
X99657807Y-43009230D01*
X99567092Y-43054588D01*
X99521735Y-43145302D01*
X99521735Y-43236016D01*
X99975307Y-43326730D01*
X99113521Y-43644230D02*
X99113521Y-43009230D01*
X99113521Y-43190659D02*
X99068164Y-43099945D01*
X99022807Y-43054588D01*
X98932092Y-43009230D01*
X98841378Y-43009230D01*
X98523878Y-43644230D02*
X98523878Y-43009230D01*
X98523878Y-43190659D02*
X98478521Y-43099945D01*
X98433164Y-43054588D01*
X98342450Y-43009230D01*
X98251735Y-43009230D01*
X97934235Y-43644230D02*
X97934235Y-43009230D01*
X97934235Y-42691730D02*
X97979592Y-42737088D01*
X97934235Y-42782445D01*
X97888878Y-42737088D01*
X97934235Y-42691730D01*
X97934235Y-42782445D01*
X97480664Y-43644230D02*
X97480664Y-42691730D01*
X97480664Y-43054588D02*
X97389950Y-43009230D01*
X97208521Y-43009230D01*
X97117807Y-43054588D01*
X97072450Y-43099945D01*
X97027092Y-43190659D01*
X97027092Y-43462802D01*
X97072450Y-43553516D01*
X97117807Y-43598873D01*
X97208521Y-43644230D01*
X97389950Y-43644230D01*
X97480664Y-43598873D01*
X96482807Y-43644230D02*
X96573521Y-43598873D01*
X96618878Y-43508159D01*
X96618878Y-42691730D01*
X95757092Y-43598873D02*
X95847807Y-43644230D01*
X96029235Y-43644230D01*
X96119950Y-43598873D01*
X96165307Y-43508159D01*
X96165307Y-43145302D01*
X96119950Y-43054588D01*
X96029235Y-43009230D01*
X95847807Y-43009230D01*
X95757092Y-43054588D01*
X95711735Y-43145302D01*
X95711735Y-43236016D01*
X96165307Y-43326730D01*
X122699235Y-45177755D02*
X122699235Y-44542755D01*
X122699235Y-44225255D02*
X122744592Y-44270613D01*
X122699235Y-44315970D01*
X122653878Y-44270613D01*
X122699235Y-44225255D01*
X122699235Y-44315970D01*
X121837450Y-45177755D02*
X121837450Y-44225255D01*
X121837450Y-45132398D02*
X121928164Y-45177755D01*
X122109592Y-45177755D01*
X122200307Y-45132398D01*
X122245664Y-45087041D01*
X122291021Y-44996327D01*
X122291021Y-44724184D01*
X122245664Y-44633470D01*
X122200307Y-44588113D01*
X122109592Y-44542755D01*
X121928164Y-44542755D01*
X121837450Y-44588113D01*
X121021021Y-45132398D02*
X121111735Y-45177755D01*
X121293164Y-45177755D01*
X121383878Y-45132398D01*
X121429235Y-45041684D01*
X121429235Y-44678827D01*
X121383878Y-44588113D01*
X121293164Y-44542755D01*
X121111735Y-44542755D01*
X121021021Y-44588113D01*
X120975664Y-44678827D01*
X120975664Y-44769541D01*
X121429235Y-44860255D01*
X120159235Y-45177755D02*
X120159235Y-44678827D01*
X120204592Y-44588113D01*
X120295307Y-44542755D01*
X120476735Y-44542755D01*
X120567450Y-44588113D01*
X120159235Y-45132398D02*
X120249950Y-45177755D01*
X120476735Y-45177755D01*
X120567450Y-45132398D01*
X120612807Y-45041684D01*
X120612807Y-44950970D01*
X120567450Y-44860255D01*
X120476735Y-44814898D01*
X120249950Y-44814898D01*
X120159235Y-44769541D01*
X119751021Y-45132398D02*
X119660307Y-45177755D01*
X119478878Y-45177755D01*
X119388164Y-45132398D01*
X119342807Y-45041684D01*
X119342807Y-44996327D01*
X119388164Y-44905613D01*
X119478878Y-44860255D01*
X119614950Y-44860255D01*
X119705664Y-44814898D01*
X119751021Y-44724184D01*
X119751021Y-44678827D01*
X119705664Y-44588113D01*
X119614950Y-44542755D01*
X119478878Y-44542755D01*
X119388164Y-44588113D01*
M02*
