%TF.GenerationSoftware,KiCad,Pcbnew,(6.0.11)*%
%TF.CreationDate,2023-02-07T21:50:49-07:00*%
%TF.ProjectId,gameblaster,67616d65-626c-4617-9374-65722e6b6963,1*%
%TF.SameCoordinates,Original*%
%TF.FileFunction,Soldermask,Top*%
%TF.FilePolarity,Negative*%
%FSLAX46Y46*%
G04 Gerber Fmt 4.6, Leading zero omitted, Abs format (unit mm)*
G04 Created by KiCad (PCBNEW (6.0.11)) date 2023-02-07 21:50:49*
%MOMM*%
%LPD*%
G01*
G04 APERTURE LIST*
G04 Aperture macros list*
%AMFreePoly0*
4,1,18,0.134939,4.178957,0.303847,4.127800,0.456456,4.039157,0.584580,3.917785,0.681346,3.770192,0.741562,3.604298,0.762000,3.429000,0.762000,-3.429000,-0.762000,-3.429000,-0.762000,3.429000,-0.756157,3.523184,-0.714209,3.694612,-0.633949,3.851791,-0.519683,3.986292,-0.377540,4.090897,-0.215144,4.159997,-0.041208,4.189885,0.134939,4.178957,0.134939,4.178957,$1*%
G04 Aperture macros list end*
%ADD10C,1.600200*%
%ADD11C,1.524000*%
%ADD12FreePoly0,0.000000*%
%ADD13C,3.500000*%
%ADD14O,2.400000X4.800000*%
%ADD15O,3.400000X1.700000*%
%ADD16C,2.032000*%
%ADD17C,1.600000*%
%ADD18O,1.600000X1.600000*%
%ADD19O,2.700000X1.350000*%
%ADD20R,1.600000X1.600000*%
G04 APERTURE END LIST*
D10*
%TO.C,ZD1*%
X140208000Y-46228000D03*
X130048000Y-46228000D03*
%TD*%
%TO.C,R8*%
X142240000Y-71120000D03*
X142240000Y-60960000D03*
%TD*%
D11*
%TO.C,C34*%
X134620000Y-38608000D03*
X132080000Y-38608000D03*
%TD*%
D10*
%TO.C,C33*%
X135890000Y-43180000D03*
X130810000Y-43180000D03*
%TD*%
%TO.C,C31*%
X138938000Y-71120000D03*
X138938000Y-66040000D03*
%TD*%
D12*
%TO.C,BUS1*%
X173228000Y-135001000D03*
X170688000Y-135001000D03*
X168148000Y-135001000D03*
X165608000Y-135001000D03*
X163068000Y-135001000D03*
X160528000Y-135001000D03*
X157988000Y-135001000D03*
X155448000Y-135001000D03*
X152908000Y-135001000D03*
X150368000Y-135001000D03*
X147828000Y-135001000D03*
X145288000Y-135001000D03*
X142748000Y-135001000D03*
X140208000Y-135001000D03*
X137668000Y-135001000D03*
X135128000Y-135001000D03*
X132588000Y-135001000D03*
X130048000Y-135001000D03*
X127508000Y-135001000D03*
X124968000Y-135001000D03*
X122428000Y-135001000D03*
X119888000Y-135001000D03*
X117348000Y-135001000D03*
X114808000Y-135001000D03*
X112268000Y-135001000D03*
X109728000Y-135001000D03*
X107188000Y-135001000D03*
X104648000Y-135001000D03*
X102108000Y-135001000D03*
X99568000Y-135001000D03*
X97028000Y-135001000D03*
%TD*%
D13*
%TO.C,F1*%
X193929000Y-69850000D03*
X193929000Y-126365000D03*
%TD*%
D10*
%TO.C,R4*%
X144780000Y-75120500D03*
X144780000Y-85280500D03*
%TD*%
%TO.C,C15*%
X85344000Y-50800000D03*
X85344000Y-55880000D03*
%TD*%
%TO.C,C32*%
X85344000Y-34036000D03*
X85344000Y-39116000D03*
%TD*%
D14*
%TO.C,S2*%
X191676000Y-100584000D03*
D15*
X187176000Y-100584000D03*
%TD*%
D10*
%TO.C,C13*%
X152654000Y-111696500D03*
X157734000Y-111696500D03*
%TD*%
D11*
%TO.C,RP1*%
X187938598Y-61329402D03*
D16*
X195762000Y-56506000D03*
X186762000Y-56506000D03*
D11*
X191262000Y-62706000D03*
X194585402Y-61329402D03*
%TD*%
D10*
%TO.C,R1*%
X186944000Y-36576000D03*
X186944000Y-46736000D03*
%TD*%
%TO.C,C24*%
X174498000Y-41148000D03*
X174498000Y-46228000D03*
%TD*%
D17*
%TO.C,IC5*%
X113411000Y-99187000D03*
D18*
X110871000Y-99187000D03*
X108331000Y-99187000D03*
X105791000Y-99187000D03*
X103251000Y-99187000D03*
X100711000Y-99187000D03*
X98171000Y-99187000D03*
X95631000Y-99187000D03*
X95631000Y-106807000D03*
X98171000Y-106807000D03*
X100711000Y-106807000D03*
X103251000Y-106807000D03*
X105791000Y-106807000D03*
X108331000Y-106807000D03*
X110871000Y-106807000D03*
X113411000Y-106807000D03*
%TD*%
D10*
%TO.C,C21*%
X85598000Y-83820000D03*
X85598000Y-88900000D03*
%TD*%
%TO.C,R7*%
X142494000Y-44704000D03*
X152654000Y-44704000D03*
%TD*%
D17*
%TO.C,IC3*%
X165608000Y-33147000D03*
D18*
X163068000Y-33147000D03*
X160528000Y-33147000D03*
X157988000Y-33147000D03*
X155448000Y-33147000D03*
X152908000Y-33147000D03*
X150368000Y-33147000D03*
X147828000Y-33147000D03*
X145288000Y-33147000D03*
X145288000Y-40767000D03*
X147828000Y-40767000D03*
X150368000Y-40767000D03*
X152908000Y-40767000D03*
X155448000Y-40767000D03*
X157988000Y-40767000D03*
X160528000Y-40767000D03*
X163068000Y-40767000D03*
X165608000Y-40767000D03*
%TD*%
D11*
%TO.C,C9*%
X166433500Y-106108500D03*
X166433500Y-111188500D03*
%TD*%
D10*
%TO.C,R10*%
X170942000Y-48514000D03*
X170942000Y-58674000D03*
%TD*%
%TO.C,C23*%
X171704000Y-41148000D03*
X171704000Y-46228000D03*
%TD*%
%TO.C,R6*%
X112522000Y-58674000D03*
X112522000Y-48514000D03*
%TD*%
%TO.C,C8*%
X170434000Y-101282500D03*
X170434000Y-96202500D03*
%TD*%
D17*
%TO.C,S3*%
X189040000Y-87503000D03*
X194040000Y-92503000D03*
X194040000Y-82503000D03*
D19*
X194040000Y-87503000D03*
X189040000Y-82503000D03*
X189040000Y-92503000D03*
%TD*%
D17*
%TO.C,IC1*%
X158496000Y-97980500D03*
D18*
X158496000Y-95440500D03*
X158496000Y-92900500D03*
X158496000Y-90360500D03*
X158496000Y-87820500D03*
X158496000Y-85280500D03*
X158496000Y-82740500D03*
X158496000Y-80200500D03*
X150876000Y-80200500D03*
X150876000Y-82740500D03*
X150876000Y-85280500D03*
X150876000Y-87820500D03*
X150876000Y-90360500D03*
X150876000Y-92900500D03*
X150876000Y-95440500D03*
X150876000Y-97980500D03*
%TD*%
D10*
%TO.C,C28*%
X118364000Y-57912000D03*
X123444000Y-57912000D03*
%TD*%
%TO.C,C22*%
X187960000Y-75184000D03*
X193040000Y-75184000D03*
%TD*%
D11*
%TO.C,C29*%
X177038000Y-123698000D03*
X177038000Y-126238000D03*
%TD*%
%TO.C,C7*%
X156972000Y-107188000D03*
X151892000Y-107188000D03*
%TD*%
D10*
%TO.C,C37*%
X173228000Y-127000000D03*
X168148000Y-127000000D03*
%TD*%
D17*
%TO.C,IC12*%
X81280000Y-99187000D03*
D18*
X78740000Y-99187000D03*
X76200000Y-99187000D03*
X73660000Y-99187000D03*
X71120000Y-99187000D03*
X68580000Y-99187000D03*
X66040000Y-99187000D03*
X66040000Y-106807000D03*
X68580000Y-106807000D03*
X71120000Y-106807000D03*
X73660000Y-106807000D03*
X76200000Y-106807000D03*
X78740000Y-106807000D03*
X81280000Y-106807000D03*
%TD*%
D17*
%TO.C,IC11*%
X80899000Y-66167000D03*
D18*
X78359000Y-66167000D03*
X75819000Y-66167000D03*
X73279000Y-66167000D03*
X70739000Y-66167000D03*
X68199000Y-66167000D03*
X65659000Y-66167000D03*
X65659000Y-73787000D03*
X68199000Y-73787000D03*
X70739000Y-73787000D03*
X73279000Y-73787000D03*
X75819000Y-73787000D03*
X78359000Y-73787000D03*
X80899000Y-73787000D03*
%TD*%
D10*
%TO.C,R11*%
X177800000Y-36576000D03*
X177800000Y-46736000D03*
%TD*%
%TO.C,C27*%
X88138000Y-117094000D03*
X88138000Y-122174000D03*
%TD*%
D20*
%TO.C,RN1*%
X112522000Y-81026000D03*
D18*
X112522000Y-78486000D03*
X112522000Y-75946000D03*
X112522000Y-73406000D03*
X112522000Y-70866000D03*
X112522000Y-68326000D03*
X112522000Y-65786000D03*
X112522000Y-63246000D03*
%TD*%
D17*
%TO.C,IC10*%
X83947000Y-115697000D03*
D18*
X81407000Y-115697000D03*
X78867000Y-115697000D03*
X76327000Y-115697000D03*
X73787000Y-115697000D03*
X71247000Y-115697000D03*
X68707000Y-115697000D03*
X66167000Y-115697000D03*
X66167000Y-123317000D03*
X68707000Y-123317000D03*
X71247000Y-123317000D03*
X73787000Y-123317000D03*
X76327000Y-123317000D03*
X78867000Y-123317000D03*
X81407000Y-123317000D03*
X83947000Y-123317000D03*
%TD*%
D10*
%TO.C,R2*%
X183896000Y-36576000D03*
X183896000Y-46736000D03*
%TD*%
D11*
%TO.C,C1*%
X147891500Y-69850000D03*
X147891500Y-72390000D03*
%TD*%
D17*
%TO.C,IC8*%
X81153000Y-82677000D03*
D18*
X78613000Y-82677000D03*
X76073000Y-82677000D03*
X73533000Y-82677000D03*
X70993000Y-82677000D03*
X68453000Y-82677000D03*
X65913000Y-82677000D03*
X65913000Y-90297000D03*
X68453000Y-90297000D03*
X70993000Y-90297000D03*
X73533000Y-90297000D03*
X76073000Y-90297000D03*
X78613000Y-90297000D03*
X81153000Y-90297000D03*
%TD*%
D17*
%TO.C,IC2*%
X165608000Y-49276000D03*
D18*
X163068000Y-49276000D03*
X160528000Y-49276000D03*
X157988000Y-49276000D03*
X155448000Y-49276000D03*
X152908000Y-49276000D03*
X150368000Y-49276000D03*
X147828000Y-49276000D03*
X145288000Y-49276000D03*
X145288000Y-56896000D03*
X147828000Y-56896000D03*
X150368000Y-56896000D03*
X152908000Y-56896000D03*
X155448000Y-56896000D03*
X157988000Y-56896000D03*
X160528000Y-56896000D03*
X163068000Y-56896000D03*
X165608000Y-56896000D03*
%TD*%
D10*
%TO.C,C26*%
X175768000Y-55880000D03*
X175768000Y-60960000D03*
%TD*%
D11*
%TO.C,C3*%
X144589500Y-96202500D03*
X144589500Y-101282500D03*
%TD*%
D10*
%TO.C,C25*%
X178816000Y-55880000D03*
X178816000Y-60960000D03*
%TD*%
%TO.C,R3*%
X164338000Y-75120500D03*
X164338000Y-85280500D03*
%TD*%
D11*
%TO.C,C11*%
X162877500Y-69850000D03*
X162877500Y-72390000D03*
%TD*%
D10*
%TO.C,C16*%
X85344000Y-67310000D03*
X85344000Y-72390000D03*
%TD*%
%TO.C,R5*%
X142494000Y-30226000D03*
X152654000Y-30226000D03*
%TD*%
%TO.C,C19*%
X165608000Y-60706000D03*
X160528000Y-60706000D03*
%TD*%
%TO.C,C38*%
X186944000Y-123952000D03*
X186944000Y-129032000D03*
%TD*%
%TO.C,C18*%
X160528000Y-44450000D03*
X165608000Y-44450000D03*
%TD*%
D11*
%TO.C,C10*%
X167830500Y-85471000D03*
X167830500Y-82931000D03*
%TD*%
D17*
%TO.C,IC9*%
X80772000Y-49657000D03*
D18*
X78232000Y-49657000D03*
X75692000Y-49657000D03*
X73152000Y-49657000D03*
X70612000Y-49657000D03*
X68072000Y-49657000D03*
X65532000Y-49657000D03*
X65532000Y-57277000D03*
X68072000Y-57277000D03*
X70612000Y-57277000D03*
X73152000Y-57277000D03*
X75692000Y-57277000D03*
X78232000Y-57277000D03*
X80772000Y-57277000D03*
%TD*%
D14*
%TO.C,S1*%
X191676000Y-115824000D03*
D15*
X187176000Y-115824000D03*
%TD*%
D10*
%TO.C,R19*%
X88646000Y-74676000D03*
X88646000Y-64516000D03*
%TD*%
D11*
%TO.C,C6*%
X164401500Y-96202500D03*
X164401500Y-101282500D03*
%TD*%
D10*
%TO.C,C20*%
X107569000Y-57912000D03*
X102489000Y-57912000D03*
%TD*%
D17*
%TO.C,IC6*%
X80772000Y-33147000D03*
D18*
X78232000Y-33147000D03*
X75692000Y-33147000D03*
X73152000Y-33147000D03*
X70612000Y-33147000D03*
X68072000Y-33147000D03*
X65532000Y-33147000D03*
X65532000Y-40767000D03*
X68072000Y-40767000D03*
X70612000Y-40767000D03*
X73152000Y-40767000D03*
X75692000Y-40767000D03*
X78232000Y-40767000D03*
X80772000Y-40767000D03*
%TD*%
D10*
%TO.C,R12*%
X180848000Y-36576000D03*
X180848000Y-46736000D03*
%TD*%
%TO.C,C17*%
X85598000Y-100330000D03*
X85598000Y-105410000D03*
%TD*%
D17*
%TO.C,IC7*%
X124714000Y-84963000D03*
D18*
X124714000Y-82423000D03*
X124714000Y-79883000D03*
X124714000Y-77343000D03*
X124714000Y-74803000D03*
X124714000Y-72263000D03*
X124714000Y-69723000D03*
X124714000Y-67183000D03*
X124714000Y-64643000D03*
X124714000Y-62103000D03*
X117094000Y-62103000D03*
X117094000Y-64643000D03*
X117094000Y-67183000D03*
X117094000Y-69723000D03*
X117094000Y-72263000D03*
X117094000Y-74803000D03*
X117094000Y-77343000D03*
X117094000Y-79883000D03*
X117094000Y-82423000D03*
X117094000Y-84963000D03*
%TD*%
D11*
%TO.C,C5*%
X141732000Y-106108500D03*
X141732000Y-111188500D03*
%TD*%
D10*
%TO.C,C4*%
X138684000Y-101282500D03*
X138684000Y-96202500D03*
%TD*%
D11*
%TO.C,C2*%
X139954000Y-85090000D03*
X139954000Y-82550000D03*
%TD*%
%TO.C,C30*%
X84328000Y-128333500D03*
X81788000Y-128333500D03*
%TD*%
%TO.C,C12*%
X156972000Y-73914000D03*
X151892000Y-73914000D03*
%TD*%
D17*
%TO.C,IC4*%
X108712000Y-84963000D03*
D18*
X108712000Y-82423000D03*
X108712000Y-79883000D03*
X108712000Y-77343000D03*
X108712000Y-74803000D03*
X108712000Y-72263000D03*
X108712000Y-69723000D03*
X108712000Y-67183000D03*
X108712000Y-64643000D03*
X108712000Y-62103000D03*
X101092000Y-62103000D03*
X101092000Y-64643000D03*
X101092000Y-67183000D03*
X101092000Y-69723000D03*
X101092000Y-72263000D03*
X101092000Y-74803000D03*
X101092000Y-77343000D03*
X101092000Y-79883000D03*
X101092000Y-82423000D03*
X101092000Y-84963000D03*
%TD*%
D10*
%TO.C,R9*%
X167386000Y-30226000D03*
X157226000Y-30226000D03*
%TD*%
D16*
%TO.C,L1*%
X182245000Y-115824000D03*
X169545000Y-115824000D03*
%TD*%
D10*
%TO.C,C14*%
X117602000Y-100330000D03*
X117602000Y-105410000D03*
%TD*%
D11*
%TO.C,J1*%
X95631000Y-115697000D03*
X95631000Y-113157000D03*
X98171000Y-115697000D03*
X98171000Y-113157000D03*
X100711000Y-115697000D03*
X100711000Y-113157000D03*
X103251000Y-115697000D03*
X103251000Y-113157000D03*
X105791000Y-115697000D03*
X105791000Y-113157000D03*
X108331000Y-115697000D03*
X108331000Y-113157000D03*
%TD*%
D16*
%TO.C,L2*%
X187198000Y-108204000D03*
X174498000Y-108204000D03*
%TD*%
M02*
