M48
; DRILL file {KiCad (6.0.11)} date Sat Mar  4 16:54:33 2023
; FORMAT={-:-/ absolute / inch / decimal}
; #@! TF.CreationDate,2023-03-04T16:54:33-07:00
; #@! TF.GenerationSoftware,Kicad,Pcbnew,(6.0.11)
; #@! TF.FileFunction,Plated,1,2,PTH
FMAT,2
INCH
; #@! TA.AperFunction,Plated,PTH,ViaDrill
T1C0.0157
; #@! TA.AperFunction,Plated,PTH,ComponentDrill
T2C0.0315
; #@! TA.AperFunction,Plated,PTH,ComponentDrill
T3C0.0320
; #@! TA.AperFunction,Plated,PTH,ComponentDrill
T4C0.0350
; #@! TA.AperFunction,Plated,PTH,ComponentDrill
T5C0.0394
; #@! TA.AperFunction,Plated,PTH,ComponentDrill
T6C0.0400
; #@! TA.AperFunction,Plated,PTH,ComponentDrill
T7C0.0512
; #@! TA.AperFunction,Plated,PTH,ComponentDrill
T8C0.0600
; #@! TA.AperFunction,Plated,PTH,ComponentDrill
T9C0.1290
%
G90
G05
T1
X2.475Y-1.375
X2.475Y-2.18
X2.475Y-2.97
X2.475Y-3.795
X2.475Y-4.61
X2.515Y-5.105
X2.594Y-2.732
X2.69Y-2.18
X2.695Y-1.445
X2.697Y-1.848
X2.708Y-4.766
X2.78Y-2.05
X2.795Y-1.85
X2.795Y-4.645
X2.85Y-2.665
X2.856Y-4.968
X2.895Y-1.91
X2.9072Y-2.18
X2.9072Y-2.27
X2.94Y-4.325
X2.98Y-1.481
X2.98Y-1.912
X2.98Y-2.27
X2.994Y-3.61
X2.995Y-2.225
X2.995Y-3.105
X2.995Y-3.7976
X3.006Y-4.406
X3.03Y-1.735
X3.0393Y-3.5157
X3.05Y-4.736
X3.095Y-1.445
X3.095Y-4.697
X3.148Y-3.854
X3.156Y-4.926
X3.158Y-4.322
X3.16Y-4.696
X3.186Y-4.114
X3.195Y-4.736
X3.25Y-3.8284
X3.25Y-4.115
X3.262Y-4.374
X3.262Y-4.916
X3.3208Y-3.3458
X3.3595Y-4.888
X3.388Y-4.376
X3.388Y-4.9962
X3.39Y-1.64
X3.39Y-2.04
X3.4188Y-4.6434
X3.4215Y-4.1485
X3.435Y-1.735
X3.484Y-3.106
X3.49Y-1.85
X3.5185Y-1.735
X3.542Y-2.732
X3.544Y-4.858
X3.547Y-1.67
X3.5685Y-3.692
X3.57Y-4.758
X3.575Y-3.105
X3.605Y-2.665
X3.615Y-4.555
X3.616Y-4.406
X3.622Y-2.222
X3.69Y-5.04
X3.706Y-4.8595
X3.725Y-5.014
X3.752Y-2.454
X3.752Y-3.61
X3.765Y-5.0317
X3.765Y-5.08
X3.864Y-4.888
X3.88Y-5.095
X3.966Y-4.916
X4.018Y-4.314
X4.054Y-4.95
X4.095Y-4.9506
X4.12Y-4.28
X4.14Y-3.146
X4.142Y-2.384
X4.176Y-2.944
X4.178Y-2.496
X4.216Y-2.546
X4.216Y-2.598
X4.216Y-2.702
X4.216Y-2.744
X4.22Y-4.868
X4.222Y-4.3425
X4.276Y-3.6935
X4.333Y-2.5695
X4.3395Y-2.7
X4.368Y-2.646
X4.368Y-2.786
X4.38Y-4.622
X4.4002Y-4.2798
X4.476Y-4.314
X4.61Y-2.384
X4.62Y-4.51
X4.63Y-3.515
X4.646Y-4.378
X4.758Y-4.756
X4.915Y-3.515
X5.135Y-3.515
X5.154Y-2.084
X5.414Y-5.042
X5.51Y-4.945
X5.52Y-5.064
X5.62Y-5.1
X5.762Y-4.978
X5.8485Y-5.1
X5.9586Y-4.944
X6.47Y-1.655
X6.535Y-5.0
X6.61Y-1.785
X6.61Y-1.88
X7.324Y-2.342
X7.465Y-2.3
T2
X2.595Y-1.305
X2.595Y-1.605
X2.595Y-2.1175
X2.595Y-2.4175
X2.595Y-2.93
X2.595Y-3.23
X2.595Y-3.7425
X2.595Y-4.0425
X2.595Y-4.555
X2.595Y-4.855
X2.695Y-1.305
X2.695Y-1.605
X2.695Y-2.1175
X2.695Y-2.4175
X2.695Y-2.93
X2.695Y-3.23
X2.695Y-3.7425
X2.695Y-4.0425
X2.695Y-4.555
X2.695Y-4.855
X2.795Y-1.305
X2.795Y-1.605
X2.795Y-2.1175
X2.795Y-2.4175
X2.795Y-2.93
X2.795Y-3.23
X2.795Y-3.7425
X2.795Y-4.0425
X2.795Y-4.555
X2.795Y-4.855
X2.895Y-1.305
X2.895Y-1.605
X2.895Y-2.1175
X2.895Y-2.4175
X2.895Y-2.93
X2.895Y-3.23
X2.895Y-3.7425
X2.895Y-4.0425
X2.895Y-4.555
X2.895Y-4.855
X2.995Y-1.305
X2.995Y-1.605
X2.995Y-2.1175
X2.995Y-2.4175
X2.995Y-2.93
X2.995Y-3.23
X2.995Y-3.7425
X2.995Y-4.0425
X2.995Y-4.555
X2.995Y-4.855
X3.095Y-1.305
X3.095Y-1.605
X3.095Y-2.1175
X3.095Y-2.4175
X3.095Y-2.93
X3.095Y-3.23
X3.095Y-3.7425
X3.095Y-4.0425
X3.095Y-4.555
X3.095Y-4.855
X3.195Y-1.305
X3.195Y-1.605
X3.195Y-2.1175
X3.195Y-2.4175
X3.195Y-2.93
X3.195Y-3.23
X3.195Y-3.7425
X3.195Y-4.0425
X3.195Y-4.555
X3.195Y-4.855
X3.295Y-4.555
X3.295Y-4.855
X3.765Y-3.905
X3.765Y-4.205
X3.865Y-3.905
X3.865Y-4.205
X3.965Y-3.905
X3.965Y-4.205
X3.98Y-2.445
X3.98Y-2.545
X3.98Y-2.645
X3.98Y-2.745
X3.98Y-2.845
X3.98Y-2.945
X3.98Y-3.045
X3.98Y-3.145
X3.98Y-3.245
X3.98Y-3.345
X4.065Y-3.905
X4.065Y-4.205
X4.165Y-3.905
X4.165Y-4.205
X4.265Y-3.905
X4.265Y-4.205
X4.28Y-2.445
X4.28Y-2.545
X4.28Y-2.645
X4.28Y-2.745
X4.28Y-2.845
X4.28Y-2.945
X4.28Y-3.045
X4.28Y-3.145
X4.28Y-3.245
X4.28Y-3.345
X4.365Y-3.905
X4.365Y-4.205
X4.43Y-2.49
X4.43Y-2.59
X4.43Y-2.69
X4.43Y-2.79
X4.43Y-2.89
X4.43Y-2.99
X4.43Y-3.09
X4.43Y-3.19
X4.465Y-3.905
X4.465Y-4.205
X4.61Y-2.445
X4.61Y-2.545
X4.61Y-2.645
X4.61Y-2.745
X4.61Y-2.845
X4.61Y-2.945
X4.61Y-3.045
X4.61Y-3.145
X4.61Y-3.245
X4.61Y-3.345
X4.91Y-2.445
X4.91Y-2.545
X4.91Y-2.645
X4.91Y-2.745
X4.91Y-2.845
X4.91Y-2.945
X4.91Y-3.045
X4.91Y-3.145
X4.91Y-3.245
X4.91Y-3.345
X5.72Y-1.305
X5.72Y-1.605
X5.72Y-1.94
X5.72Y-2.24
X5.82Y-1.305
X5.82Y-1.605
X5.82Y-1.94
X5.82Y-2.24
X5.92Y-1.305
X5.92Y-1.605
X5.92Y-1.94
X5.92Y-2.24
X5.94Y-3.1575
X5.94Y-3.2575
X5.94Y-3.3575
X5.94Y-3.4575
X5.94Y-3.5575
X5.94Y-3.6575
X5.94Y-3.7575
X5.94Y-3.8575
X6.02Y-1.305
X6.02Y-1.605
X6.02Y-1.94
X6.02Y-2.24
X6.12Y-1.305
X6.12Y-1.605
X6.12Y-1.94
X6.12Y-2.24
X6.22Y-1.305
X6.22Y-1.605
X6.22Y-1.94
X6.22Y-2.24
X6.24Y-3.1575
X6.24Y-3.2575
X6.24Y-3.3575
X6.24Y-3.4575
X6.24Y-3.5575
X6.24Y-3.6575
X6.24Y-3.7575
X6.24Y-3.8575
X6.32Y-1.305
X6.32Y-1.605
X6.32Y-1.94
X6.32Y-2.24
X6.42Y-1.305
X6.42Y-1.605
X6.42Y-1.94
X6.42Y-2.24
X6.52Y-1.305
X6.52Y-1.605
X6.52Y-1.94
X6.52Y-2.24
T3
X3.36Y-1.34
X3.36Y-1.54
X3.36Y-2.16
X3.36Y-2.36
X3.36Y-2.98
X3.36Y-3.18
X3.37Y-3.79
X3.37Y-3.99
X3.47Y-4.61
X3.47Y-4.81
X3.48Y-2.98
X3.48Y-3.18
X3.49Y-2.06
X3.49Y-2.46
X3.62Y-2.06
X3.62Y-2.46
X4.035Y-2.28
X4.235Y-2.28
X4.25Y-2.06
X4.63Y-3.95
X4.63Y-4.15
X4.65Y-2.06
X4.66Y-2.28
X4.86Y-2.28
X5.05Y-1.92
X5.05Y-2.32
X5.228Y-1.988
X5.228Y-2.188
X5.364Y-1.846
X5.364Y-2.246
X5.44Y-2.6
X5.44Y-2.8
X5.44Y-3.7875
X5.44Y-3.9875
X5.57Y-2.42
X5.57Y-2.82
X5.61Y-1.19
X5.61Y-1.76
X5.7Y-2.9575
X5.7Y-3.3575
X6.01Y-1.19
X6.01Y-1.76
X6.01Y-4.3975
X6.11Y-1.19
X6.21Y-4.3975
X6.32Y-1.75
X6.455Y-2.39
X6.47Y-2.9575
X6.47Y-3.3575
X6.51Y-1.19
X6.52Y-1.75
X6.62Y-5.0
X6.655Y-2.39
X6.71Y-3.7875
X6.71Y-3.9875
X6.715Y-1.68
X6.715Y-1.88
X6.8Y-1.19
X6.8Y-1.59
X6.82Y-5.0
X6.825Y-1.68
X6.825Y-1.88
X6.9Y-2.2
X6.9Y-2.4
X7.045Y-2.2
X7.045Y-2.4
X7.245Y-1.405
X7.245Y-1.805
X7.36Y-4.88
X7.36Y-5.08
X7.375Y-1.405
X7.375Y-1.805
X7.4Y-2.96
X7.505Y-1.405
X7.505Y-1.805
X7.6Y-2.96
X7.64Y-1.405
X7.64Y-1.805
T4
X3.22Y-5.03
X3.32Y-5.03
X5.1535Y-1.6665
X5.2535Y-1.6665
X5.51Y-3.25
X5.51Y-3.35
X5.58Y-4.1775
X5.58Y-4.3775
X5.6925Y-3.7875
X5.6925Y-3.9875
X5.78Y-2.7
X5.78Y-2.8
X5.98Y-2.91
X5.98Y-4.22
X6.18Y-2.91
X6.18Y-4.22
X6.4125Y-2.75
X6.4125Y-2.85
X6.4725Y-3.7875
X6.4725Y-3.9875
X6.5525Y-4.1775
X6.5525Y-4.3775
X6.6075Y-3.265
X6.6075Y-3.365
X6.9475Y-1.5325
X6.9475Y-1.6325
X6.97Y-4.87
X6.97Y-4.97
X7.1275Y-1.5325
X7.1275Y-1.6325
T6
X3.765Y-4.455
X3.765Y-4.555
X3.865Y-4.455
X3.865Y-4.555
X3.965Y-4.455
X3.965Y-4.555
X4.065Y-4.455
X4.065Y-4.555
X4.165Y-4.455
X4.165Y-4.555
X4.265Y-4.455
X4.265Y-4.555
X6.675Y-4.56
X6.87Y-4.26
X7.175Y-4.56
X7.37Y-4.26
X7.3992Y-2.4145
X7.53Y-2.4687
X7.6608Y-2.4145
T8
X7.3528Y-2.2246
X7.7072Y-2.2246
T9
X7.635Y-2.75
X7.635Y-4.975
T5
G00X7.3435Y-3.96
M15
G01X7.3947Y-3.96
M16
G05
G00X7.3435Y-4.56
M15
G01X7.3947Y-4.56
M16
G05
G00X7.4524Y-3.2481
M15
G01X7.4327Y-3.2481
M16
G05
G00X7.4524Y-3.6419
M15
G01X7.4327Y-3.6419
M16
G05
G00X7.6492Y-3.445
M15
G01X7.6295Y-3.445
M16
G05
T7
G00X7.5463Y-3.9187
M15
G01X7.5463Y-4.0013
M16
G05
G00X7.5463Y-4.5187
M15
G01X7.5463Y-4.6013
M16
G05
T0
M30
