M48
; DRILL file {KiCad (6.0.11)} date Tue Feb  7 20:42:15 2023
; FORMAT={-:-/ absolute / inch / decimal}
; #@! TF.CreationDate,2023-02-07T20:42:15-07:00
; #@! TF.GenerationSoftware,Kicad,Pcbnew,(6.0.11)
; #@! TF.FileFunction,Plated,1,2,PTH
FMAT,2
INCH
; #@! TA.AperFunction,Plated,PTH,ViaDrill
T1C0.0157
; #@! TA.AperFunction,Plated,PTH,ComponentDrill
T2C0.0315
; #@! TA.AperFunction,Plated,PTH,ComponentDrill
T3C0.0320
; #@! TA.AperFunction,Plated,PTH,ComponentDrill
T4C0.0350
; #@! TA.AperFunction,Plated,PTH,ComponentDrill
T5C0.0394
; #@! TA.AperFunction,Plated,PTH,ComponentDrill
T6C0.0400
; #@! TA.AperFunction,Plated,PTH,ComponentDrill
T7C0.0512
; #@! TA.AperFunction,Plated,PTH,ComponentDrill
T8C0.0600
; #@! TA.AperFunction,Plated,PTH,ComponentDrill
T9C0.1290
%
G90
G05
T1
X2.79Y-1.8
X2.8Y-4.105
X2.86Y-4.45
X2.95Y-3.15
X2.99Y-2.4
X3.0Y-3.72
X3.02Y-4.44
X3.04Y-2.45
X3.09Y-2.49
X3.11Y-4.28
X3.11Y-4.44
X3.19Y-4.36
X3.25Y-3.13
X3.26Y-3.05
X3.26Y-3.74
X3.32Y-4.3
X3.36Y-4.8
X3.42Y-4.5
X3.47Y-3.05
X3.47Y-3.13
X3.47Y-3.3
X3.49Y-4.44
X3.51Y-4.35
X3.6Y-3.05
X3.61Y-2.88
X3.69Y-3.08
X3.72Y-3.12
X3.72Y-5.0191
X3.73Y-2.53
X3.76Y-2.24
X3.77Y-2.47
X3.8Y-2.13
X3.82Y-2.4
X3.82Y-2.58
X3.92Y-4.38
X3.92Y-5.1
X3.95Y-4.9335
X3.97Y-5.0135
X4.01Y-4.38
X4.01Y-4.9565
X4.02Y-5.03
X4.1Y-2.84
X4.12Y-4.38
X4.14Y-4.89
X4.15Y-2.84
X4.1798Y-2.7698
X4.22Y-4.38
X4.25Y-5.08
X4.26Y-4.75
X4.29Y-4.79
X4.31Y-3.74
X4.36Y-5.08
X4.41Y-4.97
X4.4385Y-5.05
X4.46Y-4.3
X4.46Y-5.01
X4.62Y-4.92
X4.62Y-5.08
X4.66Y-4.2715
X4.83Y-4.23
X4.84Y-4.87
X4.85Y-3.56
X4.8802Y-3.8298
X4.95Y-4.28
X4.95Y-4.34
X4.97Y-4.96
X4.99Y-3.56
X4.99Y-4.85
X5.02Y-4.63
X5.06Y-1.83
X5.13Y-1.39
X5.13Y-1.47
X5.21Y-2.01
X5.22Y-4.09
X5.26Y-3.56
X5.41Y-1.43
X5.41Y-1.91
X5.41Y-2.0469
X5.43Y-4.8375
X5.55Y-1.9915
X5.87Y-5.06
X6.31Y-4.8
X6.63Y-1.67
X6.7Y-4.93
X7.42Y-2.59
T2
X2.58Y-1.305
X2.58Y-1.605
X2.58Y-1.955
X2.58Y-2.255
X2.585Y-2.605
X2.585Y-2.905
X2.595Y-3.255
X2.595Y-3.555
X2.6Y-3.905
X2.6Y-4.205
X2.605Y-4.555
X2.605Y-4.855
X2.68Y-1.305
X2.68Y-1.605
X2.68Y-1.955
X2.68Y-2.255
X2.685Y-2.605
X2.685Y-2.905
X2.695Y-3.255
X2.695Y-3.555
X2.7Y-3.905
X2.7Y-4.205
X2.705Y-4.555
X2.705Y-4.855
X2.78Y-1.305
X2.78Y-1.605
X2.78Y-1.955
X2.78Y-2.255
X2.785Y-2.605
X2.785Y-2.905
X2.795Y-3.255
X2.795Y-3.555
X2.8Y-3.905
X2.8Y-4.205
X2.805Y-4.555
X2.805Y-4.855
X2.88Y-1.305
X2.88Y-1.605
X2.88Y-1.955
X2.88Y-2.255
X2.885Y-2.605
X2.885Y-2.905
X2.895Y-3.255
X2.895Y-3.555
X2.9Y-3.905
X2.9Y-4.205
X2.905Y-4.555
X2.905Y-4.855
X2.98Y-1.305
X2.98Y-1.605
X2.98Y-1.955
X2.98Y-2.255
X2.985Y-2.605
X2.985Y-2.905
X2.995Y-3.255
X2.995Y-3.555
X3.0Y-3.905
X3.0Y-4.205
X3.005Y-4.555
X3.005Y-4.855
X3.08Y-1.305
X3.08Y-1.605
X3.08Y-1.955
X3.08Y-2.255
X3.085Y-2.605
X3.085Y-2.905
X3.095Y-3.255
X3.095Y-3.555
X3.1Y-3.905
X3.1Y-4.205
X3.105Y-4.555
X3.105Y-4.855
X3.18Y-1.305
X3.18Y-1.605
X3.18Y-1.955
X3.18Y-2.255
X3.185Y-2.605
X3.185Y-2.905
X3.195Y-3.255
X3.195Y-3.555
X3.2Y-3.905
X3.2Y-4.205
X3.205Y-4.555
X3.205Y-4.855
X3.305Y-4.555
X3.305Y-4.855
X3.765Y-3.905
X3.765Y-4.205
X3.865Y-3.905
X3.865Y-4.205
X3.965Y-3.905
X3.965Y-4.205
X3.98Y-2.445
X3.98Y-2.545
X3.98Y-2.645
X3.98Y-2.745
X3.98Y-2.845
X3.98Y-2.945
X3.98Y-3.045
X3.98Y-3.145
X3.98Y-3.245
X3.98Y-3.345
X4.065Y-3.905
X4.065Y-4.205
X4.165Y-3.905
X4.165Y-4.205
X4.265Y-3.905
X4.265Y-4.205
X4.28Y-2.445
X4.28Y-2.545
X4.28Y-2.645
X4.28Y-2.745
X4.28Y-2.845
X4.28Y-2.945
X4.28Y-3.045
X4.28Y-3.145
X4.28Y-3.245
X4.28Y-3.345
X4.365Y-3.905
X4.365Y-4.205
X4.43Y-2.49
X4.43Y-2.59
X4.43Y-2.69
X4.43Y-2.79
X4.43Y-2.89
X4.43Y-2.99
X4.43Y-3.09
X4.43Y-3.19
X4.465Y-3.905
X4.465Y-4.205
X4.61Y-2.445
X4.61Y-2.545
X4.61Y-2.645
X4.61Y-2.745
X4.61Y-2.845
X4.61Y-2.945
X4.61Y-3.045
X4.61Y-3.145
X4.61Y-3.245
X4.61Y-3.345
X4.91Y-2.445
X4.91Y-2.545
X4.91Y-2.645
X4.91Y-2.745
X4.91Y-2.845
X4.91Y-2.945
X4.91Y-3.045
X4.91Y-3.145
X4.91Y-3.245
X4.91Y-3.345
X5.72Y-1.305
X5.72Y-1.605
X5.72Y-1.94
X5.72Y-2.24
X5.82Y-1.305
X5.82Y-1.605
X5.82Y-1.94
X5.82Y-2.24
X5.92Y-1.305
X5.92Y-1.605
X5.92Y-1.94
X5.92Y-2.24
X5.94Y-3.1575
X5.94Y-3.2575
X5.94Y-3.3575
X5.94Y-3.4575
X5.94Y-3.5575
X5.94Y-3.6575
X5.94Y-3.7575
X5.94Y-3.8575
X6.02Y-1.305
X6.02Y-1.605
X6.02Y-1.94
X6.02Y-2.24
X6.12Y-1.305
X6.12Y-1.605
X6.12Y-1.94
X6.12Y-2.24
X6.22Y-1.305
X6.22Y-1.605
X6.22Y-1.94
X6.22Y-2.24
X6.24Y-3.1575
X6.24Y-3.2575
X6.24Y-3.3575
X6.24Y-3.4575
X6.24Y-3.5575
X6.24Y-3.6575
X6.24Y-3.7575
X6.24Y-3.8575
X6.32Y-1.305
X6.32Y-1.605
X6.32Y-1.94
X6.32Y-2.24
X6.42Y-1.305
X6.42Y-1.605
X6.42Y-1.94
X6.42Y-2.24
X6.52Y-1.305
X6.52Y-1.605
X6.52Y-1.94
X6.52Y-2.24
T3
X3.36Y-1.34
X3.36Y-1.54
X3.36Y-2.0
X3.36Y-2.2
X3.36Y-2.65
X3.36Y-2.85
X3.37Y-3.3
X3.37Y-3.5
X3.37Y-3.95
X3.37Y-4.15
X3.47Y-4.61
X3.47Y-4.81
X3.49Y-2.54
X3.49Y-2.94
X4.035Y-2.28
X4.235Y-2.28
X4.43Y-1.91
X4.43Y-2.31
X4.63Y-3.95
X4.63Y-4.15
X4.66Y-2.28
X4.86Y-2.28
X5.46Y-3.7875
X5.46Y-3.9875
X5.61Y-1.19
X5.61Y-1.76
X5.7Y-2.9575
X5.7Y-3.3575
X6.01Y-1.19
X6.01Y-1.76
X6.01Y-4.3975
X6.19Y-1.19
X6.21Y-4.3975
X6.32Y-1.75
X6.32Y-2.39
X6.47Y-2.9575
X6.47Y-3.3575
X6.52Y-1.75
X6.52Y-2.39
X6.59Y-1.19
X6.62Y-5.0
X6.71Y-3.7875
X6.71Y-3.9875
X6.73Y-1.91
X6.73Y-2.31
X6.76Y-1.62
X6.76Y-1.82
X6.82Y-5.0
X6.87Y-1.62
X6.87Y-1.82
X6.92Y-2.2
X6.92Y-2.4
X7.0Y-1.44
X7.0Y-1.84
X7.04Y-2.2
X7.04Y-2.4
X7.12Y-1.44
X7.12Y-1.84
X7.24Y-1.44
X7.24Y-1.84
X7.36Y-1.44
X7.36Y-1.84
X7.36Y-4.88
X7.36Y-5.08
X7.4Y-2.96
X7.6Y-2.96
T4
X3.22Y-5.0525
X3.32Y-5.0525
X5.51Y-3.265
X5.51Y-3.365
X5.58Y-4.1775
X5.58Y-4.3775
X5.6925Y-3.7875
X5.6925Y-3.9875
X5.8225Y-2.75
X5.8225Y-2.85
X5.98Y-2.91
X5.98Y-4.22
X6.18Y-2.91
X6.18Y-4.22
X6.4125Y-2.75
X6.4125Y-2.85
X6.4725Y-3.7875
X6.4725Y-3.9875
X6.5525Y-4.1775
X6.5525Y-4.3775
X6.6075Y-3.265
X6.6075Y-3.365
X6.97Y-4.87
X6.97Y-4.97
T6
X3.765Y-4.455
X3.765Y-4.555
X3.865Y-4.455
X3.865Y-4.555
X3.965Y-4.455
X3.965Y-4.555
X4.065Y-4.455
X4.065Y-4.555
X4.165Y-4.455
X4.165Y-4.555
X4.265Y-4.455
X4.265Y-4.555
X6.675Y-4.56
X6.87Y-4.26
X7.175Y-4.56
X7.37Y-4.26
X7.3992Y-2.4145
X7.53Y-2.4687
X7.6608Y-2.4145
T8
X7.3528Y-2.2246
X7.7072Y-2.2246
T9
X7.635Y-2.75
X7.635Y-4.975
T5
G00X7.3435Y-3.96
M15
G01X7.3947Y-3.96
M16
G05
G00X7.3435Y-4.56
M15
G01X7.3947Y-4.56
M16
G05
G00X7.4524Y-3.2481
M15
G01X7.4327Y-3.2481
M16
G05
G00X7.4524Y-3.6419
M15
G01X7.4327Y-3.6419
M16
G05
G00X7.6492Y-3.445
M15
G01X7.6295Y-3.445
M16
G05
T7
G00X7.5463Y-3.9187
M15
G01X7.5463Y-4.0013
M16
G05
G00X7.5463Y-4.5187
M15
G01X7.5463Y-4.6013
M16
G05
T0
M30
