%TF.GenerationSoftware,KiCad,Pcbnew,(6.0.11)*%
%TF.CreationDate,2023-03-04T16:54:30-07:00*%
%TF.ProjectId,gameblaster,67616d65-626c-4617-9374-65722e6b6963,1*%
%TF.SameCoordinates,Original*%
%TF.FileFunction,Profile,NP*%
%FSLAX46Y46*%
G04 Gerber Fmt 4.6, Leading zero omitted, Abs format (unit mm)*
G04 Created by KiCad (PCBNEW (6.0.11)) date 2023-03-04 16:54:30*
%MOMM*%
%LPD*%
G01*
G04 APERTURE LIST*
%TA.AperFunction,Profile*%
%ADD10C,0.150000*%
%TD*%
%TA.AperFunction,Profile*%
%ADD11C,0.010000*%
%TD*%
G04 APERTURE END LIST*
D10*
X197358000Y-28618000D02*
X60706000Y-28618000D01*
X175768000Y-137160000D02*
X175768000Y-130810000D01*
X197358000Y-134864000D02*
X185748000Y-134864000D01*
X174498000Y-138430000D02*
X175768000Y-137160000D01*
X95758000Y-138430000D02*
X174498000Y-138430000D01*
X60706000Y-28618000D02*
X60706000Y-130810000D01*
X197358000Y-130810000D02*
X197358000Y-134864000D01*
X94488000Y-130810000D02*
X60706000Y-130810000D01*
X94488000Y-130810000D02*
X94488000Y-137160000D01*
X175768000Y-130810000D02*
X185748000Y-130810000D01*
X94488000Y-137160000D02*
X95758000Y-138430000D01*
X197358000Y-130810000D02*
X197358000Y-28618000D01*
X185748000Y-130810000D02*
X185748000Y-134864000D01*
D11*
%TO.C,S2*%
X193976000Y-105734000D02*
X195676000Y-105734000D01*
X195676000Y-97234000D02*
X195676000Y-95434000D01*
X193976000Y-97234000D02*
X195676000Y-97234000D01*
X193976000Y-95434000D02*
X193976000Y-97234000D01*
X195676000Y-103934000D02*
X193976000Y-103934000D01*
X193976000Y-103934000D02*
X193976000Y-105734000D01*
X195676000Y-105734000D02*
X195676000Y-103934000D01*
X195676000Y-95434000D02*
X193976000Y-95434000D01*
%TO.C,S1*%
X195676000Y-119174000D02*
X193976000Y-119174000D01*
X193976000Y-112474000D02*
X195676000Y-112474000D01*
X195676000Y-120974000D02*
X195676000Y-119174000D01*
X195676000Y-112474000D02*
X195676000Y-110674000D01*
X193976000Y-119174000D02*
X193976000Y-120974000D01*
X193976000Y-110674000D02*
X193976000Y-112474000D01*
X195676000Y-110674000D02*
X193976000Y-110674000D01*
X193976000Y-120974000D02*
X195676000Y-120974000D01*
%TD*%
M02*
