%TF.GenerationSoftware,KiCad,Pcbnew,(6.0.11)*%
%TF.CreationDate,2023-02-19T20:35:53-07:00*%
%TF.ProjectId,gameblaster,67616d65-626c-4617-9374-65722e6b6963,1*%
%TF.SameCoordinates,Original*%
%TF.FileFunction,Soldermask,Bot*%
%TF.FilePolarity,Negative*%
%FSLAX46Y46*%
G04 Gerber Fmt 4.6, Leading zero omitted, Abs format (unit mm)*
G04 Created by KiCad (PCBNEW (6.0.11)) date 2023-02-19 20:35:53*
%MOMM*%
%LPD*%
G01*
G04 APERTURE LIST*
G04 Aperture macros list*
%AMFreePoly0*
4,1,18,0.134939,4.178957,0.303847,4.127800,0.456456,4.039157,0.584580,3.917785,0.681346,3.770192,0.741562,3.604298,0.762000,3.429000,0.762000,-3.429000,-0.762000,-3.429000,-0.762000,3.429000,-0.756157,3.523184,-0.714209,3.694612,-0.633949,3.851791,-0.519683,3.986292,-0.377540,4.090897,-0.215144,4.159997,-0.041208,4.189885,0.134939,4.178957,0.134939,4.178957,$1*%
G04 Aperture macros list end*
%ADD10C,0.100000*%
%ADD11FreePoly0,0.000000*%
%ADD12C,3.500000*%
%ADD13C,1.600200*%
%ADD14O,2.400000X4.800000*%
%ADD15O,3.400000X1.700000*%
%ADD16C,1.524000*%
%ADD17C,2.032000*%
%ADD18C,1.600000*%
%ADD19O,1.600000X1.600000*%
%ADD20O,2.700000X1.350000*%
%ADD21R,1.600000X1.600000*%
G04 APERTURE END LIST*
D10*
G36*
X175768000Y-137160000D02*
G01*
X174498000Y-138430000D01*
X95758000Y-138430000D01*
X94488000Y-137160000D01*
X94488000Y-131064000D01*
X175768000Y-131064000D01*
X175768000Y-137160000D01*
G37*
X175768000Y-137160000D02*
X174498000Y-138430000D01*
X95758000Y-138430000D01*
X94488000Y-137160000D01*
X94488000Y-131064000D01*
X175768000Y-131064000D01*
X175768000Y-137160000D01*
D11*
%TO.C,BUS1*%
X173228000Y-135001000D03*
X170688000Y-135001000D03*
X168148000Y-135001000D03*
X165608000Y-135001000D03*
X163068000Y-135001000D03*
X160528000Y-135001000D03*
X157988000Y-135001000D03*
X155448000Y-135001000D03*
X152908000Y-135001000D03*
X150368000Y-135001000D03*
X147828000Y-135001000D03*
X145288000Y-135001000D03*
X142748000Y-135001000D03*
X140208000Y-135001000D03*
X137668000Y-135001000D03*
X135128000Y-135001000D03*
X132588000Y-135001000D03*
X130048000Y-135001000D03*
X127508000Y-135001000D03*
X124968000Y-135001000D03*
X122428000Y-135001000D03*
X119888000Y-135001000D03*
X117348000Y-135001000D03*
X114808000Y-135001000D03*
X112268000Y-135001000D03*
X109728000Y-135001000D03*
X107188000Y-135001000D03*
X104648000Y-135001000D03*
X102108000Y-135001000D03*
X99568000Y-135001000D03*
X97028000Y-135001000D03*
%TD*%
D12*
%TO.C,F1*%
X193929000Y-69850000D03*
X193929000Y-126365000D03*
%TD*%
D13*
%TO.C,R4*%
X144780000Y-75120500D03*
X144780000Y-85280500D03*
%TD*%
%TO.C,C15*%
X85344000Y-54864000D03*
X85344000Y-59944000D03*
%TD*%
%TO.C,C32*%
X85344000Y-34036000D03*
X85344000Y-39116000D03*
%TD*%
%TO.C,R10*%
X172720000Y-40386000D03*
X172720000Y-30226000D03*
%TD*%
D14*
%TO.C,S2*%
X191676000Y-100584000D03*
D15*
X187176000Y-100584000D03*
%TD*%
D13*
%TO.C,C13*%
X152654000Y-111696500D03*
X157734000Y-111696500D03*
%TD*%
D16*
%TO.C,RP1*%
X187938598Y-61329402D03*
D17*
X195762000Y-56506000D03*
X186762000Y-56506000D03*
D16*
X191262000Y-62706000D03*
X194585402Y-61329402D03*
%TD*%
D13*
%TO.C,R1*%
X190627000Y-35687000D03*
X190627000Y-45847000D03*
%TD*%
D18*
%TO.C,IC6*%
X113411000Y-99187000D03*
D19*
X110871000Y-99187000D03*
X108331000Y-99187000D03*
X105791000Y-99187000D03*
X103251000Y-99187000D03*
X100711000Y-99187000D03*
X98171000Y-99187000D03*
X95631000Y-99187000D03*
X95631000Y-106807000D03*
X98171000Y-106807000D03*
X100711000Y-106807000D03*
X103251000Y-106807000D03*
X105791000Y-106807000D03*
X108331000Y-106807000D03*
X110871000Y-106807000D03*
X113411000Y-106807000D03*
%TD*%
D13*
%TO.C,C21*%
X85598000Y-96266000D03*
X85598000Y-101346000D03*
%TD*%
%TO.C,R7*%
X142494000Y-44704000D03*
X152654000Y-44704000D03*
%TD*%
%TO.C,ZD1*%
X136245600Y-57048400D03*
X136245600Y-46888400D03*
%TD*%
D18*
%TO.C,IC3*%
X165608000Y-33147000D03*
D19*
X163068000Y-33147000D03*
X160528000Y-33147000D03*
X157988000Y-33147000D03*
X155448000Y-33147000D03*
X152908000Y-33147000D03*
X150368000Y-33147000D03*
X147828000Y-33147000D03*
X145288000Y-33147000D03*
X145288000Y-40767000D03*
X147828000Y-40767000D03*
X150368000Y-40767000D03*
X152908000Y-40767000D03*
X155448000Y-40767000D03*
X157988000Y-40767000D03*
X160528000Y-40767000D03*
X163068000Y-40767000D03*
X165608000Y-40767000D03*
%TD*%
D16*
%TO.C,C9*%
X166433500Y-106108500D03*
X166433500Y-111188500D03*
%TD*%
%TO.C,C23*%
X176466500Y-41465500D03*
X176466500Y-38925500D03*
%TD*%
D13*
%TO.C,R9*%
X91948000Y-62484000D03*
X91948000Y-52324000D03*
%TD*%
%TO.C,R6*%
X118110000Y-52324000D03*
X107950000Y-52324000D03*
%TD*%
%TO.C,C33*%
X132791200Y-55575200D03*
X132791200Y-50495200D03*
%TD*%
%TO.C,C8*%
X170434000Y-101282500D03*
X170434000Y-96202500D03*
%TD*%
D16*
%TO.C,C17*%
X181038500Y-41465500D03*
X181038500Y-38925500D03*
%TD*%
D18*
%TO.C,S3*%
X189040000Y-87503000D03*
X194040000Y-82503000D03*
X194040000Y-92503000D03*
D20*
X194040000Y-87503000D03*
X189040000Y-82503000D03*
X189040000Y-92503000D03*
%TD*%
D18*
%TO.C,IC1*%
X158496000Y-97980500D03*
D19*
X158496000Y-95440500D03*
X158496000Y-92900500D03*
X158496000Y-90360500D03*
X158496000Y-87820500D03*
X158496000Y-85280500D03*
X158496000Y-82740500D03*
X158496000Y-80200500D03*
X150876000Y-80200500D03*
X150876000Y-82740500D03*
X150876000Y-85280500D03*
X150876000Y-87820500D03*
X150876000Y-90360500D03*
X150876000Y-92900500D03*
X150876000Y-95440500D03*
X150876000Y-97980500D03*
%TD*%
D13*
%TO.C,C28*%
X118364000Y-57912000D03*
X123444000Y-57912000D03*
%TD*%
%TO.C,C22*%
X187960000Y-75184000D03*
X193040000Y-75184000D03*
%TD*%
%TO.C,R13*%
X165354000Y-30226000D03*
X155194000Y-30226000D03*
%TD*%
D16*
%TO.C,C29*%
X177038000Y-123698000D03*
X177038000Y-126238000D03*
%TD*%
%TO.C,C7*%
X156972000Y-107188000D03*
X151892000Y-107188000D03*
%TD*%
D13*
%TO.C,C37*%
X173228000Y-127000000D03*
X168148000Y-127000000D03*
%TD*%
D18*
%TO.C,IC9*%
X81153000Y-74422000D03*
D19*
X78613000Y-74422000D03*
X76073000Y-74422000D03*
X73533000Y-74422000D03*
X70993000Y-74422000D03*
X68453000Y-74422000D03*
X65913000Y-74422000D03*
X65913000Y-82042000D03*
X68453000Y-82042000D03*
X70993000Y-82042000D03*
X73533000Y-82042000D03*
X76073000Y-82042000D03*
X78613000Y-82042000D03*
X81153000Y-82042000D03*
%TD*%
D13*
%TO.C,R11*%
X187325000Y-35687000D03*
X187325000Y-45847000D03*
%TD*%
%TO.C,C27*%
X88138000Y-117094000D03*
X88138000Y-122174000D03*
%TD*%
D21*
%TO.C,RN1*%
X112522000Y-81026000D03*
D19*
X112522000Y-78486000D03*
X112522000Y-75946000D03*
X112522000Y-73406000D03*
X112522000Y-70866000D03*
X112522000Y-68326000D03*
X112522000Y-65786000D03*
X112522000Y-63246000D03*
%TD*%
D18*
%TO.C,IC7*%
X83693000Y-115697000D03*
D19*
X81153000Y-115697000D03*
X78613000Y-115697000D03*
X76073000Y-115697000D03*
X73533000Y-115697000D03*
X70993000Y-115697000D03*
X68453000Y-115697000D03*
X65913000Y-115697000D03*
X65913000Y-123317000D03*
X68453000Y-123317000D03*
X70993000Y-123317000D03*
X73533000Y-123317000D03*
X76073000Y-123317000D03*
X78613000Y-123317000D03*
X81153000Y-123317000D03*
X83693000Y-123317000D03*
%TD*%
D13*
%TO.C,R2*%
X194056000Y-35687000D03*
X194056000Y-45847000D03*
%TD*%
D16*
%TO.C,C1*%
X146812000Y-71120000D03*
X146812000Y-68580000D03*
%TD*%
D18*
%TO.C,IC8*%
X81153000Y-95059500D03*
D19*
X78613000Y-95059500D03*
X76073000Y-95059500D03*
X73533000Y-95059500D03*
X70993000Y-95059500D03*
X68453000Y-95059500D03*
X65913000Y-95059500D03*
X65913000Y-102679500D03*
X68453000Y-102679500D03*
X70993000Y-102679500D03*
X73533000Y-102679500D03*
X76073000Y-102679500D03*
X78613000Y-102679500D03*
X81153000Y-102679500D03*
%TD*%
D18*
%TO.C,IC2*%
X165608000Y-49276000D03*
D19*
X163068000Y-49276000D03*
X160528000Y-49276000D03*
X157988000Y-49276000D03*
X155448000Y-49276000D03*
X152908000Y-49276000D03*
X150368000Y-49276000D03*
X147828000Y-49276000D03*
X145288000Y-49276000D03*
X145288000Y-56896000D03*
X147828000Y-56896000D03*
X150368000Y-56896000D03*
X152908000Y-56896000D03*
X155448000Y-56896000D03*
X157988000Y-56896000D03*
X160528000Y-56896000D03*
X163068000Y-56896000D03*
X165608000Y-56896000D03*
%TD*%
D13*
%TO.C,C26*%
X178943000Y-55880000D03*
X178943000Y-60960000D03*
%TD*%
D16*
%TO.C,C3*%
X144589500Y-96202500D03*
X144589500Y-101282500D03*
%TD*%
D13*
%TO.C,C25*%
X175260000Y-55880000D03*
X175260000Y-60960000D03*
%TD*%
%TO.C,R3*%
X164338000Y-75120500D03*
X164338000Y-85280500D03*
%TD*%
D16*
%TO.C,C11*%
X162877500Y-72390000D03*
X162877500Y-69850000D03*
%TD*%
D13*
%TO.C,C16*%
X85344000Y-75692000D03*
X85344000Y-80772000D03*
%TD*%
%TO.C,R5*%
X142494000Y-30226000D03*
X152654000Y-30226000D03*
%TD*%
%TO.C,C19*%
X169037000Y-60706000D03*
X163957000Y-60706000D03*
%TD*%
%TO.C,C38*%
X186944000Y-123952000D03*
X186944000Y-129032000D03*
%TD*%
%TO.C,C18*%
X160528000Y-44450000D03*
X165608000Y-44450000D03*
%TD*%
D16*
%TO.C,C10*%
X167830500Y-85471000D03*
X167830500Y-82931000D03*
%TD*%
D18*
%TO.C,IC10*%
X81153000Y-53784500D03*
D19*
X78613000Y-53784500D03*
X76073000Y-53784500D03*
X73533000Y-53784500D03*
X70993000Y-53784500D03*
X68453000Y-53784500D03*
X65913000Y-53784500D03*
X65913000Y-61404500D03*
X68453000Y-61404500D03*
X70993000Y-61404500D03*
X73533000Y-61404500D03*
X76073000Y-61404500D03*
X78613000Y-61404500D03*
X81153000Y-61404500D03*
%TD*%
D14*
%TO.C,S1*%
X191676000Y-115824000D03*
D15*
X187176000Y-115824000D03*
%TD*%
D13*
%TO.C,R19*%
X88646000Y-62484000D03*
X88646000Y-52324000D03*
%TD*%
%TO.C,C24*%
X170561000Y-42672000D03*
X170561000Y-47752000D03*
%TD*%
%TO.C,C31*%
X138176000Y-66040000D03*
X138176000Y-71120000D03*
%TD*%
%TO.C,C36*%
X173355000Y-42672000D03*
X173355000Y-47752000D03*
%TD*%
D16*
%TO.C,C6*%
X164401500Y-96202500D03*
X164401500Y-101282500D03*
%TD*%
D13*
%TO.C,C20*%
X107569000Y-57912000D03*
X102489000Y-57912000D03*
%TD*%
D18*
%TO.C,IC12*%
X81153000Y-33147000D03*
D19*
X78613000Y-33147000D03*
X76073000Y-33147000D03*
X73533000Y-33147000D03*
X70993000Y-33147000D03*
X68453000Y-33147000D03*
X65913000Y-33147000D03*
X65913000Y-40767000D03*
X68453000Y-40767000D03*
X70993000Y-40767000D03*
X73533000Y-40767000D03*
X76073000Y-40767000D03*
X78613000Y-40767000D03*
X81153000Y-40767000D03*
%TD*%
D13*
%TO.C,R12*%
X184023000Y-35687000D03*
X184023000Y-45847000D03*
%TD*%
D18*
%TO.C,IC4*%
X124714000Y-84963000D03*
D19*
X124714000Y-82423000D03*
X124714000Y-79883000D03*
X124714000Y-77343000D03*
X124714000Y-74803000D03*
X124714000Y-72263000D03*
X124714000Y-69723000D03*
X124714000Y-67183000D03*
X124714000Y-64643000D03*
X124714000Y-62103000D03*
X117094000Y-62103000D03*
X117094000Y-64643000D03*
X117094000Y-67183000D03*
X117094000Y-69723000D03*
X117094000Y-72263000D03*
X117094000Y-74803000D03*
X117094000Y-77343000D03*
X117094000Y-79883000D03*
X117094000Y-82423000D03*
X117094000Y-84963000D03*
%TD*%
D13*
%TO.C,C35*%
X88392000Y-80772000D03*
X88392000Y-75692000D03*
%TD*%
D16*
%TO.C,C5*%
X141732000Y-106108500D03*
X141732000Y-111188500D03*
%TD*%
D13*
%TO.C,R8*%
X141478000Y-71628000D03*
X141478000Y-61468000D03*
%TD*%
%TO.C,C4*%
X138176000Y-101282500D03*
X138176000Y-96202500D03*
%TD*%
D16*
%TO.C,C2*%
X139954000Y-85090000D03*
X139954000Y-82550000D03*
%TD*%
%TO.C,C34*%
X133438900Y-42329100D03*
X130898900Y-42329100D03*
%TD*%
%TO.C,C30*%
X84328000Y-127762000D03*
X81788000Y-127762000D03*
%TD*%
%TO.C,C12*%
X156972000Y-73914000D03*
X151892000Y-73914000D03*
%TD*%
D18*
%TO.C,IC5*%
X108712000Y-84963000D03*
D19*
X108712000Y-82423000D03*
X108712000Y-79883000D03*
X108712000Y-77343000D03*
X108712000Y-74803000D03*
X108712000Y-72263000D03*
X108712000Y-69723000D03*
X108712000Y-67183000D03*
X108712000Y-64643000D03*
X108712000Y-62103000D03*
X101092000Y-62103000D03*
X101092000Y-64643000D03*
X101092000Y-67183000D03*
X101092000Y-69723000D03*
X101092000Y-72263000D03*
X101092000Y-74803000D03*
X101092000Y-77343000D03*
X101092000Y-79883000D03*
X101092000Y-82423000D03*
X101092000Y-84963000D03*
%TD*%
D17*
%TO.C,L1*%
X182245000Y-115824000D03*
X169545000Y-115824000D03*
%TD*%
D13*
%TO.C,C14*%
X117602000Y-100330000D03*
X117602000Y-105410000D03*
%TD*%
D16*
%TO.C,J1*%
X95631000Y-115697000D03*
X95631000Y-113157000D03*
X98171000Y-115697000D03*
X98171000Y-113157000D03*
X100711000Y-115697000D03*
X100711000Y-113157000D03*
X103251000Y-115697000D03*
X103251000Y-113157000D03*
X105791000Y-115697000D03*
X105791000Y-113157000D03*
X108331000Y-115697000D03*
X108331000Y-113157000D03*
%TD*%
D17*
%TO.C,L2*%
X187198000Y-108204000D03*
X174498000Y-108204000D03*
%TD*%
M02*
